<?xml version="1.0" standalone="no"?>
<!DOCTYPE svg PUBLIC "-//W3C//DTD SVG 20010904//EN"
 "http://www.w3.org/TR/2001/REC-SVG-20010904/DTD/svg10.dtd">
<svg version="1.0" xmlns="http://www.w3.org/2000/svg"
 width="563.000000pt" height="273.000000pt" viewBox="0 0 563.000000 273.000000"
 preserveAspectRatio="xMidYMid meet">

<g transform="translate(0.000000,273.000000) scale(0.100000,-0.100000)"
fill="#000000" stroke="none">
<path d="M1688 1713 c18 -2 45 -2 60 0 15 2 0 4 -33 4 -33 0 -45 -2 -27 -4z"/>
<path d="M3533 1713 c15 -2 39 -2 55 0 15 2 2 4 -28 4 -30 0 -43 -2 -27 -4z"/>
<path d="M3928 1713 c12 -2 30 -2 40 0 9 3 -1 5 -23 4 -22 0 -30 -2 -17 -4z"/>
<path d="M4378 1713 c18 -2 45 -2 60 0 15 2 0 4 -33 4 -33 0 -45 -2 -27 -4z"/>
<path d="M4528 1713 c18 -2 45 -2 60 0 15 2 0 4 -33 4 -33 0 -45 -2 -27 -4z"/>
<path d="M1233 1703 c9 -2 25 -2 35 0 9 3 1 5 -18 5 -19 0 -27 -2 -17 -5z"/>
<path d="M1410 1702 l125 -3 25 -56 c14 -31 27 -61 29 -67 2 -6 -20 11 -50 37
-61 54 -98 67 -186 67 l-63 0 0 -105 c0 -58 4 -105 8 -105 5 0 17 10 28 21 10
12 33 30 49 40 17 11 25 19 19 19 -5 0 -19 -7 -30 -15 -10 -8 -22 -15 -26 -15
-14 0 -8 70 7 100 14 26 13 30 -3 40 -13 8 -3 10 45 7 55 -3 67 -8 118 -48 32
-24 66 -48 76 -54 17 -9 19 -23 19 -151 0 -121 -2 -144 -17 -155 -15 -12 -16
-12 -9 6 21 51 16 55 -10 8 l-28 -53 -195 -2 c-108 0 -181 -3 -162 -5 19 -3
40 -11 48 -19 22 -22 151 -16 137 7 -3 5 27 9 66 9 41 0 69 -4 66 -9 -9 -14
50 -24 73 -11 11 6 25 19 31 30 13 24 31 25 68 6 42 -21 72 -5 70 38 l-1 35
-36 -25 c-43 -29 -67 -30 -81 -5 -6 12 -10 94 -10 198 0 101 -4 172 -9 165 -6
-10 -14 -5 -30 21 -11 19 -21 39 -21 46 0 8 -39 10 -132 9 l-133 -2 125 -4z"/>
<path d="M1624 1685 c-9 -14 -15 -27 -13 -30 3 -2 12 10 21 26 21 36 15 39 -8
4z"/>
<path d="M3458 1703 c7 -3 16 -2 19 1 4 3 -2 6 -13 5 -11 0 -14 -3 -6 -6z"/>
<path d="M3638 1687 c28 -29 57 -96 78 -180 9 -37 18 -66 19 -65 8 7 44 112
41 116 -2 2 -7 -6 -11 -17 -10 -32 -19 -26 -38 27 -19 53 -81 142 -99 142 -6
0 -2 -10 10 -23z"/>
<path d="M3863 1695 c-21 -15 -83 -105 -83 -121 0 -4 16 17 36 49 20 31 48 64
62 72 15 8 22 14 17 15 -6 0 -20 -7 -32 -15z"/>
<path d="M4314 1685 c-9 -14 -15 -27 -13 -30 3 -2 12 10 21 26 21 36 15 39 -8
4z"/>
<path d="M4476 1703 c-4 -5 -11 -8 -14 -9 -4 -1 -26 -9 -49 -19 l-43 -18 0
-179 c0 -177 0 -179 21 -176 21 3 21 8 20 143 -2 111 1 144 13 160 14 18 15 4
16 -153 0 -173 7 -212 36 -212 8 0 25 -6 37 -14 36 -23 67 -5 65 38 l-1 35
-36 -25 c-43 -29 -67 -30 -81 -5 -6 12 -10 94 -10 198 0 160 2 181 20 211 19
31 21 40 6 25z"/>
<path d="M1148 1693 c6 -2 18 -2 25 0 6 3 1 5 -13 5 -14 0 -19 -2 -12 -5z"/>
<path d="M1723 1676 l-43 -20 0 -179 c0 -176 0 -178 21 -175 21 3 21 8 20 145
l-2 141 31 35 c17 20 26 38 21 42 -6 3 -8 12 -4 20 3 8 4 14 2 13 -2 0 -23
-10 -46 -22z"/>
<path d="M3900 1672 c-37 -37 -46 -88 -29 -165 26 -125 139 -301 220 -342 37
-20 49 -19 21 1 -30 21 -28 29 15 55 41 26 72 27 108 3 18 -12 28 -13 44 -4
12 6 21 15 21 20 0 6 17 3 38 -6 65 -29 105 -13 95 38 l-5 27 -36 -24 c-44
-30 -68 -32 -82 -6 -5 11 -11 84 -12 163 l-2 143 -6 -140 c-5 -130 -6 -133 -8
-44 -1 72 -6 100 -17 109 -8 7 -15 23 -15 36 0 23 -3 24 -67 24 -38 0 -73 -4
-80 -8 -6 -4 22 -6 63 -4 l74 4 0 -131 c0 -129 0 -131 23 -131 l22 0 -25 -20
c-47 -37 -90 -18 -90 40 0 18 -5 16 -51 -20 -28 -22 -61 -40 -73 -40 -27 0
-51 25 -60 63 -4 15 -10 25 -15 23 -11 -7 -48 85 -60 147 -9 50 -3 96 18 136
16 28 6 39 -19 23 -11 -7 -20 -8 -20 -4 0 13 43 50 65 55 18 4 17 5 -3 6 -14
1 -36 -11 -52 -27z"/>
<path d="M4563 1676 l-43 -20 0 -179 c0 -176 0 -178 21 -175 21 3 21 8 20 145
l-2 141 31 35 c17 20 26 38 21 42 -6 3 -8 12 -4 20 3 8 4 14 2 13 -2 0 -23
-10 -46 -22z"/>
<path d="M3363 1668 c-32 -23 -73 -84 -73 -109 0 -8 9 4 19 26 18 40 48 73 86
93 11 6 15 12 10 12 -6 0 -25 -10 -42 -22z"/>
<path d="M3513 1681 c41 -9 39 -8 55 -36 8 -14 11 -15 12 -5 0 29 -17 42 -61
45 -44 4 -44 4 -6 -4z"/>
<path d="M3985 1680 c3 -5 11 -10 16 -10 6 0 7 5 4 10 -3 6 -11 10 -16 10 -6
0 -7 -4 -4 -10z"/>
<path d="M1058 1653 c-29 -32 -48 -65 -48 -85 0 -7 9 5 19 28 10 22 31 50 46
62 15 12 23 22 18 22 -5 0 -21 -12 -35 -27z"/>
<path d="M3448 1673 c7 -3 16 -2 19 1 4 3 -2 6 -13 5 -11 0 -14 -3 -6 -6z"/>
<path d="M1138 1663 c7 -3 16 -2 19 1 4 3 -2 6 -13 5 -11 0 -14 -3 -6 -6z"/>
<path d="M1217 1664 c8 -4 8 -14 -3 -39 -8 -19 -14 -40 -13 -47 0 -7 7 5 15
26 8 21 19 45 25 52 9 11 7 14 -12 13 -13 0 -19 -3 -12 -5z"/>
<path d="M3385 1648 c-70 -55 -72 -182 -3 -255 23 -25 17 -43 -17 -43 -15 0
-30 11 -44 33 -11 17 -21 27 -21 22 0 -19 31 -55 60 -70 64 -33 77 -8 35 71
-26 49 -32 105 -15 148 14 37 -5 32 -24 -6 -15 -31 -16 -32 -16 -8 0 36 30 87
65 110 17 11 25 20 19 20 -6 0 -24 -10 -39 -22z"/>
<path d="M1088 1643 c-9 -10 -21 -28 -27 -40 -14 -27 -14 -123 0 -160 12 -32
54 -80 84 -95 12 -6 6 5 -15 26 -34 36 -35 39 -35 122 0 46 -1 84 -2 84 -1 0
-9 -12 -17 -27 l-15 -28 -1 30 c0 31 21 69 50 92 8 7 10 13 4 13 -6 0 -18 -8
-26 -17z"/>
<path d="M2395 1630 c-4 -11 -25 -40 -48 -62 -40 -40 -40 -40 -7 -16 35 25 77
84 67 94 -3 3 -8 -4 -12 -16z"/>
<path d="M2422 1598 c-2 -47 -2 -48 29 -48 27 0 30 -2 19 -15 -7 -8 -21 -15
-31 -15 -17 0 -19 -9 -19 -111 0 -109 0 -110 23 -107 20 3 22 7 19 58 -4 70 6
95 59 148 57 58 83 55 87 -10 l3 -47 48 50 c54 56 95 66 110 27 11 -31 5 -47
-34 -93 l-34 -40 -1 43 c0 51 -15 54 -56 11 -25 -26 -30 -40 -34 -101 -5 -68
-6 -71 -40 -90 -33 -19 -33 -20 -7 -15 15 2 27 1 27 -3 0 -4 7 -10 15 -14 23
-8 45 22 46 62 0 20 5 53 12 72 11 33 14 35 62 36 28 1 55 2 60 4 6 1 13 2 16
2 4 -1 9 13 13 30 3 16 23 48 45 69 21 22 35 39 30 39 -5 0 -24 -16 -43 -34
-22 -23 -36 -31 -40 -23 -42 83 -70 93 -134 47 -49 -35 -52 -36 -52 -12 0 22
-19 42 -40 42 -8 0 -32 -13 -51 -30 -39 -32 -52 -30 -43 5 5 18 0 23 -25 28
-26 5 -30 11 -34 44 -3 35 -4 35 -5 -9z"/>
<path d="M3583 1570 c0 -30 2 -43 4 -27 2 15 2 39 0 55 -2 15 -4 2 -4 -28z"/>
<path d="M1435 1553 c41 -6 65 -30 65 -67 0 -22 3 -27 9 -17 12 19 -6 69 -29
81 -10 6 -31 9 -47 9 l-28 -2 30 -4z"/>
<path d="M1908 1553 c12 -2 30 -2 40 0 9 3 -1 5 -23 4 -22 0 -30 -2 -17 -4z"/>
<path d="M2181 1556 c2 -2 24 -6 48 -9 29 -4 40 -2 30 4 -13 8 -88 14 -78 5z"/>
<path d="M2923 1552 c-6 -4 22 -6 63 -4 l74 4 0 -131 c0 -129 0 -131 23 -131
22 0 22 0 -3 -20 -47 -37 -90 -18 -90 40 0 18 -5 16 -51 -20 -56 -44 -82 -49
-112 -22 -13 11 -18 12 -16 4 3 -8 25 -25 51 -40 l46 -26 43 19 c47 21 70 21
104 -1 12 -8 29 -12 38 -8 14 5 15 23 10 132 -3 82 -10 135 -19 149 -8 12 -14
31 -14 43 0 18 -6 20 -67 20 -38 0 -73 -4 -80 -8z"/>
<path d="M1194 1415 c0 -77 2 -107 3 -67 2 40 2 103 0 140 -2 37 -3 4 -3 -73z"/>
<path d="M1826 1529 c-14 -11 -33 -34 -41 -49 -23 -45 -17 -49 8 -6 12 21 38
47 57 57 19 11 27 19 19 19 -9 0 -28 -9 -43 -21z"/>
<path d="M1997 1526 l28 -25 -84 -85 c-72 -73 -83 -87 -71 -100 16 -20 77 -20
110 0 17 10 18 13 5 9 -46 -16 -55 -17 -55 -5 0 6 24 34 53 61 l52 48 5 -37 6
-37 6 49 c7 54 29 90 78 124 18 12 29 22 24 22 -17 0 -66 -38 -84 -64 l-17
-27 -17 35 c-9 20 -25 40 -36 46 -31 17 -33 11 -3 -14z m-57 -151 c-7 -8 -17
-15 -23 -15 -5 0 -2 9 8 20 21 23 35 19 15 -5z"/>
<path d="M2294 1519 c16 -26 16 -28 -7 -55 l-24 -28 -35 37 c-20 20 -41 37
-47 37 -70 0 -95 -142 -34 -190 14 -11 31 -20 37 -20 6 0 3 5 -6 11 -27 15
-25 102 2 129 22 22 36 25 45 10 4 -6 22 -17 41 -25 47 -19 84 -4 84 36 0 15
3 34 6 43 5 12 -1 16 -23 16 -16 0 -35 6 -42 13 -8 6 -6 0 3 -14z m51 -19 c-3
-5 -10 -10 -16 -10 -5 0 -9 5 -9 10 0 6 7 10 16 10 8 0 12 -4 9 -10z m-175 -9
c0 -5 -7 -12 -16 -15 -14 -5 -15 -4 -4 9 14 17 20 19 20 6z"/>
<path d="M4045 1522 c-25 -21 -55 -63 -55 -77 0 -5 9 4 19 21 10 17 31 40 46
52 15 12 24 22 19 22 -5 -1 -18 -8 -29 -18z"/>
<path d="M2915 1498 c-61 -56 -59 -158 3 -158 27 1 70 25 60 35 -3 3 -11 -1
-18 -10 -19 -23 -40 -18 -40 10 0 35 27 85 45 85 9 0 15 10 15 25 0 14 0 28 1
33 1 20 -34 10 -66 -20z m55 14 c0 -5 -12 -14 -27 -21 -28 -13 -28 -13 -9 8
20 22 36 27 36 13z"/>
<path d="M3602 1465 c-24 -129 -90 -261 -151 -302 -49 -33 -86 -30 -127 11
-36 36 -44 35 -19 -1 8 -11 36 -33 61 -48 80 -47 144 -22 194 78 38 76 40 103
4 62 -17 -21 -23 -24 -18 -10 33 88 64 183 64 198 0 9 5 17 10 17 6 0 10 -13
10 -30 0 -16 4 -30 9 -30 5 0 20 -28 34 -62 24 -60 27 -63 58 -63 30 0 35 4
49 42 8 23 18 44 21 48 3 3 16 -21 27 -52 45 -121 145 -211 244 -221 36 -3 53
-1 59 9 10 17 -17 27 -79 28 -62 1 -102 22 -150 76 -50 57 -80 132 -97 240
l-12 80 -40 -125 -41 -125 -25 55 c-13 30 -33 82 -43 115 -10 33 -20 63 -24
67 -3 4 -11 -21 -18 -57z"/>
<path d="M4095 1498 c-61 -56 -59 -158 3 -158 27 1 70 25 60 35 -3 3 -11 -1
-18 -10 -19 -23 -40 -18 -40 10 0 35 27 85 45 85 9 0 15 10 15 25 0 14 0 28 1
33 1 20 -34 10 -66 -20z m55 14 c0 -5 -12 -14 -27 -21 -28 -13 -28 -13 -9 8
20 22 36 27 36 13z"/>
<path d="M1405 1502 c-37 -23 -93 -86 -106 -119 -11 -30 -12 -103 0 -121 4 -7
31 -14 62 -16 30 -2 37 -1 16 1 -45 5 -54 21 -39 71 20 65 109 161 134 146 5
-4 8 7 6 22 -4 36 -31 42 -73 16z"/>
<path d="M1860 1490 c-18 -18 -25 -49 -21 -90 5 -40 12 -40 51 4 39 46 42 62
17 94 -13 17 -24 15 -47 -8z"/>
<path d="M2516 1482 c-2 -4 4 -8 14 -8 10 0 16 4 14 8 -3 4 -9 8 -14 8 -5 0
-11 -4 -14 -8z"/>
<path d="M3571 1464 c0 -11 3 -14 6 -6 3 7 2 16 -1 19 -3 4 -6 -2 -5 -13z"/>
<path d="M3291 1434 c0 -11 3 -14 6 -6 3 7 2 16 -1 19 -3 4 -6 -2 -5 -13z"/>
<path d="M3981 1414 c0 -11 3 -14 6 -6 3 7 2 16 -1 19 -3 4 -6 -2 -5 -13z"/>
<path d="M1020 1416 c0 -40 95 -115 128 -101 13 6 4 12 -33 24 -35 11 -56 26
-72 50 -13 19 -23 31 -23 27z"/>
<path d="M1763 1370 c0 -30 2 -43 4 -27 2 15 2 39 0 55 -2 15 -4 2 -4 -28z"/>
<path d="M3520 1322 c-14 -26 -40 -57 -59 -69 -19 -13 -29 -23 -23 -23 20 0
73 52 93 92 11 22 19 41 17 43 -2 2 -15 -17 -28 -43z"/>
<path d="M1530 1301 c-19 -19 -26 -29 -15 -24 22 12 61 52 54 56 -2 1 -20 -13
-39 -32z"/>
<path d="M2051 1309 c-2 -40 87 -99 149 -99 43 0 82 25 62 38 -10 7 -10 11 3
22 8 7 15 17 15 23 0 6 -11 0 -25 -13 -33 -31 -123 -40 -160 -16 -15 10 -30
27 -35 39 -6 15 -9 17 -9 6z"/>
<path d="M1770 1304 c0 -33 90 -94 138 -94 16 0 43 5 60 11 32 11 52 39 27 39
-20 0 -19 9 3 34 17 21 17 21 -3 5 -70 -57 -150 -65 -196 -20 -16 16 -29 27
-29 25z"/>
<path d="M2469 1294 c-16 -19 -63 -44 -84 -44 -9 0 -20 10 -25 23 -5 13 -9 16
-9 7 -1 -21 19 -40 41 -40 10 0 18 -4 18 -10 0 -14 56 -12 67 3 9 10 15 77 8
77 -2 0 -8 -7 -16 -16z"/>
<path d="M2208 1293 c6 -2 18 -2 25 0 6 3 1 5 -13 5 -14 0 -19 -2 -12 -5z"/>
<path d="M1169 1253 c-13 -16 -12 -17 4 -4 9 7 17 15 17 17 0 8 -8 3 -21 -13z"/>
<path d="M1455 1260 c-13 -6 -15 -9 -5 -9 8 0 22 4 30 9 18 12 2 12 -25 0z"/>
<path d="M3300 1262 c0 -18 55 -42 92 -41 30 1 30 2 -9 8 -23 4 -51 16 -63 26
-11 10 -20 13 -20 7z"/>
<path d="M3281 1234 c0 -11 3 -14 6 -6 3 7 2 16 -1 19 -3 4 -6 -2 -5 -13z"/>
</g>
</svg>
