<svg xmlns="http://www.w3.org/2000/svg" shape-rendering="geometricPrecision" text-rendering="geometricPrecision" image-rendering="optimizeQuality" fill-rule="evenodd" clip-rule="evenodd" viewBox="0 0 512 209.918"><path fill="#0C6EB7" fill-rule="nonzero" d="M26.894 37.581h244.721v-.941c0-5.751 4.686-10.437 10.436-10.437h2.304c.511-2.368 1.2-4.558 1.878-6.711 1.521-4.835 2.964-9.423.742-15.619L297.782 0c3.54 9.872 1.543 16.221-.563 22.913-.339 1.079-.682 2.17-.992 3.29h.805c5.736 0 10.436 4.708 10.436 10.437v.941h34.421c7.401 0 14.126 3.025 18.997 7.896 4.872 4.873 7.897 11.599 7.897 18.998v117.863c0 14.8-12.094 26.895-26.894 26.895H26.894C12.093 209.233 0 197.14 0 182.338V64.475c0-14.804 12.09-26.894 26.894-26.894z"/><path fill="#309EFF" d="M26.894 42.988h250.128V36.64a5.044 5.044 0 015.029-5.029h14.981c2.767 0 5.029 2.277 5.029 5.029v6.348h39.828c11.818 0 21.487 9.675 21.487 21.487v117.863c0 11.815-9.672 21.488-21.487 21.488H26.894c-11.815 0-21.487-9.669-21.487-21.488V64.475c0-11.818 9.669-21.487 21.487-21.487z"/><path fill="#0C6EB7" fill-rule="nonzero" d="M34.748 69.544h23.316a4.326 4.326 0 014.326 4.326v19.658a4.326 4.326 0 01-4.326 4.326H34.748a4.327 4.327 0 01-4.326-4.326V73.87a4.327 4.327 0 014.326-4.326zm230.876 85.491h23.316a4.327 4.327 0 014.326 4.326v19.658a4.326 4.326 0 01-4.326 4.326h-23.316a4.327 4.327 0 01-4.326-4.326v-19.658a4.328 4.328 0 014.326-4.326zm-46.175 0h23.316a4.327 4.327 0 014.326 4.326v19.658a4.326 4.326 0 01-4.326 4.326h-23.316a4.326 4.326 0 01-4.326-4.326v-19.658a4.327 4.327 0 014.326-4.326zm-138.526 0h115.666c2.364 0 4.282 1.938 4.282 4.326v19.658c0 2.389-1.918 4.326-4.282 4.326H80.923c-2.364 0-4.282-1.937-4.282-4.326v-19.658c0-2.388 1.918-4.326 4.282-4.326zm-46.175 0h23.316a4.327 4.327 0 014.326 4.326v19.658a4.326 4.326 0 01-4.326 4.326H34.748a4.327 4.327 0 01-4.326-4.326v-19.658a4.328 4.328 0 014.326-4.326zm230.876-42.517h23.316a4.326 4.326 0 014.326 4.326v19.658a4.326 4.326 0 01-4.326 4.326h-23.316a4.327 4.327 0 01-4.326-4.326v-19.658a4.327 4.327 0 014.326-4.326zm-46.175 0h23.316a4.326 4.326 0 014.326 4.326v19.658a4.326 4.326 0 01-4.326 4.326h-23.316a4.326 4.326 0 01-4.326-4.326v-19.658a4.326 4.326 0 014.326-4.326zm-46.175 0h23.316a4.326 4.326 0 014.326 4.326v19.658a4.326 4.326 0 01-4.326 4.326h-23.316a4.326 4.326 0 01-4.326-4.326v-19.658a4.326 4.326 0 014.326-4.326zm-46.175 0h23.316a4.326 4.326 0 014.326 4.326v19.658a4.326 4.326 0 01-4.326 4.326h-23.316a4.326 4.326 0 01-4.326-4.326v-19.658a4.326 4.326 0 014.326-4.326zm-46.176 0h23.317a4.327 4.327 0 014.326 4.326v19.658a4.327 4.327 0 01-4.326 4.326H80.923a4.327 4.327 0 01-4.326-4.326v-19.658a4.327 4.327 0 014.326-4.326zm-46.175 0h23.316a4.326 4.326 0 014.326 4.326v19.658a4.326 4.326 0 01-4.326 4.326H34.748a4.327 4.327 0 01-4.326-4.326v-19.658a4.327 4.327 0 014.326-4.326zm277.051-.465h23.317c2.369 0 4.291 1.94 4.291 4.334v62.175c0 2.394-1.922 4.335-4.291 4.335h-23.317c-2.369 0-4.291-1.941-4.291-4.335v-62.175c0-2.394 1.922-4.334 4.291-4.334zm0-42.509h23.317a4.327 4.327 0 014.326 4.326v19.658a4.327 4.327 0 01-4.326 4.326h-23.317a4.327 4.327 0 01-4.326-4.326V73.87a4.327 4.327 0 014.326-4.326zm-46.175 0h23.316a4.326 4.326 0 014.326 4.326v19.658a4.326 4.326 0 01-4.326 4.326h-23.316a4.327 4.327 0 01-4.326-4.326V73.87a4.327 4.327 0 014.326-4.326zm-46.175 0h23.316a4.326 4.326 0 014.326 4.326v19.658a4.326 4.326 0 01-4.326 4.326h-23.316a4.326 4.326 0 01-4.326-4.326V73.87a4.326 4.326 0 014.326-4.326zm-46.175 0h23.316a4.326 4.326 0 014.326 4.326v19.658a4.326 4.326 0 01-4.326 4.326h-23.316a4.326 4.326 0 01-4.326-4.326V73.87a4.326 4.326 0 014.326-4.326zm-46.175 0h23.316a4.326 4.326 0 014.326 4.326v19.658a4.326 4.326 0 01-4.326 4.326h-23.316a4.326 4.326 0 01-4.326-4.326V73.87a4.326 4.326 0 014.326-4.326zm-46.176 0h23.317a4.327 4.327 0 014.326 4.326v19.658a4.327 4.327 0 01-4.326 4.326H80.923a4.327 4.327 0 01-4.326-4.326V73.87a4.327 4.327 0 014.326-4.326z"/><path fill="#F2F2F2" fill-rule="nonzero" d="M33.668 66.3h23.316a4.327 4.327 0 014.326 4.326v19.659a4.327 4.327 0 01-4.326 4.326H33.668a4.327 4.327 0 01-4.326-4.326V70.626a4.327 4.327 0 014.326-4.326zm230.876 85.492h23.316a4.326 4.326 0 014.326 4.325v19.659a4.327 4.327 0 01-4.326 4.326h-23.316a4.327 4.327 0 01-4.326-4.326v-19.659a4.326 4.326 0 014.326-4.325zm-46.176 0h23.317a4.327 4.327 0 014.326 4.325v19.659a4.328 4.328 0 01-4.326 4.326h-23.317a4.328 4.328 0 01-4.326-4.326v-19.659a4.327 4.327 0 014.326-4.325zm-138.525 0h115.665c2.365 0 4.283 1.937 4.283 4.325v19.659c0 2.388-1.918 4.326-4.283 4.326H79.843c-2.365 0-4.283-1.938-4.283-4.326v-19.659c0-2.388 1.918-4.325 4.283-4.325zm-46.175 0h23.316a4.326 4.326 0 014.326 4.325v19.659a4.327 4.327 0 01-4.326 4.326H33.668a4.327 4.327 0 01-4.326-4.326v-19.659a4.326 4.326 0 014.326-4.325zm230.876-42.518h23.316a4.327 4.327 0 014.326 4.326v19.659a4.326 4.326 0 01-4.326 4.325h-23.316a4.326 4.326 0 01-4.326-4.325V113.6a4.327 4.327 0 014.326-4.326zm-46.176 0h23.317a4.328 4.328 0 014.326 4.326v19.659a4.327 4.327 0 01-4.326 4.325h-23.317a4.327 4.327 0 01-4.326-4.325V113.6a4.328 4.328 0 014.326-4.326zm-46.175 0h23.316a4.328 4.328 0 014.327 4.326v19.659a4.327 4.327 0 01-4.327 4.325h-23.316a4.327 4.327 0 01-4.326-4.325V113.6a4.328 4.328 0 014.326-4.326zm-46.175 0h23.316a4.327 4.327 0 014.326 4.326v19.659a4.326 4.326 0 01-4.326 4.325h-23.316a4.326 4.326 0 01-4.326-4.325V113.6a4.327 4.327 0 014.326-4.326zm-46.175 0h23.316a4.327 4.327 0 014.326 4.326v19.659a4.326 4.326 0 01-4.326 4.325H79.843a4.326 4.326 0 01-4.326-4.325V113.6a4.327 4.327 0 014.326-4.326zm-46.175 0h23.316a4.327 4.327 0 014.326 4.326v19.659a4.326 4.326 0 01-4.326 4.325H33.668a4.326 4.326 0 01-4.326-4.325V113.6a4.327 4.327 0 014.326-4.326zm277.051-.465h23.316c2.369 0 4.291 1.941 4.291 4.334v62.176c0 2.393-1.922 4.334-4.291 4.334h-23.316c-2.369 0-4.291-1.941-4.291-4.334v-62.176c0-2.393 1.922-4.334 4.291-4.334zm0-42.509h23.316a4.327 4.327 0 014.326 4.326v19.659a4.327 4.327 0 01-4.326 4.326h-23.316a4.327 4.327 0 01-4.326-4.326V70.626a4.327 4.327 0 014.326-4.326zm-46.175 0h23.316a4.327 4.327 0 014.326 4.326v19.659a4.327 4.327 0 01-4.326 4.326h-23.316a4.327 4.327 0 01-4.326-4.326V70.626a4.327 4.327 0 014.326-4.326zm-46.176 0h23.317a4.328 4.328 0 014.326 4.326v19.659a4.328 4.328 0 01-4.326 4.326h-23.317a4.328 4.328 0 01-4.326-4.326V70.626a4.328 4.328 0 014.326-4.326zm-46.175 0h23.316a4.328 4.328 0 014.327 4.326v19.659a4.328 4.328 0 01-4.327 4.326h-23.316a4.328 4.328 0 01-4.326-4.326V70.626a4.328 4.328 0 014.326-4.326zm-46.175 0h23.316a4.327 4.327 0 014.326 4.326v19.659a4.327 4.327 0 01-4.326 4.326h-23.316a4.327 4.327 0 01-4.326-4.326V70.626a4.327 4.327 0 014.326-4.326zm-46.175 0h23.316a4.327 4.327 0 014.326 4.326v19.659a4.327 4.327 0 01-4.326 4.326H79.843a4.327 4.327 0 01-4.326-4.326V70.626a4.327 4.327 0 014.326-4.326z"/><path fill="#0C6EB7" fill-rule="nonzero" d="M462.876 209.918H450.4c-13.516 0-25.799-5.525-34.698-14.425-8.901-8.899-14.425-21.184-14.425-34.698V85.367c0-13.516 5.525-25.798 14.425-34.698 8.9-8.9 21.183-14.426 34.698-14.426h12.476c13.516 0 25.799 5.525 34.699 14.426C506.474 59.568 512 71.851 512 85.367v75.428c0 13.516-5.526 25.799-14.425 34.698-8.9 8.9-21.182 14.425-34.699 14.425z"/><path fill="#9EC4E6" d="M450.4 203.826h12.476c23.669 0 43.031-19.363 43.031-43.031v-46.196h-98.538v46.196c0 23.665 19.362 43.031 43.031 43.031z"/><path fill="#B0DAFF" d="M462.59 203.825h.286c23.668 0 43.031-19.363 43.031-43.03v-46.188h-92.441v40.095c0 13.515 5.524 25.798 14.425 34.698 8.9 8.9 21.184 14.425 34.699 14.425z"/><path fill="#D4DDE6" d="M505.907 108.506V85.367c0-23.669-19.363-43.031-43.031-43.031h-12.477c-23.668 0-43.03 19.362-43.03 43.031v23.139h98.538z"/><path fill="#EBF5FF" d="M505.907 108.506V85.367c0-23.669-19.363-43.031-43.031-43.031h-12.477c-2.042 0-4.051.147-6.02.426a49.42 49.42 0 00-16.488 10.908c-8.901 8.9-14.425 21.183-14.425 34.699v20.137h92.441z"/><path fill="#0C6EB7" d="M460.415 61.63c3.258 1.46 5.542 4.742 5.542 8.512v14.9c0 3.766-2.29 7.044-5.542 8.507v17.016h-7.553V93.552c-3.252-1.457-5.542-4.73-5.542-8.51v-14.9c0-3.784 2.284-7.058 5.542-8.514l-.001-29.2c0-3.644-.574-6.622-1.587-8.99-1.15-2.691-2.893-4.622-4.999-5.869-2.166-1.283-4.781-1.887-7.595-1.887-3.138 0-6.484.744-9.731 2.133a3.77 3.77 0 01-2.952-6.938c4.19-1.792 8.55-2.753 12.683-2.753 4.118 0 8.047.945 11.434 2.95 3.446 2.041 6.273 5.141 8.098 9.412 1.409 3.292 2.207 7.259 2.207 11.942 0 9.734-.004 19.468-.004 29.202z"/></svg>