<?xml version="1.0" encoding="UTF-8"?>
<svg version="1.1" xmlns="http://www.w3.org/2000/svg" width="276" height="304">
<path d="M0 0 C91.08 0 182.16 0 276 0 C276 100.32 276 200.64 276 304 C184.92 304 93.84 304 0 304 C0 203.68 0 103.36 0 0 Z " fill="#F9F8FA" transform="translate(0,0)"/>
<path d="M0 0 C0.763125 0.0825 1.52625 0.165 2.3125 0.25 C1.6525 1.57 0.9925 2.89 0.3125 4.25 C-0.3475 4.25 -1.0075 4.25 -1.6875 4.25 C-1.955625 5.136875 -2.22375 6.02375 -2.5 6.9375 C-3.60823705 10.0288981 -4.92710844 12.49460451 -6.6875 15.25 C-8.16655238 18.20810476 -7.80940903 21.2047155 -7.78515625 24.4453125 C-7.7837413 25.15275604 -7.78232635 25.86019958 -7.78086853 26.58908081 C-7.775266 28.85109669 -7.76271318 31.11301398 -7.75 33.375 C-7.74498532 34.90755065 -7.74042236 36.44010286 -7.73632812 37.97265625 C-7.72529577 41.73180888 -7.70802952 45.49088772 -7.6875 49.25 C-7.0275 49.25 -6.3675 49.25 -5.6875 49.25 C-5.625625 48.074375 -5.56375 46.89875 -5.5 45.6875 C-4.89593581 40.88901829 -2.98626967 37.73357469 0.3125 34.25 C7.92991868 28.67627901 16.45517648 29.98466807 25.3125 31.25 C25.6425 26.96 25.9725 22.67 26.3125 18.25 C26.9725 18.25 27.6325 18.25 28.3125 18.25 C28.580625 17.651875 28.84875 17.05375 29.125 16.4375 C30.3125 14.25 30.3125 14.25 31.75 12.9375 C34.11537838 10.38289135 35.03404738 7.47657091 36.3125 4.25 C39.70711728 4.53288477 41.05382059 4.99132059 43.5 7.4375 C47.91714002 14.29168279 48.04296616 21.32725169 47.3125 29.25 C45.41018596 37.50941414 40.06402571 46.05031611 33.72119141 51.65649414 C31.25757745 54.443324 31.817825 58.19263289 31.75 61.75 C31.17897342 76.59964205 29.16957345 88.53287674 19.01953125 99.92578125 C11.70217854 106.20835681 3.4528837 108.65689912 -5.75 111.0625 C-6.90177734 111.37380859 -8.05355469 111.68511719 -9.24023438 112.00585938 C-12.05332222 112.76457601 -14.86883708 113.5123193 -17.6875 114.25 C-16.7917627 114.01958008 -15.89602539 113.78916016 -14.97314453 113.55175781 C-8.19480792 111.83230335 -1.70242366 110.47056404 5.3125 111.25 C5.6425 111.58 5.9725 111.91 6.3125 112.25 C9.47887232 111.58510831 12.5917534 110.75609859 15.72265625 109.94140625 C22.86033842 108.566684 28.8503275 109.24970005 35.75 111.1875 C36.51844238 111.40132324 37.28688477 111.61514648 38.07861328 111.83544922 C47.44983389 114.63553859 59.17000567 119.32727472 66.3125 126.25 C66.3125 127.57 66.3125 128.89 66.3125 130.25 C58.8580222 132.90261161 51.33586345 134.74750826 43.625 136.5 C42.29358977 136.8063196 40.96229321 137.11313359 39.63110352 137.42041016 C36.8779038 138.05541767 34.1242388 138.68833887 31.37011719 139.31933594 C25.16062163 140.74253742 18.95472585 142.18115662 12.75 143.625 C11.51701172 143.91189697 10.28402344 144.19879395 9.01367188 144.49438477 C0.12334576 146.57201532 -8.74923375 148.71609713 -17.61743164 150.88583374 C-22.28459688 152.02631641 -26.95360845 153.1592158 -31.6227417 154.29161072 C-36.45636733 155.4640927 -41.28881931 156.64120168 -46.12011719 157.82324219 C-51.8543454 159.22477609 -57.5921805 160.61075392 -63.33218384 161.98843384 C-65.58952753 162.53269967 -67.84572523 163.08174333 -70.10067749 163.63583374 C-73.28421462 164.41724282 -76.47152168 165.18110454 -79.66015625 165.94140625 C-81.0644136 166.29227798 -81.0644136 166.29227798 -82.49703979 166.65023804 C-100.52864381 170.87848683 -116.18077192 165.49322615 -131.6875 156.25 C-134.02416184 154.36412779 -135.76432027 152.56912849 -137.6875 150.25 C-137 148.375 -137 148.375 -135.6875 146.25 C-134.04386866 145.52840576 -132.37699614 144.85648579 -130.6875 144.25 C-130.3575 143.59 -130.0275 142.93 -129.6875 142.25 C-123.53260596 139.5009972 -116.65246562 138.14767323 -110.125 136.5625 C-108.75504883 136.22508789 -108.75504883 136.22508789 -107.35742188 135.88085938 C-105.13489739 135.33395544 -102.91161454 134.79039409 -100.6875 134.25 C-106.33879115 135.13919584 -111.95584907 136.07802292 -117.55078125 137.2734375 C-140.86916019 142.24846664 -140.86916019 142.24846664 -147.875 138.1875 C-149.1723419 137.24373694 -150.44300309 136.26242884 -151.6875 135.25 C-152.72390625 134.43595703 -152.72390625 134.43595703 -153.78125 133.60546875 C-163.371463 125.67922927 -167.7785662 116.44061721 -169.6875 104.25 C-169.98929209 99.80909229 -170.01238148 95.38740451 -170 90.9375 C-170.01611328 89.79087891 -170.03222656 88.64425781 -170.04882812 87.46289062 C-170.05553261 75.61606407 -168.13435567 62.17202232 -159.7265625 53.14453125 C-155.2370275 49.09727387 -151.8958248 46.25 -145.6875 46.25 C-145.6875 45.59 -145.6875 44.93 -145.6875 44.25 C-144.553125 43.92386719 -143.41875 43.59773438 -142.25 43.26171875 C-140.72911934 42.8204756 -139.20828867 42.3790601 -137.6875 41.9375 C-136.57181641 41.61749023 -136.57181641 41.61749023 -135.43359375 41.29101562 C-131.75924442 40.22066169 -128.17568492 39.07920192 -124.6171875 37.66796875 C-119.50647964 35.69729297 -114.28975417 35.09526653 -108.8828125 34.2890625 C-107.82835937 33.94617187 -106.77390625 33.60328125 -105.6875 33.25 C-104.45932823 30.98917266 -104.45932823 30.98917266 -103.6875 28.25 C-100.14684951 23.25332114 -96.61578516 20.66239166 -91.1875 17.9375 C-90.53652344 17.59138672 -89.88554688 17.24527344 -89.21484375 16.88867188 C-79.7716624 11.99538699 -69.7419541 12.18754242 -59.6875 15.25 C-58.45592341 15.80720378 -57.22673325 16.36971264 -56 16.9375 C-47.21525556 20.35090169 -36.34897408 17.18803517 -27.39111328 15.32421875 C-23.55466603 14.53455551 -19.97148476 14.16021608 -16.0625 14.125 C-12.97392526 13.89141031 -12.02445472 13.6027607 -9.85546875 11.33203125 C-8.31182635 9.02971303 -7.00270668 6.68784415 -5.6875 4.25 C-3.09117869 0.28755151 -3.09117869 0.28755151 0 0 Z " fill="#C1B8B8" transform="translate(186.6875,10.75)"/>
<path d="M0 0 C1.15048828 0.58974609 1.15048828 0.58974609 2.32421875 1.19140625 C7.47267177 3.90604511 12.30249143 6.60498286 15 12 C15.10707771 14.06441041 15.14888379 16.13231366 15.16113281 18.19946289 C15.17074036 19.5058522 15.1803479 20.81224152 15.19024658 22.15821838 C15.19510085 23.59636255 15.19937812 25.03450877 15.203125 26.47265625 C15.20736607 27.56339856 15.20736607 27.56339856 15.21169281 28.67617607 C15.2267149 32.54071289 15.23591919 36.40521225 15.24023438 40.26977539 C15.24565676 44.2163702 15.26954077 48.16260897 15.29820633 52.10909367 C15.31709497 55.1782673 15.32205246 58.24736068 15.32357025 61.31658745 C15.32654977 62.76787657 15.33441347 64.21916596 15.34775543 65.6703968 C15.51431069 85.21772086 12.77679702 103.53086497 0 119 C-0.58394531 119.71027344 -1.16789063 120.42054688 -1.76953125 121.15234375 C-19.93630428 141.13975199 -52.31890062 148.62777624 -77.57397461 153.90869141 C-83.17972644 155.08915446 -88.55018659 156.43152476 -93.953125 158.33276367 C-97.24089009 159.40450294 -100.52986167 159.96675903 -103.9375 160.5625 C-108.30376239 161.32761725 -112.62900038 162.13988537 -116.9375 163.1875 C-124.17779077 164.6576098 -131.65427469 164.22151689 -139 164 C-139.90878906 163.98195313 -140.81757813 163.96390625 -141.75390625 163.9453125 C-160.19557123 162.88437069 -180.38374975 152.65273231 -192.609375 139.109375 C-207.91240108 119.60551823 -206.17866774 94.96635368 -206.13037109 71.37158203 C-206.12498479 68.24116224 -206.13036307 65.11088436 -206.13671875 61.98046875 C-206.15054727 34.3750443 -206.15054727 34.3750443 -202.4375 29.9375 C-192.99807079 24.61709445 -192.99807079 24.61709445 -188.7578125 25.4296875 C-187.88769531 25.71199219 -187.88769531 25.71199219 -187 26 C-187.99 26.66 -188.98 27.32 -190 28 C-190.66 28.66 -191.32 29.32 -192 30 C-193.64991582 30.70710678 -195.31562256 31.37943989 -197 32 C-193.96720658 39.71983778 -185.07452673 42.8637869 -178 46 C-175.50517368 47.01006182 -173.03152566 47.97191243 -170.5 48.875 C-169.3553125 49.28492188 -168.210625 49.69484375 -167.03125 50.1171875 C-156.72235969 52.84842802 -146.36925143 50.30136578 -136.2890625 47.81640625 C-134.88545084 47.48103014 -133.48154781 47.1468714 -132.07737732 46.81384277 C-128.3566434 45.92801509 -124.64000555 45.0260485 -120.92396927 44.12074661 C-117.060312 43.18255504 -113.1929832 42.25975847 -109.32592773 41.33569336 C-103.25476265 39.88332477 -97.1854793 38.42337774 -91.11767578 36.95703125 C-84.54014753 35.36803174 -77.95841029 33.79799653 -71.37109375 32.25 C-70.14523308 31.96190208 -70.14523308 31.96190208 -68.89460754 31.66798401 C-67.3506856 31.30528106 -65.80674622 30.94265232 -64.26278687 30.58010864 C-51.0995389 27.48350746 -37.95412568 24.31191327 -24.8125 21.125 C-24.03568878 20.93704865 -23.25887756 20.74909729 -22.45852661 20.55545044 C-14.63938226 18.66200608 -6.83881005 16.74600727 0.8918457 14.51123047 C3 14 3 14 6 14 C6 12.68 6 11.36 6 10 C5.49726563 9.75894531 4.99453125 9.51789063 4.4765625 9.26953125 C2.45290149 8.23216559 0.49339005 7.14493735 -1.4765625 6.01171875 C-8.95602314 1.78000249 -16.25831577 -1.75965168 -24.5625 -4.0625 C-25.28711426 -4.26593018 -26.01172852 -4.46936035 -26.75830078 -4.67895508 C-34.08165336 -6.55658646 -40.44564167 -6.38626561 -47.8125 -4.4375 C-53.67408377 -2.89136126 -53.67408377 -2.89136126 -57 -4 C-58.66362417 -4.34820041 -60.32995171 -4.68404492 -62 -5 C-62 -5.33 -62 -5.66 -62 -6 C-40.89839404 -11.13821611 -19.35830467 -10.40092469 0 0 Z " fill="#CDC6C7" transform="translate(247,127)"/>
<path d="M0 0 C0.14695313 0.90621094 0.29390625 1.81242187 0.4453125 2.74609375 C0.78175781 4.57333984 0.78175781 4.57333984 1.125 6.4375 C1.43824219 8.22994141 1.43824219 8.22994141 1.7578125 10.05859375 C2.55273953 13.3687196 3.9450132 15.28960326 6.0703125 17.921875 C10.65616827 24.43228891 9.81778494 32.18008093 9.75 39.8125 C9.7514465 42.06493598 9.76135991 44.3169118 9.78131104 46.56925964 C9.79609038 48.59926124 9.78690041 50.62939576 9.77636719 52.65942383 C9.9852177 55.77918536 10.24504464 57.45822181 12 60 C14.0335948 61.26804566 14.0335948 61.26804566 16 62 C16 61.34 16 60.68 16 60 C20.62 59.67 25.24 59.34 30 59 C30.33 49.43 30.66 39.86 31 30 C33.97 29.01 36.94 28.02 40 27 C40.63926071 38.20481975 40.5286009 53.1594652 33.125 62.375 C29.02987016 66.56373281 23.41270934 68.33703185 17.84375 69.6484375 C16.66820557 69.92880859 15.49266113 70.20917969 14.28149414 70.49804688 C12.40965454 70.93213867 12.40965454 70.93213867 10.5 71.375 C9.18663712 71.68499466 7.87340605 71.99554828 6.56030273 72.30664062 C-2.67740938 74.48803623 -11.93163675 76.59806772 -21.19140625 78.68359375 C-37.21803161 82.30196159 -53.23578798 85.9931318 -69.16015625 90.0390625 C-73.93079915 91.23293651 -78.71445721 92.36759215 -83.5 93.5 C-93.03922037 95.75869805 -102.58419707 98.02327399 -112.05712891 100.54833984 C-115.65808074 101.49242533 -119.01979825 102.27722775 -122.75 102.25 C-123.46671875 102.25515625 -124.1834375 102.2603125 -124.921875 102.265625 C-127.49071761 101.9372767 -128.89884464 101.54960208 -131 100 C-138.37065471 84.21223961 -136.37593088 62.41330513 -133.8125 45.6875 C-133.71187256 44.9960791 -133.61124512 44.3046582 -133.50756836 43.59228516 C-132.56329319 38.50577265 -130.48273249 34.74366429 -127 31 C-119.46314204 26.16658022 -108.36186391 24.97946548 -99.6953125 22.953125 C-98.91172363 22.76911133 -98.12813477 22.58509766 -97.32080078 22.39550781 C-94.84008173 21.97274694 -92.51172964 21.93219053 -90 22 C-89.10192903 28.92406888 -88.85230031 35.69841425 -88.82421875 42.67578125 C-88.80104873 44.90691077 -88.77693261 47.13803063 -88.75195312 49.36914062 C-88.71668974 52.85627015 -88.68738345 56.34303504 -88.67407227 59.83032227 C-88.65864817 63.2167424 -88.61851456 66.60213212 -88.57421875 69.98828125 C-88.57612717 71.03309158 -88.57803558 72.07790192 -88.58000183 73.15437317 C-88.57283696 78.74846794 -88.57283696 78.74846794 -86.15161133 83.62573242 C-83.95949712 85.14914405 -83.95949712 85.14914405 -81 86 C-81 85.01 -81 84.02 -81 83 C-80.22914062 82.93941406 -79.45828125 82.87882812 -78.6640625 82.81640625 C-77.66117188 82.73261719 -76.65828125 82.64882812 -75.625 82.5625 C-74.62726563 82.48128906 -73.62953125 82.40007812 -72.6015625 82.31640625 C-70.02072387 82.15034374 -70.02072387 82.15034374 -68 81 C-67.67 66.15 -67.34 51.3 -67 36 C-63.90348714 37.54825643 -61.10424332 39.16268137 -58.1875 41 C-50.25147859 45.7569719 -43.00383177 46.98021743 -33.9375 45.5 C-32.9784375 45.2525 -32.9784375 45.2525 -32 45 C-32.32226562 44.46761719 -32.64453125 43.93523437 -32.9765625 43.38671875 C-35.29993467 37.96847296 -34.83141491 30.99758779 -33.27734375 25.39453125 C-32.32199919 23.14734424 -31.24853826 21.09721786 -30 19 C-29.62617188 18.31679688 -29.25234375 17.63359375 -28.8671875 16.9296875 C-26.55926343 13.15447396 -25.66366284 12.16319578 -21.1875 11.0625 C-19.6096875 11.0315625 -19.6096875 11.0315625 -18 11 C-18.495 7.535 -18.495 7.535 -19 4 C-16.39688008 3.32900016 -13.79264602 2.66304662 -11.1875 2 C-10.44951172 1.80921875 -9.71152344 1.6184375 -8.95117188 1.421875 C-5.89464659 0.64737086 -3.16626522 0 0 0 Z " fill="#27211E" transform="translate(171,42)"/>
<path d="M0 0 C0.76844238 0.21382324 1.53688477 0.42764648 2.32861328 0.64794922 C11.69983389 3.44803859 23.42000567 8.13977472 30.5625 15.0625 C30.5625 16.3825 30.5625 17.7025 30.5625 19.0625 C23.1080222 21.71511161 15.58586345 23.56000826 7.875 25.3125 C6.54358977 25.6188196 5.21229321 25.92563359 3.88110352 26.23291016 C1.1279038 26.86791767 -1.6257612 27.50083887 -4.37988281 28.13183594 C-10.58937837 29.55503742 -16.79527415 30.99365662 -23 32.4375 C-24.23298828 32.72439697 -25.46597656 33.01129395 -26.73632812 33.30688477 C-35.62665424 35.38451532 -44.49923375 37.52859713 -53.36743164 39.69833374 C-58.03459688 40.83881641 -62.70360845 41.9717158 -67.3727417 43.10411072 C-72.20636733 44.2765927 -77.03881931 45.45370168 -81.87011719 46.63574219 C-87.6043454 48.03727609 -93.3421805 49.42325392 -99.08218384 50.80093384 C-101.33952753 51.34519967 -103.59572523 51.89424333 -105.85067749 52.44833374 C-109.03421462 53.22974282 -112.22152168 53.99360454 -115.41015625 54.75390625 C-116.34632782 54.98782074 -117.28249939 55.22173523 -118.24703979 55.46273804 C-136.27864381 59.69098683 -151.93077192 54.30572615 -167.4375 45.0625 C-169.77416184 43.17662779 -171.51432027 41.38162849 -173.4375 39.0625 C-172.98046875 37.1875 -172.98046875 37.1875 -171.4375 35.0625 C-168.48988849 34.19537833 -165.76146745 33.57267801 -162.75 33.0625 C-156.15932994 31.87320615 -149.7303047 30.38417931 -143.26609802 28.62376404 C-137.14569718 26.96362769 -130.98466388 25.50919559 -124.80517578 24.0848999 C-106.43958471 19.84621059 -88.14169454 15.33304683 -69.84521484 10.80688477 C-57.60665744 7.78517566 -45.35242816 4.85238044 -33.06225586 2.04721069 C-32.0491333 1.81587433 -31.03601074 1.58453796 -29.9921875 1.34619141 C-29.03799423 1.12844559 -28.08380096 0.91069977 -27.10069275 0.68635559 C-24.70538872 0.1252532 -22.32467508 -0.47437489 -19.94360352 -1.0925293 C-12.88465437 -2.79373555 -6.85903618 -1.92638708 0 0 Z " fill="#423D3C" transform="translate(222.4375,121.9375)"/>
<path d="M0 0 C2.625 -0.1875 2.625 -0.1875 5 0 C4.34 1.32 3.68 2.64 3 4 C2.34 4 1.68 4 1 4 C0.731875 4.886875 0.46375 5.77375 0.1875 6.6875 C-0.92073705 9.7788981 -2.23960844 12.24460451 -4 15 C-5.47905238 17.95810476 -5.12190903 20.9547155 -5.09765625 24.1953125 C-5.0962413 24.90275604 -5.09482635 25.61019958 -5.09336853 26.33908081 C-5.087766 28.60109669 -5.07521318 30.86301398 -5.0625 33.125 C-5.05748532 34.65755065 -5.05292236 36.19010286 -5.04882812 37.72265625 C-5.03779577 41.48180888 -5.02052952 45.24088772 -5 49 C-4.34 49 -3.68 49 -3 49 C-2.9071875 47.2365625 -2.9071875 47.2365625 -2.8125 45.4375 C-2.20843581 40.63901829 -0.29876967 37.48357469 3 34 C10.61741868 28.42627901 19.14267648 29.73466807 28 31 C28.33 26.71 28.66 22.42 29 18 C29.66 18 30.32 18 31 18 C31.268125 17.401875 31.53625 16.80375 31.8125 16.1875 C33 14 33 14 34.4375 12.6875 C36.80287838 10.13289135 37.72154738 7.22657091 39 4 C42.39461728 4.28288477 43.74132059 4.74132059 46.1875 7.1875 C50.60464002 14.04168279 50.73046616 21.07725169 50 29 C48.09768596 37.25941414 42.75152571 45.80031611 36.40869141 51.40649414 C33.94507745 54.193324 34.505325 57.94263289 34.4375 61.5 C33.86647342 76.34964205 31.85707345 88.28287674 21.70703125 99.67578125 C14.38967854 105.95835681 6.1403837 108.40689912 -3.0625 110.8125 C-4.79016602 111.27946289 -4.79016602 111.27946289 -6.55273438 111.75585938 C-9.36582222 112.51457601 -12.18133708 113.2623193 -15 114 C-14.10418213 113.76966064 -13.20836426 113.53932129 -12.28540039 113.30200195 C-5.38614436 111.55120581 0.88775611 110.56652238 8 111 C5.3149924 114.47771827 2.21890219 114.93667952 -1.9453125 115.91015625 C-3.0025351 116.16242226 -3.0025351 116.16242226 -4.08111572 116.41978455 C-6.42685607 116.97726576 -8.77582145 117.51970653 -11.125 118.0625 C-12.78884591 118.45523093 -14.45241556 118.8491339 -16.11572266 119.24414062 C-19.62507186 120.07697146 -23.13548268 120.90512296 -26.64648438 121.73095703 C-31.83930415 122.95682348 -37.02244647 124.22000024 -42.203125 125.49609375 C-43.041353 125.7024646 -43.87958099 125.90883545 -44.74320984 126.12145996 C-46.43830022 126.53885195 -48.13338383 126.95627138 -49.82846069 127.37371826 C-66.24041337 131.40998278 -82.68597849 135.28587697 -99.16357422 139.04492188 C-99.92994202 139.22004303 -100.69630981 139.39516418 -101.48590088 139.57559204 C-102.96428091 139.91312804 -104.44291129 140.24956974 -105.92181396 140.58480835 C-111.18677161 141.786448 -116.40408857 143.1321433 -121.60620117 144.58422852 C-124.11367085 145.01974314 -125.61388181 144.81596565 -128 144 C-127 142 -127 142 -125.30493164 141.24291992 C-119.39949899 139.37024263 -113.45720683 137.77436571 -107.4375 136.3125 C-106.52419922 136.08755859 -105.61089844 135.86261719 -104.66992188 135.63085938 C-102.44739739 135.08395544 -100.22411454 134.54039409 -98 134 C-98 132.68 -98 131.36 -98 130 C-97.34 130 -96.68 130 -96 130 C-96 129.01 -96 128.02 -96 127 C-102.435 127.495 -102.435 127.495 -109 128 C-106.46883712 125.46883712 -104.67534025 125.26391429 -101.19921875 124.44921875 C-99.40822754 124.02370728 -99.40822754 124.02370728 -97.58105469 123.58959961 C-96.29618164 123.29190674 -95.01130859 122.99421387 -93.6875 122.6875 C-92.35693498 122.37381196 -91.02653223 122.05943489 -89.69628906 121.74438477 C-87.03129508 121.11427704 -84.36546069 120.4879527 -81.69873047 119.86523438 C-77.7032397 118.93057964 -73.71137749 117.98153329 -69.72045898 117.02758789 C-67.24400647 116.4360684 -64.76656834 115.84880889 -62.2890625 115.26171875 C-58.32226206 114.31916551 -54.35983924 113.35951732 -50.3984375 112.39453125 C-49.27276367 112.12133057 -48.14708984 111.84812988 -46.98730469 111.56665039 C-44.80240515 111.03597301 -42.61812193 110.50274933 -40.43457031 109.96655273 C-35.29204773 108.71999395 -30.24246038 107.73981193 -25 107 C-22.66311399 106.34589554 -20.3301804 105.67760476 -18 105 C-15.37820571 104.39133164 -12.74939922 103.82090884 -10.11914062 103.25 C6.97491422 100.24775027 6.97491422 100.24775027 21 91 C22.41314524 88.08104427 23.23997989 85.14577858 24 82 C24.30744141 80.83791016 24.30744141 80.83791016 24.62109375 79.65234375 C26.24256557 72.77506671 26.19848327 66.03512918 26 59 C24.8553125 59.495 24.8553125 59.495 23.6875 60 C21 61 21 61 18 61 C18 70.57 18 80.14 18 90 C14.45011229 90.88747193 11.85819222 91.10545467 8.25 91.0625 C6.77273437 91.04896484 6.77273437 91.04896484 5.265625 91.03515625 C4.51796875 91.02355469 3.7703125 91.01195313 3 91 C3 91.66 3 92.32 3 93 C-1.61485928 91.54267602 -1.61485928 91.54267602 -3.15136719 89.37768555 C-4.32505121 86.08927683 -4.2212249 83.19535583 -4.203125 79.70703125 C-4.21368079 78.25715252 -4.2254385 76.80728215 -4.23828125 75.35742188 C-4.24854807 73.09065477 -4.25011156 70.82506145 -4.22998047 68.55834961 C-4.0978424 56.8535133 -4.0978424 56.8535133 -9.57958984 46.73168945 C-13.35634537 42.1272675 -13.06701644 36.6427845 -13 31 C-14.12019531 31.28875 -15.24039063 31.5775 -16.39453125 31.875 C-17.86713989 32.25018691 -19.33979878 32.62517665 -20.8125 33 C-21.55048828 33.19078125 -22.28847656 33.3815625 -23.04882812 33.578125 C-26.10535341 34.35262914 -28.83373478 35 -32 35 C-32.495 35.99 -32.495 35.99 -33 37 C-36 31.25 -36 31.25 -36 29 C-32.75195713 28.15890901 -29.50127696 27.32849344 -26.25 26.5 C-25.32960938 26.26152344 -24.40921875 26.02304687 -23.4609375 25.77734375 C-22.12675781 25.43896484 -22.12675781 25.43896484 -20.765625 25.09375 C-19.54020996 24.77954102 -19.54020996 24.77954102 -18.29003906 24.45898438 C-16 24 -16 24 -12 24 C-11.78085938 23.154375 -11.56171875 22.30875 -11.3359375 21.4375 C-9.28099569 14.08648866 -6.9673939 8.76217692 -2 3 C-1.34 2.01 -0.68 1.02 0 0 Z " fill="#ADA2A1" transform="translate(184,11)"/>
<path d="M0 0 C2.625 -0.1875 2.625 -0.1875 5 0 C4.34 1.32 3.68 2.64 3 4 C2.34 4 1.68 4 1 4 C0.731875 4.886875 0.46375 5.77375 0.1875 6.6875 C-0.92073705 9.7788981 -2.23960844 12.24460451 -4 15 C-5.47905238 17.95810476 -5.12190903 20.9547155 -5.09765625 24.1953125 C-5.09553383 25.25647781 -5.09553383 25.25647781 -5.09336853 26.33908081 C-5.087766 28.60109669 -5.07521318 30.86301398 -5.0625 33.125 C-5.05748532 34.65755065 -5.05292236 36.19010286 -5.04882812 37.72265625 C-5.03779577 41.48180888 -5.02052952 45.24088772 -5 49 C-4.34 49 -3.68 49 -3 49 C-2.9071875 47.2365625 -2.9071875 47.2365625 -2.8125 45.4375 C-2.20843581 40.63901829 -0.29876967 37.48357469 3 34 C8.22328149 30.17808672 13.56951367 29.15112929 20 30 C23.78088753 31.30073314 26.9243815 33.06317098 29.9375 35.6875 C31.95158735 40.07110188 32.73211326 44.53507429 31.33984375 49.22265625 C29.35421147 53.52351969 27.07303185 56.42755883 23 59 C22.34 59 21.68 59 21 59 C21 59.66 21 60.32 21 61 C20.01 61 19.02 61 18 61 C18 70.57 18 80.14 18 90 C14.45011229 90.88747193 11.85819222 91.10545467 8.25 91.0625 C7.26515625 91.05347656 6.2803125 91.04445313 5.265625 91.03515625 C4.51796875 91.02355469 3.7703125 91.01195313 3 91 C3 91.66 3 92.32 3 93 C-1.61485928 91.54267602 -1.61485928 91.54267602 -3.15136719 89.37768555 C-4.32505121 86.08927683 -4.2212249 83.19535583 -4.203125 79.70703125 C-4.21368079 78.25715252 -4.2254385 76.80728215 -4.23828125 75.35742188 C-4.24854807 73.09065477 -4.25011156 70.82506145 -4.22998047 68.55834961 C-4.0978424 56.8535133 -4.0978424 56.8535133 -9.57958984 46.73168945 C-13.35634537 42.1272675 -13.06701644 36.6427845 -13 31 C-14.12019531 31.28875 -15.24039063 31.5775 -16.39453125 31.875 C-17.86713989 32.25018691 -19.33979878 32.62517665 -20.8125 33 C-21.91948242 33.28617188 -21.91948242 33.28617188 -23.04882812 33.578125 C-26.10535341 34.35262914 -28.83373478 35 -32 35 C-32.33 35.66 -32.66 36.32 -33 37 C-36 31.25 -36 31.25 -36 29 C-32.75195713 28.15890901 -29.50127696 27.32849344 -26.25 26.5 C-25.32960937 26.26152344 -24.40921875 26.02304687 -23.4609375 25.77734375 C-22.57148438 25.55175781 -21.68203125 25.32617188 -20.765625 25.09375 C-19.94868164 24.88427734 -19.13173828 24.67480469 -18.29003906 24.45898438 C-16 24 -16 24 -12 24 C-11.78085938 23.154375 -11.56171875 22.30875 -11.3359375 21.4375 C-9.28099569 14.08648866 -6.9673939 8.76217692 -2 3 C-1.34 2.01 -0.68 1.02 0 0 Z " fill="#9E918F" transform="translate(184,11)"/>
<path d="M0 0 C3.91816103 2.75843779 7.1620863 6.07173228 10.3359375 9.64453125 C10.0059375 10.30453125 9.6759375 10.96453125 9.3359375 11.64453125 C6.8609375 11.14953125 6.8609375 11.14953125 4.3359375 10.64453125 C4.15417969 11.21042969 3.97242188 11.77632812 3.78515625 12.359375 C3.40810547 13.45958984 3.40810547 13.45958984 3.0234375 14.58203125 C2.77980469 15.31292969 2.53617188 16.04382813 2.28515625 16.796875 C1.3359375 18.64453125 1.3359375 18.64453125 -1.6640625 19.64453125 C-2.83359666 22.06836202 -2.83359666 22.06836202 -3.6640625 24.64453125 C-3.9940625 25.30453125 -4.3240625 25.96453125 -4.6640625 26.64453125 C-4.97451776 29.2359703 -5.17380162 31.82824857 -5.3828125 34.4296875 C-5.6640625 36.64453125 -5.6640625 36.64453125 -6.6640625 37.64453125 C-9.92270526 37.42425004 -13.16404628 37.14384243 -16.41015625 36.78515625 C-22.92289103 36.22933844 -27.11238865 37.73077587 -32.4140625 41.70703125 C-35.46821752 45.6944003 -36.5090987 49.80870721 -37.6640625 54.64453125 C-38.3240625 54.64453125 -38.9840625 54.64453125 -39.6640625 54.64453125 C-40.43229215 47.0033899 -40.81294814 39.38354443 -40.9140625 31.70703125 C-40.93533203 30.90289795 -40.95660156 30.09876465 -40.97851562 29.27026367 C-41.00776165 24.26344793 -40.32087005 21.0298642 -37.6640625 16.64453125 C-37.27863281 15.94585938 -36.89320313 15.2471875 -36.49609375 14.52734375 C-35.55208333 12.89973958 -34.60807292 11.27213542 -33.6640625 9.64453125 C-33.0040625 9.64453125 -32.3440625 9.64453125 -31.6640625 9.64453125 C-31.3340625 8.65453125 -31.0040625 7.66453125 -30.6640625 6.64453125 C-31.3240625 5.98453125 -31.9840625 5.32453125 -32.6640625 4.64453125 C-24.2268311 -5.11101756 -11.0518763 -6.20550336 0 0 Z " fill="#DAD5D5" transform="translate(218.6640625,5.35546875)"/>
<path d="M0 0 C0.33 0 0.66 0 1 0 C1.32421053 9.56421053 1.32421053 9.56421053 -1 13 C-4.125 14.125 -4.125 14.125 -8 15 C-10.67625517 15.97980053 -13.3388845 16.98104192 -16 18 C-17.35602995 18.50200584 -18.71279333 19.00203535 -20.0703125 19.5 C-20.73933594 19.7475 -21.40835938 19.995 -22.09765625 20.25 C-23.45609314 20.75254313 -24.81548228 21.25251923 -26.17578125 21.75 C-32.76999824 24.19891617 -37.65216224 26.25464296 -42 32 C-42.66 32 -43.32 32 -44 32 C-44.0825 32.61875 -44.165 33.2375 -44.25 33.875 C-45 36 -45 36 -47.0625 37.25 C-47.701875 37.4975 -48.34125 37.745 -49 38 C-48.79375 38.7425 -48.5875 39.485 -48.375 40.25 C-47.95591249 43.32330841 -48.38050989 44.42786866 -50 47 C-50.66 47 -51.32 47 -52 47 C-51.67 48.32 -51.34 49.64 -51 51 C-51.66 51 -52.32 51 -53 51 C-53.27257414 61.43353252 -52.72617992 71.63052162 -51.71142578 82.01586914 C-50.34394519 96.15259587 -50.34394519 96.15259587 -52.5 98.9375 C-52.995 99.288125 -53.49 99.63875 -54 100 C-63.55597975 88.37201169 -65.35367641 76.48630339 -65.3125 61.6875 C-65.32861328 60.54087891 -65.34472656 59.39425781 -65.36132812 58.21289062 C-65.36803261 46.36606407 -63.44685567 32.92202232 -55.0390625 23.89453125 C-50.5495275 19.84727387 -47.2083248 17 -41 17 C-41 16.34 -41 15.68 -41 15 C-39.2984375 14.51080078 -39.2984375 14.51080078 -37.5625 14.01171875 C-36.04161934 13.5704756 -34.52078867 13.1290601 -33 12.6875 C-32.25621094 12.47416016 -31.51242188 12.26082031 -30.74609375 12.04101562 C-27.07842236 10.972607 -23.4938693 9.83508006 -19.9375 8.4375 C-16.02276904 6.93209564 -12.11837055 6.06166681 -8 5.3125 C-7.32066406 5.18294922 -6.64132813 5.05339844 -5.94140625 4.91992188 C-4.29546014 4.60696029 -2.64789301 4.30254286 -1 4 C-0.67 2.68 -0.34 1.36 0 0 Z " fill="#C9C1C0" transform="translate(82,40)"/>
<path d="M0 0 C0.70833984 -0.01224609 1.41667969 -0.02449219 2.14648438 -0.03710938 C6.55207624 -0.04931323 10.23789836 0.30834582 14.3125 2.1875 C15.6875 5.3125 15.6875 5.3125 16.3125 8.1875 C17.59125 8.27 18.87 8.3525 20.1875 8.4375 C25.47772323 9.03369976 30.76243411 10.34370882 35.3125 13.1875 C35.93554688 15.2644043 35.93554688 15.2644043 36.3125 17.1875 C30.56094825 18.65240462 24.80366095 20.09067308 19.04003906 21.50732422 C16.58047654 22.12067377 14.13011322 22.76151415 11.6796875 23.41015625 C-2.87858638 27.13060402 -19.82803406 29.34593703 -33.6875 22.1875 C-35.97332378 20.65347757 -37.73094089 19.14405911 -39.6875 17.1875 C-39.41943359 15.29174805 -39.41943359 15.29174805 -38.6875 13.1875 C-37.06103516 12.19848633 -37.06103516 12.19848633 -34.9765625 11.51953125 C-34.22632813 11.26623047 -33.47609375 11.01292969 -32.703125 10.75195312 C-31.91421875 10.50380859 -31.1253125 10.25566406 -30.3125 10 C-29.53132812 9.74025391 -28.75015625 9.48050781 -27.9453125 9.21289062 C-25.86372504 8.52318656 -23.77680159 7.85336004 -21.6875 7.1875 C-20.6975 6.8575 -19.7075 6.5275 -18.6875 6.1875 C-18.6875 5.1975 -18.6875 4.2075 -18.6875 3.1875 C-17.97722656 3.05472656 -17.26695312 2.92195312 -16.53515625 2.78515625 C-15.61605469 2.60855469 -14.69695312 2.43195313 -13.75 2.25 C-12.83347656 2.07597656 -11.91695312 1.90195313 -10.97265625 1.72265625 C-3.63051957 0.00321569 -3.63051957 0.00321569 0 0 Z " fill="#1B1613" transform="translate(194.6875,127.8125)"/>
<path d="M0 0 C0.94617188 -0.00773438 1.89234375 -0.01546875 2.8671875 -0.0234375 C11.50117354 0.00047936 18.81403408 1.21982386 26 6.25 C27.4375 9 27.4375 9 28 11.25 C23.97192817 13.94318756 19.87390328 15.38624775 15.25 16.6875 C14.51644287 16.89922852 13.78288574 17.11095703 13.02709961 17.32910156 C6.85024555 19.08097215 0.62283534 20.59015747 -5.64160156 21.99389648 C-9.42282331 22.81778858 -9.42282331 22.81778858 -13 24.25 C-19.47764148 24.82836085 -25.44958882 23.85054554 -31 20.25 C-31.29390625 19.40050781 -31.5878125 18.55101562 -31.890625 17.67578125 C-32.25671875 16.87527344 -32.6228125 16.07476562 -33 15.25 C-35.95797256 14.3151233 -35.95797256 14.3151233 -39.375 14.125 C-43.8856969 13.70753144 -46.60183704 13.34684802 -50 10.25 C-49.125 5.375 -49.125 5.375 -48 4.25 C-41.11749182 2.97061924 -34.16334002 2.92648945 -27.18164062 2.73242188 C-22.97614083 2.57880955 -19.0546119 2.38901187 -14.99609375 1.23046875 C-10.03498581 -0.16071466 -5.12001817 -0.04185301 0 0 Z " fill="#1E1815" transform="translate(126,149.75)"/>
<path d="M0 0 C0.76844238 0.21382324 1.53688477 0.42764648 2.32861328 0.64794922 C11.69983389 3.44803859 23.42000567 8.13977472 30.5625 15.0625 C30.5625 16.3825 30.5625 17.7025 30.5625 19.0625 C23.10815461 21.71506449 15.58604743 23.56110758 7.875 25.3125 C5.8980248 25.7651119 3.92131239 26.21885869 1.94462585 26.67272949 C0.57911775 26.98617272 -0.78651474 27.29907452 -2.15226746 27.6114502 C-7.09897827 28.74551408 -12.03512891 29.91979369 -16.96875 31.109375 C-19.02327254 31.60143481 -21.07796291 32.09278689 -23.13272095 32.5838623 C-24.45643225 32.90187906 -25.77950133 33.22258149 -27.10189819 33.54602051 C-28.94506822 33.99632204 -30.79084421 34.43591639 -32.63671875 34.875 C-33.68690186 35.12894531 -34.73708496 35.38289063 -35.8190918 35.64453125 C-38.4375 36.0625 -38.4375 36.0625 -41.4375 35.0625 C-40.7775 35.0625 -40.1175 35.0625 -39.4375 35.0625 C-39.4375 34.4025 -39.4375 33.7425 -39.4375 33.0625 C-35.27920854 32.1194741 -31.12066732 31.177559 -26.96191406 30.23657227 C-25.55397118 29.91785008 -24.14609115 29.59885007 -22.73828125 29.27954102 C-17.973198 28.19888821 -13.20651836 27.12565788 -8.4375 26.0625 C-7.42919128 25.83750824 -7.42919128 25.83750824 -6.4005127 25.60797119 C-4.46838529 25.178786 -2.53499544 24.7552963 -0.6015625 24.33203125 C0.51524902 24.08686768 1.63206055 23.8417041 2.78271484 23.58911133 C5.5625 23.0625 5.5625 23.0625 8.5625 23.0625 C7.90403321 19.96275439 7.90403321 19.96275439 5.59375 18.96484375 C4.34078125 18.48724609 4.34078125 18.48724609 3.0625 18 C2.1653125 17.65582031 1.268125 17.31164062 0.34375 16.95703125 C-2.26324878 16.11854428 -4.73923132 15.62115032 -7.4375 15.1875 C-9.65234375 14.765625 -9.65234375 14.765625 -11.4375 14.0625 C-13 10.9375 -13 10.9375 -13.4375 8.0625 C-19.07276965 6.85765278 -24.58286115 6.9495357 -30.3125 7 C-31.28703125 7.00451172 -32.2615625 7.00902344 -33.265625 7.01367188 C-35.65631434 7.02539094 -38.0468744 7.04179781 -40.4375 7.0625 C-40.7675 6.0725 -41.0975 5.0825 -41.4375 4.0625 C-37.44121932 3.04722869 -33.43996688 2.05307709 -29.4375 1.0625 C-27.74947266 0.63324219 -27.74947266 0.63324219 -26.02734375 0.1953125 C-16.66078669 -2.10524538 -9.32737675 -2.61963016 0 0 Z " fill="#545150" transform="translate(222.4375,121.9375)"/>
<path d="M0 0 C5 0 5 0 7.875 1 C11.39464248 2.12628559 14.32723759 2.1469105 18 2 C18.66 3.32 19.32 4.64 20 6 C18.02 6.99 18.02 6.99 16 8 C15.67 22.85 15.34 37.7 15 53 C12.67404054 54.16297973 11.21276769 54.16600691 8.625 54.1875 C7.85414062 54.20167969 7.08328125 54.21585938 6.2890625 54.23046875 C4 54 4 54 0 52 C0 34.84 0 17.68 0 0 Z " fill="#C9BFBE" transform="translate(85,70)"/>
<path d="M0 0 C3.39461728 0.28288477 4.74132059 0.74132059 7.1875 3.1875 C11.60464002 10.04168279 11.73046616 17.07725169 11 25 C8.72591691 34.87355064 2.06291883 44.03528754 -6 50 C-7.11375 50.680625 -7.11375 50.680625 -8.25 51.375 C-10.70952049 53.65884046 -10.71053912 55.74356511 -11 59 C-11.66 57.68 -12.32 56.36 -13 55 C-15.475 55.495 -15.475 55.495 -18 56 C-16.37660195 54.29115995 -14.70680947 52.62553283 -13 51 C-12.34 51 -11.68 51 -11 51 C-10.690625 50.05125 -10.38125 49.1025 -10.0625 48.125 C-9 45 -9 45 -8 43 C-7.86405846 38.14494504 -8.37851743 34.2167881 -11.5625 30.4375 C-12.366875 29.633125 -13.17125 28.82875 -14 28 C-13.01 27.67 -12.02 27.34 -11 27 C-10.67 22.71 -10.34 18.42 -10 14 C-9.34 14 -8.68 14 -8 14 C-7.731875 13.401875 -7.46375 12.80375 -7.1875 12.1875 C-6 10 -6 10 -4.5625 8.6875 C-2.19712162 6.13289135 -1.27845262 3.22657091 0 0 Z " fill="#C2B7B7" transform="translate(223,15)"/>
<path d="M0 0 C3.85350036 1.961782 7.04156444 4.08312888 9 8 C9.54354953 12.81429587 9.55439338 14.9704123 7.25 19.25 C1.17117117 26.67967968 1.17117117 26.67967968 -4.70703125 27.2734375 C-14.12247295 27.5813639 -14.12247295 27.5813639 -17.6875 24.625 C-21.43759 20.36814108 -21.40183277 17.31252946 -21.34375 11.765625 C-20.79459856 7.34745204 -19.3464963 5.90999679 -16 3 C-10.99901235 -0.48906115 -5.91636344 -0.87542939 0 0 Z " fill="#353234" transform="translate(205,43)"/>
<path d="M0 0 C0.99 1.485 0.99 1.485 2 3 C-1.54653047 5.32360289 -4.65585503 6.61572327 -8.77734375 7.578125 C-9.91671387 7.84866699 -11.05608398 8.11920898 -12.22998047 8.39794922 C-13.45346191 8.67912598 -14.67694336 8.96030273 -15.9375 9.25 C-17.87508256 9.70551051 -19.81266506 10.16102129 -21.75024414 10.61654663 C-23.78085386 11.09225042 -25.81241155 11.56370313 -27.84423828 12.03417969 C-31.32144687 12.84026033 -34.79534577 13.65963632 -38.2681427 14.48449707 C-40.98226243 15.12914823 -43.69710951 15.77069523 -46.41213989 16.41149902 C-48.33741076 16.86612385 -50.26233694 17.3222076 -52.18725586 17.77832031 C-57.77782772 19.08604752 -63.29306544 20.34345001 -69 21 C-69 19.68 -69 18.36 -69 17 C-64.85120911 13.52886355 -60.90388291 12.20070717 -55.6796875 11.03515625 C-54.64075096 10.79725624 -54.64075096 10.79725624 -53.58082581 10.55455017 C-51.34798243 10.04564173 -49.11176644 9.55384848 -46.875 9.0625 C-44.56470577 8.54210808 -42.25531354 8.01784234 -39.94596863 7.49325562 C-38.42156976 7.14725262 -36.89684098 6.80269985 -35.3717804 6.45962524 C-28.59710377 4.930011 -21.86884411 3.23252442 -15.17724609 1.37133789 C-10.2835565 0.08052716 -5.03781604 -0.98003272 0 0 Z " fill="#2E4688" transform="translate(158,124)"/>
<path d="M0 0 C2.625 -0.1875 2.625 -0.1875 5 0 C4.34 1.32 3.68 2.64 3 4 C2.34 4 1.68 4 1 4 C0.731875 4.886875 0.46375 5.77375 0.1875 6.6875 C-0.92073705 9.7788981 -2.23960844 12.24460451 -4 15 C-5.47905238 17.95810476 -5.12190903 20.9547155 -5.09765625 24.1953125 C-5.09553383 25.25647781 -5.09553383 25.25647781 -5.09336853 26.33908081 C-5.087766 28.60109669 -5.07521318 30.86301398 -5.0625 33.125 C-5.05748532 34.65755065 -5.05292236 36.19010286 -5.04882812 37.72265625 C-5.03779577 41.48180888 -5.02052952 45.24088772 -5 49 C-4.34 49 -3.68 49 -3 49 C-3 50.32 -3 51.64 -3 53 C-4.83203125 52.80078125 -4.83203125 52.80078125 -7 52 C-8.44921875 49.85546875 -8.44921875 49.85546875 -9.6875 47.1875 C-10.10386719 46.31480469 -10.52023438 45.44210938 -10.94921875 44.54296875 C-12.88299 39.86309854 -13.09798082 36.09500244 -13 31 C-14.12019531 31.28875 -15.24039063 31.5775 -16.39453125 31.875 C-17.86713989 32.25018691 -19.33979878 32.62517665 -20.8125 33 C-21.91948242 33.28617188 -21.91948242 33.28617188 -23.04882812 33.578125 C-26.10535341 34.35262914 -28.83373478 35 -32 35 C-32.33 35.66 -32.66 36.32 -33 37 C-36 31.25 -36 31.25 -36 29 C-32.75195713 28.15890901 -29.50127696 27.32849344 -26.25 26.5 C-25.32960937 26.26152344 -24.40921875 26.02304687 -23.4609375 25.77734375 C-22.57148438 25.55175781 -21.68203125 25.32617188 -20.765625 25.09375 C-19.94868164 24.88427734 -19.13173828 24.67480469 -18.29003906 24.45898438 C-16 24 -16 24 -12 24 C-11.78085938 23.154375 -11.56171875 22.30875 -11.3359375 21.4375 C-9.28099569 14.08648866 -6.9673939 8.76217692 -2 3 C-1.34 2.01 -0.68 1.02 0 0 Z " fill="#C1BBBB" transform="translate(184,11)"/>
<path d="M0 0 C3.28328261 5.83404001 2.52023694 11.74440075 0.875 18.0625 C-0.99346477 23.66789432 -3.72833532 29.04882648 -8.9453125 32.16015625 C-10.875 33 -10.875 33 -14 34 C-17.1669492 28.76819992 -16.56191184 22.90354295 -16 17 C-14.31556629 10.9269336 -10.87740932 5.89778019 -7 1 C-4.53721199 -0.231394 -2.7204945 -0.07159196 0 0 Z " fill="#40414C" transform="translate(153,53)"/>
<path d="M0 0 C4.95 0 9.9 0 15 0 C15 8.91 15 17.82 15 27 C11.7837116 27.8040721 9.54478378 28.13568524 6.3125 28.125 C5.52488281 28.12757812 4.73726562 28.13015625 3.92578125 28.1328125 C2 28 2 28 1 27 C-0.28907844 18.05602364 -0.083413 9.00860443 0 0 Z " fill="#C5BAB9" transform="translate(187,72)"/>
<path d="M0 0 C0.495 2.475 0.495 2.475 1 5 C0.2174585 5.10594482 -0.56508301 5.21188965 -1.37133789 5.32104492 C-9.55140159 6.49483032 -17.44634556 8.22630367 -25.4375 10.3125 C-32.43791939 12.11342416 -39.42848116 13.90951284 -46.49609375 15.4296875 C-47.49261963 15.64455811 -48.48914551 15.85942871 -49.51586914 16.08081055 C-51.36565305 16.47332297 -53.21763121 16.85569062 -55.07202148 17.22583008 C-60.23586832 18.32660155 -63.86361364 19.67119384 -68 23 C-68.33 23.66 -68.66 24.32 -69 25 C-69.66 25 -70.32 25 -71 25 C-71 24.01 -71 23.02 -71 22 C-70.34 22 -69.68 22 -69 22 C-69 21.01 -69 20.02 -69 19 C-75.435 19.495 -75.435 19.495 -82 20 C-79.46883712 17.46883712 -77.67534025 17.26391429 -74.19921875 16.44921875 C-73.00522461 16.16554443 -71.81123047 15.88187012 -70.58105469 15.58959961 C-69.29618164 15.29190674 -68.01130859 14.99421387 -66.6875 14.6875 C-65.35693498 14.37381196 -64.02653223 14.05943489 -62.69628906 13.74438477 C-60.03129508 13.11427704 -57.36546069 12.4879527 -54.69873047 11.86523438 C-50.70306664 10.93053915 -46.71101739 9.98151804 -42.7199707 9.02734375 C-41.07699058 8.63499029 -39.43359867 8.24435712 -37.78979492 7.85546875 C-32.96329349 6.71348193 -28.14382136 5.5461687 -23.328125 4.359375 C-22.19342773 4.0816626 -21.05873047 3.8039502 -19.88964844 3.51782227 C-17.67821108 2.97611249 -15.46786263 2.42993213 -13.25878906 1.87866211 C-12.25557617 1.6338208 -11.25236328 1.38897949 -10.21875 1.13671875 C-9.33123047 0.91717529 -8.44371094 0.69763184 -7.52929688 0.47143555 C-4.95987182 -0.00747949 -2.60724186 -0.08520972 0 0 Z " fill="#93868F" transform="translate(157,119)"/>
<path d="M0 0 C2.46238893 0.83195276 4.65632899 1.8520795 7 3 C7 3.66 7 4.32 7 5 C7.7425 5.0825 8.485 5.165 9.25 5.25 C12.67535784 6.1841885 13.9919613 7.06517421 16 10 C15.9375 13.625 15.9375 13.625 15 17 C11.7439087 19.17072753 10.33005355 19.31427426 6.53515625 18.75390625 C1.23579257 17.17797838 -6.06981376 13.93018624 -10 10 C-10.45681382 3.83301344 -10.45681382 3.83301344 -8.9375 1.0625 C-5.84241646 -0.63480388 -3.47682933 -0.34768293 0 0 Z " fill="#4C4950" transform="translate(119,41)"/>
<path d="M0 0 C0.64827785 11.36287006 0.55280313 26.42841292 -7.25 35.5625 C-8.1575 36.366875 -9.065 37.17125 -10 38 C-10.66 37.34 -11.32 36.68 -12 36 C-15.12814514 35.75639927 -15.12814514 35.75639927 -18.625 35.875 C-20.40777344 35.90207031 -20.40777344 35.90207031 -22.2265625 35.9296875 C-23.59941406 35.96449219 -23.59941406 35.96449219 -25 36 C-24.67 35.01 -24.34 34.02 -24 33 C-19.38 32.67 -14.76 32.34 -10 32 C-9.67 22.43 -9.34 12.86 -9 3 C-1 0 -1 0 0 0 Z " fill="#3F3634" transform="translate(211,69)"/>
<path d="M0 0 C0 3.18470342 -0.46025618 6.05023907 -1 9.1875 C-1.2784375 10.81751953 -1.2784375 10.81751953 -1.5625 12.48046875 C-1.706875 13.31191406 -1.85125 14.14335938 -2 15 C-2.33 15 -2.66 15 -3 15 C-3 12.69 -3 10.38 -3 8 C-14.20834005 9.08388282 -14.20834005 9.08388282 -25.25 11.1875 C-30.94440844 12.4212885 -33.48894302 11.40584276 -38.3125 8.4375 C-39.54648216 7.63233234 -40.77730619 6.82220849 -42 6 C-39.27074946 4.63537473 -36.92593694 4.77094459 -33.875 4.625 C-27.68938783 4.23125467 -21.78940398 3.30914281 -15.71826172 2.09301758 C-10.49232487 1.05567619 -5.3124117 0.37033639 0 0 Z " fill="#D1CDCF" transform="translate(175,24)"/>
<path d="M0 0 C1.47970581 1.10345459 1.47970581 1.10345459 3 3 C3.35403442 5.84136963 3.35403442 5.84136963 3.32470703 9.34472656 C3.32125275 10.65749573 3.31779846 11.97026489 3.3142395 13.32281494 C3.29557308 14.76208682 3.27676021 16.2013568 3.2578125 17.640625 C3.24966633 19.12497235 3.24300671 20.60932853 3.23776245 22.09368896 C3.22062001 26.01392129 3.18640509 29.93380984 3.14770508 33.85388184 C3.08866767 40.08423287 3.05414894 46.31474281 3.02193832 52.54528046 C3.00822859 54.70022284 2.98657696 56.85496524 2.96365356 59.00982666 C2.88756783 68.05927367 3.27144752 76.98389661 4 86 C-4.21721775 77.78278225 -1.11935662 52.61187529 -1.13786316 41.41760254 C-1.13709677 39.34732936 -1.1345839 37.27705614 -1.13037109 35.20678711 C-1.12496739 32.04340924 -1.13037199 28.88017071 -1.13671875 25.71679688 C-1.13605856 23.67708302 -1.13477863 21.63736926 -1.1328125 19.59765625 C-1.13483673 18.66623306 -1.13686096 17.73480988 -1.13894653 16.77516174 C-1.11884169 11.10723281 -0.72045823 5.62307987 0 0 Z " fill="#E7DCD9" transform="translate(42,163)"/>
<path d="M0 0 C0.495 0.99 0.495 0.99 1 2 C-9.09687182 4.73130457 -19.19364005 7.33121182 -29.41723633 9.54541016 C-34.49021285 10.64888736 -39.53005544 11.84967885 -44.5625 13.125 C-61.14581168 17.31317344 -61.14581168 17.31317344 -66 17 C-65.505 15.515 -65.505 15.515 -65 14 C-63.1796875 13.33984375 -63.1796875 13.33984375 -60.875 12.9375 C-57.9039628 12.37630408 -55.16026818 11.74808046 -52.25 10.875 C-49.3072535 10.0827221 -47.02050241 9.81693925 -44 10 C-44 9.34 -44 8.68 -44 8 C-42.22496094 7.72736328 -42.22496094 7.72736328 -40.4140625 7.44921875 C-32.8878525 6.26296632 -25.55965445 5.08016323 -18.3046875 2.6953125 C-12.33987365 0.89575849 -6.22961434 -0.14539495 0 0 Z " fill="#373844" transform="translate(157,127)"/>
<path d="M0 0 C2.375 0.3125 2.375 0.3125 3.375 1.3125 C3.41592937 3.64547433 3.41741723 5.97955225 3.375 8.3125 C2.715 8.3125 2.055 8.3125 1.375 8.3125 C1.17003906 8.93898438 0.96507812 9.56546875 0.75390625 10.2109375 C0.48449219 11.02820313 0.21507812 11.84546875 -0.0625 12.6875 C-0.32933594 13.49960938 -0.59617188 14.31171875 -0.87109375 15.1484375 C-1.625 17.3125 -1.625 17.3125 -2.625 19.3125 C-3.285 19.3125 -3.945 19.3125 -4.625 19.3125 C-4.625 21.6225 -4.625 23.9325 -4.625 26.3125 C-5.945 26.6425 -7.265 26.9725 -8.625 27.3125 C-11.4937628 23.0093558 -11.3374866 19.36403002 -10.625 14.3125 C-5.56210468 0.66215532 -5.56210468 0.66215532 0 0 Z " fill="#332E2D" transform="translate(149.625,54.6875)"/>
<path d="M0 0 C4.75 0.75 4.75 0.75 7 3 C7.96865358 9.99443363 6.81219847 15.1651839 2.625 20.875 C0.32303336 22.46866921 -1.2666341 22.35043153 -4 22 C-6 20 -6 20 -6.375 16.875 C-5.97864847 12.77936749 -4.96538961 10.40677397 -3.0234375 6.8671875 C-1.80833945 4.65032923 -0.88684492 2.36491979 0 0 Z " fill="#343439" transform="translate(223,15)"/>
<path d="M0 0 C2.475 0.495 2.475 0.495 5 1 C5.95088827 4.20134538 6.11608095 7.06200506 6.09765625 10.39526367 C6.09435303 11.47285446 6.0910498 12.55044525 6.08764648 13.66069031 C6.07934814 14.81809219 6.0710498 15.97549408 6.0625 17.16796875 C6.05871338 18.35852371 6.05492676 19.54907867 6.05102539 20.77571106 C6.03880016 24.57967727 6.02016091 28.38356806 6 32.1875 C5.97353422 37.20182072 5.95348698 42.21610494 5.9375 47.23046875 C5.92920166 48.39394333 5.92090332 49.55741791 5.91235352 50.75614929 C5.90905029 51.8242836 5.90574707 52.89241791 5.90234375 53.99291992 C5.89448853 55.41044807 5.89448853 55.41044807 5.88647461 56.85661316 C5.75951197 58.98241771 5.75951197 58.98241771 7 60 C9.69654854 60.07319621 12.36691458 60.09242537 15.0625 60.0625 C15.82111328 60.05798828 16.57972656 60.05347656 17.36132812 60.04882812 C19.24091871 60.0370068 21.12046899 60.01907078 23 60 C22.98839844 59.17757812 22.97679688 58.35515625 22.96484375 57.5078125 C22.90898042 50.59672029 23.13305966 43.85811735 24 37 C24.33 37 24.66 37 25 37 C26.18780208 41.72247116 26.2191091 46.34921272 26.25 51.1875 C26.270625 52.00669922 26.29125 52.82589844 26.3125 53.66992188 C26.328125 56.04296875 26.328125 56.04296875 26 60 C22.57905758 62.28062828 21.31812778 62.21925007 17.3125 62.125 C16.31863281 62.10695312 15.32476562 62.08890625 14.30078125 62.0703125 C13.16189453 62.03550781 13.16189453 62.03550781 12 62 C12 62.99 12 63.98 12 65 C9.07025492 64.6832708 7.45333048 64.46411774 5.35905457 62.32000732 C3.65496583 59.41100099 3.60355327 57.49258592 3.56762695 54.12988281 C3.54783279 52.94896057 3.52803864 51.76803833 3.50764465 50.55133057 C3.50125473 49.28142273 3.49486481 48.01151489 3.48828125 46.703125 C3.47033005 45.39921814 3.45237885 44.09531128 3.43388367 42.75189209 C3.38643011 39.29304007 3.3565912 35.83425306 3.33044434 32.37518311 C3.30061503 28.84243938 3.25409294 25.30991957 3.20898438 21.77734375 C3.12300455 14.85169017 3.05563578 7.92596199 3 1 C2.01 0.67 1.02 0.34 0 0 Z " fill="#9B918E" transform="translate(78,63)"/>
<path d="M0 0 C3.31196514 2.8846148 3.78741982 6.39084354 4.12890625 10.62109375 C3.83719417 16.00450758 1.25416806 19.80701087 -2.5625 23.4375 C-6.69352268 26.08559146 -10.05336497 26.18883761 -14.875 26.25 C-16.08929688 26.27578125 -17.30359375 26.3015625 -18.5546875 26.328125 C-23.15949088 25.8895723 -25.73553861 24.39526774 -28.8125 21 C-30.66083971 16.3305102 -30.75824215 11.94628992 -30 7 C-27.91973864 2.25734653 -24.70776755 -0.82718421 -20 -3 C-12.7899818 -5.73483449 -6.18416083 -4.08952571 0 0 Z M-26.6953125 4.83203125 C-29.13304209 8.88274958 -28.62271859 13.43790946 -28 18 C-25.95426614 21.45658479 -24.33219615 22.7785359 -21 25 C-18.19855546 25.35599164 -18.19855546 25.35599164 -15.125 25.3125 C-14.09632813 25.32925781 -13.06765625 25.34601563 -12.0078125 25.36328125 C-7.27409198 24.79154617 -4.16483686 22.63782861 -1.25 18.9375 C1.66795946 15.12794182 2.40462155 12.96530917 2.3515625 8.1015625 C1.71921791 4.32154706 -0.25805301 2.61731304 -3 0 C-11.39545035 -5.08974178 -20.42704267 -1.94174421 -26.6953125 4.83203125 Z " fill="#4F6AA4" transform="translate(212,45)"/>
<path d="M0 0 C0.99234834 3.2034027 0.99554197 5.7527984 0.66015625 9.078125 C0.51960815 10.56131226 0.51960815 10.56131226 0.3762207 12.07446289 C0.27269287 13.12239014 0.16916504 14.17031738 0.0625 15.25 C-1.55750864 31.48492675 -1.55750864 31.48492675 -0.36328125 47.68359375 C0.02061737 51.18821667 -0.32845331 52.06990514 -2 55 C-4.74283186 46.75171938 -5.46302751 39.22342915 -5.375 30.5625 C-5.38660156 29.42490234 -5.39820312 28.28730469 -5.41015625 27.11523438 C-5.37725856 17.50362503 -3.70039287 8.87552181 0 0 Z " fill="#DACCC8" transform="translate(22,71)"/>
<path d="M0 0 C0.495 2.475 0.495 2.475 1 5 C0.2471875 5.09796875 -0.505625 5.1959375 -1.28125 5.296875 C-8.48716159 6.31129945 -15.4356101 7.74289884 -22.44140625 9.67871094 C-26.3953912 10.73724233 -29.91026505 11.18963222 -34 11 C-34 10.34 -34 9.68 -34 9 C-36.31 9.66 -38.62 10.32 -41 11 C-41.66 10.34 -42.32 9.68 -43 9 C-37.68148561 7.71103254 -32.36125299 6.42950861 -27.03930664 5.15478516 C-25.22989819 4.72029384 -23.42097201 4.28378894 -21.61254883 3.84521484 C-19.00987582 3.21439385 -16.40554222 2.59088546 -13.80078125 1.96875 C-12.99538406 1.77188599 -12.18998688 1.57502197 -11.36018372 1.37219238 C-7.49642924 0.45663816 -4.00354293 -0.25263373 0 0 Z " fill="#8B7F8D" transform="translate(157,119)"/>
<path d="M0 0 C-0.33 1.98 -0.66 3.96 -1 6 C-3.60311992 6.67099984 -6.20735398 7.33695338 -8.8125 8 C-9.55048828 8.19078125 -10.28847656 8.3815625 -11.04882812 8.578125 C-14.10535341 9.35262914 -16.83373478 10 -20 10 C-20.33 10.66 -20.66 11.32 -21 12 C-24 6.25 -24 6.25 -24 4 C-20.75393904 3.1303597 -17.50267592 2.28203087 -14.25 1.4375 C-13.32960937 1.19064453 -12.40921875 0.94378906 -11.4609375 0.68945312 C-10.57148438 0.46064453 -9.68203125 0.23183594 -8.765625 -0.00390625 C-7.94868164 -0.21861572 -7.13173828 -0.4333252 -6.29003906 -0.65454102 C-3.85854591 -1.02133876 -2.31574702 -0.76494053 0 0 Z " fill="#9D989A" transform="translate(172,36)"/>
<path d="M0 0 C2.46238893 0.83195276 4.65632899 1.8520795 7 3 C3.25 4.125 3.25 4.125 1 3 C1 4.98 1 6.96 1 9 C-0.98 9.66 -2.96 10.32 -5 11 C-3.10435574 11.79211929 -1.20847629 12.58367576 0.6875 13.375 C1.74324219 13.81585938 2.79898438 14.25671875 3.88671875 14.7109375 C6.58356657 15.82757462 9.28716264 16.92291801 12 18 C12 18.33 12 18.66 12 19 C4.53691515 18.853665 -4.60737588 15.39262412 -10 10 C-10.45681382 3.83301344 -10.45681382 3.83301344 -8.9375 1.0625 C-5.84241646 -0.63480388 -3.47682933 -0.34768293 0 0 Z " fill="#686B7B" transform="translate(119,41)"/>
<path d="M0 0 C2.31 0 4.62 0 7 0 C7 8.91 7 17.82 7 27 C5.35 27.33 3.7 27.66 2 28 C2 19.09 2 10.18 2 1 C1.34 0.67 0.68 0.34 0 0 Z " fill="#B8ADAC" transform="translate(195,72)"/>
<path d="M0 0 C2.125 0.375 2.125 0.375 4 1 C3.01 1.495 3.01 1.495 2 2 C2 10.91 2 19.82 2 29 C1.67 29 1.34 29 1 29 C0.34 34.94 -0.32 40.88 -1 47 C-1.33 47 -1.66 47 -2 47 C-2.0505963 40.62796407 -2.08568957 34.2559797 -2.10986328 27.88378906 C-2.11993789 25.71482406 -2.13359798 23.54587269 -2.15087891 21.37695312 C-2.17506323 18.26428874 -2.18646832 15.15180349 -2.1953125 12.0390625 C-2.20563507 11.065065 -2.21595764 10.0910675 -2.22659302 9.08755493 C-2.22674408 8.18677216 -2.22689514 7.28598938 -2.22705078 6.35791016 C-2.231492 5.56293121 -2.23593323 4.76795227 -2.24050903 3.94888306 C-2 2 -2 2 0 0 Z " fill="#B2A7A6" transform="translate(102,76)"/>
<path d="M0 0 C-3.51413022 2.34275348 -6.88367157 3.04780787 -10.9375 3.9375 C-12.47158018 4.28285174 -14.00543354 4.62921249 -15.5390625 4.9765625 C-16.29477539 5.14704102 -17.05048828 5.31751953 -17.82910156 5.49316406 C-21.77457935 6.414308 -25.67877089 7.49748641 -29.58203125 8.58203125 C-32.10190074 9.01761451 -33.60327968 8.82125382 -36 8 C-35 6 -35 6 -33.29174805 5.24731445 C-27.49838431 3.42759996 -21.68821322 1.72203525 -15.8125 0.1875 C-14.94947266 -0.05419922 -14.08644531 -0.29589844 -13.19726562 -0.54492188 C-8.13391008 -1.85821761 -4.92489599 -2.3455724 0 0 Z " fill="#BBB0AF" transform="translate(92,147)"/>
<path d="M0 0 C0.66 0 1.32 0 2 0 C3.46930415 2.9386083 3.20341709 5.62898787 3.28125 8.90625 C3.29965942 9.58675415 3.31806885 10.2672583 3.33703613 10.96838379 C3.41575206 13.88354708 3.48345909 16.79894375 3.55224609 19.71435547 C3.60397502 21.84093629 3.66122447 23.96731939 3.71875 26.09375 C3.74904297 27.36927734 3.77933594 28.64480469 3.81054688 29.95898438 C3.79606929 32.91775016 3.79606929 32.91775016 5 35 C10.94 35 16.88 35 23 35 C22.67 35.99 22.34 36.98 22 38 C17.38 38 12.76 38 8 38 C8 38.66 8 39.32 8 40 C3.38979933 38.54414716 3.38979933 38.54414716 1.86181641 36.41113281 C0.65288379 33.02886129 0.64266231 29.72264058 0.5859375 26.171875 C0.56657135 25.42286926 0.5472052 24.67386353 0.5272522 23.90216064 C0.46764284 21.51822164 0.42114646 19.13423386 0.375 16.75 C0.33680299 15.13018769 0.29775025 13.51039532 0.2578125 11.890625 C0.16195687 7.92724594 0.07785754 3.96377181 0 0 Z " fill="#8D8381" transform="translate(179,64)"/>
<path d="M0 0 C3.5 0.125 3.5 0.125 4.5 1.125 C4.62487758 2.93427281 4.67570846 4.74896107 4.6875 6.5625 C4.70167969 7.55121094 4.71585938 8.53992188 4.73046875 9.55859375 C4.5 12.125 4.5 12.125 2.5 14.125 C-1.125 13.75 -1.125 13.75 -4.5 13.125 C-4.52686553 11.14590602 -4.54633375 9.16671029 -4.5625 7.1875 C-4.57410156 6.08535156 -4.58570313 4.98320312 -4.59765625 3.84765625 C-4.45113287 -0.23741548 -4.2094359 0.150337 0 0 Z " fill="#181818" transform="translate(7.5,13.875)"/>
<path d="M0 0 C-0.33 0.99 -0.66 1.98 -1 3 C-2.2684375 2.67515625 -2.2684375 2.67515625 -3.5625 2.34375 C-14.48631723 -0.33755059 -21.26453708 -0.42846325 -32.14453125 2.44140625 C-35 3 -35 3 -38 2 C-39.66362417 1.65179959 -41.32995171 1.31595508 -43 1 C-43 0.67 -43 0.34 -43 0 C-28.64198874 -3.49615877 -14.21054044 -4.8721853 0 0 Z " fill="#BDB8B8" transform="translate(228,121)"/>
<path d="M0 0 C2.83602371 0.39389218 4.64759392 0.72716949 6.9375 2.5 C9.56046587 4.40761154 11.81678862 4.63827143 15 5 C15 5.66 15 6.32 15 7 C15.65226562 6.98839844 16.30453125 6.97679688 16.9765625 6.96484375 C21.7761914 6.91529006 26.27784685 7.00586249 31 8 C31.33 7.01 31.66 6.02 32 5 C32.495 6.98 32.495 6.98 33 9 C27.05296317 12.06943836 20.7886218 11.7330019 14.5 9.875 C9.4482809 8.01618082 2.49488371 4.98976743 0 0 Z " fill="#B6AEB0" transform="translate(106,78)"/>
<path d="M0 0 C2.475 0.495 2.475 0.495 5 1 C4.01 1.495 4.01 1.495 3 2 C3.66 11.24 4.32 20.48 5 30 C3.68 29.67 2.36 29.34 1 29 C-0.07917226 25.76248322 -0.11425601 23.42248229 -0.09765625 20.01953125 C-0.09443359 18.85615234 -0.09121094 17.69277344 -0.08789062 16.49414062 C-0.07951172 15.27919922 -0.07113281 14.06425781 -0.0625 12.8125 C-0.05798828 11.58595703 -0.05347656 10.35941406 -0.04882812 9.09570312 C-0.03703065 6.06375332 -0.02056921 3.03190094 0 0 Z " fill="#B1A4A4" transform="translate(184,70)"/>
<path d="M0 0 C0.556875 0.37125 1.11375 0.7425 1.6875 1.125 C1.6875 1.455 1.6875 1.785 1.6875 2.125 C-3.48612801 3.35230787 -8.65988019 4.5790906 -13.83374023 5.80541992 C-15.58800491 6.22129679 -17.34223757 6.63730869 -19.09643555 7.0534668 C-19.94310791 7.25431885 -20.78978027 7.4551709 -21.66210938 7.66210938 C-22.5025882 7.86150116 -23.34306702 8.06089294 -24.20901489 8.2663269 C-26.70178469 8.8564903 -29.19534276 9.44323498 -31.68896484 10.02978516 C-34.57912523 10.71058048 -37.46456199 11.40655347 -40.34619141 12.12255859 C-42.08715088 12.54722412 -42.08715088 12.54722412 -43.86328125 12.98046875 C-44.85626221 13.22821045 -45.84924316 13.47595215 -46.87231445 13.73120117 C-49.3125 14.125 -49.3125 14.125 -52.3125 13.125 C-51.6525 13.125 -50.9925 13.125 -50.3125 13.125 C-50.3125 12.465 -50.3125 11.805 -50.3125 11.125 C-48.518125 11.00125 -48.518125 11.00125 -46.6875 10.875 C-41.40068509 10.28484392 -36.50718122 8.82583805 -31.421875 7.3046875 C-25.71867782 5.62677384 -19.93219371 4.26465988 -14.15307617 2.87597656 C-10.77430958 2.05157756 -7.59272589 1.23946893 -4.3671875 -0.078125 C-2.3125 -0.875 -2.3125 -0.875 0 0 Z " fill="#565351" transform="translate(154.3125,162.875)"/>
<path d="M0 0 C0.33 0.99 0.66 1.98 1 3 C0.01 3.495 0.01 3.495 -1 4 C-0.67 2.68 -0.34 1.36 0 0 Z M-2 4 C-0.37251142 7.25497717 -1.83913112 10.56619873 -2.5625 14 C-4.02455037 21.46510341 -4.50769256 27.98461487 -1 35 C-1.33984375 36.9453125 -1.33984375 36.9453125 -1.9375 39.125 C-2.13214844 39.84945312 -2.32679688 40.57390625 -2.52734375 41.3203125 C-2.76130859 42.15175781 -2.76130859 42.15175781 -3 43 C-3.66 43 -4.32 43 -5 43 C-5.76822965 35.35885865 -6.14888564 27.73901318 -6.25 20.0625 C-6.27126953 19.2583667 -6.29253906 18.4542334 -6.31445312 17.62573242 C-6.34352542 12.6486591 -5.69348939 9.34631243 -3 5 C-2.67 4.67 -2.34 4.34 -2 4 Z " fill="#CCC5C6" transform="translate(184,17)"/>
<path d="M0 0 C2 2 2 2 2.3125 4.9375 C2 8 2 8 0.8125 9.875 C-1.61758081 11.38332602 -3.19015752 11.36023622 -6 11 C-8 9 -8 9 -8.3125 6.0625 C-8 3 -8 3 -6.8125 1.125 C-4.38241919 -0.38332602 -2.80984248 -0.36023622 0 0 Z " fill="#5D779B" transform="translate(183,183)"/>
<path d="M0 0 C0 1.32 0 2.64 0 4 C-5.83712355 6.72399099 -11.76559832 8.41039668 -18 10 C-18.33 8.02 -18.66 6.04 -19 4 C-16.39688008 3.32900016 -13.79264602 2.66304662 -11.1875 2 C-10.44951172 1.80921875 -9.71152344 1.6184375 -8.95117188 1.421875 C-5.89464659 0.64737086 -3.16626522 0 0 0 Z " fill="#2D292A" transform="translate(171,42)"/>
<path d="M0 0 C-3.15929702 3.55939333 -6.74790779 4.2341433 -11.25 5.25 C-12.35794922 5.5284375 -12.35794922 5.5284375 -13.48828125 5.8125 C-18.36483255 6.94778179 -22.09328047 7.01249768 -27 6 C-27 5.34 -27 4.68 -27 4 C-9.32801822 -0.59225513 -9.32801822 -0.59225513 0 0 Z " fill="#B9AFAE" transform="translate(192,122)"/>
<path d="M0 0 C0.99 0 1.98 0 3 0 C5.37358694 3.56038041 5.73959381 4.80896839 5 9 C1.27212484 13.66535855 -3.14530264 15.93550957 -9 17 C-12.4375 17.125 -12.4375 17.125 -15 17 C-14.505 15.515 -14.505 15.515 -14 14 C-11.63671875 13.15625 -11.63671875 13.15625 -8.6875 12.5 C-4.72044924 11.61019422 -2.10741596 10.65717279 1 8 C0.67 5.36 0.34 2.72 0 0 Z " fill="#141414" transform="translate(15,22)"/>
<path d="M0 0 C-0.97027587 2.54538206 -1.47558407 3.75021666 -3.98364258 4.94482422 C-4.77923584 5.1460791 -5.5748291 5.34733398 -6.39453125 5.5546875 C-7.26787109 5.77640625 -8.14121094 5.998125 -9.04101562 6.2265625 C-9.95560547 6.44054687 -10.87019531 6.65453125 -11.8125 6.875 C-12.71548828 7.1121875 -13.61847656 7.349375 -14.54882812 7.59375 C-21.20950262 9.21854348 -21.20950262 9.21854348 -25.13671875 8.1328125 C-25.75160156 7.75898438 -26.36648437 7.38515625 -27 7 C-24.14993471 5.09995647 -22.47544587 4.47791298 -19.21875 3.7109375 C-18.29449219 3.49179688 -17.37023437 3.27265625 -16.41796875 3.046875 C-15.45503906 2.82515625 -14.49210938 2.6034375 -13.5 2.375 C-12.53707031 2.14554688 -11.57414063 1.91609375 -10.58203125 1.6796875 C-3.41336496 0 -3.41336496 0 0 0 Z " fill="#989292" transform="translate(158,129)"/>
<path d="M0 0 C0.33 0 0.66 0 1 0 C1.12588473 7.42719919 1.12588473 7.42719919 0.51367188 10.21289062 C-0.08193421 13.44456318 -0.21511586 16.54732867 -0.31640625 19.83203125 C-0.35830078 21.12431641 -0.40019531 22.41660156 -0.44335938 23.74804688 C-0.48316352 25.10286192 -0.52287591 26.45767967 -0.5625 27.8125 C-0.60573723 29.18686105 -0.64935312 30.56121024 -0.69335938 31.93554688 C-0.7992979 35.29026669 -0.90137189 38.6450586 -1 42 C-4.24136323 37.13795516 -3.32773967 31.77737784 -3.3125 26.0625 C-3.32861328 24.88880859 -3.34472656 23.71511719 -3.36132812 22.50585938 C-3.36570526 14.58761787 -2.29464435 7.57675416 0 0 Z " fill="#E7DBD8" transform="translate(20,76)"/>
<path d="M0 0 C4.75 0.75 4.75 0.75 7 3 C7.82005227 8.92141636 7.33601013 13.93420685 4 19 C2.3125 20.875 2.3125 20.875 1 22 C0.34 21.67 -0.32 21.34 -1 21 C-0.401875 20.29875 0.19625 19.5975 0.8125 18.875 C2.97740961 16.02969023 4.49596636 13.23367233 6 10 C5.401875 9.95875 4.80375 9.9175 4.1875 9.875 C2 9 2 9 0.1875 6.125 C-1 3 -1 3 0 0 Z " fill="#566386" transform="translate(223,15)"/>
<path d="M0 0 C0.66 0.99 1.32 1.98 2 3 C-0.99418653 3.99806218 -3.36386923 4.2353021 -6.5 4.4375 C-12.43014774 4.88587702 -18.17570242 5.81908927 -24 7 C-24.33 6.34 -24.66 5.68 -25 5 C-17.46973421 1.47519474 -8.4241656 -1.656337 0 0 Z " fill="#243773" transform="translate(158,124)"/>
<path d="M0 0 C0 19.47 0 38.94 0 59 C-0.33 59 -0.66 59 -1 59 C-1.33 40.52 -1.66 22.04 -2 3 C-2.66 2.67 -3.32 2.34 -4 2 C-1 0 -1 0 0 0 Z " fill="#C5BAB6" transform="translate(260,141)"/>
<path d="M0 0 C0 0.33 0 0.66 0 1 C-1.216875 1.0825 -2.43375 1.165 -3.6875 1.25 C-7.87410902 1.76414497 -9.80466606 3.21432426 -13 6 C-15.33596223 7.33186265 -17.41528624 8.13842875 -20 9 C-20.99 8.34 -21.98 7.68 -23 7 C-16.36134739 -0.67594208 -9.7961615 -1.66615042 0 0 Z " fill="#CACEDA" transform="translate(209,3)"/>
<path d="M0 0 C0.33 0 0.66 0 1 0 C1.03738281 0.9178125 1.07476562 1.835625 1.11328125 2.78125 C1.49283658 9.8662829 2.29104658 15.47388495 5 22 C4.67 22.99 4.34 23.98 4 25 C-0.29078091 18.69484484 -3.47804918 12.8878114 -3 5 C-2.34 5 -1.68 5 -1 5 C-0.67 3.35 -0.34 1.7 0 0 Z " fill="#989292" transform="translate(174,39)"/>
<path d="M0 0 C0.33 0 0.66 0 1 0 C1 5.61 1 11.22 1 17 C0.34 16.34 -0.32 15.68 -1 15 C-1.37511719 15.44472656 -1.75023437 15.88945313 -2.13671875 16.34765625 C-6.29978514 20.9511478 -6.29978514 20.9511478 -9.6875 21.1875 C-12.83078681 19.57337975 -13.71208521 18.29133779 -15 15 C-14.77370423 11.66213732 -14.50085749 9.00171497 -13 6 C-12.34 6.33 -11.68 6.66 -11 7 C-11.33 7.66 -11.66 8.32 -12 9 C-12.16669318 12.54171978 -12.16669318 12.54171978 -12 16 C-10.95657219 17.23836166 -10.95657219 17.23836166 -8.6875 17.375 C-5.89073812 17.21799919 -5.89073812 17.21799919 -3.8125 15.25 C-1.12718623 10.43495461 -0.65733895 5.42304632 0 0 Z " fill="#8A8EA9" transform="translate(230,19)"/>
<path d="M0 0 C-0.33 0.99 -0.66 1.98 -1 3 C0.65 3 2.3 3 4 3 C4 3.33 4 3.66 4 4 C3.04738281 4.03738281 2.09476563 4.07476563 1.11328125 4.11328125 C-0.14097656 4.17902344 -1.39523438 4.24476562 -2.6875 4.3125 C-3.92886719 4.37050781 -5.17023438 4.42851562 -6.44921875 4.48828125 C-10.09630974 5.01387962 -12.01914772 5.91071795 -15 8 C-15.99 8.495 -15.99 8.495 -17 9 C-16.67 8.236875 -16.34 7.47375 -16 6.6875 C-14.82563314 4.00930865 -14.82563314 4.00930865 -15 1 C-10.03926578 -0.32286246 -5.08888488 -0.08893197 0 0 Z " fill="#DCD9DB" transform="translate(118,24)"/>
<path d="M0 0 C0.33 0 0.66 0 1 0 C1.06058594 0.62648437 1.12117187 1.25296875 1.18359375 1.8984375 C1.26738281 2.71570312 1.35117188 3.53296875 1.4375 4.375 C1.51871094 5.18710937 1.59992188 5.99921875 1.68359375 6.8359375 C1.89090114 9.04272805 1.89090114 9.04272805 3 11 C3.07092842 13.2072923 3.08415025 15.41667452 3.0625 17.625 C3.05347656 18.81351563 3.04445312 20.00203125 3.03515625 21.2265625 C3.02355469 22.14179687 3.01195312 23.05703125 3 24 C3.66 24 4.32 24 5 24 C5 25.32 5 26.64 5 28 C4.34 28 3.68 28 3 28 C2.79503906 27.28972656 2.59007812 26.57945313 2.37890625 25.84765625 C2.10949219 24.92855469 1.84007812 24.00945313 1.5625 23.0625 C1.16224609 21.68771484 1.16224609 21.68771484 0.75390625 20.28515625 C0.20973949 18.0597507 0.20973949 18.0597507 -1 17 C-1.09968672 14.89778307 -1.12968203 12.79207396 -1.125 10.6875 C-1.12757813 9.53636719 -1.13015625 8.38523437 -1.1328125 7.19921875 C-1.02438878 4.58748263 -0.77059738 2.47692016 0 0 Z " fill="#B4ABAC" transform="translate(176,36)"/>
<path d="M0 0 C3.90432869 1.95216435 6.03839944 3.87386607 9 7 C8.67 7.66 8.34 8.32 8 9 C6.35 8.67 4.7 8.34 3 8 C2.80664062 8.56589844 2.61328125 9.13179687 2.4140625 9.71484375 C2.02347656 10.81505859 2.02347656 10.81505859 1.625 11.9375 C1.36976563 12.66839844 1.11453125 13.39929688 0.8515625 14.15234375 C0 16 0 16 -2 17 C-2 14.69 -2 12.38 -2 10 C-1.34 10 -0.68 10 0 10 C0 6.7 0 3.4 0 0 Z " fill="#B2B5C2" transform="translate(220,8)"/>
<path d="M0 0 C0.99 1.32 1.98 2.64 3 4 C1.35 5.65 -0.3 7.3 -2 9 C-2.33 8.34 -2.66 7.68 -3 7 C-7.29 7 -11.58 7 -16 7 C-15.67 6.01 -15.34 5.02 -15 4 C-10.38 3.67 -5.76 3.34 -1 3 C-0.67 2.01 -0.34 1.02 0 0 Z " fill="#333852" transform="translate(202,98)"/>
<path d="M0 0 C-3.61920645 2.4128043 -7.20123537 3.17321246 -11.375 4.125 C-12.13039062 4.30675781 -12.88578125 4.48851562 -13.6640625 4.67578125 C-17.51262597 5.57063954 -21.01948977 6.2378791 -25 6 C-25 5.34 -25 4.68 -25 4 C-8.29157175 -0.59225513 -8.29157175 -0.59225513 0 0 Z " fill="#D1CCCF" transform="translate(171,34)"/>
<path d="M0 0 C-0.33 0.99 -0.66 1.98 -1 3 C-2.216875 2.938125 -3.43375 2.87625 -4.6875 2.8125 C-10.04112223 2.78700656 -14.9209242 4.01185141 -20.08203125 5.34375 C-23 6 -23 6 -27 6 C-26.67 5.01 -26.34 4.02 -26 3 C-17.57993798 0.08120532 -8.83125537 -0.43671043 0 0 Z " fill="#B0ABAF" transform="translate(172,32)"/>
<path d="M0 0 C1 1 1 1 1.0625 3.5625 C1.041875 4.366875 1.02125 5.17125 1 6 C-1.3125 7.125 -1.3125 7.125 -4 8 C-4.99 7.34 -5.98 6.68 -7 6 C-7.1875 2.875 -7.1875 2.875 -7 0 C-4.31633121 -1.3418344 -2.84719317 -0.73004953 0 0 Z " fill="#2B2B2B" transform="translate(19,6)"/>
<path d="M0 0 C-3.64730521 3.64730521 -9.28047539 4.01257861 -14.1875 5.1875 C-15.87456055 5.61579102 -15.87456055 5.61579102 -17.59570312 6.05273438 C-23.43845107 7.46447418 -28.11963333 8.47221915 -34 7 C-34 6.67 -34 6.34 -34 6 C-32.84213989 5.78065796 -32.84213989 5.78065796 -31.66088867 5.55688477 C-28.16935076 4.89422068 -24.67842243 4.2283985 -21.1875 3.5625 C-19.97255859 3.33240234 -18.75761719 3.10230469 -17.50585938 2.86523438 C-15.76079102 2.53168945 -15.76079102 2.53168945 -13.98046875 2.19140625 C-12.90692139 1.98717041 -11.83337402 1.78293457 -10.72729492 1.57250977 C-2.86710709 -0.07748938 -2.86710709 -0.07748938 0 0 Z " fill="#E5E0E1" transform="translate(88,144)"/>
<path d="M0 0 C0 3.42660711 -0.75979815 4.57233899 -2.4375 7.5 C-5.83420886 14.10042289 -6.90212757 20.45163155 -5.0625 27.6875 C-4.711875 28.450625 -4.36125 29.21375 -4 30 C-4.66 30.33 -5.32 30.66 -6 31 C-9.16546385 25.77065372 -8.56726558 19.90094565 -8 14 C-6.4589664 8.55872156 -3.79279188 4.19916244 0 0 Z " fill="#526799" transform="translate(145,56)"/>
<path d="M0 0 C0.33 0.66 0.66 1.32 1 2 C-1.56076097 2.67404284 -4.12326583 3.339414 -6.6875 4 C-7.40873047 4.19078125 -8.12996094 4.3815625 -8.87304688 4.578125 C-12.66850961 5.54865428 -16.04615439 6.24955239 -20 6 C-19.67 5.34 -19.34 4.68 -19 4 C-16.67843403 3.59270772 -14.3431213 3.25561323 -12 3 C-12 2.34 -12 1.68 -12 1 C-7.95858806 0.36605303 -4.0934693 -0.12404452 0 0 Z " fill="#312E2D" transform="translate(157,127)"/>
<path d="M0 0 C0.33 0 0.66 0 1 0 C2.17700048 4.62459244 2.11408412 9.07866462 2.0625 13.8125 C2.05798828 14.60076172 2.05347656 15.38902344 2.04882812 16.20117188 C2.03711312 18.13414761 2.01917998 20.06708393 2 22 C1.01 22 0.02 22 -1 22 C-1.11459026 14.58982977 -0.91160286 7.35793733 0 0 Z " fill="#A49896" transform="translate(102,100)"/>
<path d="M0 0 C0.66 0 1.32 0 2 0 C2.01417969 0.66386719 2.02835938 1.32773437 2.04296875 2.01171875 C2.35365929 8.02162804 2.35365929 8.02162804 5.5 13.0625 C6.325 13.701875 7.15 14.34125 8 15 C8.33 15.33 8.66 15.66 9 16 C11.01594582 16.23427778 13.038474 16.41336124 15.0625 16.5625 C16.16722656 16.64628906 17.27195313 16.73007813 18.41015625 16.81640625 C19.26480469 16.87699219 20.11945313 16.93757813 21 17 C21 17.33 21 17.66 21 18 C18.93816367 18.08150744 16.87538651 18.1394194 14.8125 18.1875 C13.08966797 18.23970703 13.08966797 18.23970703 11.33203125 18.29296875 C6.76235102 17.89117975 4.18752921 16.35132635 1.1875 12.9375 C-0.54729415 8.64616711 -0.2395984 4.57011756 0 0 Z " fill="#45619C" transform="translate(182,53)"/>
<path d="M0 0 C-0.33 1.32 -0.66 2.64 -1 4 C-5.95 4.66 -10.9 5.32 -16 6 C-16.66 5.01 -17.32 4.02 -18 3 C-15.93918639 2.49309416 -13.87626474 1.99475381 -11.8125 1.5 C-10.66394531 1.2215625 -9.51539063 0.943125 -8.33203125 0.65625 C-5.43181171 0.08504615 -2.93903615 -0.13283779 0 0 Z " fill="#8B7877" transform="translate(157,119)"/>
<path d="M0 0 C6.93 0 13.86 0 21 0 C20.67 0.99 20.34 1.98 20 3 C15.38 3 10.76 3 6 3 C6 3.66 6 4.32 6 5 C3.5625 4.1875 3.5625 4.1875 1 3 C0.67 2.01 0.34 1.02 0 0 Z " fill="#A58762" transform="translate(181,99)"/>
<path d="M0 0 C3.36698558 5.98277118 2.47465537 11.94124068 0.6875 18.375 C-0.31976753 21.73255845 -1.34136572 23.691382 -4 26 C-3.5020163 22.26512223 -3.12508244 20.18762365 -1 17 C-0.50257611 14.10079367 -0.50257611 14.10079367 -0.3125 10.9375 C-0.22613281 9.87402344 -0.13976562 8.81054688 -0.05078125 7.71484375 C0.20935764 5.03216299 0.20935764 5.03216299 -1 3 C-2.98 3 -4.96 3 -7 3 C-7 2.34 -7 1.68 -7 1 C-4.53721199 -0.231394 -2.7204945 -0.07159196 0 0 Z " fill="#435074" transform="translate(153,53)"/>
<path d="M0 0 C-0.33 0.99 -0.66 1.98 -1 3 C-2.98 3 -4.96 3 -7 3 C-7.33 3.99 -7.66 4.98 -8 6 C-8.66 6 -9.32 6 -10 6 C-11.96301592 9.50538557 -12.95902388 13.13351728 -14 17 C-14.33 17 -14.66 17 -15 17 C-15.42656834 12.05180731 -15.60487682 9.94289622 -12.875 5.6875 C-8.7019875 1.78664049 -5.75493068 0 0 0 Z " fill="#2A2D3A" transform="translate(199,43)"/>
<path d="M0 0 C0.33 0 0.66 0 1 0 C0.80812854 10.93667297 0.80812854 10.93667297 -2.375 15.125 C-4.22774581 16.44838987 -6.1055496 17.73703307 -8 19 C-8 18.01 -8 17.02 -8 16 C-7.34 16 -6.68 16 -6 16 C-5.79503906 15.37351562 -5.59007812 14.74703125 -5.37890625 14.1015625 C-5.10949219 13.28429687 -4.84007812 12.46703125 -4.5625 11.625 C-4.29566406 10.81289062 -4.02882812 10.00078125 -3.75390625 9.1640625 C-3 7 -3 7 -2 5 C-1.34 5 -0.68 5 0 5 C0 3.35 0 1.7 0 0 Z " fill="#43414E" transform="translate(153,58)"/>
<path d="M0 0 C0.33 0 0.66 0 1 0 C1.09796875 0.67546875 1.1959375 1.3509375 1.296875 2.046875 C2.36108138 8.97857419 2.36108138 8.97857419 7 14 C10.06533164 15.53266582 13.26754272 15.10276471 16.625 15.0625 C17.33140625 15.05798828 18.0378125 15.05347656 18.765625 15.04882812 C20.51045275 15.03703875 22.255237 15.01910324 24 15 C24 15.66 24 16.32 24 17 C21.43721301 17.05420701 18.87558517 17.09377007 16.3125 17.125 C15.59126953 17.14175781 14.87003906 17.15851563 14.12695312 17.17578125 C8.87325899 17.22376019 5.03987901 17.00005491 1.19921875 13.234375 C-0.32181187 10.40040265 -0.30167765 8.44697412 -0.1875 5.25 C-0.16042969 4.26515625 -0.13335937 3.2803125 -0.10546875 2.265625 C-0.07066406 1.51796875 -0.03585938 0.7703125 0 0 Z " fill="#8B90A7" transform="translate(181,55)"/>
<path d="M0 0 C0.99 0.495 0.99 0.495 2 1 C4.08145604 1.09774794 6.16625547 1.12975741 8.25 1.125 C9.92835937 1.12886719 9.92835937 1.12886719 11.640625 1.1328125 C14.84607544 1.00608539 17.85244689 0.6008965 21 0 C19.85546875 1.48828125 19.85546875 1.48828125 18 3 C15.30078125 3.29296875 15.30078125 3.29296875 12.3125 3.1875 C11.31863281 3.16042969 10.32476562 3.13335937 9.30078125 3.10546875 C8.54152344 3.07066406 7.78226562 3.03585938 7 3 C7 3.99 7 4.98 7 6 C2.25 5.25 2.25 5.25 0 3 C0 2.01 0 1.02 0 0 Z " fill="#AF884B" transform="translate(83,122)"/>
<path d="M0 0 C0 0.33 0 0.66 0 1 C-0.556875 1.08636719 -1.11375 1.17273437 -1.6875 1.26171875 C-8.6087116 2.53606345 -14.32127113 4.90271974 -19 10.3125 C-19.495 11.1478125 -19.495 11.1478125 -20 12 C-20.66 11.67 -21.32 11.34 -22 11 C-18.60842418 5.86418518 -16.09293271 2.55249172 -10.1875 0.3125 C-6.78422046 -0.17368279 -3.43577805 -0.05726297 0 0 Z " fill="#5876B0" transform="translate(204,41)"/>
<path d="M0 0 C0 0.33 0 0.66 0 1 C-3.29070841 1.83714909 -6.58271647 2.66906896 -9.875 3.5 C-11.28072266 3.85771484 -11.28072266 3.85771484 -12.71484375 4.22265625 C-13.61074219 4.44824219 -14.50664062 4.67382812 -15.4296875 4.90625 C-16.25710449 5.11572266 -17.08452148 5.32519531 -17.93701172 5.54101562 C-20 6 -20 6 -22 6 C-22 5.01 -22 4.02 -22 3 C-19.64741656 2.49133331 -17.29338596 1.9929375 -14.9375 1.5 C-13.95233398 1.28537109 -13.95233398 1.28537109 -12.94726562 1.06640625 C-8.56860012 0.16047545 -4.49581296 -0.14031146 0 0 Z " fill="#5C5856" transform="translate(227,147)"/>
<path d="M0 0 C0 0.66 0 1.32 0 2 C0.99 2.33 1.98 2.66 3 3 C-1.29 3.66 -5.58 4.32 -10 5 C-10 4.01 -10 3.02 -10 2 C-6.5980513 -0.09350689 -3.94727588 -0.17942163 0 0 Z " fill="#B1A6A4" transform="translate(67,151)"/>
<path d="M0 0 C0.66 0.99 1.32 1.98 2 3 C1.01 3.495 1.01 3.495 0 4 C0 3.34 0 2.68 0 2 C-10.395 2.99 -10.395 2.99 -21 4 C-15.30144996 0.20096664 -6.78357963 -1.33376936 0 0 Z " fill="#324583" transform="translate(158,124)"/>
<path d="M0 0 C2.125 0.375 2.125 0.375 4 1 C3.67 2.98 3.34 4.96 3 7 C1.35 7 -0.3 7 -2 7 C-2.125 4.625 -2.125 4.625 -2 2 C-1.34 1.34 -0.68 0.68 0 0 Z " fill="#E9CA2B" transform="translate(180,185)"/>
<path d="M0 0 C2.475 0.495 2.475 0.495 5 1 C6.2039337 4.75399798 6.09877617 8.33217412 6.0625 12.25 C6.05347656 13.51328125 6.04445313 14.7765625 6.03515625 16.078125 C6.02355469 17.04234375 6.01195313 18.0065625 6 19 C2.33170734 13.49756101 2.87210875 7.39456234 3 1 C2.01 0.67 1.02 0.34 0 0 Z " fill="#A49C9B" transform="translate(78,63)"/>
<path d="M0 0 C0 0.99 0 1.98 0 3 C-0.61875 3.0825 -1.2375 3.165 -1.875 3.25 C-4.18437567 3.81258459 -4.18437567 3.81258459 -5.25 6.0625 C-5.4975 6.701875 -5.745 7.34125 -6 8 C-7.32 7.34 -8.64 6.68 -10 6 C-4.30769231 0 -4.30769231 0 0 0 Z " fill="#C0C4D2" transform="translate(196,4)"/>
<path d="M0 0 C0 0.66 0 1.32 0 2 C-2.64 2.66 -5.28 3.32 -8 4 C-8 3.34 -8 2.68 -8 2 C-10.31 2.66 -12.62 3.32 -15 4 C-15.66 3.34 -16.32 2.68 -17 2 C-14.91952703 1.4678559 -12.83547707 0.94968214 -10.75 0.4375 C-9.58984375 0.14746094 -8.4296875 -0.14257812 -7.234375 -0.44140625 C-4.27909017 -0.95179964 -2.75565899 -1.02996165 0 0 Z " fill="#917E7D" transform="translate(131,126)"/>
<path d="M0 0 C-0.99 0.66 -1.98 1.32 -3 2 C-3.66 2.66 -4.32 3.32 -5 4 C-6.98356483 4.71408334 -8.98315437 5.38617742 -11 6 C-11.33 4.68 -11.66 3.36 -12 2 C-10.75579353 1.4654744 -9.50429064 0.94791389 -8.25 0.4375 C-7.55390625 0.14746094 -6.8578125 -0.14257812 -6.140625 -0.44140625 C-3.69987216 -1.07831803 -2.3596345 -0.80248831 0 0 Z " fill="#C0B5B6" transform="translate(60,153)"/>
<path d="M0 0 C-1.9626228 2.04795423 -3.4277307 2.94976638 -6.26953125 3.19921875 C-8.51954383 3.18858877 -10.75385562 3.12958525 -13 3 C-13 2.01 -13 1.02 -13 0 C-11.20909747 -0.19466332 -9.41723495 -0.38051213 -7.625 -0.5625 C-6.12839844 -0.71912109 -6.12839844 -0.71912109 -4.6015625 -0.87890625 C-2 -1 -2 -1 0 0 Z " fill="#3B4F7C" transform="translate(103,125)"/>
<path d="M0 0 C1.68359375 1.515625 1.68359375 1.515625 3 3 C1.39679026 3.19551338 -0.20762986 3.38111983 -1.8125 3.5625 C-2.70582031 3.66691406 -3.59914062 3.77132812 -4.51953125 3.87890625 C-7 4 -7 4 -10 3 C-10 2.34 -10 1.68 -10 1 C-6.60444966 -0.04478472 -3.54294857 -0.30152754 0 0 Z " fill="#B4A9A8" transform="translate(175,125)"/>
<path d="M0 0 C1.32 0.33 2.64 0.66 4 1 C4.33 3.31 4.66 5.62 5 8 C1.125 7.125 1.125 7.125 0 6 C-0.04080783 4.00041636 -0.04254356 1.99954746 0 0 Z " fill="#605D5B" transform="translate(224,17)"/>
<path d="M0 0 C6.2054142 0.48320848 11.99945246 1.33318124 18 3 C18 3.33 18 3.66 18 4 C11.28299653 4.31985731 6.24273068 3.4793824 0 1 C0 0.67 0 0.34 0 0 Z " fill="#9B9391" transform="translate(116,85)"/>
<path d="M0 0 C3.96 0 7.92 0 12 0 C12.33 0.66 12.66 1.32 13 2 C11.58800422 2.39222105 10.17007236 2.76311059 8.75 3.125 C7.96109375 3.33382812 7.1721875 3.54265625 6.359375 3.7578125 C3.5796929 4.04314411 2.34112451 3.44977894 0 2 C0 1.34 0 0.68 0 0 Z " fill="#A6A1A4" transform="translate(88,144)"/>
<path d="M0 0 C0.721875 0.144375 1.44375 0.28875 2.1875 0.4375 C2.5175 1.4275 2.8475 2.4175 3.1875 3.4375 C2.465625 3.31375 1.74375 3.19 1 3.0625 C-2.26263736 3.49751831 -2.6166996 3.99311151 -4.625 6.4375 C-5.346875 7.4275 -6.06875 8.4175 -6.8125 9.4375 C-7.1425 8.7775 -7.4725 8.1175 -7.8125 7.4375 C-3.69871444 0.57535558 -3.69871444 0.57535558 0 0 Z " fill="#232430" transform="translate(149.8125,54.5625)"/>
<path d="M0 0 C-0.99 0.33 -1.98 0.66 -3 1 C-3.33 1.66 -3.66 2.32 -4 3 C-8.29 2.67 -12.58 2.34 -17 2 C-17 1.67 -17 1.34 -17 1 C-14.91835982 0.63601378 -12.83459438 0.28416713 -10.75 -0.0625 C-9.00976562 -0.35833984 -9.00976562 -0.35833984 -7.234375 -0.66015625 C-4.37477376 -0.9606216 -2.66674071 -0.9439206 0 0 Z " fill="#BFBAB9" transform="translate(105,178)"/>
<path d="M0 0 C0.66 0.99 1.32 1.98 2 3 C1.34 3.66 0.68 4.32 0 5 C-0.39764263 6.98821313 -0.73775349 8.98944339 -1 11 C-1.66 9.68 -2.32 8.36 -3 7 C-4.65 7.33 -6.3 7.66 -8 8 C-6.37660195 6.29115995 -4.70680947 4.62553283 -3 3 C-2.34 3 -1.68 3 -1 3 C-0.67 2.01 -0.34 1.02 0 0 Z " fill="#AEAEB9" transform="translate(213,63)"/>
<path d="M0 0 C-0.33 0.99 -0.66 1.98 -1 3 C-3.97851562 3.29296875 -3.97851562 3.29296875 -6.95703125 3.5859375 C-9.29988142 3.92665391 -9.29988142 3.92665391 -12 6 C-9.40401988 0.00927665 -6.20086134 -0.23399477 0 0 Z " fill="#DFDCDE" transform="translate(208,4)"/>
<path d="M0 0 C-0.625 1.9375 -0.625 1.9375 -2 4 C-4.9375 4.9375 -4.9375 4.9375 -8 5 C-9.875 3.5625 -9.875 3.5625 -11 2 C-3.375 0 -3.375 0 0 0 Z " fill="#928A89" transform="translate(158,129)"/>
<path d="M0 0 C2.64 0 5.28 0 8 0 C8 0.66 8 1.32 8 2 C8.99 2 9.98 2 11 2 C11 2.66 11 3.32 11 4 C7.7 3.67 4.4 3.34 1 3 C0.67 2.01 0.34 1.02 0 0 Z " fill="#D8D8DE" transform="translate(110,38)"/>
<path d="M0 0 C-2.73099824 1.82066549 -4.39135166 2.55088116 -7.5 3.3125 C-8.2734375 3.51488281 -9.046875 3.71726563 -9.84375 3.92578125 C-12 4 -12 4 -13.78125 2.54296875 C-14.1834375 2.03378906 -14.585625 1.52460937 -15 1 C-9.94997778 -0.03590199 -5.12583611 -0.10251672 0 0 Z " fill="#CBC5CA" transform="translate(171,34)"/>
<path d="M0 0 C0.99 0 1.98 0 3 0 C3 2.97 3 5.94 3 9 C2.01 9 1.02 9 0 9 C0 6.03 0 3.06 0 0 Z " fill="#D6D6D7" transform="translate(6,16)"/>
<path d="M0 0 C0 0.66 0 1.32 0 2 C-5.16044765 3.512545 -8.65998179 4.33500455 -14 3 C-10.992472 0.99498133 -9.88768868 0.68193606 -6.4375 0.375 C-5.65246094 0.30023438 -4.86742188 0.22546875 -4.05859375 0.1484375 C-2 0 -2 0 0 0 Z " fill="#9B898C" transform="translate(123,128)"/>
<path d="M0 0 C1.625 1 1.625 1 3 3 C2.65009645 5.8158905 1.84980278 8.2716858 1 11 C0.34 11 -0.32 11 -1 11 C-1.0270043 9.54176788 -1.04639787 8.08339325 -1.0625 6.625 C-1.07410156 5.81289063 -1.08570313 5.00078125 -1.09765625 4.1640625 C-1 2 -1 2 0 0 Z " fill="#C1B9BE" transform="translate(180,49)"/>
<path d="M0 0 C-5.47876512 3.65251008 -8.43296699 4.2189011 -15 4 C-15 3.34 -15 2.68 -15 2 C-13.43883181 1.66048381 -11.87598662 1.32867456 -10.3125 1 C-9.44238281 0.814375 -8.57226562 0.62875 -7.67578125 0.4375 C-5.06287036 0.01027953 -2.64186962 -0.07616201 0 0 Z " fill="#C0B8B8" transform="translate(147,175)"/>
<path d="M0 0 C3.63 0 7.26 0 11 0 C8.50494038 2.49505962 7.32671112 2.35948376 3.875 2.625 C2.96492188 2.69976562 2.05484375 2.77453125 1.1171875 2.8515625 C0.06917969 2.92503906 0.06917969 2.92503906 -1 3 C-0.67 2.01 -0.34 1.02 0 0 Z " fill="#373238" transform="translate(92,141)"/>
<path d="M0 0 C2.32590854 3.63423209 2.16265833 6.77088331 2 11 C1.67 11 1.34 11 1 11 C0.34 8.36 -0.32 5.72 -1 3 C-2.98 3 -4.96 3 -7 3 C-7 2.34 -7 1.68 -7 1 C-4.53721199 -0.231394 -2.7204945 -0.07159196 0 0 Z " fill="#465E90" transform="translate(153,53)"/>
<path d="M0 0 C5.65394631 -0.34615998 9.03006806 0.56574762 14 3 C10.78543644 4.03719328 8.59074417 3.94068337 5.3125 3.1875 C4.52488281 3.01605469 3.73726563 2.84460937 2.92578125 2.66796875 C1 2 1 2 0 0 Z " fill="#556E96" transform="translate(112,41)"/>
<path d="M0 0 C-7.28571429 3.42857143 -7.28571429 3.42857143 -12 3 C-10.10827237 0.58279247 -9.04144125 0.01036031 -6 -0.75 C-3 -1 -3 -1 0 0 Z " fill="#A89795" transform="translate(175,121)"/>
<path d="M0 0 C0 0.66 0 1.32 0 2 C0.66 2.33 1.32 2.66 2 3 C-2.455 3.495 -2.455 3.495 -7 4 C-7 3.01 -7 2.02 -7 1 C-2.25 0 -2.25 0 0 0 Z " fill="#CBD1DD" transform="translate(110,24)"/>
<path d="M0 0 C1.4540625 0.0309375 1.4540625 0.0309375 2.9375 0.0625 C2.6075 1.0525 2.2775 2.0425 1.9375 3.0625 C-0.0425 3.3925 -2.0225 3.7225 -4.0625 4.0625 C-4.0625 0.08290816 -4.0625 0.08290816 0 0 Z " fill="#B5A9A9" transform="translate(79.0625,147.9375)"/>
<path d="M0 0 C0 2.97077176 -0.08214652 5.17583545 -1 8 C-3.5625 9.8125 -3.5625 9.8125 -6 11 C-6 10.01 -6 9.02 -6 8 C-5.34 8 -4.68 8 -4 8 C-3.71125 7.05125 -3.4225 6.1025 -3.125 5.125 C-2 2 -2 2 0 0 Z " fill="#493F3E" transform="translate(151,66)"/>
<path d="M0 0 C1.65 0.99 3.3 1.98 5 3 C3.6875 4.5 3.6875 4.5 2 6 C1.01 6 0.02 6 -1 6 C-1.042721 4.33388095 -1.04063832 2.66617115 -1 1 C-0.67 0.67 -0.34 0.34 0 0 Z " fill="#BEBCC2" transform="translate(215,59)"/>
<path d="M0 0 C-1.65215996 3.57967992 -3.73124352 6.77982952 -6 10 C-6.33 10 -6.66 10 -7 10 C-7.3125 7.8125 -7.3125 7.8125 -7 5 C-2.77777778 0 -2.77777778 0 0 0 Z " fill="#A0A2B6" transform="translate(146,54)"/>
<path d="M0 0 C0.66 0.66 1.32 1.32 2 2 C-1.4019487 4.09350689 -4.05272412 4.17942163 -8 4 C-7.67 3.34 -7.34 2.68 -7 2 C-4.6859378 1.26924352 -2.35171131 0.59861742 0 0 Z " fill="#B2A19F" transform="translate(82,142)"/>
<path d="M0 0 C0.53625 0.37125 1.0725 0.7425 1.625 1.125 C-2.4946377 2.41743536 -6.04331683 3.38752625 -10.375 3.125 C-7.39910027 0.14910027 -4.10537447 -1.51250638 0 0 Z " fill="#39322C" transform="translate(114.375,137.875)"/>
<path d="M0 0 C-0.969375 0.61875 -1.93875 1.2375 -2.9375 1.875 C-6.02835362 3.65678846 -6.02835362 3.65678846 -7 6 C-7.66 6 -8.32 6 -9 6 C-9 5.01 -9 4.02 -9 3 C-8.34 3 -7.68 3 -7 3 C-7 2.01 -7 1.02 -7 0 C-3.98968256 -0.93423645 -3.13349732 -1.04449911 0 0 Z " fill="#9890A6" transform="translate(95,138)"/>
<path d="M0 0 C0.99 0.495 0.99 0.495 2 1 C2.40729228 3.32156597 2.74438677 5.6568787 3 8 C2.34 8 1.68 8 1 8 C0.67 8.99 0.34 9.98 0 11 C0 7.37 0 3.74 0 0 Z " fill="#CCBFC2" transform="translate(213,29)"/>
<path d="M0 0 C0.66 0.33 1.32 0.66 2 1 C1.67 1.99 1.34 2.98 1 4 C1.66 4.66 2.32 5.32 3 6 C1.35 6 -0.3 6 -2 6 C-2 2 -2 2 0 0 Z " fill="#47548A" transform="translate(91,139)"/>
<path d="M0 0 C4.75 0.75 4.75 0.75 7 3 C6.67 3.66 6.34 4.32 6 5 C3.5625 4.1875 3.5625 4.1875 1 3 C0.67 2.01 0.34 1.02 0 0 Z " fill="#AB762D" transform="translate(181,99)"/>
<path d="M0 0 C2.78211944 0.37596209 4.5879284 0.67318459 6.8125 2.4375 C8 4 8 4 8 6 C4.63408134 4.55746343 2.48952921 2.66735273 0 0 Z " fill="#AAA2A2" transform="translate(106,78)"/>
<path d="M0 0 C-0.33 0.66 -0.66 1.32 -1 2 C-3.64860427 2.59355614 -6.29197322 2.74209269 -9 3 C-9 2.34 -9 1.68 -9 1 C-6.04335481 -0.4783226 -3.25770263 -0.06032783 0 0 Z " fill="#362F2F" transform="translate(127,135)"/>
<path d="M0 0 C1.32 0.66 2.64 1.32 4 2 C-3.42857143 4.42857143 -3.42857143 4.42857143 -7 3 C-3.535 2.505 -3.535 2.505 0 2 C0 1.34 0 0.68 0 0 Z " fill="#ABA4A7" transform="translate(130,136)"/>
<path d="M0 0 C0 0.99 0 1.98 0 3 C-4.34285714 7 -4.34285714 7 -7 7 C-7 6.34 -7 5.68 -7 5 C-6.01 5 -5.02 5 -4 5 C-3.67 4.01 -3.34 3.02 -3 2 C-2.01 1.34 -1.02 0.68 0 0 Z " fill="#43517F" transform="translate(148,79)"/>
<path d="M0 0 C2.31 0 4.62 0 7 0 C6.01 1.485 6.01 1.485 5 3 C3.35 2.67 1.7 2.34 0 2 C0 1.34 0 0.68 0 0 Z " fill="#9796A3" transform="translate(218,37)"/>
</svg>
