<?xml version="1.0" encoding="UTF-8"?>
<svg version="1.1" xmlns="http://www.w3.org/2000/svg" width="310" height="291">
<path d="M0 0 C102.3 0 204.6 0 310 0 C310 96.03 310 192.06 310 291 C207.7 291 105.4 291 0 291 C0 194.97 0 98.94 0 0 Z " fill="#E9E7E7" transform="translate(0,0)"/>
<path d="M0 0 C5.50973504 2.49497436 8.87945124 6.93550283 12 12 C12.875 14.375 12.875 14.375 13 17 C13.04898438 17.7528125 13.09796875 18.505625 13.1484375 19.28125 C13.43532425 26.60789634 12.13100995 32.42281527 7 38 C6.34 38 5.68 38 5 38 C5 38.66 5 39.32 5 40 C-0.45120269 42.36605393 -4.59569073 43.66636983 -10.3125 41.5 C-15.70733785 38.89559552 -19.34836164 35.91365961 -21.8125 30.375 C-23.99913094 23.86452257 -23.64314989 16.60683186 -22 10 C-20.75 8.5 -20.75 8.5 -19 7 C-18.175 6.154375 -17.35 5.30875 -16.5 4.4375 C-11.24854488 -0.68266875 -7.05519688 -0.79066862 0 0 Z " fill="#B9B7BB" transform="translate(122,13)"/>
<path d="M0 0 C4.65939788 3.52295938 8.01348442 7.74143767 9.4375 13.4375 C9.47875 14.2625 9.52 15.0875 9.5625 15.9375 C10.2225 15.9375 10.8825 15.9375 11.5625 15.9375 C12.53827716 21.75260443 12.92429739 26.3550698 10.5625 31.9375 C8.1875 34.6875 8.1875 34.6875 5.5625 36.9375 C4.94375 37.535625 4.325 38.13375 3.6875 38.75 C0.49431693 40.53442583 -1.82966066 40.30439892 -5.4375 39.9375 C-11.96320765 37.79976818 -15.70964008 34.79740607 -19.25 28.9375 C-21.51106044 22.96464092 -21.80532754 15.45557495 -19.48828125 9.49609375 C-14.65918818 1.46791694 -9.45797204 -4.12270576 0 0 Z " fill="#A9A9B0" transform="translate(172.4375,15.0625)"/>
<path d="M0 0 C1.90627419 0.01342186 1.90627419 0.01342186 3.85105896 0.02711487 C7.1979524 0.05861416 10.54032182 0.12522084 13.88604736 0.20880127 C16.63067803 0.26926218 19.37514713 0.29538709 22.12030125 0.31977749 C27.77811132 0.37016141 33.43547005 0.44691685 39.09204102 0.57592773 C40.58901268 0.60879128 40.58901268 0.60879128 42.1162262 0.64231873 C44.37109375 0.81640625 44.37109375 0.81640625 45.37109375 1.81640625 C45.37109375 5.11640625 45.37109375 8.41640625 45.37109375 11.81640625 C21.61109375 11.81640625 -2.14890625 11.81640625 -26.62890625 11.81640625 C-25.63890625 11.48640625 -24.64890625 11.15640625 -23.62890625 10.81640625 C-23.62890625 10.15640625 -23.62890625 9.49640625 -23.62890625 8.81640625 C-16.60463258 0.93586121 -10.18544591 -0.32012379 0 0 Z " fill="#918A8D" transform="translate(128.62890625,116.18359375)"/>
<path d="M0 0 C18.81 0 37.62 0 57 0 C57 2.31 57 4.62 57 7 C45.12 7 33.24 7 21 7 C21 6.67 21 6.34 21 6 C22.98 6 24.96 6 27 6 C27 5.34 27 4.68 27 4 C14.13 3.505 14.13 3.505 1 3 C0.67 2.01 0.34 1.02 0 0 Z " fill="#6F6969" transform="translate(115,118)"/>
<path d="M0 0 C2.10372132 2.55451874 4.00954369 5.01625963 5.6875 7.875 C12.04340671 16.46406312 21.94667228 21.67289304 32.36328125 23.6328125 C33.23339844 23.75398438 34.10351562 23.87515625 35 24 C35 24.66 35 25.32 35 26 C17.45276229 27.37625394 17.45276229 27.37625394 11.3125 22.6875 C5.65866577 17.19017329 -0.10760678 10.05899721 -1 2 C-0.67 1.34 -0.34 0.68 0 0 Z " fill="#BAB9BB" transform="translate(40,102)"/>
<path d="M0 0 C7.54498233 -0.02312851 15.08996101 -0.04091769 22.63497066 -0.05181217 C26.13808885 -0.05703989 29.64118285 -0.0641355 33.14428711 -0.07543945 C37.16780841 -0.08834206 41.19130414 -0.09322912 45.21484375 -0.09765625 C46.47836166 -0.10281754 47.74187958 -0.10797882 49.04368591 -0.11329651 C50.204814 -0.11337204 51.36594208 -0.11344757 52.56225586 -0.11352539 C54.1044706 -0.11685631 54.1044706 -0.11685631 55.67784119 -0.12025452 C58 0 58 0 59 1 C59 4.3 59 7.6 59 11 C35.24 11 11.48 11 -13 11 C-12.01 10.67 -11.02 10.34 -10 10 C-10 9.34 -10 8.68 -10 8 C-8.5390625 6.4921875 -8.5390625 6.4921875 -6.625 4.875 C-5.99851562 4.33617188 -5.37203125 3.79734375 -4.7265625 3.2421875 C-3 2 -3 2 -1 2 C-1 4.64 -1 7.28 -1 10 C27.71 9.505 27.71 9.505 57 9 C57 6.36 57 3.72 57 1 C38.19 1 19.38 1 0 1 C0 0.67 0 0.34 0 0 Z " fill="#B3ACAB" transform="translate(115,117)"/>
<path d="M0 0 C6.74328153 0.16483577 10.249224 1.13611028 15 6 C18.79897358 10.39399354 18.7277902 14.38257967 19 20 C19.05285156 20.80566406 19.10570312 21.61132812 19.16015625 22.44140625 C19.35429197 27.42985011 18.68767933 30.63252109 16 35 C15.34 35 14.68 35 14 35 C13.62875 35.9590625 13.62875 35.9590625 13.25 36.9375 C12 39 12 39 9.875 39.75 C9.25625 39.8325 8.6375 39.915 8 40 C8.66 39.01 9.32 38.02 10 37 C10.66 37 11.32 37 12 37 C15.47493817 31.20843638 15.11459949 24.53217065 15 18 C14.34 18 13.68 18 13 18 C12.67 19.32 12.34 20.64 12 22 C11.99742187 21.3709375 11.99484375 20.741875 11.9921875 20.09375 C11.67902174 13.16234789 9.93865407 8.91502415 5 4 C2.31345292 2.09961951 2.31345292 2.09961951 0 1 C0 0.67 0 0.34 0 0 Z " fill="#D3D2D6" transform="translate(169,13)"/>
<path d="M0 0 C4.29 0 8.58 0 13 0 C15 4 15 4 15 8 C11.04 8 7.08 8 3 8 C0 2.25 0 2.25 0 0 Z " fill="#77F9FA" transform="translate(199,22)"/>
<path d="M0 0 C2.375 -0.125 2.375 -0.125 5 0 C7.60704898 2.60704898 7.23905333 4.47338241 7.265625 8.02734375 C7 10 7 10 5 13 C2.375 13.1875 2.375 13.1875 0 13 C0 12.34 0 11.68 0 11 C-0.66 11 -1.32 11 -2 11 C-2.28571429 3.57142857 -2.28571429 3.57142857 0 0 Z " fill="#646773" transform="translate(161,27)"/>
<path d="M0 0 C0.99773437 0.02320312 1.99546875 0.04640625 3.0234375 0.0703125 C4.52777344 0.09738281 4.52777344 0.09738281 6.0625 0.125 C6.83335938 0.14820312 7.60421875 0.17140625 8.3984375 0.1953125 C7.6484375 5.9453125 7.6484375 5.9453125 5.3984375 8.1953125 C2.796875 8.390625 2.796875 8.390625 -0.2265625 8.3203125 C-1.73089844 8.29324219 -1.73089844 8.29324219 -3.265625 8.265625 C-4.03648438 8.24242187 -4.80734375 8.21921875 -5.6015625 8.1953125 C-4.57743275 0.34365111 -4.57743275 0.34365111 0 0 Z " fill="#72F8FA" transform="translate(79.6015625,21.8046875)"/>
<path d="M0 0 C5.94 0 11.88 0 18 0 C18 1.65 18 3.3 18 5 C15.56304285 5.22181406 13.126474 5.42791119 10.6875 5.625 C9.65206055 5.72167969 9.65206055 5.72167969 8.59570312 5.8203125 C4.7440028 6.11802847 3.31145584 6.20763723 0 4 C0 2.68 0 1.36 0 0 Z " fill="#B9B2AD" transform="translate(85,94)"/>
<path d="M0 0 C2.375 0.8125 2.375 0.8125 3.375 2.8125 C3.5625 6.3125 3.5625 6.3125 3.375 9.8125 C1.375 11.8125 1.375 11.8125 -1.125 12.125 C-2.3625 11.9703125 -2.3625 11.9703125 -3.625 11.8125 C-5.93782587 8.34326119 -6.04978586 6.89044425 -5.625 2.8125 C-3.92818882 0.04401861 -3.26013392 -0.23286671 0 0 Z " fill="#777273" transform="translate(124.625,27.1875)"/>
<path d="M0 0 C0.87462891 0.00451172 1.74925781 0.00902344 2.65039062 0.01367188 C4.78779047 0.02535166 6.92515463 0.04328311 9.0625 0.0625 C9.0625 1.0525 9.0625 2.0425 9.0625 3.0625 C-0.5075 3.0625 -10.0775 3.0625 -19.9375 3.0625 C-14.06477938 -0.85264708 -6.83266505 -0.06754726 0 0 Z " fill="#5E575B" transform="translate(162.9375,121.9375)"/>
<path d="M0 0 C0.66 0.33 1.32 0.66 2 1 C-1.625 4 -1.625 4 -5 4 C-5 4.66 -5 5.32 -5 6 C-1.535 5.505 -1.535 5.505 2 5 C1.67 5.66 1.34 6.32 1 7 C-2.58326501 7.05814085 -6.16640838 7.09364357 -9.75 7.125 C-10.76578125 7.14175781 -11.7815625 7.15851563 -12.828125 7.17578125 C-13.8078125 7.18222656 -14.7875 7.18867188 -15.796875 7.1953125 C-17.14797363 7.21102295 -17.14797363 7.21102295 -18.52636719 7.22705078 C-21.13926856 6.98721676 -22.75664666 6.32312064 -25 5 C-23.865625 4.89042969 -22.73125 4.78085938 -21.5625 4.66796875 C-20.04160817 4.50836899 -18.52077796 4.3481812 -17 4.1875 C-16.25621094 4.11724609 -15.51242188 4.04699219 -14.74609375 3.97460938 C-10.759695 3.54130516 -7.29970941 2.84752106 -3.5625 1.36328125 C-2.386875 0.91339844 -1.21125 0.46351562 0 0 Z " fill="#DBD7D2" transform="translate(230,121)"/>
<path d="M0 0 C5.61 0 11.22 0 17 0 C17 1.32 17 2.64 17 4 C11.39 4 5.78 4 0 4 C0 2.68 0 1.36 0 0 Z " fill="#87827D" transform="translate(185,94)"/>
<path d="M0 0 C1 2 1 2 0.3125 4.25 C-1 7 -1 7 -3.06640625 9.6796875 C-5.33047228 13.56747764 -5.46936196 16.52150881 -5.25 20.875 C-5.23195312 21.56335938 -5.21390625 22.25171875 -5.1953125 22.9609375 C-5.14863748 24.6412381 -5.07690939 26.32081163 -5 28 C-5.66 28.33 -6.32 28.66 -7 29 C-7.117292 25.81281557 -7.18760766 22.62619432 -7.25 19.4375 C-7.28351562 18.54224609 -7.31703125 17.64699219 -7.3515625 16.72460938 C-7.44168759 10.57357213 -6.65384807 7.00104025 -3 2 C-2.01 1.34 -1.02 0.68 0 0 Z " fill="#D9D1CC" transform="translate(66,40)"/>
<path d="M0 0 C0.66 1.32 1.32 2.64 2 4 C2.81984375 3.97679688 3.6396875 3.95359375 4.484375 3.9296875 C6.10085937 3.90261719 6.10085937 3.90261719 7.75 3.875 C9.35101563 3.84019531 9.35101563 3.84019531 10.984375 3.8046875 C13.92470106 3.99512313 15.52361878 4.47329896 18 6 C11.93184478 7.22899346 6.20104812 8.27560214 0 8 C0 5.36 0 2.72 0 0 Z " fill="#9398A7" transform="translate(114,118)"/>
<path d="M0 0 C0 2.97 0 5.94 0 9 C-3.96 9 -7.92 9 -12 9 C-11.01 8.67 -10.02 8.34 -9 8 C-9 7.34 -9 6.68 -9 6 C-7.5390625 4.4921875 -7.5390625 4.4921875 -5.625 2.875 C-4.99851562 2.33617188 -4.37203125 1.79734375 -3.7265625 1.2421875 C-2 0 -2 0 0 0 Z " fill="#D7D3D2" transform="translate(114,119)"/>
<path d="M0 0 C1.60725635 3.21451269 1.05748185 6.43612536 1 10 C-1.29141286 10.05384521 -3.58318188 10.09272087 -5.875 10.125 C-7.78925781 10.15980469 -7.78925781 10.15980469 -9.7421875 10.1953125 C-13 10 -13 10 -15 8 C-15.125 5.375 -15.125 5.375 -15 3 C-13 5 -13 5 -12 8 C-8.04 8.33 -4.08 8.66 0 9 C-0.66 6.69 -1.32 4.38 -2 2 C-8.93 1.505 -8.93 1.505 -16 1 C-16 0.67 -16 0.34 -16 0 C-13.89651926 -0.19504458 -11.79217415 -0.38078496 -9.6875 -0.5625 C-8.51574219 -0.66691406 -7.34398437 -0.77132813 -6.13671875 -0.87890625 C-3 -1 -3 -1 0 0 Z " fill="#E0F4F7" transform="translate(214,21)"/>
<path d="M0 0 C2.13697894 2.594903 4.09122369 5.14595791 5.875 8 C8.28622171 11.40407771 10.71490086 13.4615143 14 16 C10.06397659 16 9.00638119 14.41977022 6 12 C5.29875 11.87625 4.5975 11.7525 3.875 11.625 C2 11 2 11 0.1875 8.25 C-1.05901808 4.83847682 -1.09763864 3.39270125 0 0 Z " fill="#C8C7CA" transform="translate(40,102)"/>
<path d="M0 0 C2.83339965 -0.02724423 5.66653117 -0.04695589 8.5 -0.0625 C9.29148437 -0.07087891 10.08296875 -0.07925781 10.8984375 -0.08789062 C16.02761717 -0.10891185 20.92336106 0.26062713 26 1 C26 1.66 26 2.32 26 3 C20.94997778 4.03590199 16.12583611 4.10251672 11 4 C11.33 3.34 11.66 2.68 12 2 C8.04 1.67 4.08 1.34 0 1 C0 0.67 0 0.34 0 0 Z " fill="#7C7D8C" transform="translate(116,121)"/>
<path d="M0 0 C0.99 0 1.98 0 3 0 C2.5870136 2.4779184 2.2055735 4.6087472 1.03125 6.84375 C-0.14583325 9.30492406 -0.63145342 11.57074712 -1.125 14.25 C-1.29257813 15.14203125 -1.46015625 16.0340625 -1.6328125 16.953125 C-1.75398437 17.62859375 -1.87515625 18.3040625 -2 19 C-2.33 19 -2.66 19 -3 19 C-3.55353075 5.18223235 -3.55353075 5.18223235 0 0 Z " fill="#B9B8BD" transform="translate(155,21)"/>
<path d="M0 0 C2.0625 0.4375 2.0625 0.4375 4 1 C3.01 1.66 2.02 2.32 1 3 C0.66228483 5.83024762 0.51096665 8.45243967 0.48828125 11.2890625 C0.47033005 12.10748627 0.45237885 12.92591003 0.43388367 13.76913452 C0.37962486 16.38770364 0.34583596 19.00608894 0.3125 21.625 C0.27934057 23.39846317 0.24485221 25.17190204 0.20898438 26.9453125 C0.12388981 31.29674264 0.0571536 35.64811679 0 40 C-0.33 40 -0.66 40 -1 40 C-1.02464775 34.46411467 -1.04283496 28.928261 -1.05493164 23.39233398 C-1.05997244 21.5075627 -1.06680498 19.62279535 -1.07543945 17.73803711 C-1.08751617 15.03498364 -1.09323068 12.33198169 -1.09765625 9.62890625 C-1.10281754 8.78099014 -1.10797882 7.93307404 -1.11329651 7.0594635 C-1.11349195 5.03928932 -1.06206211 3.01922066 -1 1 C-0.67 0.67 -0.34 0.34 0 0 Z " fill="#E8E2DF" transform="translate(204,54)"/>
<path d="M0 0 C0.99 0.33 1.98 0.66 3 1 C3.25 7.625 3.25 7.625 1 11 C0.34 11 -0.32 11 -1 11 C-1.2475 11.639375 -1.495 12.27875 -1.75 12.9375 C-3 15 -3 15 -5.125 15.75 C-6.053125 15.87375 -6.053125 15.87375 -7 16 C-6.34 15.01 -5.68 14.02 -5 13 C-4.34 13 -3.68 13 -3 13 C-1.32889958 10.03821227 -0.67317248 7.62928808 -0.375 4.25 C-0.26285156 3.05117188 -0.26285156 3.05117188 -0.1484375 1.828125 C-0.09945312 1.22484375 -0.05046875 0.6215625 0 0 Z " fill="#CDC6C4" transform="translate(184,37)"/>
<path d="M0 0 C0.66 0 1.32 0 2 0 C2 0.66 2 1.32 2 2 C3.32 2 4.64 2 6 2 C6 1.34 6 0.68 6 0 C9.3 0 12.6 0 16 0 C15.67 0.99 15.34 1.98 15 3 C10.05 3 5.1 3 0 3 C0 2.01 0 1.02 0 0 Z " fill="#7D7976" transform="translate(86,95)"/>
<path d="M0 0 C1.98 0.495 1.98 0.495 4 1 C3.67 1.33 3.34 1.66 3 2 C2.84344973 3.48638992 2.74933057 4.97949127 2.68359375 6.47265625 C2.62075195 7.82133789 2.62075195 7.82133789 2.55664062 9.19726562 C2.51732422 10.14279297 2.47800781 11.08832031 2.4375 12.0625 C2.39431641 13.01189453 2.35113281 13.96128906 2.30664062 14.93945312 C2.20020724 17.29281353 2.09818992 19.64628354 2 22 C1.67 22 1.34 22 1 22 C0.93941406 21.04738281 0.87882812 20.09476563 0.81640625 19.11328125 C0.73261719 17.85902344 0.64882812 16.60476562 0.5625 15.3125 C0.48128906 14.07113281 0.40007812 12.82976562 0.31640625 11.55078125 C0.08341658 8.1104226 0.08341658 8.1104226 -0.59765625 5.23046875 C-1 3 -1 3 0 0 Z " fill="#E0D8D2" transform="translate(102,56)"/>
<path d="M0 0 C2.4375 1.25 2.4375 1.25 3.4375 4.25 C4.0975 4.25 4.7575 4.25 5.4375 4.25 C5.1075 5.24 4.7775 6.23 4.4375 7.25 C3.90125 6.755 3.365 6.26 2.8125 5.75 C-0.15608445 3.87510456 -2.11562427 4.01498575 -5.5625 4.25 C-5.1875 2.3125 -5.1875 2.3125 -4.5625 0.25 C-2.5625 -0.75 -2.5625 -0.75 0 0 Z " fill="#C8C2C5" transform="translate(126.5625,22.75)"/>
<path d="M0 0 C4.95 0 9.9 0 15 0 C15.33 0.99 15.66 1.98 16 3 C15.34 3.66 14.68 4.32 14 5 C14 3.68 14 2.36 14 1 C10.37 1.33 6.74 1.66 3 2 C2.01 4.31 1.02 6.62 0 9 C-0.33 9 -0.66 9 -1 9 C-0.67 6.03 -0.34 3.06 0 0 Z " fill="#BEEBEF" transform="translate(74,21)"/>
<path d="M0 0 C1.98 0 3.96 0 6 0 C6.33 1.32 6.66 2.64 7 4 C7.99 4 8.98 4 10 4 C10.33 5.98 10.66 7.96 11 10 C10.29875 9.2575 9.5975 8.515 8.875 7.75 C6.77717418 5.743384 5.06971505 4.28910331 2.6875 2.75 C1.800625 2.1725 0.91375 1.595 0 1 C0 0.67 0 0.34 0 0 Z " fill="#C5C4CC" transform="translate(169,13)"/>
<path d="M0 0 C5.61 0 11.22 0 17 0 C17 0.33 17 0.66 17 1 C16.11248047 1.09087891 16.11248047 1.09087891 15.20703125 1.18359375 C11.09021792 1.62012371 7.04455467 2.08671346 3 3 C3 2.34 3 1.68 3 1 C2.34 1 1.68 1 1 1 C0.67 1.99 0.34 2.98 0 4 C0 2.68 0 1.36 0 0 Z " fill="#9E9FA2" transform="translate(185,94)"/>
<path d="M0 0 C1.32 0 2.64 0 4 0 C3.34 2.97 2.68 5.94 2 9 C1.01 8.67 0.02 8.34 -1 8 C-1.125 2.25 -1.125 2.25 0 0 Z " fill="#42424D" transform="translate(163,28)"/>
<path d="M0 0 C0.33 0 0.66 0 1 0 C1 2.31 1 4.62 1 7 C-1.31 7 -3.62 7 -6 7 C-5.34 6.67 -4.68 6.34 -4 6 C-3.3162955 4.67532254 -2.65035814 3.34136367 -2 2 C-1.34 1.34 -0.68 0.68 0 0 Z " fill="#C7C3C3" transform="translate(113,120)"/>
<path d="M0 0 C-3.46222615 1.06723961 -6.64039266 1.10173486 -10.25 1.0625 C-11.32765625 1.05347656 -12.4053125 1.04445312 -13.515625 1.03515625 C-14.33546875 1.02355469 -15.1553125 1.01195312 -16 1 C-12.94061919 -0.73602074 -10.36711562 -1.39557633 -6.875 -1.75 C-6.00617187 -1.84796875 -5.13734375 -1.9459375 -4.2421875 -2.046875 C-2 -2 -2 -2 0 0 Z " fill="#EFEFF1" transform="translate(56,128)"/>
<path d="M0 0 C0.99 0 1.98 0 3 0 C3 2.31 3 4.62 3 7 C1.02 7.99 1.02 7.99 -1 9 C-0.67 6.03 -0.34 3.06 0 0 Z " fill="#5B5759" transform="translate(122,30)"/>
<path d="M0 0 C1.36511719 0.43119141 1.36511719 0.43119141 2.7578125 0.87109375 C3.45648438 1.09925781 4.15515625 1.32742187 4.875 1.5625 C4.875 1.8925 4.875 2.2225 4.875 2.5625 C1.245 2.5625 -2.385 2.5625 -6.125 2.5625 C-6.455 1.5725 -6.785 0.5825 -7.125 -0.4375 C-4.30685434 -1.84657283 -2.95222796 -0.94622691 0 0 Z " fill="#A2A1A2" transform="translate(63.125,124.4375)"/>
<path d="M0 0 C1.485 0.99 1.485 0.99 3 2 C4.65549531 2.38499891 6.3222433 2.72793135 8 3 C7.01 4.485 7.01 4.485 6 6 C4.35 5.67 2.7 5.34 1 5 C0.67 3.35 0.34 1.7 0 0 Z " fill="#C5C3C9" transform="translate(119,37)"/>
<path d="M0 0 C3.3 0 6.6 0 10 0 C9.01 0.33 8.02 0.66 7 1 C7 1.66 7 2.32 7 3 C5.68 3 4.36 3 3 3 C3 2.34 3 1.68 3 1 C2.34 1 1.68 1 1 1 C0.67 1.99 0.34 2.98 0 4 C0 2.68 0 1.36 0 0 Z " fill="#9CA1A8" transform="translate(85,94)"/>
<path d="M0 0 C1.9789756 3.63616656 2.5251065 6.88425629 3 11 C2.01 11.495 2.01 11.495 1 12 C-0.26237731 9.47524538 -0.09856404 7.68799534 -0.0625 4.875 C-0.05347656 3.96492188 -0.04445313 3.05484375 -0.03515625 2.1171875 C-0.02355469 1.41851563 -0.01195313 0.71984375 0 0 Z " fill="#9B9CA1" transform="translate(100,30)"/>
<path d="M0 0 C0.99 0 1.98 0 3 0 C2.67 1.65 2.34 3.3 2 5 C0.68 5.33 -0.64 5.66 -2 6 C-1.34 4.02 -0.68 2.04 0 0 Z " fill="#B1B2B6" transform="translate(155,21)"/>
<path d="M0 0 C2.0625 0.4375 2.0625 0.4375 4 1 C3.01 1.66 2.02 2.32 1 3 C0.42251197 4.96361864 0.42251197 4.96361864 0.3125 7.125 C0.209375 8.40375 0.10625 9.6825 0 11 C-0.33 11 -0.66 11 -1 11 C-1.02688151 9.35425434 -1.04634123 7.70838587 -1.0625 6.0625 C-1.07410156 5.14597656 -1.08570313 4.22945312 -1.09765625 3.28515625 C-1 1 -1 1 0 0 Z " fill="#E2D9D4" transform="translate(204,54)"/>
<path d="M0 0 C2.625 0.9375 2.625 0.9375 5 2 C5 2.33 5 2.66 5 3 C2.69 3 0.38 3 -2 3 C-2 2.34 -2 1.68 -2 1 C-1.34 0.67 -0.68 0.34 0 0 Z " fill="#D0CACF" transform="translate(124,22)"/>
</svg>
