<?xml version="1.0" encoding="UTF-8"?>
<svg version="1.1" xmlns="http://www.w3.org/2000/svg" width="500" height="500">
<path d="M0 0 C5.3642134 6.80842471 6.76860674 15.9780865 8.26171875 24.28125 C8.45723831 25.33534058 8.65275787 26.38943115 8.85420227 27.47546387 C9.47216462 30.815754 10.07997989 34.1577966 10.6875 37.5 C11.106751 39.77616534 11.52666604 42.05220847 11.94726562 44.328125 C12.97253051 49.88402592 13.98948894 55.44139779 15 61 C16.19488037 61.01981934 17.38976074 61.03963867 18.62084961 61.06005859 C23.08833554 61.13659682 27.55551608 61.22523689 32.02270508 61.31738281 C33.94972671 61.35547454 35.87681466 61.39036057 37.80395508 61.421875 C40.58699111 61.46795891 43.36957831 61.52587815 46.15234375 61.5859375 C47.00271713 61.59748871 47.85309052 61.60903992 48.72923279 61.62094116 C54.36269203 61.7574189 59.54816486 62.57888779 65 64 C65 64.66 65 65.32 65 66 C65.65226562 66.09796875 66.30453125 66.1959375 66.9765625 66.296875 C72.61999455 67.26241795 76.55094954 68.34949706 81 72 C81.33 72.66 81.66 73.32 82 74 C82.61875 74.268125 83.2375 74.53625 83.875 74.8125 C86.67495745 76.3771821 87.39585806 78.23929152 89 81 C90.13525392 82.59093589 91.28137387 84.17416662 92.4375 85.75 C101.84543577 99.16722486 102.29938914 112.48206749 102.2746582 128.38623047 C102.27901119 130.24013473 102.28419628 132.09403719 102.29014587 133.94793701 C102.30348391 138.96040784 102.30412035 143.97280303 102.30158257 148.98528814 C102.30050935 153.17989901 102.3054052 157.37449479 102.310188 161.56910241 C102.32126518 171.47007074 102.32173064 181.37100113 102.31567383 191.27197266 C102.30963472 201.46372043 102.3219476 211.65533013 102.3432439 221.84705436 C102.36089405 230.61850513 102.36685588 239.38991208 102.36360615 248.16137993 C102.36179863 253.39084705 102.36437639 258.62021566 102.37832069 263.8496666 C102.3909501 268.76963933 102.38890679 273.68939771 102.37590981 278.60936737 C102.37355559 280.40717518 102.37623691 282.20499833 102.38453293 284.00278854 C102.4367286 296.20047523 101.903606 307.43606156 95.9375 318.4375 C94.45608126 321.2080923 93.05613009 323.85319821 91.93359375 326.7890625 C90.74387853 329.60654709 89.67005051 329.66497475 87 331 C86.38125 331.94875 85.7625 332.8975 85.125 333.875 C82.73619253 337.38795216 80.72217658 338.99002465 77 341 C75.00102291 341.33941377 73.00089154 341.67206072 71 342 C68.98165038 342.65221845 66.9715525 343.33039461 64.9693985 344.03075409 C58.02859933 346.20087489 51.7218834 346.56231465 44.48962402 346.50793457 C42.54499213 346.51729451 42.54499213 346.51729451 40.56107473 346.52684355 C37.00110079 346.54338533 33.44156133 346.53536068 29.88158679 346.52289867 C26.02737812 346.51378762 22.17324027 346.52784769 18.31904602 346.53881836 C10.78388033 346.55654403 3.24887459 346.55279028 -4.2862972 346.5411678 C-10.41384459 346.5321102 -16.54134736 346.5309195 -22.66889954 346.53526306 C-23.54317428 346.53587599 -24.41744903 346.53648893 -25.31821695 346.53712043 C-27.09465151 346.53839942 -28.87108606 346.53969627 -30.6475206 346.5410108 C-47.27964976 346.55239916 -63.91169053 346.53933032 -80.54380518 346.51780933 C-94.79470993 346.49993993 -109.04548432 346.50304453 -123.29638672 346.52148438 C-139.871652 346.54292197 -156.44683993 346.55130068 -173.02211714 346.53903532 C-174.79177823 346.53776121 -176.56143934 346.53650373 -178.33110046 346.53526306 C-179.20165932 346.53464596 -180.07221818 346.53402886 -180.96915761 346.53339306 C-187.08470743 346.52994881 -193.20020794 346.53574847 -199.31575012 346.54518127 C-206.77522169 346.5564348 -214.23452502 346.55329106 -221.69397748 346.5320583 C-225.49517258 346.52159276 -229.29608787 346.51734849 -233.0972805 346.53065491 C-237.22830207 346.54489651 -241.35862573 346.52781798 -245.48962402 346.50793457 C-247.2696682 346.5213189 -247.2696682 346.5213189 -249.08567286 346.53497362 C-256.31354719 346.46778381 -262.32839177 345.29096349 -269.14294291 342.85714293 C-271.95284086 342.01414817 -274.09653611 341.95394869 -277 342 C-279.38671875 340.609375 -279.38671875 340.609375 -281.6875 338.75 C-282.83798828 337.84507812 -282.83798828 337.84507812 -284.01171875 336.921875 C-286.02060445 334.98008371 -286.82248461 333.49272412 -288 331 C-289.24511314 329.4580387 -290.51882654 327.93895275 -291.8125 326.4375 C-299.8663042 316.49814091 -303.32786272 305.38023495 -303.26069641 292.70266724 C-303.26452196 291.91869658 -303.26834751 291.13472593 -303.27228898 290.32699859 C-303.28252228 287.72720613 -303.27864542 285.12763853 -303.2746582 282.52783203 C-303.27901004 280.65274859 -303.28419476 278.77766693 -303.29014587 276.90258789 C-303.30349636 271.82814376 -303.30411894 266.7537743 -303.30158257 261.67931604 C-303.30051018 257.43495459 -303.3054031 253.19060808 -303.310188 248.94624984 C-303.32126953 238.9288361 -303.32172821 228.91145987 -303.31567383 218.89404297 C-303.30963454 208.57789666 -303.32194706 198.26188675 -303.3432439 187.94576371 C-303.36088676 179.0715896 -303.36685702 170.19745881 -303.36360615 161.32326782 C-303.36179744 156.03066094 -303.36438835 150.73815137 -303.37832069 145.44556046 C-303.39093814 140.46650904 -303.38891796 135.48766955 -303.37590981 130.50862122 C-303.373553 128.68781842 -303.37624639 126.86700052 -303.38453293 125.04621506 C-303.42444118 115.59093686 -303.29127486 107.00258324 -300 98 C-299.72768209 97.22291246 -299.45536417 96.44582493 -299.1747942 95.64518929 C-296.62590428 88.60943312 -296.62590428 88.60943312 -293.625 85.6875 C-291.19408428 83.19870534 -289.7188078 80.98923095 -288 78 C-283.47492894 71.69540661 -276.84297428 67.09575675 -269.203125 65.3671875 C-266.79326674 65.14080688 -264.41895822 65.04717826 -262 65 C-259.99639094 64.68909515 -257.9940374 64.36732268 -256 64 C-256.33 63.34 -256.66 62.68 -257 62 C-249.08 62 -241.16 62 -233 62 C-233 57.38 -233 52.76 -233 48 C-232.34 48 -231.68 48 -231 48 C-230.731875 46.948125 -230.46375 45.89625 -230.1875 44.8125 C-228.73402488 40.14607988 -226.88083909 36.10467127 -223 33 C-220.8125 32.3125 -220.8125 32.3125 -219 32 C-219 31.67 -219 31.34 -219 31 C-214.69504985 30.90064912 -210.39071817 30.82830732 -206.08496094 30.78027344 C-204.62227748 30.76023668 -203.15967334 30.73299896 -201.69726562 30.69824219 C-199.5870399 30.64936775 -197.47787864 30.62695341 -195.3671875 30.609375 C-194.09987793 30.58842773 -192.83256836 30.56748047 -191.52685547 30.54589844 C-187.37359431 31.08065309 -185.24414922 32.40734721 -182 35 C-180.8125 36.8125 -180.8125 36.8125 -180 39 C-179.46205301 40.2516053 -178.92011899 41.50150167 -178.375 42.75 C-177.92125 43.8225 -177.4675 44.895 -177 46 C-176.34 46 -175.68 46 -175 46 C-175 51.28 -175 56.56 -175 62 C-166.42 62 -157.84 62 -149 62 C-149 60.35 -149 58.7 -149 57 C-148.34 57 -147.68 57 -147 57 C-146.89168854 56.41197601 -146.78337708 55.82395203 -146.67178345 55.21810913 C-145.54122601 49.0850367 -144.40466488 42.95309842 -143.26464844 36.82177734 C-142.84026241 34.5349522 -142.41739579 32.24784453 -141.99609375 29.96044922 C-141.3894359 26.66818575 -140.77727874 23.37698489 -140.1640625 20.0859375 C-139.97752106 19.06696381 -139.79097961 18.04799011 -139.5987854 16.99813843 C-137.18280563 4.10818291 -137.18280563 4.10818291 -134.25962734 1.36942673 C-131.53236764 -0.28340437 -129.90573856 -0.3852113 -126.73121643 -0.40545654 C-125.66434601 -0.41943985 -124.59747559 -0.43342316 -123.49827576 -0.4478302 C-121.75031456 -0.44803413 -121.75031456 -0.44803413 -119.96704102 -0.44824219 C-118.73578491 -0.46004013 -117.50452881 -0.47183807 -116.23596191 -0.48399353 C-112.86188515 -0.51323841 -109.48824358 -0.52923665 -106.11408734 -0.53904247 C-102.58094547 -0.55215672 -99.04793398 -0.58129661 -95.51487732 -0.60845947 C-89.58082716 -0.65175938 -83.64680216 -0.68387364 -77.71264648 -0.70849609 C-70.10151532 -0.74013843 -62.49062536 -0.79034996 -54.87963963 -0.84641647 C-48.33073042 -0.89448828 -41.78177257 -0.93376865 -35.23279834 -0.97177219 C-33.13061601 -0.98436476 -31.02844464 -0.99820479 -28.92627144 -1.01222992 C-25.00498654 -1.03775082 -21.08369249 -1.05410653 -17.16235352 -1.06933594 C-15.99907028 -1.07756882 -14.83578705 -1.0858017 -13.63725281 -1.09428406 C-12.56756256 -1.09698807 -11.49787231 -1.09969208 -10.39576721 -1.10247803 C-9.46902978 -1.10687771 -8.54229235 -1.11127739 -7.58747196 -1.11581039 C-4.93364267 -0.99702997 -2.56245603 -0.70446202 0 0 Z M-175 63 C-175 63.33 -175 63.66 -175 64 C-166.75 64 -158.5 64 -150 64 C-150 63.67 -150 63.34 -150 63 C-158.25 63 -166.5 63 -175 63 Z M17 63 C17 63.33 17 63.66 17 64 C29.54 64 42.08 64 55 64 C55 63.67 55 63.34 55 63 C42.46 63 29.92 63 17 63 Z M55 64 C55 64.33 55 64.66 55 65 C56.98 65 58.96 65 61 65 C61 64.67 61 64.34 61 64 C59.02 64 57.04 64 55 64 Z " fill="#2C2E34" transform="translate(352,71)"/>
<path d="M0 0 C0.90661377 -0.0100708 1.81322754 -0.0201416 2.74731445 -0.03051758 C9.14564621 0.05171419 14.66498005 1.30717863 20.6875 3.4375 C20.6875 4.0975 20.6875 4.7575 20.6875 5.4375 C22.0178125 5.31375 22.0178125 5.31375 23.375 5.1875 C27.48658195 5.49780807 28.56449107 6.83499256 31.6875 9.4375 C35.78026367 11.42979245 39.83569428 12.47904926 44.3125 13.1875 C48.856837 14.10109288 50.89057626 16.19861652 53.69140625 19.78125 C54.6875 21.4375 54.6875 21.4375 54.6875 23.4375 C55.43 23.64375 56.1725 23.85 56.9375 24.0625 C60.51121889 25.84935945 61.75272496 27.99789993 63.6875 31.4375 C63.6875 32.0975 63.6875 32.7575 63.6875 33.4375 C64.3475 33.4375 65.0075 33.4375 65.6875 33.4375 C72.11853377 40.53381312 75.74853044 48.41649622 78.6875 57.4375 C79.2753125 59.17 79.2753125 59.17 79.875 60.9375 C81.83716688 69.38991119 81.78235379 77.9256095 81.8125 86.5625 C81.81717285 87.49263916 81.8218457 88.42277832 81.82666016 89.38110352 C81.79102818 104.82756706 81.79102818 104.82756706 78.75 111.4375 C77.34391142 114.65709504 76.44461121 117.46714857 75.9375 120.9375 C73.78254364 131.37655462 62.83460824 139.54546847 55.5 146.75 C54.51840436 147.72152466 53.53728242 148.69352818 52.55664062 149.66601562 C50.75653766 151.45000376 48.95333524 153.23061754 47.14770508 155.0090332 C45.42278715 156.71169855 43.71218239 158.428929 42.01245117 160.15673828 C30.28341376 171.66284639 10.70744613 172.79814295 -4.75854492 172.89501953 C-25.2166964 172.59572978 -44.08498296 163.07584536 -58.9375 149.25 C-77.38457744 129.69962845 -83.39455907 106.10874566 -82.6875 79.8515625 C-81.68696185 58.39627247 -71.44676888 38.64999184 -55.87890625 23.99609375 C-54.21302136 22.50404144 -54.21302136 22.50404144 -53.3125 20.4375 C-52.6525 20.4375 -51.9925 20.4375 -51.3125 20.4375 C-51.3125 19.7775 -51.3125 19.1175 -51.3125 18.4375 C-50.55324219 18.03917969 -49.79398438 17.64085937 -49.01171875 17.23046875 C-48.01785156 16.70066406 -47.02398437 16.17085937 -46 15.625 C-45.01386719 15.10292969 -44.02773437 14.58085937 -43.01171875 14.04296875 C-40.64839922 12.63728955 -39.21361309 11.35406929 -37.3125 9.4375 C-25.67422322 2.76014336 -13.25750248 0.09481596 0 0 Z " fill="#16171A" transform="translate(288.3125,188.5625)"/>
<path d="M0 0 C5.3642134 6.80842471 6.76860674 15.9780865 8.26171875 24.28125 C8.45723831 25.33534058 8.65275787 26.38943115 8.85420227 27.47546387 C9.47216462 30.815754 10.07997989 34.1577966 10.6875 37.5 C11.106751 39.77616534 11.52666604 42.05220847 11.94726562 44.328125 C12.97253051 49.88402592 13.98948894 55.44139779 15 61 C16.19488037 61.01981934 17.38976074 61.03963867 18.62084961 61.06005859 C23.08833554 61.13659682 27.55551608 61.22523689 32.02270508 61.31738281 C33.94972671 61.35547454 35.87681466 61.39036057 37.80395508 61.421875 C40.58699111 61.46795891 43.36957831 61.52587815 46.15234375 61.5859375 C47.00271713 61.59748871 47.85309052 61.60903992 48.72923279 61.62094116 C54.36269203 61.7574189 59.54816486 62.57888779 65 64 C61.2754416 65.07205768 58.83179568 64.66174197 55 64 C52.10626876 63.86205071 49.21678388 63.88313737 46.3203125 63.90234375 C45.50754852 63.9037587 44.69478455 63.90517365 43.85739136 63.90663147 C41.27988899 63.91219665 38.7024758 63.9247426 36.125 63.9375 C34.36979293 63.9425195 32.61458448 63.94708162 30.859375 63.95117188 C26.57288268 63.96215466 22.28645643 63.97939508 18 64 C18 64.33 18 64.66 18 65 C1.46544632 65.9386384 -15.02466605 66.15054568 -31.58361697 66.1343255 C-35.06519053 66.13174013 -38.54676187 66.13415584 -42.02833557 66.13571167 C-47.85995975 66.13751406 -53.69157113 66.13517665 -59.52319336 66.13037109 C-66.22165936 66.12491424 -72.92009497 66.12670927 -79.61856025 66.1321975 C-85.42811001 66.13676277 -91.23765072 66.13736312 -97.04720169 66.13475883 C-100.49194178 66.133217 -103.93666766 66.13294403 -107.38140678 66.13629532 C-140.29398131 66.15828681 -140.29398131 66.15828681 -147 65 C-148.35222195 62.29555611 -147.77718426 60.87435193 -147.22729492 57.91113281 C-147.03346725 56.84952942 -146.83963959 55.78792603 -146.63993835 54.69415283 C-146.42231339 53.54211365 -146.20468842 52.39007446 -145.98046875 51.203125 C-145.7618367 50.02159851 -145.54320465 48.84007202 -145.31794739 47.6227417 C-144.8527497 45.11704433 -144.3842846 42.61195175 -143.9128418 40.10742188 C-143.19341069 36.28143348 -142.48553605 32.45344287 -141.77929688 28.625 C-141.32621096 26.19257968 -140.87245649 23.76028378 -140.41796875 21.328125 C-140.10064034 19.61221161 -140.10064034 19.61221161 -139.77690125 17.8616333 C-137.17173132 4.09516452 -137.17173132 4.09516452 -134.26061916 1.37427902 C-131.53227865 -0.28433787 -129.9093896 -0.38518802 -126.73121643 -0.40545654 C-125.66434601 -0.41943985 -124.59747559 -0.43342316 -123.49827576 -0.4478302 C-122.33296829 -0.44796616 -121.16766083 -0.44810211 -119.96704102 -0.44824219 C-118.73578491 -0.46004013 -117.50452881 -0.47183807 -116.23596191 -0.48399353 C-112.86188515 -0.51323841 -109.48824358 -0.52923665 -106.11408734 -0.53904247 C-102.58094547 -0.55215672 -99.04793398 -0.58129661 -95.51487732 -0.60845947 C-89.58082716 -0.65175938 -83.64680216 -0.68387364 -77.71264648 -0.70849609 C-70.10151532 -0.74013843 -62.49062536 -0.79034996 -54.87963963 -0.84641647 C-48.33073042 -0.89448828 -41.78177257 -0.93376865 -35.23279834 -0.97177219 C-33.13061601 -0.98436476 -31.02844464 -0.99820479 -28.92627144 -1.01222992 C-25.00498654 -1.03775082 -21.08369249 -1.05410653 -17.16235352 -1.06933594 C-15.99907028 -1.07756882 -14.83578705 -1.0858017 -13.63725281 -1.09428406 C-12.56756256 -1.09698807 -11.49787231 -1.09969208 -10.39576721 -1.10247803 C-9.46902978 -1.10687771 -8.54229235 -1.11127739 -7.58747196 -1.11581039 C-4.93364267 -0.99702997 -2.56245603 -0.70446202 0 0 Z " fill="#2F3032" transform="translate(352,71)"/>
<path d="M0 0 C13.76755987 -0.78796845 24.05674345 2.5335456 35 11 C42.9008087 18.29966022 49.15504167 27.01033077 50.30859375 37.91796875 C50.5855588 44.94280961 50.11832289 49.63989283 45.69921875 55.25390625 C42.15667545 58.89417488 38.84693149 60.13291321 33.875 60.4375 C21.42205126 59.95612551 8.61735403 52.98033126 0.1484375 44.046875 C-5 38.34462151 -5 38.34462151 -5 36 C-5.66 36 -6.32 36 -7 36 C-8.1560727 33.7965194 -9.29984721 31.58796844 -10.4375 29.375 C-10.76298828 28.75753906 -11.08847656 28.14007813 -11.42382812 27.50390625 C-13.79308796 22.86308802 -15.55447235 18.78123329 -14.51171875 13.55078125 C-14.23972656 12.81214844 -13.96773438 12.07351562 -13.6875 11.3125 C-13.42324219 10.56613281 -13.15898437 9.81976563 -12.88671875 9.05078125 C-12 7 -12 7 -10 4 C-7.6171875 3.26953125 -7.6171875 3.26953125 -4.875 2.8125 C-3.96492188 2.65394531 -3.05484375 2.49539062 -2.1171875 2.33203125 C-1.06917969 2.16767578 -1.06917969 2.16767578 0 2 C0 1.34 0 0.68 0 0 Z " fill="#5D5E60" transform="translate(291,207)"/>
<path d="M0 0 C5.3642134 6.80842471 6.76860674 15.9780865 8.26171875 24.28125 C8.45723831 25.33534058 8.65275787 26.38943115 8.85420227 27.47546387 C9.47216462 30.815754 10.07997989 34.1577966 10.6875 37.5 C11.106751 39.77616534 11.52666604 42.05220847 11.94726562 44.328125 C12.97253051 49.88402592 13.98948894 55.44139779 15 61 C16.19488037 61.01981934 17.38976074 61.03963867 18.62084961 61.06005859 C23.08833554 61.13659682 27.55551608 61.22523689 32.02270508 61.31738281 C33.94972671 61.35547454 35.87681466 61.39036057 37.80395508 61.421875 C40.58699111 61.46795891 43.36957831 61.52587815 46.15234375 61.5859375 C47.00271713 61.59748871 47.85309052 61.60903992 48.72923279 61.62094116 C54.36269203 61.7574189 59.54816486 62.57888779 65 64 C61.2754416 65.07205768 58.83179568 64.66174197 55 64 C52.10626876 63.86205071 49.21678388 63.88313737 46.3203125 63.90234375 C45.50754852 63.9037587 44.69478455 63.90517365 43.85739136 63.90663147 C41.27988899 63.91219665 38.7024758 63.9247426 36.125 63.9375 C34.36979293 63.9425195 32.61458448 63.94708162 30.859375 63.95117188 C26.57288268 63.96215466 22.28645643 63.97939508 18 64 C18 64.33 18 64.66 18 65 C15.36 65 12.72 65 10 65 C9.87882813 64.07058594 9.75765625 63.14117187 9.6328125 62.18359375 C9.46523438 60.94738281 9.29765625 59.71117187 9.125 58.4375 C8.96257812 57.21933594 8.80015625 56.00117187 8.6328125 54.74609375 C8.08288446 51.03925749 8.08288446 51.03925749 7.0234375 47.68359375 C5.7317719 43.03458359 5.12111704 38.40282342 4.5 33.625 C3.30401956 24.50400629 1.55834382 15.84070691 -1 7 C-16.20321918 6.94332606 -31.40020831 6.97870325 -46.6015625 7.21875 C-47.64529148 7.23523087 -47.64529148 7.23523087 -48.7101059 7.25204468 C-52.96640746 7.32005058 -57.22265202 7.39121851 -61.47888184 7.46356201 C-67.89472604 7.57249378 -74.31061805 7.6783954 -80.7265625 7.78125 C-81.40256752 7.79215668 -82.07857254 7.80306335 -82.77506256 7.81430054 C-93.51766465 7.98551552 -104.25626221 8.06257475 -115 8 C-115.2266333 9.26481201 -115.4532666 10.52962402 -115.68676758 11.83276367 C-116.53899656 16.58400087 -117.39548382 21.33446265 -118.25317383 26.0847168 C-118.62182536 28.12975928 -118.98936495 30.17500258 -119.35571289 32.22045898 C-121.32586039 43.21619351 -123.35086318 54.14438885 -126 65 C-132.93 65 -139.86 65 -147 65 C-148.35222195 62.29555611 -147.77718426 60.87435193 -147.22729492 57.91113281 C-147.03346725 56.84952942 -146.83963959 55.78792603 -146.63993835 54.69415283 C-146.42231339 53.54211365 -146.20468842 52.39007446 -145.98046875 51.203125 C-145.7618367 50.02159851 -145.54320465 48.84007202 -145.31794739 47.6227417 C-144.8527497 45.11704433 -144.3842846 42.61195175 -143.9128418 40.10742188 C-143.19341069 36.28143348 -142.48553605 32.45344287 -141.77929688 28.625 C-141.32621096 26.19257968 -140.87245649 23.76028378 -140.41796875 21.328125 C-140.10064034 19.61221161 -140.10064034 19.61221161 -139.77690125 17.8616333 C-137.17173132 4.09516452 -137.17173132 4.09516452 -134.26061916 1.37427902 C-131.53227865 -0.28433787 -129.9093896 -0.38518802 -126.73121643 -0.40545654 C-125.66434601 -0.41943985 -124.59747559 -0.43342316 -123.49827576 -0.4478302 C-122.33296829 -0.44796616 -121.16766083 -0.44810211 -119.96704102 -0.44824219 C-118.73578491 -0.46004013 -117.50452881 -0.47183807 -116.23596191 -0.48399353 C-112.86188515 -0.51323841 -109.48824358 -0.52923665 -106.11408734 -0.53904247 C-102.58094547 -0.55215672 -99.04793398 -0.58129661 -95.51487732 -0.60845947 C-89.58082716 -0.65175938 -83.64680216 -0.68387364 -77.71264648 -0.70849609 C-70.10151532 -0.74013843 -62.49062536 -0.79034996 -54.87963963 -0.84641647 C-48.33073042 -0.89448828 -41.78177257 -0.93376865 -35.23279834 -0.97177219 C-33.13061601 -0.98436476 -31.02844464 -0.99820479 -28.92627144 -1.01222992 C-25.00498654 -1.03775082 -21.08369249 -1.05410653 -17.16235352 -1.06933594 C-15.99907028 -1.07756882 -14.83578705 -1.0858017 -13.63725281 -1.09428406 C-12.56756256 -1.09698807 -11.49787231 -1.09969208 -10.39576721 -1.10247803 C-9.46902978 -1.10687771 -8.54229235 -1.11127739 -7.58747196 -1.11581039 C-4.93364267 -0.99702997 -2.56245603 -0.70446202 0 0 Z " fill="#16171A" transform="translate(352,71)"/>
<path d="M0 0 C0.9796875 0.00515625 1.959375 0.0103125 2.96875 0.015625 C3.9484375 0.01046875 4.928125 0.0053125 5.9375 0 C8.46875 0.265625 8.46875 0.265625 10.46875 2.265625 C10.65240072 4.8026875 10.71013372 7.22840428 10.67944336 9.76538086 C10.67783518 10.54804132 10.676227 11.33070179 10.67457008 12.13707924 C10.66650928 14.77251536 10.64384064 17.40762133 10.62109375 20.04296875 C10.6119392 21.92251737 10.60357015 23.80206997 10.59593201 25.68162537 C10.57205627 30.80278876 10.53461679 35.92376983 10.49373627 41.04482269 C10.46871067 44.2706942 10.44686749 47.49657168 10.42608643 50.72247314 C10.33915368 64.13464346 10.2262952 77.54643216 10.09643555 90.95825195 C10.0401462 96.79285144 9.99044078 102.62748968 9.94203281 108.46215916 C9.90330797 113.0026737 9.86019721 117.54313861 9.81580925 122.083601 C9.79545838 124.24026975 9.77673362 126.39695449 9.75967598 128.55365181 C9.73577817 131.52094183 9.70574104 134.48810649 9.67407227 137.45532227 C9.6683168 138.33951843 9.66256134 139.2237146 9.65663147 140.13470459 C9.58291089 146.15146411 9.58291089 146.15146411 8.46875 147.265625 C6.47075428 147.36436316 4.46917842 147.39534299 2.46875 147.390625 C1.375625 147.39320313 0.2825 147.39578125 -0.84375 147.3984375 C-3.53125 147.265625 -3.53125 147.265625 -4.53125 146.265625 C-4.63212284 144.40996574 -4.66202019 142.55042847 -4.66496277 140.69203186 C-4.66922775 139.48190933 -4.67349274 138.2717868 -4.67788696 137.0249939 C-4.6775374 135.67169186 -4.67707584 134.31838985 -4.67651367 132.96508789 C-4.67950359 131.54948335 -4.68290572 130.13387962 -4.68669128 128.71827698 C-4.69555257 124.86294862 -4.69787029 121.00764244 -4.69850707 117.15230489 C-4.69945441 113.9389114 -4.70313068 110.72552312 -4.70667917 107.51213163 C-4.71483182 99.93362219 -4.71726266 92.35512464 -4.71655273 84.77661133 C-4.71595172 76.94734433 -4.72650634 69.11814619 -4.7422964 61.28889662 C-4.7553524 54.57722016 -4.76073745 47.86556626 -4.76009732 41.1538772 C-4.75984176 37.14080447 -4.76272474 33.12779288 -4.77327538 29.11473274 C-4.78292384 25.34156814 -4.78305807 21.56852356 -4.77575874 17.79535484 C-4.77470883 16.40778046 -4.77709973 15.02019874 -4.7831192 13.63263702 C-4.79078456 11.7438402 -4.78501984 9.85500287 -4.77848816 7.96620178 C-4.77903293 6.90743867 -4.77957769 5.84867556 -4.78013897 4.75782871 C-4.42935904 1.24535869 -3.50118092 0.36740787 0 0 Z " fill="#787879" transform="translate(151.53125,201.734375)"/>
<path d="M0 0 C3.63 0 7.26 0 11 0 C12.34661724 2.69323448 12.12284174 4.76652563 12.12025452 7.78323364 C12.12162918 9.01444946 12.12300385 10.24566528 12.12442017 11.51419067 C12.1208808 12.88592553 12.11724598 14.25766015 12.11352539 15.62939453 C12.11324344 17.06809487 12.11340141 18.50679535 12.1139679 19.94549561 C12.11425556 23.85848805 12.10836378 27.77145002 12.10139394 31.68443537 C12.09515531 35.77105716 12.0945562 39.8576796 12.09336853 43.94430542 C12.09025672 51.68617603 12.08204535 59.42803256 12.07201904 67.16989696 C12.06085325 75.98234931 12.05534628 84.79480233 12.05032361 93.60725999 C12.03986262 111.73818131 12.02226608 129.86908953 12 148 C10.37536158 148.05395478 8.75021459 148.09277195 7.125 148.125 C6.22007812 148.14820313 5.31515625 148.17140625 4.3828125 148.1953125 C2 148 2 148 0 146 C-0.24609566 143.47376823 -0.24609566 143.47376823 -0.24050903 140.21676636 C-0.24325836 138.98555054 -0.24600769 137.75433472 -0.24884033 136.48580933 C-0.24176159 135.11407374 -0.23449196 133.74233913 -0.22705078 132.37060547 C-0.22648688 130.93190519 -0.22680281 129.49320434 -0.22793579 128.05450439 C-0.22851113 124.14147438 -0.21672761 120.22856624 -0.20278788 116.31556463 C-0.19031063 112.22894752 -0.1891124 108.14232781 -0.18673706 104.05569458 C-0.18051343 96.3138037 -0.16409071 88.5719691 -0.14403808 80.83010304 C-0.12170651 72.01765666 -0.11069256 63.20520763 -0.10064721 54.39274001 C-0.07972521 36.26179473 -0.04453213 18.13090188 0 0 Z " fill="#A3A3A3" transform="translate(387,201)"/>
<path d="M0 0 C4.30495015 -0.09935088 8.60928183 -0.17169268 12.91503906 -0.21972656 C14.37772252 -0.23976332 15.84032666 -0.26700104 17.30273438 -0.30175781 C19.4129601 -0.35063225 21.52212136 -0.37304659 23.6328125 -0.390625 C24.90012207 -0.41157227 26.16743164 -0.43251953 27.47314453 -0.45410156 C31.62640569 0.08065309 33.75585078 1.40734721 37 4 C38.1875 5.8125 38.1875 5.8125 39 8 C39.50660156 9.00675781 40.01320312 10.01351562 40.53515625 11.05078125 C42.43954855 15.47939978 42.37331912 19.61950644 42.25 24.375 C42.24484375 25.19355469 42.2396875 26.01210937 42.234375 26.85546875 C42.15491071 32.84508929 42.15491071 32.84508929 41 34 C38.96685911 34.10079176 36.93016798 34.13082194 34.89453125 34.1328125 C32.96782593 34.13571289 32.96782593 34.13571289 31.00219727 34.13867188 C29.60563012 34.13456185 28.20906426 34.12999572 26.8125 34.125 C26.11647675 34.12411377 25.42045349 34.12322754 24.70333862 34.12231445 C12.44862617 34.10394766 0.23475191 33.7189361 -12 33 C-12.05447822 30.47886908 -12.09389852 27.9589415 -12.125 25.4375 C-12.14175781 24.73302734 -12.15851563 24.02855469 -12.17578125 23.30273438 C-12.24637059 15.64379101 -10.48717318 9.24525431 -5.5625 3.25 C-3.74459585 1.79567668 -2.27519297 1.39227465 0 1 C0 0.67 0 0.34 0 0 Z " fill="#A1A1A1" transform="translate(133,102)"/>
<path d="M0 0 C3.63 0 7.26 0 11 0 C10.67 0.66 10.34 1.32 10 2 C7.03 1.67 4.06 1.34 1 1 C1.33 1.99 1.66 2.98 2 4 C2.11051942 5.38026542 2.17008327 6.76497699 2.19618225 8.14941406 C2.21438522 8.99485779 2.2325882 9.84030151 2.25134277 10.71136475 C2.26644897 11.63677063 2.28155518 12.56217651 2.29711914 13.515625 C2.32659889 14.98276947 2.32659889 14.98276947 2.35667419 16.47955322 C2.42084446 19.73629761 2.47813445 22.99312317 2.53515625 26.25 C2.57825057 28.53841745 2.62166723 30.82682885 2.66539001 33.11523438 C2.75655069 37.94070554 2.84443485 42.76622211 2.92993164 47.59179688 C3.03775564 53.66871356 3.15247166 59.74547422 3.26949501 65.82221985 C3.77540107 92.21686232 4.16783956 118.60012756 4 145 C6.64 145.33 9.28 145.66 12 146 C12 146.66 12 147.32 12 148 C10.37536158 148.05395478 8.75021459 148.09277195 7.125 148.125 C6.22007812 148.14820313 5.31515625 148.17140625 4.3828125 148.1953125 C2 148 2 148 0 146 C-0.24609566 143.47376823 -0.24609566 143.47376823 -0.24050903 140.21676636 C-0.24325836 138.98555054 -0.24600769 137.75433472 -0.24884033 136.48580933 C-0.24176159 135.11407374 -0.23449196 133.74233913 -0.22705078 132.37060547 C-0.22648688 130.93190519 -0.22680281 129.49320434 -0.22793579 128.05450439 C-0.22851113 124.14147438 -0.21672761 120.22856624 -0.20278788 116.31556463 C-0.19031063 112.22894752 -0.1891124 108.14232781 -0.18673706 104.05569458 C-0.18051343 96.3138037 -0.16409071 88.5719691 -0.14403808 80.83010304 C-0.12170651 72.01765666 -0.11069256 63.20520763 -0.10064721 54.39274001 C-0.07972521 36.26179473 -0.04453213 18.13090188 0 0 Z " fill="#6C6C6D" transform="translate(387,201)"/>
<path d="M0 0 C0 47.52 0 95.04 0 144 C-0.99 144.33 -1.98 144.66 -3 145 C-2.83757812 144.36835938 -2.67515625 143.73671875 -2.5078125 143.0859375 C-1.8216624 138.91625615 -1.85541141 134.84307553 -1.875 130.625 C-1.86919922 129.3875 -1.86919922 129.3875 -1.86328125 128.125 C-1.86457031 127.31289063 -1.86585938 126.50078125 -1.8671875 125.6640625 C-1.86831543 124.93654785 -1.86944336 124.2090332 -1.87060547 123.45947266 C-1.96860355 120.84172508 -1.96860355 120.84172508 -2.50439453 117.64794922 C-2.99647164 114.02597082 -3.09809549 110.62124236 -3.0625 106.96875 C-3.05391636 105.60449294 -3.04545833 104.24023508 -3.03710938 102.87597656 C-3.03090576 102.16445435 -3.02470215 101.45293213 -3.01831055 100.71984863 C-2.92066415 88.88185051 -3.030344 77.08085836 -3.5 65.25 C-3.96834405 52.63840449 -4.17110598 40.03056343 -4.23217773 27.41052246 C-4.24401723 25.31095829 -4.26106982 23.21141677 -4.28344727 21.11193848 C-4.31324972 18.16302109 -4.32334792 15.21467562 -4.328125 12.265625 C-4.34043152 11.37335205 -4.35273804 10.4810791 -4.36541748 9.56176758 C-4.36245667 8.73990967 -4.35949585 7.91805176 -4.35644531 7.07128906 C-4.36009094 6.35426819 -4.36373657 5.63724731 -4.36749268 4.89849854 C-3.93847034 2.68213252 -2.59014548 0 0 0 Z " fill="#191B1E" transform="translate(147,204)"/>
<path d="M0 0 C0.33 0 0.66 0 1 0 C1.01030746 1.13004456 1.02061493 2.26008911 1.03123474 3.42437744 C1.13083615 14.30065025 1.23367105 25.1768888 1.33933926 36.0531044 C1.39351331 41.6389057 1.44671093 47.224712 1.49731445 52.81054688 C1.70152442 75.26659998 1.93615494 97.72153105 2.41078377 120.17375946 C2.45176687 122.11825297 2.4912899 124.06277785 2.52929497 126.00733185 C2.58226983 128.67136888 2.64169081 131.33517553 2.70336914 133.99902344 C2.71829721 134.7867086 2.73322529 135.57439377 2.74860573 136.38594818 C2.77441531 140.32247897 2.77441531 140.32247897 4 144 C6.32156597 144.40729228 8.6568787 144.74438677 11 145 C10.505 146.98 10.505 146.98 10 149 C7.3125 149.8125 7.3125 149.8125 4 150 C1.32768247 148.371306 0.42078757 147.69299289 -1 145 C-1.74815518 140.42335952 -1.64222878 135.85289186 -1.58349609 131.22949219 C-1.58372289 129.81167408 -1.58613873 128.39385488 -1.59057617 126.9760437 C-1.59627646 123.13311828 -1.57101409 119.29095315 -1.53990126 115.44817257 C-1.51234362 111.42879333 -1.51236082 107.40941259 -1.50918579 103.38995361 C-1.49998734 96.64460093 -1.47246697 89.89953225 -1.43212891 83.15429688 C-1.37522311 73.62970176 -1.35296883 64.10524909 -1.33684421 54.58051062 C-1.32440513 47.99195134 -1.30372072 41.40341385 -1.2814641 34.81488132 C-1.276097 33.21476344 -1.27096092 31.61464477 -1.26605177 30.01452541 C-1.25178045 25.45745186 -1.23239891 20.90046046 -1.20457458 16.34344864 C-1.19683121 14.96029882 -1.1907789 13.5771384 -1.18649673 12.19397354 C-1.18031232 10.31376306 -1.16731077 8.43357859 -1.15390015 6.55340576 C-1.14832785 5.49891613 -1.14275555 4.4444265 -1.13701439 3.35798264 C-1 1 -1 1 0 0 Z " fill="#141518" transform="translate(384,205)"/>
<path d="M0 0 C2.3125 0.1875 2.3125 0.1875 5 1 C10.3642134 7.80842471 11.76860674 16.9780865 13.26171875 25.28125 C13.45723831 26.33534058 13.65275787 27.38943115 13.85420227 28.47546387 C14.47216462 31.815754 15.07997989 35.1577966 15.6875 38.5 C16.106751 40.77616534 16.52666604 43.05220847 16.94726562 45.328125 C17.97253051 50.88402592 18.98948894 56.44139779 20 62 C21.19488037 62.01981934 22.38976074 62.03963867 23.62084961 62.06005859 C28.08833554 62.13659682 32.55551608 62.22523689 37.02270508 62.31738281 C38.94972671 62.35547454 40.87681466 62.39036057 42.80395508 62.421875 C45.58699111 62.46795891 48.36957831 62.52587815 51.15234375 62.5859375 C52.00271713 62.59748871 52.85309052 62.60903992 53.72923279 62.62094116 C59.36269203 62.7574189 64.54816486 63.57888779 70 65 C66.2754416 66.07205768 63.83179568 65.66174197 60 65 C57.10626876 64.86205071 54.21678388 64.88313737 51.3203125 64.90234375 C50.50754852 64.9037587 49.69478455 64.90517365 48.85739136 64.90663147 C46.27988899 64.91219665 43.7024758 64.9247426 41.125 64.9375 C39.36979293 64.9425195 37.61458448 64.94708162 35.859375 64.95117188 C31.57288268 64.96215466 27.28645643 64.97939508 23 65 C23 65.33 23 65.66 23 66 C20.36 66 17.72 66 15 66 C14.87882812 65.07058594 14.75765625 64.14117187 14.6328125 63.18359375 C14.46523438 61.94738281 14.29765625 60.71117187 14.125 59.4375 C13.96257812 58.21933594 13.80015625 57.00117187 13.6328125 55.74609375 C13.08288446 52.03925749 13.08288446 52.03925749 12.0234375 48.68359375 C10.7317719 44.03458359 10.12111704 39.40282342 9.5 34.625 C8.63033452 27.99260608 7.56062083 21.50645302 6 15 C5.84732666 14.31760254 5.69465332 13.63520508 5.53735352 12.93212891 C5.04660956 10.79747518 5.04660956 10.79747518 4 8 C3.01 7.67 2.02 7.34 1 7 C1.020625 6.21625 1.04125 5.4325 1.0625 4.625 C1.18684063 2.01885039 1.18684063 2.01885039 0 0 Z " fill="#212326" transform="translate(347,70)"/>
<path d="M0 0 C104.61 0 209.22 0 317 0 C317 0.33 317 0.66 317 1 C212.39 1 107.78 1 0 1 C0 0.67 0 0.34 0 0 Z " fill="#000000" transform="translate(93,418)"/>
<path d="M0 0 C1.97180347 0.51719435 3.94494125 1.03103328 5.9296875 1.49609375 C7.78428404 1.94749555 9.61388388 2.49883684 11.4375 3.0625 C14.31653576 3.82014099 16.46353343 4.10366979 19.375 4.25 C24.79583297 4.74449939 28.98043041 7.41754672 33 11 C33 11.66 33 12.32 33 13 C33.99 13 34.98 13 36 13 C36 13.66 36 14.32 36 15 C36.57234375 15.24492187 37.1446875 15.48984375 37.734375 15.7421875 C40.38024402 17.21110099 42.14853139 18.95348244 44.25 21.125 C44.95640625 21.84945312 45.6628125 22.57390625 46.390625 23.3203125 C47.18726563 24.15175781 47.18726563 24.15175781 48 25 C47.67 25.66 47.34 26.32 47 27 C41.37037037 23.62222222 41.37037037 23.62222222 39.4375 20.375 C37.65825108 17.43537136 36.17449931 17.08601292 33 16 C32.505 15.01 32.505 15.01 32 14 C30.12328008 13.46879778 28.22165836 13.02420901 26.3125 12.625 C21.38739455 11.47813738 18.12352154 9.97277134 14 7 C11.68145461 6.15128911 9.40706935 5.57769664 7 5 C7 4.34 7 3.68 7 3 C-12.1860017 -1.45389325 -31.83905829 -0.16413686 -49.34033203 9.22167969 C-51 10 -51 10 -53 10 C-53.33 10.99 -53.66 11.98 -54 13 C-55.77734375 14.421875 -55.77734375 14.421875 -57.9375 15.75 C-58.64777344 16.19859375 -59.35804688 16.6471875 -60.08984375 17.109375 C-61.03537109 17.55023438 -61.03537109 17.55023438 -62 18 C-62.66 17.67 -63.32 17.34 -64 17 C-53.95959596 6.23232323 -53.95959596 6.23232323 -47 4 C-45.948125 3.484375 -44.89625 2.96875 -43.8125 2.4375 C-33.20633019 -2.09444281 -10.2789996 -5.80893044 0 0 Z " fill="#1F2126" transform="translate(302,189)"/>
<path d="M0 0 C0.66 0 1.32 0 2 0 C3.89826854 4.01652186 4.243969 7.20210582 4.22705078 11.6262207 C4.22734283 12.27068649 4.22763489 12.91515228 4.22793579 13.57914734 C4.22655005 15.69483221 4.21102507 17.81015842 4.1953125 19.92578125 C4.19157967 21.39836942 4.18873397 22.87096009 4.18673706 24.34355164 C4.17912183 28.20857672 4.15949163 32.07345013 4.1373291 35.93841553 C4.11682508 39.88665719 4.10772562 43.8349235 4.09765625 47.78320312 C4.0762436 55.52220437 4.04213333 63.26108088 4 71 C2.68 70.67 1.36 70.34 0 70 C0 46.9 0 23.8 0 0 Z " fill="#858585" transform="translate(148,276)"/>
<path d="M0 0 C19.26197624 2.19476791 34.67523042 8.08073477 50 20 C51.03125 20.763125 52.0625 21.52625 53.125 22.3125 C58.70063974 27.52451106 64.7879594 34.00842045 68 41 C67.1875 43.3125 67.1875 43.3125 66 45 C65.59910156 44.46632812 65.19820313 43.93265625 64.78515625 43.3828125 C57.11367694 33.02620572 57.11367694 33.02620572 47.73046875 24.3359375 C47.15941406 23.89507812 46.58835937 23.45421875 46 23 C46 22.34 46 21.68 46 21 C45.01 21 44.02 21 43 21 C43 20.34 43 19.68 43 19 C42.2575 18.731875 41.515 18.46375 40.75 18.1875 C38 17 38 17 36 15.4375 C33.6750041 13.7664092 31.77857279 13.52567593 29 13 C28.67 12.34 28.34 11.68 28 11 C24.38095661 9.8671796 20.75430884 8.88367601 17.08203125 7.94335938 C16.32277344 7.73646484 15.56351562 7.52957031 14.78125 7.31640625 C14.08064453 7.13537354 13.38003906 6.95434082 12.65820312 6.76782227 C12.11099609 6.51444092 11.56378906 6.26105957 11 6 C10.67 5.01 10.34 4.02 10 3 C6.37 2.67 2.74 2.34 -1 2 C-0.67 1.34 -0.34 0.68 0 0 Z " fill="#42454B" transform="translate(292,181)"/>
<path d="M0 0 C3.88569698 1.58877797 6.29511448 4.12824916 9.25 7.0625 C18.14454549 15.51021714 29.47144956 23.06638206 42 24 C42 24.66 42 25.32 42 26 C48.03583668 26.75677085 53.89384104 27.13878273 59.97265625 27.09765625 C60.78117538 27.0962413 61.58969452 27.09482635 62.42271423 27.09336853 C64.96934942 27.08783414 67.51589203 27.0752946 70.0625 27.0625 C71.80403518 27.0574765 73.54557175 27.05291509 75.28710938 27.04882812 C79.52477448 27.03788634 83.76237163 27.02066826 88 27 C83.0374986 31.9625014 73.55430045 31.26879781 66.94116211 31.32910156 C65.88807861 31.32362305 64.83499512 31.31814453 63.75 31.3125 C62.65115479 31.30831055 61.55230957 31.30412109 60.42016602 31.29980469 C49.03565815 31.14179158 39.0097041 29.6877952 29 24 C27.35503163 23.22732255 25.70914161 22.45660519 24.0625 21.6875 C18.82676411 19.06562307 14.4695357 15.75537291 10 12 C9.25105469 11.39671875 8.50210938 10.7934375 7.73046875 10.171875 C1.14212504 4.7112658 1.14212504 4.7112658 0 0 Z " fill="#3F4146" transform="translate(224,335)"/>
<path d="M0 0 C3.47348325 3.47348325 4.44579999 8.41415058 6 13 C6.391875 14.155 6.78375 15.31 7.1875 16.5 C9.14966688 24.95241119 9.09485379 33.4881095 9.125 42.125 C9.12967285 43.05513916 9.1343457 43.98527832 9.13916016 44.94360352 C9.12586556 50.70681132 8.73648431 56.28347896 8 62 C7.01 62 6.02 62 5 62 C4.87492159 55.62100113 4.87492159 55.62100113 5.48681641 52.58300781 C8.39071498 37.9668104 6.23315515 22.75572212 1 9 C0.67 9 0.34 9 0 9 C0 6.03 0 3.06 0 0 Z M6 62 C7.53966357 65.07932714 6.21669114 67.10127818 5.1875 70.3125 C4.83042969 71.44300781 4.47335937 72.57351563 4.10546875 73.73828125 C2.4406947 78.6502471 0.85052907 82.52618358 -2.375 86.625 C-2.96023438 87.38039063 -3.54546875 88.13578125 -4.1484375 88.9140625 C-5.95257009 90.9465663 -7.77081806 92.45823099 -10 94 C-9.42137365 90.09427217 -7.47900791 87.98939189 -5 85 C-2.01216259 80.97791118 -1.39426004 77.19286784 -0.52734375 72.37109375 C0.4502966 67.97533307 2.71222372 64.97465473 6 62 Z " fill="#1D1F24" transform="translate(361,233)"/>
<path d="M0 0 C0.99 0.33 1.98 0.66 3 1 C2.51273437 1.34546875 2.02546875 1.6909375 1.5234375 2.046875 C-1.86618011 6.39253861 -0.39634494 13.70030189 0 19 C2.30760127 27.65350477 8.97135583 35.63246627 16 41 C16.49113281 41.52207031 16.98226563 42.04414063 17.48828125 42.58203125 C19.50972972 44.47811858 21.69552033 45.49005522 24.1875 46.6875 C25.08855469 47.12449219 25.98960937 47.56148438 26.91796875 48.01171875 C27.60503906 48.33785156 28.29210937 48.66398437 29 49 C29 49.66 29 50.32 29 51 C36.50432655 52.42939553 47.35052203 54.34715302 54 50 C55.37086915 48.70529025 56.71340837 47.37849103 58 46 C56.6471989 50.42734904 54.93685614 52.55040063 51 55 C40.88453785 57.52886554 31.36063354 54.68087537 22.54296875 49.578125 C18.19765846 46.78213762 14.51798515 43.81115058 11 40 C10.0925 39.13375 9.185 38.2675 8.25 37.375 C6 35 6 35 5 32 C4.34 32 3.68 32 3 32 C1.8439273 29.7965194 0.70015279 27.58796844 -0.4375 25.375 C-0.76298828 24.75753906 -1.08847656 24.14007813 -1.42382812 23.50390625 C-3.79308796 18.86308802 -5.55447235 14.78123329 -4.51171875 9.55078125 C-4.23972656 8.81214844 -3.96773438 8.07351562 -3.6875 7.3125 C-3.42324219 6.56613281 -3.15898437 5.81976563 -2.88671875 5.05078125 C-2 3 -2 3 0 0 Z " fill="#3D3E41" transform="translate(281,211)"/>
<path d="M0 0 C0.33 0 0.66 0 1 0 C1.02312228 11.58688402 1.0409145 23.17376259 1.05181217 34.76066494 C1.05704125 40.14033762 1.06413935 45.51999458 1.07543945 50.8996582 C1.08626745 56.08674843 1.09227665 61.27382349 1.09487724 66.46092415 C1.09673165 68.4445628 1.10035256 70.42820058 1.10573006 72.41183281 C1.11293932 75.18009136 1.11399099 77.94828638 1.11352539 80.71655273 C1.11712067 81.54517319 1.12071594 82.37379364 1.12442017 83.2275238 C1.11405216 88.88594784 1.11405216 88.88594784 0 90 C-2.01964199 90.07244053 -4.04167124 90.08377188 -6.0625 90.0625 C-7.16722656 90.05347656 -8.27195313 90.04445313 -9.41015625 90.03515625 C-10.26480469 90.02355469 -11.11945313 90.01195312 -12 90 C-8.35157547 87.6650083 -5.23895694 87.92085961 -1 88 C-1.00222061 86.91227798 -1.00444122 85.82455597 -1.00672913 84.70387268 C-1.02695978 74.47646489 -1.04197177 64.24906114 -1.05181217 54.02163792 C-1.05704119 48.76303336 -1.06413918 43.5044449 -1.07543945 38.24584961 C-1.08626766 33.17546873 -1.09227669 28.10510338 -1.09487724 23.03471184 C-1.09673161 21.09573052 -1.10035245 19.15675009 -1.10573006 17.21777534 C-1.1129396 14.5117824 -1.11399098 11.80585444 -1.11352539 9.09985352 C-1.11712067 8.28993454 -1.12071594 7.48001556 -1.12442017 6.64555359 C-1.11405216 1.11405216 -1.11405216 1.11405216 0 0 Z " fill="#565657" transform="translate(160,259)"/>
<path d="M0 0 C0.33 0 0.66 0 1 0 C1 63.69 1 127.38 1 193 C0.67 193 0.34 193 0 193 C0 129.31 0 65.62 0 0 Z " fill="#4E4E4F" transform="translate(47,180)"/>
<path d="M0 0 C0.33 0 0.66 0 1 0 C1 63.36 1 126.72 1 192 C0.67 192 0.34 192 0 192 C0 128.64 0 65.28 0 0 Z " fill="#29404F" transform="translate(455,180)"/>
<path d="M0 0 C0 0.66 0 1.32 0 2 C-1.58361328 2.43699219 -1.58361328 2.43699219 -3.19921875 2.8828125 C-3.90425537 3.07794434 -4.60929199 3.27307617 -5.33569336 3.47412109 C-6.9208964 3.9128371 -8.50635143 4.35064349 -10.09204102 4.78759766 C-14.66244715 6.05264849 -19.21954863 7.35307808 -23.765625 8.703125 C-25.18355347 9.12053955 -25.18355347 9.12053955 -26.63012695 9.54638672 C-28.48231314 10.09307077 -30.33248248 10.64664132 -32.18041992 11.20751953 C-33.02709229 11.45614746 -33.87376465 11.70477539 -34.74609375 11.9609375 C-35.49560303 12.18571777 -36.2451123 12.41049805 -37.01733398 12.64208984 C-39 13 -39 13 -42 12 C-28.83172356 4.78546557 -15.41198529 -1.3337295 0 0 Z " fill="#3F3F41" transform="translate(288,198)"/>
<path d="M0 0 C0.66 0.33 1.32 0.66 2 1 C1.01 2.485 1.01 2.485 0 4 C2.31 2.68 4.62 1.36 7 0 C7 0.99 7 1.98 7 3 C4.48168311 4.44206141 1.96052215 5.87871208 -0.5625 7.3125 C-1.26697266 7.71662109 -1.97144531 8.12074219 -2.69726562 8.53710938 C-14.09927591 15 -14.09927591 15 -19 15 C-19 14.01 -19 13.02 -19 12 C-19.99 12.495 -19.99 12.495 -21 13 C-19.96477853 10.03863919 -19.25617222 9.13372268 -16.42578125 7.65625 C-15.39839844 7.2746875 -14.37101562 6.893125 -13.3125 6.5 C-9.64780519 5.08339528 -6.22619036 3.67964102 -2.875 1.625 C-1.92625 1.08875 -0.9775 0.5525 0 0 Z " fill="#121317" transform="translate(332,357)"/>
<path d="M0 0 C40.59 0 81.18 0 123 0 C123 0.33 123 0.66 123 1 C82.41 1 41.82 1 0 1 C0 0.67 0 0.34 0 0 Z " fill="#000000" transform="translate(224,69)"/>
<path d="M0 0 C0.66 0.33 1.32 0.66 2 1 C-3.33294249 8.39730732 -10.21960512 11.68352261 -18.80859375 14.3125 C-21.5636907 15.17684414 -24.21542047 16.24904046 -26.8828125 17.3515625 C-33.9076687 19.50308672 -41.16938625 19.11857447 -48.4375 19.0625 C-49.55060547 19.05798828 -50.66371094 19.05347656 -51.81054688 19.04882812 C-54.54042101 19.03711193 -57.27018174 19.02070699 -60 19 C-60 18.67 -60 18.34 -60 18 C-59.40276123 17.99589111 -58.80552246 17.99178223 -58.19018555 17.98754883 C-41.7579563 17.7911602 -27.51168749 15.26858264 -12 10 C-12 9.34 -12 8.68 -12 8 C-10.23596271 6.74163402 -8.41220501 5.5661735 -6.5625 4.4375 C-3.09563564 2.46466077 -3.09563564 2.46466077 0 0 Z " fill="#1E2127" transform="translate(334,342)"/>
<path d="M0 0 C0.33 0 0.66 0 1 0 C1.33783423 6.47363421 0.07751536 12.38264523 -1.3125 18.6875 C-1.52583984 19.71939453 -1.73917969 20.75128906 -1.95898438 21.81445312 C-2.28286133 23.30428711 -2.28286133 23.30428711 -2.61328125 24.82421875 C-2.80704346 25.72229248 -3.00080566 26.62036621 -3.20043945 27.5456543 C-4.06070247 30.18633342 -5.21988643 31.88840217 -7 34 C-7.48324254 26.91244279 -6.9115403 20.48292002 -5.1875 13.625 C-5.02217773 12.95984375 -4.85685547 12.2946875 -4.68652344 11.609375 C-3.578297 7.45196056 -2.04250704 3.78068639 0 0 Z " fill="#484849" transform="translate(220,241)"/>
<path d="M0 0 C0.66 0.33 1.32 0.66 2 1 C0.84631612 6.63341382 -0.41408117 11.82816234 -3 17 C-3.90943471 21.54717353 -4.32184609 26.11646083 -4.71875 30.73046875 C-5 33 -5 33 -6 36 C-5.34 36 -4.68 36 -4 36 C-4.08378906 36.65226562 -4.16757813 37.30453125 -4.25390625 37.9765625 C-4.83428701 42.95755184 -4.8683557 47.03796741 -4 52 C-4.66 52.66 -5.32 53.32 -6 54 C-10.35926628 36.98479938 -6.7524425 15.8699537 0 0 Z " fill="#13151A" transform="translate(185,236)"/>
<path d="M0 0 C0.6875 1.5625 0.6875 1.5625 1 4 C0.2798793 5.68166915 -0.4437363 7.36200036 -1.19165039 9.03149414 C-2.51067969 12.24361533 -3.27185387 15.56342579 -4.0625 18.9375 C-4.38671875 20.27994792 -4.7109375 21.62239583 -5.03515625 22.96484375 C-5.26936279 23.94880127 -5.26936279 23.94880127 -5.50830078 24.95263672 C-6.31412817 28.30798351 -7.15867541 31.65339773 -8 35 C-8.33 35 -8.66 35 -9 35 C-9.38880243 26.7487485 -8.63038973 19.82457704 -6 12 C-5.66355469 10.97777344 -5.32710937 9.95554688 -4.98046875 8.90234375 C-2.31167186 1.15583593 -2.31167186 1.15583593 0 0 Z " fill="#393C40" transform="translate(201,233)"/>
<path d="M0 0 C0 0.33 0 0.66 0 1 C-0.76143311 0.98428955 -1.52286621 0.9685791 -2.30737305 0.95239258 C-5.7673394 0.88991547 -9.2271869 0.85096828 -12.6875 0.8125 C-13.88568359 0.78736328 -15.08386719 0.76222656 -16.31835938 0.73632812 C-18.05375977 0.72182617 -18.05375977 0.72182617 -19.82421875 0.70703125 C-21.41882935 0.68346558 -21.41882935 0.68346558 -23.0456543 0.65942383 C-26.40624071 1.04683132 -28.19759699 2.17226792 -31 4 C-33.8125 4.1875 -33.8125 4.1875 -36 4 C-35.8125 2.125 -35.8125 2.125 -35 0 C-25.06239315 -5.14883254 -10.67100654 -1.55214641 0 0 Z " fill="#1E1F22" transform="translate(267,73)"/>
<path d="M0 0 C1.32 0 2.64 0 4 0 C4 0.66 4 1.32 4 2 C4.66 2.33 5.32 2.66 6 3 C5.67 3.66 5.34 4.32 5 5 C2.734375 5.67578125 2.734375 5.67578125 -0.25 6.3125 C-8.48451069 8.24307906 -16.48959045 11.0823104 -24 15 C-23.77734375 13.16015625 -23.77734375 13.16015625 -23 11 C-16.0871993 6.07026536 -6.49623725 2.71428583 2 3 C2 2.34 2 1.68 2 1 C1.34 0.67 0.68 0.34 0 0 Z " fill="#474A51" transform="translate(266,175)"/>
<path d="M0 0 C3.19199167 2.41556126 5.74716687 4.68003538 8 8 C8.66 7.34 9.32 6.68 10 6 C14.25136061 12.17459517 16.84292075 16.41371321 16 24 C12.78119883 20.2064129 10.3836813 16.34170523 8 12 C7.34 12 6.68 12 6 12 C4 9 4 9 4 6 C3.34 6 2.68 6 2 6 C1.34 4.02 0.68 2.04 0 0 Z " fill="#3B3E44" transform="translate(350,216)"/>
<path d="M0 0 C0.66 0 1.32 0 2 0 C2.02886537 4.31248609 2.04675255 8.62494762 2.0625 12.9375 C2.07087891 14.16919922 2.07925781 15.40089844 2.08789062 16.66992188 C2.09111328 17.83974609 2.09433594 19.00957031 2.09765625 20.21484375 C2.10289307 21.29886475 2.10812988 22.38288574 2.11352539 23.49975586 C2 26 2 26 1 27 C-1.01964199 27.07244053 -3.04167124 27.08377188 -5.0625 27.0625 C-6.16722656 27.05347656 -7.27195313 27.04445313 -8.41015625 27.03515625 C-9.69212891 27.01775391 -9.69212891 27.01775391 -11 27 C-6.97066275 24.42122416 -5.48465565 25 0 25 C0 16.75 0 8.5 0 0 Z " fill="#606061" transform="translate(159,322)"/>
<path d="M0 0 C2.00726946 0.28632222 4.00626411 0.63104428 6 1 C8.7928343 1.12694701 11.57997308 1.09535294 14.375 1.0625 C15.47908203 1.05573242 15.47908203 1.05573242 16.60546875 1.04882812 C18.40368158 1.03715142 20.20185197 1.01922011 22 1 C22 1.66 22 2.32 22 3 C15.20632198 5.86049601 8.27360462 6.08086095 1.375 3.5 C0.26125 3.005 -0.8525 2.51 -2 2 C-1.34 1.34 -0.68 0.68 0 0 Z " fill="#191B20" transform="translate(275,369)"/>
<path d="M0 0 C3.5875213 1.33250791 6.8364623 2.830717 10 5 C10 5.66 10 6.32 10 7 C10.99 7 11.98 7 13 7 C13 7.66 13 8.32 13 9 C13.57234375 9.24492187 14.1446875 9.48984375 14.734375 9.7421875 C17.38024402 11.21110099 19.14853139 12.95348244 21.25 15.125 C21.95640625 15.84945312 22.6628125 16.57390625 23.390625 17.3203125 C23.92171875 17.87460938 24.4528125 18.42890625 25 19 C24.67 19.66 24.34 20.32 24 21 C18.37037037 17.62222222 18.37037037 17.62222222 16.4375 14.375 C14.63443975 11.39603089 13.20268029 11.1717123 10 10 C8.62298702 8.71182656 7.29355827 7.37195574 6 6 C4.92596619 5.09303812 3.84219363 4.19750935 2.75 3.3125 C1.8425 2.549375 0.935 1.78625 0 1 C0 0.67 0 0.34 0 0 Z " fill="#2D3036" transform="translate(325,195)"/>
<path d="M0 0 C4.30495015 -0.09935088 8.60928183 -0.17169268 12.91503906 -0.21972656 C14.37772252 -0.23976332 15.84032666 -0.26700104 17.30273438 -0.30175781 C19.4129601 -0.35063225 21.52212136 -0.37304659 23.6328125 -0.390625 C24.90012207 -0.41157227 26.16743164 -0.43251953 27.47314453 -0.45410156 C31.65412888 0.0842226 33.7905749 1.30463866 37 4 C37.875 7.25 37.875 7.25 38 10 C36.87332216 9.21072301 35.74871933 8.41848345 34.625 7.625 C33.99851563 7.18414062 33.37203125 6.74328125 32.7265625 6.2890625 C31 5 31 5 29 3 C29.33 2.67 29.66 2.34 30 2 C15.15 1.505 15.15 1.505 0 1 C0 0.67 0 0.34 0 0 Z " fill="#ADACAE" transform="translate(133,102)"/>
<path d="M0 0 C1.64574566 -0.02688151 3.29161413 -0.04634123 4.9375 -0.0625 C5.85402344 -0.07410156 6.77054688 -0.08570313 7.71484375 -0.09765625 C10 0 10 0 11 1 C11.08685603 2.56172745 11.10702219 4.12729344 11.09765625 5.69140625 C11.09443359 6.63564453 11.09121094 7.57988281 11.08789062 8.55273438 C11.07951172 9.54595703 11.07113281 10.53917969 11.0625 11.5625 C11.05798828 12.55958984 11.05347656 13.55667969 11.04882812 14.58398438 C11.03700007 17.05604849 11.02051849 19.52799518 11 22 C10.67 22 10.34 22 10 22 C10 16.06 10 10.12 10 4 C7.69 4 5.38 4 3 4 C2.01 3.67 1.02 3.34 0 3 C0 2.01 0 1.02 0 0 Z " fill="#A4A4A5" transform="translate(150,202)"/>
<path d="M0 0 C0.66 0.33 1.32 0.66 2 1 C-1.96 4.465 -1.96 4.465 -6 8 C-6.66 7.01 -7.32 6.02 -8 5 C-6.71475739 4.13619741 -5.42157581 3.28419631 -4.125 2.4375 C-3.04605469 1.72400391 -3.04605469 1.72400391 -1.9453125 0.99609375 C-1.30335938 0.66738281 -0.66140625 0.33867187 0 0 Z M-8 7 C-11.61430307 8.84917832 -15.21686594 10.5287812 -19 12 C-19.99 12.495 -19.99 12.495 -21 13 C-19.9280096 9.5458087 -18.90283569 8.94781917 -15.625 7.1875 C-11.0098832 5.67565139 -11.0098832 5.67565139 -8 7 Z " fill="#1D1F24" transform="translate(332,357)"/>
<path d="M0 0 C1.1875 1.5625 1.1875 1.5625 2 4 C0.8125 7.125 0.8125 7.125 -0.07421875 8.9375 C-1.1305939 11.29094336 -1.8086871 13.6407098 -2.5 16.125 C-3.56469571 19.78175595 -4.6510318 22.93612844 -7 26 C-7.66 26 -8.32 26 -9 26 C-7.21893352 20.51052941 -5.18442947 15.13436001 -3.12304688 9.74609375 C-1.90064875 6.52091365 -0.78935247 3.35648412 0 0 Z " fill="#0D0F12" transform="translate(363,292)"/>
<path d="M0 0 C1.10923828 0.00193359 2.21847656 0.00386719 3.36132812 0.00585938 C5.09866211 0.02422852 5.09866211 0.02422852 6.87109375 0.04296875 C8.61422852 0.04393555 8.61422852 0.04393555 10.39257812 0.04492188 C19.02792245 0.0901331 19.02792245 0.0901331 21.30859375 1.23046875 C21.30859375 1.89046875 21.30859375 2.55046875 21.30859375 3.23046875 C20.65117187 3.15828125 19.99375 3.08609375 19.31640625 3.01171875 C9.96950809 2.09982625 0.68747736 2.13667991 -8.69140625 2.23046875 C-5.26897932 -0.0511492 -4.01981281 -0.0162102 0 0 Z " fill="#0B0C0F" transform="translate(282.69140625,190.76953125)"/>
<path d="M0 0 C0 4.21226525 -2.37561148 5.97603335 -5.125 8.875 C-5.8365625 9.65037109 -5.8365625 9.65037109 -6.5625 10.44140625 C-9.82296629 13.93979846 -13.27388379 17.00362762 -17 20 C-15.59491996 15.52929078 -13.40653888 13.16321468 -10 10 C-9.278125 9.236875 -8.55625 8.47375 -7.8125 7.6875 C-6 6 -6 6 -4 6 C-3.566875 5.071875 -3.566875 5.071875 -3.125 4.125 C-2 2 -2 2 0 0 Z " fill="#191B1F" transform="translate(359,337)"/>
<path d="M0 0 C0.99 0.33 1.98 0.66 3 1 C2.2884375 1.6496875 2.2884375 1.6496875 1.5625 2.3125 C-1.4687064 5.58620291 -1.26715285 9.4260625 -1.5625 13.6875 C-1.64628906 14.86699219 -1.73007812 16.04648438 -1.81640625 17.26171875 C-1.87699219 18.16535156 -1.93757813 19.06898438 -2 20 C-4.7109883 17.2890117 -4.79116886 15.82857088 -5 12 C-3.95446958 7.56028388 -2.53306354 3.79959531 0 0 Z " fill="#303134" transform="translate(281,211)"/>
<path d="M0 0 C0.46148437 0.35191406 0.92296875 0.70382812 1.3984375 1.06640625 C6.83765655 5.18344359 12.39245772 9.11608752 18 13 C16.19995117 13.63769531 16.19995117 13.63769531 14 14 C11.57188563 12.32789194 9.49520095 10.69823584 7.3125 8.75 C6.71888672 8.24597656 6.12527344 7.74195313 5.51367188 7.22265625 C1.14117259 3.42351776 1.14117259 3.42351776 0 0 Z " fill="#26292E" transform="translate(229,337)"/>
<path d="M0 0 C2.97 0 5.94 0 9 0 C9 1.32 9 2.64 9 4 C2.25 4.125 2.25 4.125 0 3 C0 2.01 0 1.02 0 0 Z " fill="#C5C5C6" transform="translate(388,202)"/>
<path d="M0 0 C-4.625 4 -4.625 4 -8 4 C-9.33981486 4.3062434 -10.67511887 4.63451555 -12 5 C-12.33 4.01 -12.66 3.02 -13 2 C-10.66836622 1.32741333 -8.3347961 0.66152556 -6 0 C-5.236875 -0.226875 -4.47375 -0.45375 -3.6875 -0.6875 C-2 -1 -2 -1 0 0 Z " fill="#1A1C21" transform="translate(311,368)"/>
<path d="M0 0 C0.66 0.99 1.32 1.98 2 3 C1.34 3 0.68 3 0 3 C0.185625 4.19625 0.37125 5.3925 0.5625 6.625 C1.0311197 10.28283707 0.81481013 13.37862166 0 17 C-0.66 17 -1.32 17 -2 17 C-2.22084624 10.90218999 -2.01167675 5.78357065 0 0 Z " fill="#8B8D8B" transform="translate(123,112)"/>
<path d="M0 0 C6.09411765 4.61176471 6.09411765 4.61176471 8 8 C7.6875 10.25 7.6875 10.25 7 12 C5.5 10.6875 5.5 10.6875 4 9 C4 8.01 4 7.02 4 6 C3.34 6 2.68 6 2 6 C1.34 4.02 0.68 2.04 0 0 Z " fill="#2B2D33" transform="translate(350,216)"/>
<path d="M0 0 C2.97 0 5.94 0 9 0 C4.69230769 3.93846154 4.69230769 3.93846154 1.1875 4.25 C0.465625 4.1675 -0.25625 4.085 -1 4 C-0.67 2.68 -0.34 1.36 0 0 Z " fill="#292A2D" transform="translate(232,73)"/>
<path d="M0 0 C0.66 1.32 1.32 2.64 2 4 C1.67 4.33 1.34 4.66 1 5 C0.76321284 7.69235776 0.57801975 10.36498156 0.4375 13.0625 C0.39431641 13.82111328 0.35113281 14.57972656 0.30664062 15.36132812 C0.20026367 17.24065438 0.09960066 19.12030244 0 21 C-0.33 21 -0.66 21 -1 21 C-1.02888146 17.68751813 -1.04675799 14.37506833 -1.0625 11.0625 C-1.07087891 10.11697266 -1.07925781 9.17144531 -1.08789062 8.19726562 C-1.09111328 7.29814453 -1.09433594 6.39902344 -1.09765625 5.47265625 C-1.10289307 4.64000244 -1.10812988 3.80734863 -1.11352539 2.94946289 C-1 1 -1 1 0 0 Z " fill="#878788" transform="translate(149,202)"/>
<path d="M0 0 C3.63 0.33 7.26 0.66 11 1 C10.67 1.66 10.34 2.32 10 3 C7.1875 3.875 7.1875 3.875 4 4 C1.625 2.0625 1.625 2.0625 0 0 Z " fill="#181A1D" transform="translate(384,351)"/>
<path d="M0 0 C1.48206495 0.254496 2.96068615 0.52911762 4.4375 0.8125 C5.67306641 1.03873047 5.67306641 1.03873047 6.93359375 1.26953125 C7.95646484 1.63111328 7.95646484 1.63111328 9 2 C9.33 2.99 9.66 3.98 10 5 C8.68 5 7.36 5 6 5 C6 4.34 6 3.68 6 3 C5.195625 2.87625 4.39125 2.7525 3.5625 2.625 C2.716875 2.41875 1.87125 2.2125 1 2 C0.67 1.34 0.34 0.68 0 0 Z " fill="#303239" transform="translate(311,189)"/>
<path d="M0 0 C0.80824219 0.11085938 1.61648438 0.22171875 2.44921875 0.3359375 C3.37154297 0.47902344 3.37154297 0.47902344 4.3125 0.625 C1.30218256 1.55923645 0.44599732 1.66949911 -2.6875 0.625 C-2.6875 1.285 -2.6875 1.945 -2.6875 2.625 C-4.3375 2.295 -5.9875 1.965 -7.6875 1.625 C-4.33422361 -0.61051759 -3.78006343 -0.54783528 0 0 Z " fill="#383B40" transform="translate(261.6875,358.375)"/>
<path d="M0 0 C2.62187494 1.04874998 3.79371361 1.64931313 5.25 4.125 C5.4975 4.74375 5.745 5.3625 6 6 C5.01 6.33 4.02 6.66 3 7 C2.690625 6.21625 2.38125 5.4325 2.0625 4.625 C1.07124962 2.07669872 1.07124962 2.07669872 0 0 Z " fill="#3F414C" transform="translate(434,145)"/>
<path d="M0 0 C2.97 0 5.94 0 9 0 C7.3125 1.5625 7.3125 1.5625 5 3 C2.25 2.6875 2.25 2.6875 0 2 C0 1.34 0 0.68 0 0 Z " fill="#151619" transform="translate(150,350)"/>
<path d="M0 0 C0 0.33 0 0.66 0 1 C-4.455 1.495 -4.455 1.495 -9 2 C-5.5647952 -0.29013653 -4.014669 -0.17842973 0 0 Z " fill="#15152E" transform="translate(95,134)"/>
<path d="M0 0 C2.64 0.33 5.28 0.66 8 1 C8 1.33 8 1.66 8 2 C5.36 1.67 2.72 1.34 0 1 C0 0.67 0 0.34 0 0 Z " fill="#000000" transform="translate(85,416)"/>
<path d="M0 0 C0.33 0 0.66 0 1 0 C1 1.98 1 3.96 1 6 C0.67 6 0.34 6 0 6 C0 4.02 0 2.04 0 0 Z " fill="#000000" transform="translate(204,122)"/>
<path d="M0 0 C0.33 0 0.66 0 1 0 C1 1.98 1 3.96 1 6 C0.67 6 0.34 6 0 6 C0 4.02 0 2.04 0 0 Z " fill="#000000" transform="translate(366,121)"/>
<path d="M0 0 C0.33 0 0.66 0 1 0 C1 1.98 1 3.96 1 6 C0.67 6 0.34 6 0 6 C0 4.02 0 2.04 0 0 Z " fill="#000000" transform="translate(364,110)"/>
<path d="M0 0 C0.33 0 0.66 0 1 0 C1 1.98 1 3.96 1 6 C0.67 6 0.34 6 0 6 C0 4.02 0 2.04 0 0 Z " fill="#000000" transform="translate(207,106)"/>
<path d="M0 0 C0.33 0 0.66 0 1 0 C1 1.98 1 3.96 1 6 C0.67 6 0.34 6 0 6 C0 4.02 0 2.04 0 0 Z " fill="#000000" transform="translate(209,95)"/>
<path d="M0 0 C0.33 0 0.66 0 1 0 C1 1.98 1 3.96 1 6 C0.67 6 0.34 6 0 6 C0 4.02 0 2.04 0 0 Z " fill="#000000" transform="translate(211,84)"/>
<path d="M0 0 C0.33 0 0.66 0 1 0 C1 1.98 1 3.96 1 6 C0.67 6 0.34 6 0 6 C0 4.02 0 2.04 0 0 Z " fill="#000000" transform="translate(359,83)"/>
<path d="M0 0 C0.33 0 0.66 0 1 0 C1 1.65 1 3.3 1 5 C0.67 5 0.34 5 0 5 C0 3.35 0 1.7 0 0 Z " fill="#0C0C1D" transform="translate(454,372)"/>
<path d="M0 0 C0.33 0 0.66 0 1 0 C1 1.65 1 3.3 1 5 C0.67 5 0.34 5 0 5 C0 3.35 0 1.7 0 0 Z " fill="#1D1D37" transform="translate(454,175)"/>
<path d="M0 0 C0.33 0 0.66 0 1 0 C1 1.65 1 3.3 1 5 C0.67 5 0.34 5 0 5 C0 3.35 0 1.7 0 0 Z " fill="#1D1D1D" transform="translate(48,175)"/>
<path d="M0 0 C0.33 0 0.66 0 1 0 C1 1.65 1 3.3 1 5 C0.67 5 0.34 5 0 5 C0 3.35 0 1.7 0 0 Z " fill="#000000" transform="translate(367,127)"/>
<path d="M0 0 C0.33 0 0.66 0 1 0 C1 1.65 1 3.3 1 5 C0.67 5 0.34 5 0 5 C0 3.35 0 1.7 0 0 Z " fill="#000000" transform="translate(205,117)"/>
<path d="M0 0 C0.33 0 0.66 0 1 0 C1 1.65 1 3.3 1 5 C0.67 5 0.34 5 0 5 C0 3.35 0 1.7 0 0 Z " fill="#000000" transform="translate(365,116)"/>
<path d="M0 0 C0.33 0 0.66 0 1 0 C1 1.65 1 3.3 1 5 C0.67 5 0.34 5 0 5 C0 3.35 0 1.7 0 0 Z " fill="#000000" transform="translate(206,112)"/>
<path d="M0 0 C0.33 0 0.66 0 1 0 C1 1.65 1 3.3 1 5 C0.67 5 0.34 5 0 5 C0 3.35 0 1.7 0 0 Z " fill="#000000" transform="translate(363,105)"/>
<path d="M0 0 C0.33 0 0.66 0 1 0 C1 1.65 1 3.3 1 5 C0.67 5 0.34 5 0 5 C0 3.35 0 1.7 0 0 Z " fill="#000000" transform="translate(208,101)"/>
<path d="M0 0 C0.33 0 0.66 0 1 0 C1 1.65 1 3.3 1 5 C0.67 5 0.34 5 0 5 C0 3.35 0 1.7 0 0 Z " fill="#000000" transform="translate(362,100)"/>
<path d="M0 0 C0.33 0 0.66 0 1 0 C1 1.65 1 3.3 1 5 C0.67 5 0.34 5 0 5 C0 3.35 0 1.7 0 0 Z " fill="#000000" transform="translate(361,94)"/>
<path d="M0 0 C0.33 0 0.66 0 1 0 C1 1.65 1 3.3 1 5 C0.67 5 0.34 5 0 5 C0 3.35 0 1.7 0 0 Z " fill="#000000" transform="translate(210,90)"/>
<path d="M0 0 C0.33 0 0.66 0 1 0 C1 1.65 1 3.3 1 5 C0.67 5 0.34 5 0 5 C0 3.35 0 1.7 0 0 Z " fill="#000000" transform="translate(360,89)"/>
<path d="M0 0 C4 1 4 1 4 1 Z " fill="#000000" transform="translate(410,417)"/>
<path d="M0 0 C4 1 4 1 4 1 Z " fill="#000000" transform="translate(414,416)"/>
<path d="M0 0 C1 4 1 4 1 4 Z " fill="#000F0F" transform="translate(453,377)"/>
<path d="M0 0 C1 4 1 4 1 4 Z " fill="#0F0F0F" transform="translate(49,377)"/>
<path d="M0 0 C1 4 1 4 1 4 Z " fill="#0F0F25" transform="translate(48,373)"/>
<path d="M0 0 C1 4 1 4 1 4 Z " fill="#252525" transform="translate(453,171)"/>
<path d="M0 0 C1 4 1 4 1 4 Z " fill="#0F0F4F" transform="translate(49,171)"/>
<path d="M0 0 C1 4 1 4 1 4 Z " fill="#5F5F5F" transform="translate(120,114)"/>
<path d="M0 0 C1 4 1 4 1 4 Z " fill="#000000" transform="translate(212,80)"/>
<path d="M0 0 C3 1 3 1 3 1 Z " fill="#000000" transform="translate(418,415)"/>
<path d="M0 0 C3 1 3 1 3 1 Z " fill="#000000" transform="translate(82,415)"/>
<path d="" fill="#000000" transform="translate(0,0)"/>
<path d="" fill="#464646" transform="translate(0,0)"/>
<path d="" fill="#1C1C1C" transform="translate(0,0)"/>
<path d="M0 0 C3 1 3 1 3 1 Z " fill="#151515" transform="translate(417,136)"/>
<path d="M0 0 C3 1 3 1 3 1 Z " fill="#151515" transform="translate(83,136)"/>
<path d="" fill="#BFBFBF" transform="translate(0,0)"/>
<path d="" fill="#000000" transform="translate(0,0)"/>
<path d="M0 0 C2 1 2 1 2 1 Z " fill="#000000" transform="translate(421,414)"/>
<path d="M0 0 C2 1 2 1 2 1 Z " fill="#000000" transform="translate(80,414)"/>
<path d="M0 0 C2 1 2 1 2 1 Z " fill="#000000" transform="translate(423,413)"/>
<path d="M0 0 C2 1 2 1 2 1 Z " fill="#000000" transform="translate(78,413)"/>
<path d="M0 0 C2 1 2 1 2 1 Z " fill="#000000" transform="translate(425,412)"/>
<path d="" fill="#000000" transform="translate(0,0)"/>
<path d="" fill="#000000" transform="translate(0,0)"/>
<path d="" fill="#000000" transform="translate(0,0)"/>
<path d="" fill="#000000" transform="translate(0,0)"/>
<path d="" fill="#000000" transform="translate(0,0)"/>
<path d="" fill="#000000" transform="translate(0,0)"/>
<path d="" fill="#000000" transform="translate(0,0)"/>
<path d="" fill="#000000" transform="translate(0,0)"/>
<path d="" fill="#00002A" transform="translate(0,0)"/>
<path d="" fill="#000000" transform="translate(0,0)"/>
<path d="" fill="#000000" transform="translate(0,0)"/>
<path d="" fill="#2A2A2A" transform="translate(0,0)"/>
<path d="" fill="#2A2A2A" transform="translate(0,0)"/>
<path d="" fill="#2A2A2A" transform="translate(0,0)"/>
<path d="" fill="#2A2A2A" transform="translate(0,0)"/>
<path d="" fill="#2A2A2A" transform="translate(0,0)"/>
<path d="" fill="#2A2A2A" transform="translate(0,0)"/>
<path d="" fill="#003F3F" transform="translate(0,0)"/>
<path d="" fill="#2A2A2A" transform="translate(0,0)"/>
<path d="" fill="#00003F" transform="translate(0,0)"/>
<path d="" fill="#2A2A2A" transform="translate(0,0)"/>
<path d="" fill="#3F3F3F" transform="translate(0,0)"/>
<path d="M0 0 C2 1 2 1 2 1 Z " fill="#5F5F5F" transform="translate(420,137)"/>
<path d="" fill="#BFBFBF" transform="translate(0,0)"/>
<path d="" fill="#D4D4D4" transform="translate(0,0)"/>
<path d="" fill="#7FFFFF" transform="translate(0,0)"/>
<path d="" fill="#BFBFBF" transform="translate(0,0)"/>
<path d="M0 0 C2 1 2 1 2 1 Z " fill="#AAAA7F" transform="translate(131,103)"/>
<path d="" fill="#000000" transform="translate(0,0)"/>
<path d="" fill="#000000" transform="translate(0,0)"/>
<path d="" fill="#000000" transform="translate(0,0)"/>
<path d="M0 0 C2 1 2 1 2 1 Z " fill="#000000" transform="translate(222,70)"/>
<path d="" fill="#000000" transform="translate(0,0)"/>
<path d="" fill="#000000" transform="translate(0,0)"/>
<path d="" fill="#000000" transform="translate(0,0)"/>
<path d="" fill="#000000" transform="translate(0,0)"/>
<path d="" fill="#000000" transform="translate(0,0)"/>
<path d="" fill="#000000" transform="translate(0,0)"/>
<path d="" fill="#000000" transform="translate(0,0)"/>
<path d="" fill="#000000" transform="translate(0,0)"/>
<path d="" fill="#000000" transform="translate(0,0)"/>
<path d="" fill="#000000" transform="translate(0,0)"/>
<path d="" fill="#000000" transform="translate(0,0)"/>
<path d="" fill="#000000" transform="translate(0,0)"/>
<path d="" fill="#000000" transform="translate(0,0)"/>
<path d="" fill="#000000" transform="translate(0,0)"/>
<path d="" fill="#000000" transform="translate(0,0)"/>
<path d="" fill="#000000" transform="translate(0,0)"/>
<path d="" fill="#000000" transform="translate(0,0)"/>
<path d="" fill="#000000" transform="translate(0,0)"/>
<path d="" fill="#555555" transform="translate(0,0)"/>
<path d="" fill="#555555" transform="translate(0,0)"/>
<path d="" fill="#7F7F7F" transform="translate(0,0)"/>
<path d="" fill="#007F7F" transform="translate(0,0)"/>
<path d="" fill="#555555" transform="translate(0,0)"/>
<path d="" fill="#3F3F3F" transform="translate(0,0)"/>
<path d="" fill="#555555" transform="translate(0,0)"/>
<path d="" fill="#3F3F3F" transform="translate(0,0)"/>
<path d="" fill="#000000" transform="translate(0,0)"/>
<path d="" fill="#000000" transform="translate(0,0)"/>
<path d="" fill="#000000" transform="translate(0,0)"/>
<path d="" fill="#000000" transform="translate(0,0)"/>
<path d="" fill="#7F7F7F" transform="translate(0,0)"/>
<path d="" fill="#555555" transform="translate(0,0)"/>
<path d="" fill="#AAAAAA" transform="translate(0,0)"/>
<path d="" fill="#7F7F7F" transform="translate(0,0)"/>
<path d="" fill="#AAAAAA" transform="translate(0,0)"/>
<path d="" fill="#7F7F7F" transform="translate(0,0)"/>
<path d="" fill="#AAAAAA" transform="translate(0,0)"/>
<path d="" fill="#7F7F7F" transform="translate(0,0)"/>
<path d="" fill="#000000" transform="translate(0,0)"/>
<path d="" fill="#000000" transform="translate(0,0)"/>
<path d="" fill="#000000" transform="translate(0,0)"/>
</svg>
