<?xml version="1.0" encoding="UTF-8"?>
<svg version="1.1" xmlns="http://www.w3.org/2000/svg" width="197" height="193">
<path d="M0 0 C65.01 0 130.02 0 197 0 C197 63.69 197 127.38 197 193 C131.99 193 66.98 193 0 193 C0 129.31 0 65.62 0 0 Z " fill="#F9F9FB" transform="translate(0,0)"/>
<path d="M0 0 C0.70231247 -0.02069046 1.40462494 -0.04138092 2.1282196 -0.06269836 C6.84050291 -0.08757375 6.84050291 -0.08757375 9.01187134 1.4803772 C10.74525342 3.83321875 10.6570595 5.19384856 10.56665039 8.09790039 C10.53926788 9.08114288 10.51188538 10.06438538 10.4836731 11.0774231 C10.20287312 16.68498525 9.85184853 22.28294576 9.4453125 27.8828125 C9.2590474 30.55184481 9.07372161 33.2209208 8.89013672 35.89013672 C8.84275014 36.57570302 8.79536356 37.26126932 8.74654102 37.96761036 C8.27274204 44.8850919 7.8717397 51.80624204 7.47783279 58.72865677 C7.24151115 62.85472333 6.99578067 66.98024187 6.75100136 71.10581398 C6.5438869 74.60885742 6.34203425 78.11208089 6.1496582 81.6159668 C5.9580227 85.1007411 5.75334271 88.58452995 5.53970146 92.06802177 C5.42478812 93.99795013 5.32355103 95.92867747 5.22267151 97.85939026 C5.11256996 99.60553871 5.11256996 99.60553871 5.00024414 101.38696289 C4.94187881 102.40456192 4.88351349 103.42216095 4.82337952 104.47059631 C4.25333143 107.65809444 3.21001712 109.64605004 1.32421875 112.26171875 C-10.45480612 118.15123119 -32.52029824 111.9633588 -45.23414993 110.71916199 C-48.10424079 110.43952638 -50.97487543 110.16570637 -53.84551525 109.89177322 C-71.27053723 108.22783825 -88.68568226 106.47884379 -106.08081055 104.52490234 C-115.35728182 103.48544143 -124.63649907 102.59028396 -133.94946289 101.94433594 C-141.95580991 101.33631815 -141.95580991 101.33631815 -145.67578125 99.26171875 C-148.26630618 95.37593135 -147.7444547 92.42661109 -147.42578125 87.96484375 C-147.37349365 87.12753723 -147.32120605 86.29023071 -147.26733398 85.42755127 C-146.60171762 75.27268902 -145.64004258 65.14168433 -144.67578125 55.01171875 C-144.31906286 51.23591253 -143.96526113 47.45984445 -143.61328125 43.68359375 C-143.52828369 42.78185425 -143.44328613 41.88011475 -143.35571289 40.9510498 C-142.75450746 34.45904412 -142.32082288 27.97546242 -142.01953125 21.46191406 C-141.56849465 17.26291703 -140.98419553 13.12272841 -138.51025391 9.60394287 C-135.80183458 7.62228033 -133.49854472 7.71445868 -130.16796875 7.50976562 C-129.50719172 7.46532475 -128.8464147 7.42088388 -128.16561413 7.37509632 C-125.96129759 7.23024498 -123.7563109 7.10537506 -121.55078125 6.98046875 C-119.98920729 6.88190805 -118.42770998 6.78212613 -116.86628723 6.68119812 C-112.67235387 6.41365101 -108.47755394 6.16337622 -104.28235245 5.91662216 C-99.94115146 5.6586331 -95.60088914 5.38571683 -91.26049805 5.11450195 C-83.4741936 4.63023986 -75.68712322 4.15987907 -67.89961338 3.69544888 C-61.44404267 3.30971493 -54.98949339 2.90930408 -48.53518677 2.50302124 C-43.90726104 2.21211554 -39.27902361 1.92650048 -34.65063477 1.64306641 C-32.57341937 1.51573613 -30.4962683 1.38735111 -28.41918945 1.2578125 C-18.95247933 0.67222675 -9.48502024 0.14910009 0 0 Z " fill="#FBF6F8" transform="translate(163.67578125,14.73828125)"/>
<path d="M0 0 C2.17108718 -0.09183753 4.34092317 -0.15223134 6.51330566 -0.20373535 C8.43892334 -0.26150146 8.43892334 -0.26150146 10.40344238 -0.32043457 C14.42298494 0.17335407 16.00266671 1.26868734 18.83361816 4.10095215 C24.91529522 16.26430627 18.77864451 39.73283134 17.83361816 53.10095215 C17.77563049 53.92214539 17.71764282 54.74333862 17.65789795 55.5894165 C17.53580629 57.31806825 17.41365854 59.04671604 17.29145813 60.77536011 C17.10114603 63.469153 16.91133697 66.16298105 16.72155762 68.85681152 C16.46359108 72.51846131 16.20251101 76.17987299 15.93981934 79.84118652 C15.31010771 88.69678672 14.73485483 97.54976807 14.30236816 106.4173584 C14.24115784 107.63505417 14.24115784 107.63505417 14.17871094 108.87734985 C13.98768124 112.68937939 13.80943922 116.50109589 13.65588379 120.31481934 C13.5906802 121.66673407 13.52495581 123.01862383 13.45861816 124.3704834 C13.40963379 125.53168701 13.36064941 126.69289063 13.31018066 127.88928223 C12.64143247 132.39613801 11.17549827 135.84293955 7.83361816 138.97595215 C-1.10504175 142.32794962 -12.21696077 139.45953675 -21.43954468 138.13500977 C-23.89646757 137.78233933 -26.35452166 137.43887479 -28.81311035 137.09802246 C-32.08807357 136.64395498 -35.36269572 136.1875572 -38.63708496 135.72937012 C-44.62079171 134.89554663 -50.60977451 134.10635103 -56.60388184 133.35095215 C-58.02555664 133.17173218 -58.02555664 133.17173218 -59.47595215 132.9888916 C-65.92720494 132.19897771 -72.35710711 131.64004907 -78.84997559 131.31188965 C-81.16638184 131.10095215 -81.16638184 131.10095215 -82.16638184 130.10095215 C-84.94275952 129.68973611 -87.70716375 129.33485361 -90.49450684 129.01501465 C-91.34738785 128.91360672 -92.20026886 128.81219879 -93.07899475 128.7077179 C-94.90892069 128.49027086 -96.7390535 128.27455925 -98.56936646 128.06039429 C-103.27901282 127.50714677 -107.98615544 126.93326599 -112.69372559 126.3626709 C-117.49532985 125.78235672 -122.29698179 125.2031393 -127.10046387 124.6385498 C-130.06225526 124.2878744 -133.02065017 123.91775509 -135.97888184 123.53845215 C-136.78680176 123.44837891 -137.59472168 123.35830566 -138.42712402 123.26550293 C-143.02962138 122.65054052 -145.31245021 121.7792065 -148.16638184 118.10095215 C-148.58996582 115.31921387 -148.58996582 115.31921387 -148.47497559 112.15563965 C-148.4387207 111.00160645 -148.40246582 109.84757324 -148.3651123 108.65856934 C-148.05867332 103.17278454 -147.69610774 97.70052243 -147.22888184 92.22595215 C-147.04331639 89.95387132 -146.85841714 87.68173598 -146.67419434 85.4095459 C-146.58557129 84.32786133 -146.49694824 83.24617676 -146.40563965 82.13171387 C-146.00662585 77.07726765 -145.70324617 72.01820271 -145.41247559 66.9564209 C-145.16638184 64.10095215 -145.16638184 64.10095215 -144.69372559 61.9708252 C-143.98312026 58.1036189 -143.74653235 54.24728228 -143.48278809 50.32751465 C-143.35868105 48.5983306 -143.23432431 46.86916446 -143.10974121 45.14001465 C-142.91813671 42.43252774 -142.72881223 39.7249318 -142.54406738 37.01696777 C-142.36355451 34.39080428 -142.17376904 31.76543484 -141.98278809 29.14001465 C-141.93062637 28.33875153 -141.87846466 27.5374884 -141.82472229 26.71194458 C-140.96706861 15.15003855 -140.96706861 15.15003855 -137.07800293 10.7244873 C-133.29116491 8.61292661 -129.82033017 8.33052843 -125.58044434 8.12438965 C-124.31875931 8.04113182 -124.31875931 8.04113182 -123.03158569 7.95619202 C-120.28561875 7.7790151 -117.53887515 7.62743772 -114.79138184 7.47595215 C-112.8830713 7.3573059 -110.97486756 7.23693001 -109.06677246 7.11486816 C-105.23233436 6.87236948 -101.39751635 6.63977648 -97.56188965 6.41687012 C-91.52525041 6.06603886 -85.49141526 5.67800593 -79.45739746 5.28503418 C-76.93281441 5.12082573 -74.40807284 4.95903642 -71.88317871 4.79968262 C-64.01312179 4.30130117 -56.15224478 3.7267861 -48.29138184 3.10095215 C-38.92954673 2.36293994 -29.56451375 1.70031772 -20.19219971 1.11169434 C-18.79060137 1.02323681 -17.38910473 0.9331481 -15.98773193 0.84118652 C-10.66066736 0.49341312 -5.33227129 0.24848078 0 0 Z M-27.99060059 6.34313965 C-30.06917087 6.47331358 -32.14776961 6.60303377 -34.22639465 6.73233032 C-39.66807995 7.07209826 -45.10934049 7.41825288 -50.55053711 7.76574707 C-57.06574957 8.18033618 -63.58150864 8.58625317 -70.09718513 8.99347305 C-75.34592709 9.32230081 -80.59431481 9.65555664 -85.84213257 9.99884033 C-102.64331256 11.09544353 -102.64331256 11.09544353 -110.52907467 11.4614315 C-112.70762921 11.56276329 -114.88556624 11.67273801 -117.06355286 11.78555298 C-119.59453576 11.9130468 -122.12652609 12.02250085 -124.65922546 12.10946655 C-130.77493053 12.32110833 -130.77493053 12.32110833 -135.86437988 15.35827637 C-137.78351584 19.40094903 -138.26593156 23.40461742 -138.61535645 27.83337402 C-138.68890854 28.74623169 -138.76246063 29.65908936 -138.83824158 30.59960938 C-138.9143013 31.57973999 -138.99036102 32.55987061 -139.06872559 33.56970215 C-139.15135147 34.60042847 -139.23397736 35.63115479 -139.31910706 36.69311523 C-139.58349722 39.99551157 -139.84397653 43.29820006 -140.10388184 46.60095215 C-140.44428024 50.90320085 -140.78685643 55.2052695 -141.13122559 59.50720215 C-141.21536713 60.56407227 -141.29950867 61.62094238 -141.38619995 62.70983887 C-142.01943775 70.55875992 -142.74145001 78.3966933 -143.56016541 86.22851562 C-144.79854452 95.06409304 -144.79854452 95.06409304 -143.04504395 103.52966309 C-140.44522075 105.7041221 -138.46663576 105.86523292 -135.10778809 106.24157715 C-133.2150415 106.46297363 -133.2150415 106.46297363 -131.28405762 106.68884277 C-129.91169605 106.82816715 -128.53913154 106.96550547 -127.16638184 107.10095215 C-126.49419617 107.17112549 -125.8220105 107.24129883 -125.12945557 107.31359863 C-120.63669376 107.78241782 -116.14062874 108.20787742 -111.64224243 108.61886597 C-107.10531013 109.03368461 -102.56950261 109.46052737 -98.03356934 109.8861084 C-96.54739861 110.02518364 -96.54739861 110.02518364 -95.03120422 110.16706848 C-79.57270943 111.61898214 -64.12292775 113.16228605 -48.67172241 114.68945312 C-46.05515967 114.94802684 -43.43858289 115.20645865 -40.82199097 115.46473694 C-38.42800822 115.70108242 -36.03406394 115.93781812 -33.64016724 116.17503357 C-19.2111827 117.69759377 -19.2111827 117.69759377 -4.72888184 118.41345215 C-3.70891113 118.45695801 -3.70891113 118.45695801 -2.66833496 118.50134277 C0.77360329 118.54508197 2.50040766 118.36287613 5.24377441 116.2064209 C8.10247036 112.42058033 8.13250238 109.12178446 8.39025879 104.52111816 C8.46122017 103.34749474 8.46122017 103.34749474 8.53361511 102.15016174 C8.68974474 99.55195118 8.83974379 96.95342228 8.98986816 94.3548584 C9.09771493 92.54558286 9.20599748 90.73633325 9.31469727 88.92710876 C9.60080408 84.14919272 9.88195918 79.37099883 10.1618042 74.5927124 C10.60851491 66.97673122 11.0620615 59.36115658 11.51676941 51.74564934 C11.67414754 49.09656982 11.82906405 46.44735513 11.98364258 43.79811096 C12.42871579 36.24401384 12.89235784 28.7029486 13.63568115 21.17088318 C13.89299369 18.48003115 14.0353594 15.80344294 14.08361816 13.10095215 C14.10939941 12.21407715 14.13518066 11.32720215 14.16174316 10.41345215 C14.00089807 8.10610213 14.00089807 8.10610213 12.77082825 6.47299194 C9.85183793 4.40560085 6.94951488 4.73555146 3.51013184 4.83581543 C2.38896233 4.85309031 2.38896233 4.85309031 1.24514294 4.87071419 C-8.51281938 5.06991133 -18.25293881 5.71523074 -27.99060059 6.34313965 Z " fill="#6956A2" transform="translate(160.1663818359375,9.8990478515625)"/>
<path d="M0 0 C1.47906892 -0.02689216 2.95827483 -0.04634621 4.4375 -0.0625 C5.26121094 -0.07410156 6.08492187 -0.08570313 6.93359375 -0.09765625 C9 0 9 0 10 1 C11.69787456 1.20461083 13.40322696 1.34778606 15.109375 1.46484375 C16.16906494 1.5417041 17.22875488 1.61856445 18.32055664 1.69775391 C19.45227295 1.77687012 20.58398926 1.85598633 21.75 1.9375 C30.58504541 2.5927831 39.28365752 3.37110101 48 5 C47.34 5.99 46.68 6.98 46 8 C46 8.66 46 9.32 46 10 C46.66 10 47.32 10 48 10 C47.38400666 20.939192 47.38400666 20.939192 44 25 C43.34 25 42.68 25 42 25 C41.7321167 25.58950439 41.4642334 26.17900879 41.18823242 26.78637695 C39.20227441 30.48612656 36.23851123 33.21277266 33.3125 36.1875 C32.71244141 36.82880859 32.11238281 37.47011719 31.49414062 38.13085938 C27.41784833 42.2772061 24.85871156 43.8571046 19 44 C19 45.32 19 46.64 19 48 C11.65584855 47.65601164 4.51974624 46.44058746 -2.6875 45.0625 C-3.57783936 44.89266602 -4.46817871 44.72283203 -5.38549805 44.54785156 C-9.31474701 43.78077684 -13.21354519 42.97132352 -17.08984375 41.96875 C-21.31327447 40.88156716 -25.57489436 40.15041225 -29.875 39.4375 C-37.72996183 38.13501908 -37.72996183 38.13501908 -40 37 C-40.375 34.8125 -40.375 34.8125 -40 32 C-36.38938651 28.20885584 -33.2948821 26.67603848 -28.36767578 24.89257812 C-23.72526567 23.1424594 -19.2141392 21.08939832 -14.6875 19.0625 C-13.69943359 18.63259766 -12.71136719 18.20269531 -11.69335938 17.75976562 C-10.74654297 17.33501953 -9.79972656 16.91027344 -8.82421875 16.47265625 C-7.54164185 15.90430054 -7.54164185 15.90430054 -6.2331543 15.32446289 C-3.73010854 13.8399299 -2.51383333 12.46868972 -1 10 C-0.43015552 7.42126391 -0.43015552 7.42126391 -0.3125 4.75 C-0.24675781 3.85796875 -0.18101563 2.9659375 -0.11328125 2.046875 C-0.07589844 1.37140625 -0.03851563 0.6959375 0 0 Z " fill="#E0D9E1" transform="translate(69,139)"/>
<path d="M0 0 C2.17108718 -0.09183753 4.34092317 -0.15223134 6.51330566 -0.20373535 C8.43892334 -0.26150146 8.43892334 -0.26150146 10.40344238 -0.32043457 C14.42298494 0.17335407 16.00266671 1.26868734 18.83361816 4.10095215 C24.91529522 16.26430627 18.77864451 39.73283134 17.83361816 53.10095215 C17.77563049 53.92214539 17.71764282 54.74333862 17.65789795 55.5894165 C17.53580629 57.31806825 17.41365854 59.04671604 17.29145813 60.77536011 C17.10114603 63.469153 16.91133697 66.16298105 16.72155762 68.85681152 C16.46359108 72.51846131 16.20251101 76.17987299 15.93981934 79.84118652 C15.31010771 88.69678672 14.73485483 97.54976807 14.30236816 106.4173584 C14.26156128 107.22915558 14.22075439 108.04095276 14.17871094 108.87734985 C13.98768124 112.68937939 13.80943922 116.50109589 13.65588379 120.31481934 C13.5906802 121.66673407 13.52495581 123.01862383 13.45861816 124.3704834 C13.40963379 125.53168701 13.36064941 126.69289063 13.31018066 127.88928223 C12.77624883 131.48757794 11.70019303 133.99162231 9.83361816 137.10095215 C9.17361816 137.43095215 8.51361816 137.76095215 7.83361816 138.10095215 C8.16361816 136.45095215 8.49361816 134.80095215 8.83361816 133.10095215 C9.49361816 133.10095215 10.15361816 133.10095215 10.83361816 133.10095215 C10.86334717 131.73220947 10.86334717 131.73220947 10.89367676 130.33581543 C11.28430656 113.03372068 11.79884233 95.75290109 12.83361816 78.47595215 C12.87541199 77.76924377 12.91720581 77.0625354 12.96026611 76.33441162 C13.33195311 70.11533394 13.71904016 63.90541527 14.39221191 57.71032715 C14.88001923 53.1195925 14.94928152 48.58889604 14.89611816 43.97595215 C14.89160645 43.21024902 14.88709473 42.4445459 14.88244629 41.65563965 C14.8708738 39.80404178 14.85294972 37.95248527 14.83361816 36.10095215 C14.50361816 36.10095215 14.17361816 36.10095215 13.83361816 36.10095215 C13.85456543 35.2381665 13.8755127 34.37538086 13.89709473 33.4864502 C13.96529719 30.28287704 14.0154313 27.07967399 14.05334473 23.87561035 C14.07345091 22.48941877 14.10074061 21.1033119 14.13537598 19.71740723 C14.18393042 17.72453308 14.20445788 15.73103826 14.22424316 13.7376709 C14.24519043 12.53843994 14.2661377 11.33920898 14.28771973 10.1036377 C14.12515538 7.02148995 14.12515538 7.02148995 11.95715332 5.22253418 C7.04154991 2.62627273 1.48064989 2.67499567 -3.79138184 4.03845215 C-4.57513184 4.38907715 -5.35888184 4.73970215 -6.16638184 5.10095215 C-6.16638184 5.43095215 -6.16638184 5.76095215 -6.16638184 6.10095215 C-44.81202689 8.48872021 -44.81202689 8.48872021 -63.16638184 8.10095215 C-62.17638184 7.77095215 -61.18638184 7.44095215 -60.16638184 7.10095215 C-60.49638184 6.11095215 -60.82638184 5.12095215 -61.16638184 4.10095215 C-47.50588407 2.98749001 -33.83985784 1.96837432 -20.16098022 1.10968018 C-18.77262589 1.02208722 -17.38437503 0.9328347 -15.99624634 0.84173584 C-10.66634 0.49377884 -5.33511526 0.2486133 0 0 Z " fill="#7867B0" transform="translate(160.1663818359375,9.8990478515625)"/>
<path d="M0 0 C0.495 0.99 0.495 0.99 1 2 C6.61 2 12.22 2 18 2 C18 2.33 18 2.66 18 3 C8.64526137 3.63554913 -0.70953386 4.27025722 -10.06439877 4.90394497 C-14.41006583 5.19834084 -18.75571421 5.49300677 -23.10131836 5.78833008 C-27.30937309 6.074295 -31.51747887 6.35949807 -35.72561836 6.64421272 C-37.31646051 6.75197286 -38.90728531 6.85998957 -40.49809074 6.96829033 C-42.01630152 7.07161671 -43.53454911 7.17440358 -45.05283451 7.27662754 C-46.52035309 7.37616325 -47.98772332 7.47791413 -49.45492458 7.58202267 C-53.23228424 7.84399027 -57.00095902 8.04315799 -60.78591919 8.15579224 C-61.56419602 8.18460763 -62.34247286 8.21342302 -63.14433384 8.24311161 C-64.62922704 8.29600862 -66.11476871 8.33366151 -67.60047054 8.35356045 C-70.7235402 8.47590954 -72.54986113 8.59250863 -74.91075134 10.72972107 C-76.77063355 14.60620177 -77.1142637 18.49015626 -77.44897461 22.73242188 C-77.5225267 23.64527954 -77.5960788 24.55813721 -77.67185974 25.49865723 C-77.78594933 26.96885315 -77.78594933 26.96885315 -77.90234375 28.46875 C-77.98496964 29.49947632 -78.06759552 30.53020264 -78.15272522 31.59216309 C-78.41711539 34.89455942 -78.6775947 38.19724791 -78.9375 41.5 C-79.2778984 45.80224865 -79.62026605 50.10433404 -79.96484375 54.40625 C-80.04898529 55.45731934 -80.13312683 56.50838867 -80.21981812 57.59130859 C-81.04195722 67.73777986 -81.99994692 77.86969642 -83 88 C-83.33 88 -83.66 88 -84 88 C-84.33 85.36 -84.66 82.72 -85 80 C-85.33 80 -85.66 80 -86 80 C-85.8604947 76.60387586 -85.71227678 73.20818542 -85.5625 69.8125 C-85.52318359 68.85279297 -85.48386719 67.89308594 -85.44335938 66.90429688 C-85.40146484 65.97294922 -85.35957031 65.04160156 -85.31640625 64.08203125 C-85.27974854 63.22843018 -85.24309082 62.3748291 -85.20532227 61.49536133 C-85 59 -85 59 -84.52294922 56.73071289 C-83.79214171 52.91461488 -83.57700365 49.09956151 -83.31640625 45.2265625 C-83.19229921 43.49737845 -83.06794248 41.76821231 -82.94335938 40.0390625 C-82.75175487 37.33157559 -82.56243039 34.62397966 -82.37768555 31.91601562 C-82.19717267 29.28985213 -82.0073872 26.66448269 -81.81640625 24.0390625 C-81.76424454 23.23779938 -81.71208282 22.43653625 -81.65834045 21.61099243 C-80.80247712 10.07322176 -80.80247712 10.07322176 -76.93579102 5.62573242 C-72.95127496 3.41925488 -69.52197971 3.21480831 -65.02734375 2.98828125 C-63.71075523 2.90044624 -63.71075523 2.90044624 -62.36756897 2.81083679 C-59.55832318 2.62765786 -56.74829978 2.46982359 -53.9375 2.3125 C-52.10601509 2.19630013 -50.27463249 2.07847564 -48.44335938 1.95898438 C-42.96384705 1.60837054 -37.48265662 1.2970072 -32 1 C-31.07701111 0.94987762 -30.15402222 0.89975525 -29.20306396 0.84811401 C-26.49620648 0.70288409 -23.78919439 0.56128395 -21.08203125 0.421875 C-19.86953957 0.35864799 -19.86953957 0.35864799 -18.6325531 0.29414368 C-12.41675765 -0.0150216 -6.22387423 -0.11385136 0 0 Z " fill="#7361A2" transform="translate(100,15)"/>
<path d="M0 0 C4.75 0.75 4.75 0.75 7 3 C7.86032806 11.07303997 6.70684765 19.55257447 6.12109375 27.62109375 C5.93482865 30.29012606 5.74950286 32.95920205 5.56591797 35.62841797 C5.51853139 36.31398427 5.47114481 36.99955057 5.42232227 37.70589161 C4.94852329 44.62337315 4.54752095 51.54452329 4.15361404 58.46693802 C3.9172924 62.59300458 3.67156192 66.71852312 3.42678261 70.84409523 C3.21966815 74.34713867 3.0178155 77.85036214 2.82543945 81.35424805 C2.63380395 84.83902235 2.42912396 88.3228112 2.21548271 91.80630302 C2.10056937 93.73623138 1.99933228 95.66695872 1.89845276 97.59767151 C1.78835121 99.34381996 1.78835121 99.34381996 1.67602539 101.12524414 C1.61766006 102.14284317 1.55929474 103.1604422 1.49916077 104.20887756 C0.92911268 107.39637569 -0.11420163 109.38433129 -2 112 C-13.77981874 117.88990937 -35.84864539 111.70139637 -48.5630188 110.45703888 C-51.41926166 110.17868701 -54.27603731 109.90602958 -57.13281822 109.63326454 C-78.44040783 107.59743002 -99.73339274 105.42934788 -121 103 C-121 102.67 -121 102.34 -121 102 C-117.7500804 101.94062823 -114.50030461 101.90595528 -111.25 101.875 C-110.34894531 101.85824219 -109.44789062 101.84148437 -108.51953125 101.82421875 C-102.56176481 101.78196509 -97.0230426 102.40550383 -91.16699219 103.46972656 C-85.31358182 104.4498073 -79.40908166 104.91763837 -73.5 105.4375 C-72.81655518 105.49870026 -72.13311035 105.55990051 -71.42895508 105.62295532 C-58.13159378 106.80946048 -44.81825041 107.76959592 -31.5 108.6875 C-30.54343506 108.75411835 -29.58687012 108.82073669 -28.60131836 108.88937378 C-25.84903738 109.07978744 -23.0964799 109.26542043 -20.34375 109.44921875 C-19.53244629 109.50531311 -18.72114258 109.56140747 -17.88525391 109.61920166 C-12.5791206 109.96497199 -7.31753125 110.04674388 -2 110 C-1.96241577 108.84999512 -1.96241577 108.84999512 -1.92407227 107.67675781 C-1.80798577 104.20100717 -1.68531634 100.72551908 -1.5625 97.25 C-1.52318359 96.0434375 -1.48386719 94.836875 -1.44335938 93.59375 C-1.40146484 92.43359375 -1.35957031 91.2734375 -1.31640625 90.078125 C-1.27974854 89.00981445 -1.24309082 87.94150391 -1.20532227 86.84082031 C-1.02848195 84.39407365 -0.59967256 82.35940134 0 80 C0.12333515 78.24329807 0.20058499 76.48309432 0.24609375 74.72265625 C0.29358765 73.13831787 0.29358765 73.13831787 0.34204102 71.52197266 C0.37354248 70.38034668 0.40504395 69.2387207 0.4375 68.0625 C0.75089527 58.05957273 1.3077014 48.10386193 2.0625 38.125 C2.70083957 29.3750629 3.22544817 20.64951614 3.3125 11.875 C3.32998291 11.0102002 3.34746582 10.14540039 3.36547852 9.25439453 C3.50469974 4.90578733 3.50469974 4.90578733 1.47729492 1.25830078 C0.9897876 0.84306152 0.50228027 0.42782227 0 0 Z " fill="#CDC3E7" transform="translate(167,15)"/>
<path d="M0 0 C3.72185034 4.58375252 2.74498961 9.79592676 2.5390625 15.4921875 C2.51650391 16.66652344 2.49394531 17.84085938 2.47070312 19.05078125 C2.4117921 21.94920387 2.32957881 24.84505177 2.2265625 27.7421875 C2.5565625 27.7421875 2.8865625 27.7421875 3.2265625 27.7421875 C3.46849604 40.16144255 3.06212265 52.40157146 2.08081055 64.78344727 C1.04921749 78.20135208 0.4936933 91.63836062 -0.07568359 105.08251953 C-0.11494461 105.98481796 -0.15420563 106.88711639 -0.19465637 107.8167572 C-0.26794056 109.50492386 -0.33869459 111.19320327 -0.40629578 112.88160706 C-0.63821307 118.20527213 -1.13755942 123.45111485 -1.7734375 128.7421875 C-2.1034375 128.7421875 -2.4334375 128.7421875 -2.7734375 128.7421875 C-2.7734375 120.4921875 -2.7734375 112.2421875 -2.7734375 103.7421875 C-3.1034375 103.7421875 -3.4334375 103.7421875 -3.7734375 103.7421875 C-4.84790185 94.57120642 -4.64374476 85.71449488 -4.03125 76.51953125 C-3.9418235 75.08334188 -3.85312374 73.6471071 -3.7651062 72.21083069 C-3.53321335 68.46146275 -3.29073815 64.71285204 -3.04614258 60.96429443 C-2.84952519 57.92314345 -2.66055839 54.88153987 -2.47198677 51.83988094 C-2.24433476 48.17043376 -2.01327974 44.50120395 -1.78125 40.83203125 C-1.73810795 40.14871168 -1.6949659 39.46539211 -1.65051651 38.76136589 C-1.18773422 31.48072344 -0.67569613 24.21270685 0.02684021 16.95095825 C0.27636604 14.19139974 0.39366127 11.45017388 0.4140625 8.6796875 C0.42824219 7.78121094 0.44242188 6.88273437 0.45703125 5.95703125 C0.44020443 3.53574574 0.44020443 3.53574574 -1.7734375 1.7421875 C-4.00001904 1.37214456 -4.00001904 1.37214456 -6.5625 1.328125 C-7.97402344 1.27011719 -7.97402344 1.27011719 -9.4140625 1.2109375 C-10.39890625 1.18 -11.38375 1.1490625 -12.3984375 1.1171875 C-13.39101562 1.07851562 -14.38359375 1.03984375 -15.40625 1 C-17.86179135 0.9055561 -20.3173216 0.81998875 -22.7734375 0.7421875 C-22.7734375 0.4121875 -22.7734375 0.0821875 -22.7734375 -0.2578125 C-14.95701153 -2.27012642 -7.55034467 -3.42424082 0 0 Z " fill="#6F59A0" transform="translate(172.7734375,14.2578125)"/>
<path d="M0 0 C2 2 2 2 2.265625 4.60546875 C2.20093412 19.43585385 1.04532441 34.21308633 0 49 C-0.08698151 50.23178986 -0.08698151 50.23178986 -0.17572021 51.48846436 C-0.29781187 53.21711611 -0.41995962 54.94576389 -0.54216003 56.67440796 C-0.73247213 59.36820085 -0.9222812 62.0620289 -1.11206055 64.75585938 C-1.37002708 68.41750916 -1.63110716 72.07892084 -1.89379883 75.74023438 C-2.52351046 84.59583457 -3.09876334 93.44881592 -3.53125 102.31640625 C-3.57205688 103.12820343 -3.61286377 103.94000061 -3.65490723 104.77639771 C-3.84593692 108.58842725 -4.02417894 112.40014374 -4.17773438 116.21386719 C-4.24293796 117.56578193 -4.30866235 118.91767168 -4.375 120.26953125 C-4.42398438 121.43073486 -4.47296875 122.59193848 -4.5234375 123.78833008 C-5.05736933 127.38662579 -6.13342513 129.89067016 -8 133 C-8.66 133.33 -9.32 133.66 -10 134 C-9.67 132.35 -9.34 130.7 -9 129 C-8.34 129 -7.68 129 -7 129 C-6.98018066 128.08750488 -6.96036133 127.17500977 -6.93994141 126.23486328 C-6.44851421 104.46816786 -5.54658254 82.76994196 -4.13214111 61.04425049 C-3.91498292 57.68476815 -3.70611544 54.32477973 -3.49609375 50.96484375 C-2.4256168 33.96957777 -1.24090181 16.98359667 0 0 Z " fill="#8E82E0" transform="translate(178,14)"/>
<path d="M0 0 C0.68586182 0.15033691 1.37172363 0.30067383 2.07836914 0.45556641 C21.00204288 4.58999302 39.97032111 8.38985555 59 12 C59 13.32 59 14.64 59 16 C51.65584855 15.65601164 44.51974624 14.44058746 37.3125 13.0625 C36.42216064 12.89266602 35.53182129 12.72283203 34.61450195 12.54785156 C30.68525299 11.78077684 26.78645481 10.97132352 22.91015625 9.96875 C18.68672553 8.88156716 14.42510564 8.15041225 10.125 7.4375 C2.27003817 6.13501908 2.27003817 6.13501908 0 5 C0 3.35 0 1.7 0 0 Z " fill="#DAD6D6" transform="translate(29,171)"/>
<path d="M0 0 C0.99 0.33 1.98 0.66 3 1 C2.690625 1.93505371 2.38125 2.87010742 2.0625 3.83349609 C0.67484643 8.71272912 0.36858373 13.62226641 0 18.6640625 C-0.08121094 19.69195892 -0.16242187 20.71985535 -0.24609375 21.77890015 C-0.50413913 25.06044957 -0.75249365 28.34264043 -1 31.625 C-1.33053733 35.90907364 -1.66496654 40.1928384 -2 44.4765625 C-2.0810498 45.52144836 -2.16209961 46.56633423 -2.24560547 47.6428833 C-3.04037802 57.77406929 -3.99689389 67.88756997 -5 78 C-5.33 78 -5.66 78 -6 78 C-6.33 75.36 -6.66 72.72 -7 70 C-7.33 70 -7.66 70 -8 70 C-7.8604947 66.60387586 -7.71227678 63.20818542 -7.5625 59.8125 C-7.50352539 58.37293945 -7.50352539 58.37293945 -7.44335938 56.90429688 C-7.38051758 55.50727539 -7.38051758 55.50727539 -7.31640625 54.08203125 C-7.27974854 53.22843018 -7.24309082 52.3748291 -7.20532227 51.49536133 C-7 49 -7 49 -6.52734375 46.74609375 C-5.77842006 42.84614296 -5.53530629 38.93774515 -5.24609375 34.98046875 C-5.18092056 34.12189774 -5.11574738 33.26332672 -5.04859924 32.3787384 C-4.84201579 29.64853383 -4.63969933 26.91803241 -4.4375 24.1875 C-4.29780787 22.33135898 -4.15783703 20.47523891 -4.01757812 18.61914062 C-3.67515626 14.07966347 -3.33655974 9.53991539 -3 5 C-2.34 5.66 -1.68 6.32 -1 7 C-0.67 4.69 -0.34 2.38 0 0 Z " fill="#6E5FAA" transform="translate(22,25)"/>
<path d="M0 0 C4.75 0.75 4.75 0.75 7 3 C7.85920943 11.06900649 6.70919047 19.54467383 6.125 27.609375 C5.93910442 30.2779309 5.75404789 32.94653031 5.5703125 35.61523438 C5.52279846 36.30118305 5.47528442 36.98713173 5.42633057 37.69386673 C4.94809877 44.64629319 4.53224672 51.60204972 4.12298584 58.55882263 C3.87798545 62.70598621 3.62593375 66.85272837 3.37496948 70.99953461 C3.16208268 74.52629438 2.95284777 78.053214 2.75 81.58056641 C2.54827309 85.08454138 2.33757563 88.58787187 2.12060547 92.09093475 C2.00234846 94.03942997 1.893655 95.98849809 1.78515625 97.93756104 C1.71167969 99.1018866 1.63820312 100.26621216 1.5625 101.46582031 C1.50191406 102.49008118 1.44132813 103.51434204 1.37890625 104.56964111 C1 107 1 107 -1 109 C-0.71756924 100.27051634 -0.42472075 91.54140682 -0.125 82.8125 C-0.08086975 81.5263681 -0.0367395 80.24023621 0.00872803 78.91513062 C0.50296704 64.69622878 1.01981676 50.49853936 2.125 36.3125 C2.75132217 28.16309191 3.22689706 20.05008119 3.3125 11.875 C3.33006348 11.00786377 3.34762695 10.14072754 3.36572266 9.24731445 C3.50387921 4.90241551 3.50387921 4.90241551 1.47729492 1.25830078 C0.9897876 0.84306152 0.50228027 0.42782227 0 0 Z " fill="#D4CBCB" transform="translate(167,15)"/>
<path d="M0 0 C0.33 0 0.66 0 1 0 C1.05841253 3.54159657 1.09373452 7.08306793 1.125 10.625 C1.14175781 11.62402344 1.15851563 12.62304688 1.17578125 13.65234375 C1.23957977 23.28591952 1.23957977 23.28591952 -1 28 C-3.95504865 29.47752433 -6.94848097 29.19129321 -10.1875 29.1875 C-10.8993042 29.18669434 -11.6111084 29.18588867 -12.34448242 29.18505859 C-23.37143436 29.06081811 -34.1992736 27.11074487 -45 25 C-45 24.67 -45 24.34 -45 24 C-36.47397407 23.85549109 -28.08394521 24.56856428 -19.59375 25.2890625 C-18.4903125 25.37929687 -17.386875 25.46953125 -16.25 25.5625 C-15.26515625 25.64628906 -14.2803125 25.73007813 -13.265625 25.81640625 C-9.18307212 26.04592776 -5.08899965 26 -1 26 C-0.67 17.42 -0.34 8.84 0 0 Z " fill="#DED5E1" transform="translate(166,99)"/>
<path d="M0 0 C-2 3 -2 3 -4.1640625 3.73046875 C-5.38222656 3.95669922 -5.38222656 3.95669922 -6.625 4.1875 C-7.85089844 4.42533203 -7.85089844 4.42533203 -9.1015625 4.66796875 C-10.04128906 4.83232422 -10.04128906 4.83232422 -11 5 C-11 5.33 -11 5.66 -11 6 C-14.14645401 5.88838822 -17.29189157 5.75819443 -20.4375 5.625 C-21.31599609 5.5940625 -22.19449219 5.563125 -23.09960938 5.53125 C-28.95583327 5.27193381 -34.31155423 4.42355815 -40 3 C-40 2.67 -40 2.34 -40 2 C-35.42863526 1.71240138 -30.8571039 1.42767026 -26.28540039 1.14550781 C-24.73261787 1.04927631 -23.17988232 0.95228362 -21.62719727 0.85449219 C-19.38570099 0.71345422 -17.14404586 0.57522306 -14.90234375 0.4375 C-14.21663803 0.39375244 -13.53093231 0.35000488 -12.82444763 0.30493164 C-8.54329331 0.04525994 -4.28848784 -0.03900842 0 0 Z " fill="#7C68AE" transform="translate(165,10)"/>
<path d="M0 0 C3.72185034 4.58375252 2.74498961 9.79592676 2.5390625 15.4921875 C2.51650391 16.66652344 2.49394531 17.84085938 2.47070312 19.05078125 C2.4117921 21.94920387 2.32957881 24.84505177 2.2265625 27.7421875 C2.5565625 27.7421875 2.8865625 27.7421875 3.2265625 27.7421875 C3.2265625 29.7221875 3.2265625 31.7021875 3.2265625 33.7421875 C1.7415625 33.2471875 1.7415625 33.2471875 0.2265625 32.7421875 C0.2265625 38.6821875 0.2265625 44.6221875 0.2265625 50.7421875 C-1.7734375 48.7421875 -1.7734375 48.7421875 -1.92456055 46.57836914 C-1.87855713 45.69528076 -1.83255371 44.81219238 -1.78515625 43.90234375 C-1.73810547 42.92072266 -1.69105469 41.93910156 -1.64257812 40.92773438 C-1.58263672 39.89712891 -1.52269531 38.86652344 -1.4609375 37.8046875 C-1.41259766 36.80888672 -1.36425781 35.81308594 -1.31445312 34.78710938 C-1.01222902 28.8918265 -0.54119543 23.02678979 0.01489258 17.15063477 C0.26333968 14.32372513 0.39316642 11.51737489 0.4140625 8.6796875 C0.42824219 7.78121094 0.44242188 6.88273437 0.45703125 5.95703125 C0.44020443 3.53574574 0.44020443 3.53574574 -1.7734375 1.7421875 C-4.00001904 1.37214456 -4.00001904 1.37214456 -6.5625 1.328125 C-7.97402344 1.27011719 -7.97402344 1.27011719 -9.4140625 1.2109375 C-10.39890625 1.18 -11.38375 1.1490625 -12.3984375 1.1171875 C-13.39101562 1.07851562 -14.38359375 1.03984375 -15.40625 1 C-17.86179135 0.9055561 -20.3173216 0.81998875 -22.7734375 0.7421875 C-22.7734375 0.4121875 -22.7734375 0.0821875 -22.7734375 -0.2578125 C-14.95701153 -2.27012642 -7.55034467 -3.42424082 0 0 Z " fill="#796799" transform="translate(172.7734375,14.2578125)"/>
<path d="M0 0 C0.33 0 0.66 0 1 0 C1.19854168 9.9153184 0.67058673 19.80638104 0.20043945 29.70703125 C0.06250815 32.62482751 -0.06957855 35.5428493 -0.20117188 38.4609375 C-0.28871149 40.34116221 -0.37659055 42.22137115 -0.46484375 44.1015625 C-0.50343002 44.96117584 -0.5420163 45.82078918 -0.58177185 46.70645142 C-0.84664306 52.17213575 -1.34689182 57.56665946 -2 63 C-2.33 63 -2.66 63 -3 63 C-3.05092721 56.59541235 -3.08582866 50.19087741 -3.10986328 43.78613281 C-3.11988854 41.60968067 -3.13351222 39.43324188 -3.15087891 37.25683594 C-3.17528028 34.11910697 -3.18651813 30.98155692 -3.1953125 27.84375 C-3.20563507 26.87884644 -3.21595764 25.91394287 -3.22659302 24.9197998 C-3.22752468 19.24362747 -2.58165365 14.45198145 -1 9 C-0.74991898 7.33908458 -0.53177851 5.67230412 -0.375 4 C-0.30023438 3.236875 -0.22546875 2.47375 -0.1484375 1.6875 C-0.09945312 1.130625 -0.05046875 0.57375 0 0 Z " fill="#7460B5" transform="translate(173,80)"/>
<path d="M0 0 C4.75 0.75 4.75 0.75 7 3 C8.10053807 11.5939076 6.26862828 20.51778463 5 29 C4.66569837 31.3331948 4.33207678 33.6664875 4 36 C3.67 36 3.34 36 3 36 C3.01571045 35.01604248 3.0314209 34.03208496 3.04760742 33.01831055 C3.10190978 29.36751492 3.13635085 25.71675499 3.16479492 22.06567383 C3.17988094 20.48553464 3.2003525 18.90543731 3.22631836 17.32543945 C3.26271126 15.05409415 3.27972762 12.78330241 3.29296875 10.51171875 C3.30845261 9.80536789 3.32393646 9.09901703 3.33988953 8.3712616 C3.35474237 4.41023962 3.35474237 4.41023962 1.48168945 1.03051758 C0.99273193 0.69044678 0.50377441 0.35037598 0 0 Z " fill="#E5DADB" transform="translate(167,15)"/>
<path d="M0 0 C0.99 0.33 1.98 0.66 3 1 C2.69320313 1.88816406 2.38640625 2.77632812 2.0703125 3.69140625 C0.46355286 9.31506499 0.27784747 15.12923196 -0.125 20.9375 C-0.21136719 22.09830078 -0.29773438 23.25910156 -0.38671875 24.45507812 C-0.59767403 27.30297446 -0.80190466 30.15118513 -1 33 C-1.33 33 -1.66 33 -2 33 C-2.33 30.36 -2.66 27.72 -3 25 C-3.33 25 -3.66 25 -4 25 C-3.67 18.4 -3.34 11.8 -3 5 C-2.34 5.66 -1.68 6.32 -1 7 C-0.67 4.69 -0.34 2.38 0 0 Z " fill="#7968B4" transform="translate(22,25)"/>
<path d="M0 0 C0.33 0 0.66 0 1 0 C0.68881671 4.10426759 0.37580749 8.20839406 0.0625 12.3125 C-0.06801758 14.03436523 -0.06801758 14.03436523 -0.20117188 15.79101562 C-0.74236531 22.8666187 -1.33426864 29.93500439 -2 37 C-2.33 37 -2.66 37 -3 37 C-3.33 34.36 -3.66 31.72 -4 29 C-4.33 29 -4.66 29 -5 29 C-4.67 22.07 -4.34 15.14 -4 8 C-3.67 8 -3.34 8 -3 8 C-2.67 9.98 -2.34 11.96 -2 14 C-1.93941406 13.24074219 -1.87882812 12.48148438 -1.81640625 11.69921875 C-1.69072266 10.20841797 -1.69072266 10.20841797 -1.5625 8.6875 C-1.48128906 7.70136719 -1.40007813 6.71523437 -1.31640625 5.69921875 C-1 3 -1 3 0 0 Z " fill="#8677BB" transform="translate(19,66)"/>
<path d="M0 0 C1.87945313 0.08701172 1.87945313 0.08701172 3.796875 0.17578125 C5.06015625 0.22089844 6.3234375 0.26601563 7.625 0.3125 C8.58921875 0.37050781 9.5534375 0.42851562 10.546875 0.48828125 C8.546875 3.48828125 8.546875 3.48828125 6.55859375 3.96484375 C5.79160156 4.01382812 5.02460937 4.0628125 4.234375 4.11328125 C0.93277276 4.37421433 -2.21494092 4.75707839 -5.453125 5.48828125 C-5.453125 7.79828125 -5.453125 10.10828125 -5.453125 12.48828125 C-6.443125 12.98328125 -6.443125 12.98328125 -7.453125 13.48828125 C-7.93767982 6.34109772 -7.93767982 6.34109772 -5.890625 2.73828125 C-3.453125 0.48828125 -3.453125 0.48828125 0 0 Z " fill="#6855A0" transform="translate(27.453125,19.51171875)"/>
<path d="M0 0 C1.42892578 -0.00386719 1.42892578 -0.00386719 2.88671875 -0.0078125 C5.3125 0.125 5.3125 0.125 7.3125 1.125 C9.3499763 1.35358114 11.39290303 1.53524278 13.4375 1.6875 C15.08105469 1.81318359 15.08105469 1.81318359 16.7578125 1.94140625 C17.60085937 2.00199219 18.44390625 2.06257812 19.3125 2.125 C19.3125 2.455 19.3125 2.785 19.3125 3.125 C-1.78308307 5.49244018 -1.78308307 5.49244018 -10.6875 2.125 C-10.6875 1.795 -10.6875 1.465 -10.6875 1.125 C-7.06658451 0.29397022 -3.71279448 -0.01013041 0 0 Z " fill="#715F9F" transform="translate(126.6875,12.875)"/>
<path d="M0 0 C4.55555556 0.55555556 4.55555556 0.55555556 6 2 C6.125 5 6.125 5 6 8 C5 9 5 9 2.5625 9.1875 C0 9 0 9 -2 7 C-2.25 4.5 -2.25 4.5 -2 2 C-1.34 1.34 -0.68 0.68 0 0 Z " fill="#DD6B6C" transform="translate(79,125)"/>
<path d="M0 0 C7.57023262 -0.12954409 15.01970944 0.38221749 22.5625 1 C23.76197266 1.09539062 24.96144531 1.19078125 26.19726562 1.2890625 C29.13177831 1.52288821 32.06599171 1.75994187 35 2 C31.32349748 4.45100168 28.50687761 4.34272076 24.25 4.3125 C23.50371338 4.31121094 22.75742676 4.30992188 21.98852539 4.30859375 C14.42823584 4.18089964 7.33201382 2.79298155 0 1 C0 0.67 0 0.34 0 0 Z " fill="#E4DDF1" transform="translate(121,123)"/>
<path d="M0 0 C28.76658182 -0.52552777 28.76658182 -0.52552777 37 4 C24.61930915 3.39058776 12.32524361 2.31282326 0 1 C0 0.67 0 0.34 0 0 Z " fill="#D9D2EF" transform="translate(46,117)"/>
<path d="M0 0 C0.99 0.33 1.98 0.66 3 1 C3.10094304 9.41192037 3.10102642 17.64399592 2 26 C1.67 26 1.34 26 1 26 C0.22471521 22.57426063 -0.11918778 19.42760755 -0.09765625 15.91796875 C-0.09443359 14.98662109 -0.09121094 14.05527344 -0.08789062 13.09570312 C-0.07951172 12.13599609 -0.07113281 11.17628906 -0.0625 10.1875 C-0.05798828 9.20845703 -0.05347656 8.22941406 -0.04882812 7.22070312 C-0.03708684 4.81373889 -0.02066419 2.40690143 0 0 Z " fill="#7163AF" transform="translate(173,47)"/>
<path d="M0 0 C0.33 0 0.66 0 1 0 C1.04940929 5.49925421 1.08572395 10.99837942 1.10986328 16.49780273 C1.11992567 18.36891938 1.13357691 20.24002028 1.15087891 22.11108398 C1.17511684 24.79935591 1.18648063 27.48742006 1.1953125 30.17578125 C1.20563507 31.01337479 1.21595764 31.85096832 1.22659302 32.71394348 C1.22774341 38.65838488 1.22774341 38.65838488 -1 42 C-2.13765543 32.6383427 -1.79553296 23.62920749 -1.0625 14.25 C-0.9607396 12.85943686 -0.85982325 11.4688117 -0.75976562 10.078125 C-0.51476005 6.71804849 -0.26134958 3.35883795 0 0 Z " fill="#715F8F" transform="translate(170,76)"/>
<path d="M0 0 C0.66 0.33 1.32 0.66 2 1 C2 3.31 2 5.62 2 8 C-3.08086796 8.84681133 -7.84828377 9.09038099 -13 9 C-12.67 7.68 -12.34 6.36 -12 5 C-8.04 5.33 -4.08 5.66 0 6 C0 4.02 0 2.04 0 0 Z " fill="#DBD4DA" transform="translate(113,146)"/>
<path d="M0 0 C0.33 0 0.66 0 1 0 C1.33 6.27 1.66 12.54 2 19 C1.01 18.67 0.02 18.34 -1 18 C-2.41693757 15.16612485 -2.1699013 12.71970627 -2.1875 9.5625 C-2.20167969 8.40878906 -2.21585938 7.25507812 -2.23046875 6.06640625 C-2 3 -2 3 0 0 Z " fill="#7566AE" transform="translate(15,94)"/>
<path d="M0 0 C3.43926093 0.44570607 6.87597202 0.90872615 10.3125 1.375 C11.77719727 1.56449219 11.77719727 1.56449219 13.27148438 1.7578125 C14.20927734 1.88671875 15.14707031 2.015625 16.11328125 2.1484375 C17.40939331 2.32125244 17.40939331 2.32125244 18.73168945 2.49755859 C21 3 21 3 24 5 C21.1033852 4.88569952 18.20821684 4.7589576 15.3125 4.625 C14.49587891 4.5940625 13.67925781 4.563125 12.83789062 4.53125 C8.5493528 4.32289998 4.84735694 4.10959611 1 2 C0.67 1.34 0.34 0.68 0 0 Z " fill="#D8CEEE" transform="translate(17,112)"/>
<path d="M0 0 C0.84691406 0.71736328 0.84691406 0.71736328 1.7109375 1.44921875 C1.3809375 2.10921875 1.0509375 2.76921875 0.7109375 3.44921875 C0.0509375 2.78921875 -0.6090625 2.12921875 -1.2890625 1.44921875 C-3.51564404 1.07917581 -3.51564404 1.07917581 -6.078125 1.03515625 C-7.48964844 0.97714844 -7.48964844 0.97714844 -8.9296875 0.91796875 C-9.91453125 0.88703125 -10.899375 0.85609375 -11.9140625 0.82421875 C-12.90664062 0.78554687 -13.89921875 0.746875 -14.921875 0.70703125 C-17.37741635 0.61258735 -19.8329466 0.52702 -22.2890625 0.44921875 C-22.2890625 0.11921875 -22.2890625 -0.21078125 -22.2890625 -0.55078125 C-15.15400925 -2.38767794 -6.51672167 -4.41491212 0 0 Z " fill="#726194" transform="translate(172.2890625,14.55078125)"/>
<path d="M0 0 C-1.19458008 1.49536133 -1.19458008 1.49536133 -3 3 C-5.26831055 3.2487793 -5.26831055 3.2487793 -7.88671875 3.07421875 C-8.82451172 3.01943359 -9.76230469 2.96464844 -10.72851562 2.90820312 C-11.70498047 2.83537109 -12.68144531 2.76253906 -13.6875 2.6875 C-14.67556641 2.62626953 -15.66363281 2.56503906 -16.68164062 2.50195312 C-19.12236119 2.34867116 -21.56119089 2.18082846 -24 2 C-24 1.67 -24 1.34 -24 1 C-15.97875848 0.28586721 -8.05358138 -0.14525497 0 0 Z " fill="#806EB9" transform="translate(67,17)"/>
<path d="M0 0 C0.66 0.33 1.32 0.66 2 1 C2 2.32 2 3.64 2 5 C0.68 5 -0.64 5 -2 5 C-2 7.31 -2 9.62 -2 12 C-2.99 12.495 -2.99 12.495 -4 13 C-4.49230769 5.73846154 -4.49230769 5.73846154 -2 2 C-1.34 1.34 -0.68 0.68 0 0 Z " fill="#705EA5" transform="translate(24,20)"/>
<path d="M0 0 C1.9078584 3.1749094 2.1609041 5.10585211 1.625 8.75 C1.51414063 9.54921875 1.40328125 10.3484375 1.2890625 11.171875 C1.19367188 11.77515625 1.09828125 12.3784375 1 13 C0.67 13 0.34 13 0 13 C-0.19397476 11.02145742 -0.38001321 9.0421352 -0.5625 7.0625 C-0.66691406 5.96035156 -0.77132812 4.85820313 -0.87890625 3.72265625 C-0.91886719 2.82417969 -0.95882812 1.92570312 -1 1 C-0.67 0.67 -0.34 0.34 0 0 Z " fill="#72619D" transform="translate(169,105)"/>
<path d="M0 0 C0.66 1.32 1.32 2.64 2 4 C2.66 3.34 3.32 2.68 4 2 C3.67 6.62 3.34 11.24 3 16 C2.67 16 2.34 16 2 16 C1.67 13.36 1.34 10.72 1 8 C0.67 8 0.34 8 0 8 C0 5.36 0 2.72 0 0 Z " fill="#9384C4" transform="translate(18,42)"/>
<path d="M0 0 C0 0.99 0 1.98 0 3 C-4.95 2.67 -9.9 2.34 -15 2 C-15 1.67 -15 1.34 -15 1 C-12.8750734 0.83240016 -10.75005624 0.66594799 -8.625 0.5 C-7.44164062 0.4071875 -6.25828125 0.314375 -5.0390625 0.21875 C-3.36213157 0.09804546 -1.68126944 0 0 0 Z " fill="#7E6FA7" transform="translate(67,135)"/>
<path d="M0 0 C0.66 0.33 1.32 0.66 2 1 C2 3.31 2 5.62 2 8 C-0.31 7.67 -2.62 7.34 -5 7 C-5 6.67 -5 6.34 -5 6 C-3.35 6 -1.7 6 0 6 C0 4.02 0 2.04 0 0 Z " fill="#D5D0D2" transform="translate(113,146)"/>
<path d="M0 0 C4.29 0 8.58 0 13 0 C12.01 1.485 12.01 1.485 11 3 C7.37 2.34 3.74 1.68 0 1 C0 0.67 0 0.34 0 0 Z " fill="#8D7CBF" transform="translate(125,12)"/>
<path d="M0 0 C1.32 0.66 2.64 1.32 4 2 C4 3.32 4 4.64 4 6 C2.68 5.67 1.36 5.34 0 5 C-0.5625 3.0625 -0.5625 3.0625 -1 1 C-0.67 0.67 -0.34 0.34 0 0 Z " fill="#EE6758" transform="translate(79,127)"/>
</svg>
