<?xml version="1.0" encoding="UTF-8"?>
<svg version="1.1" xmlns="http://www.w3.org/2000/svg" width="357" height="258">
<path d="M0 0 C117.81 0 235.62 0 357 0 C357 85.14 357 170.28 357 258 C239.19 258 121.38 258 0 258 C0 172.86 0 87.72 0 0 Z " fill="#F9F9FB" transform="translate(0,0)"/>
<path d="M0 0 C1.78544093 0.00084841 3.57088291 0.00036697 5.35632324 -0.00132751 C10.15496286 -0.00218056 14.95337284 0.01533199 19.75195956 0.03639436 C24.78474656 0.05527761 29.81754009 0.05692071 34.85035706 0.06047058 C44.35909494 0.06975708 53.8677281 0.09432442 63.37642008 0.12451905 C74.21088798 0.15816937 85.04536115 0.17457569 95.87986839 0.18960536 C118.1472654 0.22087736 140.41456846 0.2735711 162.68188477 0.34057617 C162.68188477 1.00057617 162.68188477 1.66057617 162.68188477 2.34057617 C163.53459961 2.28836914 163.53459961 2.28836914 164.40454102 2.23510742 C170.00388102 2.03880335 173.73670435 2.66193678 178.68188477 5.34057617 C180.2078863 8.39257924 179.87257621 11.55418507 179.86938477 14.90307617 C179.8693042 15.70648438 179.86922363 16.50989258 179.86914062 17.33764648 C179.79324529 26.10315879 179.27506085 34.84324333 178.74438477 43.59057617 C178.70090912 44.31648956 178.65743347 45.04240295 178.61264038 45.79031372 C178.48485948 47.89588977 178.35209408 50.00108007 178.21704102 52.10620117 C178.13848877 53.33113281 178.05993652 54.55606445 177.97900391 55.81811523 C177.7848265 58.12016255 177.52470559 60.41784005 177.19116211 62.70385742 C176.58224257 67.05211507 176.27919396 71.38275635 175.99829102 75.76245117 C175.87398235 77.6127143 175.74963198 79.46297462 175.62524414 81.31323242 C175.43552244 84.18213554 175.24696251 87.05110981 175.05957031 89.92016602 C174.40243768 99.9277303 173.70593514 109.93268556 172.77172852 119.91870117 C172.70756241 120.69711365 172.6433963 121.47552612 172.57728577 122.27752686 C172.14270639 126.62748271 171.49143519 129.91642336 168.68188477 133.34057617 C167.69188477 133.34057617 166.70188477 133.34057617 165.68188477 133.34057617 C165.68188477 134.00057617 165.68188477 134.66057617 165.68188477 135.34057617 C141.125624 135.28007873 116.56946774 135.20260509 92.01332569 135.10486126 C80.61175777 135.05987502 69.21022128 135.02046687 57.80859375 134.99414062 C47.87218845 134.97118347 37.93588239 134.93781101 27.99955577 134.89187461 C22.73721029 134.86791163 17.47496329 134.849203 12.21256447 134.84296227 C7.26069322 134.83692534 2.30907403 134.81697592 -2.64270401 134.78630066 C-4.46116322 134.77749808 -6.27965534 134.77380243 -8.09813499 134.77556801 C-10.57960653 134.77721677 -13.06030601 134.76055598 -15.54167175 134.73930359 C-16.62290928 134.74657495 -16.62290928 134.74657495 -17.72599 134.75399321 C-22.08049902 134.69237785 -24.85431935 134.01636404 -28.31811523 131.34057617 C-32.40856422 123.37057998 -32.0996669 113.21834493 -32.63452148 104.43041992 C-32.73652371 102.89410206 -32.83956901 101.35785314 -32.94358826 99.82167053 C-33.21400355 95.78981062 -33.47125864 91.75722208 -33.7253418 87.7243042 C-33.98015777 83.70985087 -34.24588439 79.6961257 -34.51147461 75.68237305 C-34.82239491 70.98156887 -35.13263205 66.28073938 -35.4359436 61.57943726 C-36.10209629 51.29785823 -36.84587766 41.02498304 -37.73109436 30.75950623 C-39.34172636 11.18836834 -39.34172636 11.18836834 -36.31811523 5.34057617 C-26.383036 -1.28280999 -11.48045145 -0.07747458 0 0 Z " fill="#343133" transform="translate(113.318115234375,27.659423828125)"/>
<path d="M0 0 C1.08886017 0.00378534 1.08886017 0.00378534 2.19971752 0.00764716 C4.63303141 0.01737165 7.06623869 0.0344064 9.49951172 0.05142212 C11.24415386 0.05992974 12.98879818 0.06800105 14.73344421 0.07566833 C19.47563181 0.09787651 24.21776024 0.12655307 28.95990372 0.15662336 C33.92841174 0.18730141 38.89694627 0.2129201 43.86547852 0.23931885 C52.21828575 0.28453046 60.57105994 0.33399608 68.92382812 0.38589478 C78.55983002 0.44570825 88.19585107 0.49854963 97.83191299 0.54766309 C107.11491737 0.59516605 116.3978848 0.64796029 125.68084717 0.703022 C129.62310051 0.72629624 133.5653573 0.74768997 137.50762939 0.76752853 C142.16319312 0.79117522 146.81870688 0.81946884 151.47422218 0.85121727 C153.17526116 0.86208707 154.87631095 0.8714034 156.57736778 0.87898064 C165.69369988 0.92062735 174.72742222 1.13233457 183.80419922 2.08901978 C183.80419922 1.42901978 183.80419922 0.76901978 183.80419922 0.08901978 C193.92552174 5.14968104 199.17148803 14.33221792 204.86669922 23.77651978 C205.98909513 25.61455506 207.11284176 27.45176607 208.23779297 29.28823853 C208.8164209 30.23360474 209.39504883 31.17897095 209.99121094 32.15298462 C213.6684849 38.10812825 217.45116185 43.99660274 221.22241211 49.89248657 C221.77791748 50.76171753 222.33342285 51.63094849 222.90576172 52.52651978 C223.39383301 53.28835571 223.8819043 54.05019165 224.38476562 54.83511353 C224.85317871 55.57890259 225.3215918 56.32269165 225.80419922 57.08901978 C226.63081055 58.36785034 226.63081055 58.36785034 227.47412109 59.67251587 C229.24952863 62.89810027 229.00521688 65.0776689 228.67919922 68.71401978 C228.55158203 70.40398071 228.55158203 70.40398071 228.42138672 72.12808228 C227.74315952 75.38185578 227.3671508 76.11071228 224.80419922 78.08901978 C216.82176307 80.42357835 208.37427256 80.36566095 200.12817383 80.29971313 C198.90892023 80.29810495 197.68966663 80.29649677 196.43346596 80.29483986 C193.08422055 80.28824843 189.73525601 80.27255304 186.38607907 80.25267148 C182.76350654 80.23332184 179.14090472 80.22562133 175.51829529 80.21620178 C168.42599343 80.19570538 161.33379028 80.16355015 154.24155587 80.12677354 C148.43035605 80.0967136 142.61915017 80.0703767 136.80792236 80.0463562 C115.01350199 79.95549109 93.21934549 79.83509419 71.42515695 79.70018137 C64.18208873 79.65569826 56.93899965 79.61591889 49.69589955 79.57702786 C42.54514229 79.53841835 35.39440905 79.496504 28.24368519 79.45214123 C24.04357889 79.42613651 19.84347567 79.40130731 15.64334297 79.37994576 C0.3235891 79.30077624 -14.99226542 79.18594397 -30.30541992 78.69424438 C-31.37241088 78.66459123 -32.43940184 78.63493807 -33.53872585 78.60438633 C-50.30218644 77.98263411 -50.30218644 77.98263411 -54.19580078 74.08901978 C-55.58893207 69.02758419 -55.9859897 64.18760122 -54.11767578 59.22573853 C-52.30864928 56.05116047 -50.31202692 53.06211754 -48.19580078 50.08901978 C-47.30079258 48.80028838 -46.40628768 47.51120735 -45.51220703 46.22183228 C-43.51360144 43.3597777 -41.49189362 40.51558367 -39.45751953 37.67886353 C-35.47804208 32.11289946 -31.64425048 26.44858001 -27.82421875 20.77236938 C-15.48635694 2.57807782 -15.48635694 2.57807782 -9.50100708 0.50083351 C-6.30993255 -0.06923621 -3.24191616 -0.01743993 0 0 Z " fill="#C07DAE" transform="translate(95.19580078125,160.91098022460938)"/>
<path d="M0 0 C58.74 0.33 117.48 0.66 178 1 C174.15390517 2.92304742 172.88478606 3.24896557 168.80859375 3.23046875 C167.27996704 3.22853516 167.27996704 3.22853516 165.72045898 3.2265625 C164.09539429 3.20722656 164.09539429 3.20722656 162.4375 3.1875 C161.33027588 3.18105469 160.22305176 3.17460937 159.08227539 3.16796875 C149.36944734 3.07855904 139.69026719 2.6467878 130 2 C130 2.99 130 3.98 130 5 C131.05058594 4.98839844 132.10117188 4.97679687 133.18359375 4.96484375 C134.6015607 4.95545324 136.0195296 4.94635441 137.4375 4.9375 C138.12521484 4.92912109 138.81292969 4.92074219 139.52148438 4.91210938 C143.10417143 4.89544571 146.54382712 5.03828618 150.09375 5.53125 C156.73568873 6.34075199 163.39616943 5.84834069 170.0625 5.5625 C171.41859576 5.50915126 172.77471565 5.45641226 174.13085938 5.40429688 C177.42085957 5.27550683 180.71048617 5.14058296 184 5 C184.12076904 5.73500732 184.24153809 6.47001465 184.3659668 7.22729492 C184.98678165 9.94219452 185.82712838 11.92393994 187.14453125 14.36328125 C187.57443359 15.16830078 188.00433594 15.97332031 188.44726562 16.80273438 C189.12305664 18.04506836 189.12305664 18.04506836 189.8125 19.3125 C191.1263721 21.75695808 192.43796635 24.20255897 193.74462891 26.65087891 C194.57206389 28.19922185 195.40751078 29.74331365 196.25146484 31.28271484 C197.24412966 33.14977861 198.13165253 35.07197426 199 37 C198.67 37.99 198.34 38.98 198 40 C197.566875 39.0409375 197.566875 39.0409375 197.125 38.0625 C196.17176549 35.84793921 196.17176549 35.84793921 194 35 C193.67 35.99 193.34 36.98 193 38 C192.75765625 37.44570312 192.5153125 36.89140625 192.265625 36.3203125 C191.93046875 35.59585938 191.5953125 34.87140625 191.25 34.125 C190.92515625 33.40570313 190.6003125 32.68640625 190.265625 31.9453125 C188.78070314 29.6629326 187.49584592 28.99624102 185 28 C185.99 26.515 185.99 26.515 187 25 C184.36 19.72 181.72 14.44 179 9 C173.06 9 167.12 9 161 9 C160.67 10.65 160.34 12.3 160 14 C159.01 13.505 159.01 13.505 158 13 C157.67 11.35 157.34 9.7 157 8 C152.38 8 147.76 8 143 8 C143 10.31 143 12.62 143 15 C147.29 15.33 151.58 15.66 156 16 C156 16.33 156 16.66 156 17 C152.7 17 149.4 17 146 17 C146.28875 18.44375 146.5775 19.8875 146.875 21.375 C147.03742188 22.18710938 147.19984375 22.99921875 147.3671875 23.8359375 C147.86658932 26.18673923 147.86658932 26.18673923 150 28 C149.34 28 148.68 28 148 28 C148.99 31.63 149.98 35.26 151 39 C144.375 39.25 144.375 39.25 141 37 C140.32060826 35.00428677 139.65438441 33.00405227 139 31 C137.4587688 29.29078411 137.4587688 29.29078411 136 28 C136 27.34 136 26.68 136 26 C136.66 26 137.32 26 138 26 C137.01 22.535 137.01 22.535 136 19 C129.07 18.505 129.07 18.505 122 18 C122.495 16.515 122.495 16.515 123 15 C126.96 15 130.92 15 135 15 C134.67 13.02 134.34 11.04 134 9 C132.98679688 9.01160156 131.97359375 9.02320313 130.9296875 9.03515625 C129.57812686 9.04454209 128.2265642 9.05364143 126.875 9.0625 C125.87726563 9.07506836 125.87726563 9.07506836 124.859375 9.08789062 C120.79318646 9.10782292 116.9879908 8.78890161 113 8 C113.495 10.475 113.495 10.475 114 13 C113.34 13.33 112.68 13.66 112 14 C111.505 11.03 111.505 11.03 111 8 C106.71 7.67 102.42 7.34 98 7 C98 9.64 98 12.28 98 15 C102.62 15 107.24 15 112 15 C112 15.66 112 16.32 112 17 C107.38 17.33 102.76 17.66 98 18 C98 21.3 98 24.6 98 28 C94.37 28 90.74 28 87 28 C87.99 26.515 87.99 26.515 89 25 C88.68269476 21.36060068 88.68269476 21.36060068 88 18 C81.07 17.505 81.07 17.505 74 17 C74 16.34 74 15.68 74 15 C78.95 15.33 83.9 15.66 89 16 C89 13.03 89 10.06 89 7 C87.65550781 7.08378906 86.31101562 7.16757813 84.92578125 7.25390625 C71.85929666 7.99645516 59.05574903 7.86771338 46 7 C45.814375 8.4540625 45.814375 8.4540625 45.625 9.9375 C45.41875 10.948125 45.2125 11.95875 45 13 C44.34 13.33 43.68 13.66 43 14 C43.33 11.69 43.66 9.38 44 7 C41.87436897 7.11376617 39.7494739 7.24135631 37.625 7.375 C35.84996094 7.47941406 35.84996094 7.47941406 34.0390625 7.5859375 C30.89437681 7.70217346 30.89437681 7.70217346 29 10 C27.515 10.185625 27.515 10.185625 26 10.375 C22.87885291 10.65930328 22.87885291 10.65930328 21.625 13.0625 C21.315625 14.0215625 21.315625 14.0215625 21 15 C20.375 13.25 20.375 13.25 20 11 C20.66 9.68 21.32 8.36 22 7 C14.08 7.495 14.08 7.495 6 8 C5.34 9.65 4.68 11.3 4 13 C3.01 13.495 3.01 13.495 2 14 C2.91256933 9.98469495 3.65050017 8.28871725 6.875 5.625 C10 4 10 4 14 4 C14 3.34 14 2.68 14 2 C9.38 2 4.76 2 0 2 C0 1.34 0 0.68 0 0 Z " fill="#AB6399" transform="translate(89,161)"/>
<path d="M0 0 C4.29 0 8.58 0 13 0 C13.99 2.475 13.99 2.475 15 5 C15 3.68 15 2.36 15 1 C18.47914941 0.97112186 21.95826831 0.95324313 25.4375 0.9375 C26.92733398 0.92493164 26.92733398 0.92493164 28.44726562 0.91210938 C29.39150391 0.90888672 30.33574219 0.90566406 31.30859375 0.90234375 C32.62041626 0.89448853 32.62041626 0.89448853 33.95874023 0.88647461 C36 1 36 1 37 2 C37.04080783 3.99958364 37.04254356 6.00045254 37 8 C36.14535156 8.04898438 35.29070312 8.09796875 34.41015625 8.1484375 C33.30542969 8.22320312 32.20070313 8.29796875 31.0625 8.375 C29.96035156 8.44460937 28.85820312 8.51421875 27.72265625 8.5859375 C26.82417969 8.72257813 25.92570312 8.85921875 25 9 C24.67 9.66 24.34 10.32 24 11 C28.62 11 33.24 11 38 11 C40 15 40 15 40 19 C39.34 19 38.68 19 38 19 C38.26676204 20.98491642 38.26676204 20.98491642 39 23 C40.485 23.495 40.485 23.495 42 24 C42 25.98 42 27.96 42 30 C10.98 30 -20.04 30 -52 30 C-53 27 -53 27 -52.2644043 24.35668945 C-49.5802097 21.56310127 -48.81808379 21.59631383 -45.06958008 21.34057617 C-42.96990823 21.29936554 -40.86959352 21.28530898 -38.76953125 21.29296875 C-37.66397385 21.27784744 -36.55841644 21.26272614 -35.4193573 21.24714661 C-31.88353327 21.20411227 -28.34856034 21.19541602 -24.8125 21.1875 C-22.41729483 21.16436808 -20.02211008 21.13900549 -17.62695312 21.11132812 C-11.75129416 21.0483204 -5.87596991 21.01351105 0 21 C-0.495 20.01 -0.495 20.01 -1 19 C-1.18704404 16.30986661 -1.08581391 13.70313823 -1 11 C0 10 0 10 3.16015625 9.90234375 C5.09181641 9.91974609 5.09181641 9.91974609 7.0625 9.9375 C8.35285156 9.94652344 9.64320313 9.95554688 10.97265625 9.96484375 C11.97167969 9.97644531 12.97070312 9.98804688 14 10 C14 9.34 14 8.68 14 8 C9.38 8 4.76 8 0 8 C0 5.36 0 2.72 0 0 Z " fill="#B779A6" transform="translate(187,168)"/>
<path d="M0 0 C24.42 0 48.84 0 74 0 C76 11 76 11 76 18 C49.93 18 23.86 18 -3 18 C-2 12 -1 6 0 0 Z " fill="#D7D3D6" transform="translate(145,205)"/>
<path d="M0 0 C0.63890356 0.13737894 1.27780712 0.27475788 1.9360714 0.41629982 C11.80627068 2.31447551 21.58267024 2.44162851 31.59619141 2.60302734 C33.54008462 2.64029051 35.48397094 2.67791435 37.42785072 2.71587181 C59.30731263 3.12266736 81.19009361 3.23960054 103.07271147 3.3362546 C107.69210223 3.35712487 112.31147922 3.38048864 116.93085825 3.40379179 C127.80919659 3.45861997 138.6875481 3.50948329 149.56591797 3.55761719 C160.75481022 3.60719229 171.94365466 3.66353291 183.13249815 3.72303832 C192.81830811 3.77432891 202.50413182 3.82164778 212.18997729 3.86572587 C217.94298443 3.89193781 223.69597463 3.91961314 229.44895554 3.9510994 C234.8223425 3.98032839 240.19572915 4.00459462 245.56915665 4.02499962 C247.53722712 4.03330021 249.5052911 4.0433535 251.4733429 4.05528831 C254.15763851 4.07128757 256.84188511 4.08095343 259.5262146 4.08901978 C260.69230068 4.09820228 260.69230068 4.09820228 261.88194406 4.10757029 C266.03775133 4.11260149 269.91937253 3.76735543 274 3 C275.66627298 2.96377667 277.33405374 2.95100158 279 3 C278.67 3.99 278.34 4.98 278 6 C272.62588938 8.63572621 266.97851581 8.29802197 261.131073 8.29866028 C259.48602852 8.31052393 259.48602852 8.31052393 257.80775082 8.32262725 C254.1320756 8.3466613 250.45650018 8.35655305 246.78076172 8.36645508 C244.14599809 8.38066392 241.51124854 8.39563537 238.87649536 8.41149902 C232.46308333 8.44821556 226.04967161 8.47410608 219.63619314 8.49588916 C214.42468331 8.51370433 209.21319885 8.53499533 204.0017128 8.55875206 C202.88896933 8.56380789 202.88896933 8.56380789 201.75374619 8.56896585 C200.24674231 8.57581494 198.73973844 8.58266607 197.23273458 8.58951923 C183.10513828 8.65323604 168.97751699 8.7040295 154.84985639 8.75093975 C141.91980651 8.79428254 128.98989327 8.85405503 116.05994879 8.92153481 C102.78438952 8.99066679 89.50882444 9.04865768 76.23316395 9.0945732 C68.77940335 9.12055345 61.32572444 9.15099638 53.87203598 9.19312477 C46.86744372 9.23258249 39.86294777 9.25638817 32.85825729 9.26950836 C30.28304549 9.27678195 27.70784251 9.28923529 25.1326828 9.30715752 C21.62664734 9.33075095 18.1210631 9.335908 14.61495972 9.33625793 C13.58792966 9.34752317 12.5608996 9.3587884 11.50274742 9.370395 C10.5649334 9.36667186 9.62711939 9.36294871 8.66088676 9.35911274 C7.44686316 9.36375191 7.44686316 9.36375191 6.20831382 9.3684848 C3.40614992 8.90090868 2.02637965 7.97050545 0 6 C-0.25 2.8125 -0.25 2.8125 0 0 Z " fill="#CA8BBB" transform="translate(41,229)"/>
<path d="M0 0 C4.62 0 9.24 0 14 0 C14.66 1.65 15.32 3.3 16 5 C16.66 3.35 17.32 1.7 18 0 C23.94 0 29.88 0 36 0 C39.36057142 5.88099998 42.36053849 11.76261331 45 18 C44.34 18.66 43.68 19.32 43 20 C43.78375 20.4125 44.5675 20.825 45.375 21.25 C48.09288859 23.06192573 48.95823195 23.96940204 50 27 C50 27.99 50 28.98 50 30 C45.87536584 30.19622046 41.75028427 30.38050216 37.625 30.5625 C36.449375 30.61857422 35.27375 30.67464844 34.0625 30.73242188 C32.94101562 30.78076172 31.81953125 30.82910156 30.6640625 30.87890625 C29.62717285 30.9260376 28.5902832 30.97316895 27.52197266 31.02172852 C25 31 25 31 23 30 C20.28239892 29.92818179 17.59140612 29.90700494 14.875 29.9375 C13.74384766 29.94426758 13.74384766 29.94426758 12.58984375 29.95117188 C10.72652873 29.96296501 8.86325445 29.98090058 7 30 C5.29001333 26.05233547 5 23.28712705 5 19 C4.67 18.34 4.34 17.68 4 17 C2.64270801 14.28541602 2.86412262 11.98930243 3 9 C3.66 8.67 4.32 8.34 5 8 C3.35 7.67 1.7 7.34 0 7 C0 4.69 0 2.38 0 0 Z " fill="#B877A7" transform="translate(232,169)"/>
<path d="M0 0 C0.99 0 1.98 0 3 0 C3.36692394 6.48232301 3.36692394 6.48232301 1.82548428 8.65707302 C-4.86412706 13.57832031 -16.74731834 12.27410285 -24.67602539 12.21069336 C-25.89527899 12.20908518 -27.11453259 12.207477 -28.37073326 12.20582008 C-31.71997867 12.19922866 -35.06894321 12.18353327 -38.41812015 12.1636517 C-42.04069268 12.14430206 -45.6632945 12.13660155 -49.28590393 12.12718201 C-56.37820579 12.10668561 -63.47040894 12.07453037 -70.56264335 12.03775376 C-76.37384317 12.00769383 -82.18504904 11.98135693 -87.99627686 11.95733643 C-109.79069723 11.86647132 -131.58485373 11.74607441 -153.37904227 11.61116159 C-160.62211049 11.56667848 -167.86519957 11.52689912 -175.10829967 11.48800808 C-182.25905693 11.44939857 -189.40979017 11.40748423 -196.56051403 11.36312145 C-200.76062033 11.33711673 -204.96072354 11.31228753 -209.16085625 11.29092598 C-224.6263411 11.21099981 -240.08815542 11.08847123 -255.54711914 10.60522461 C-257.23558409 10.56074487 -257.23558409 10.56074487 -258.95815945 10.51536655 C-259.98102582 10.47826541 -261.00389219 10.44116426 -262.05775452 10.40293884 C-262.94563188 10.37353179 -263.83350924 10.34412474 -264.74829197 10.31382656 C-267 10 -267 10 -270 8 C-269.4457783 7.99864347 -268.8915566 7.99728694 -268.32054031 7.99588931 C-235.47780726 7.91525111 -202.63512088 7.8243014 -169.79245489 7.71994839 C-165.84959256 7.70742942 -161.90672996 7.69499666 -157.96386719 7.68261719 C-157.17890937 7.68015119 -156.39395154 7.6776852 -155.58520712 7.67514448 C-142.87284783 7.63541344 -130.16047964 7.60266762 -117.44809447 7.57250018 C-104.40543563 7.54139361 -91.36281456 7.5027876 -78.32019818 7.45720994 C-70.2712673 7.42931948 -62.22236408 7.40728885 -54.17339785 7.39273749 C-48.00296622 7.38095588 -41.83261236 7.35874368 -35.66222572 7.33261681 C-33.12981596 7.32353274 -30.59739142 7.31784887 -28.0649662 7.31578636 C-24.61188079 7.31246975 -21.15905652 7.2970081 -17.70602417 7.2784729 C-16.19726064 7.281375 -16.19726064 7.281375 -14.65801704 7.28433573 C-9.70520889 7.24449522 -5.64249368 6.95707453 -1 5 C-0.67 3.35 -0.34 1.7 0 0 Z " fill="#BD7CAB" transform="translate(320,229)"/>
<path d="M0 0 C1.5810506 -0.02061958 3.16260598 -0.01334924 4.74353027 0.0153656 C5.60721725 0.01142288 6.47090424 0.00748016 7.36076355 0.00341797 C10.22005932 -0.00330333 13.07776439 0.02589351 15.93688965 0.05613708 C17.9208139 0.06038614 19.90474313 0.06271564 21.88867188 0.0632019 C26.04836524 0.06937264 30.20752126 0.09209815 34.36706543 0.12767029 C39.70388289 0.17294325 45.04021316 0.18769582 50.3772049 0.1914072 C54.47439396 0.19583251 58.57148034 0.21113057 62.66862488 0.23028374 C64.63664402 0.23917472 66.60467415 0.24590045 68.57270813 0.25044441 C71.32124306 0.25947063 74.06933398 0.28184735 76.81774902 0.30833435 C77.63446579 0.30899902 78.45118256 0.3096637 79.29264832 0.31034851 C83.13991586 0.36161022 85.00470157 0.43077212 88.28063965 2.61473083 C88.28063965 4.59473083 88.28063965 6.57473083 88.28063965 8.61473083 C57.26063965 8.61473083 26.24063965 8.61473083 -5.71936035 8.61473083 C-6.71936035 5.61473083 -6.71936035 5.61473083 -5.81079102 2.96469116 C-3.71936035 0.61473083 -3.71936035 0.61473083 0 0 Z " fill="#D6D1D4" transform="translate(140.7193603515625,189.38526916503906)"/>
<path d="M0 0 C13.53485977 -0.02320072 27.06971479 -0.04095448 40.60459042 -0.05181217 C46.88980246 -0.05702409 53.17500088 -0.064091 59.46020508 -0.07543945 C65.52913611 -0.08632846 71.59805405 -0.09228958 77.66699409 -0.09487724 C79.97895069 -0.09672066 82.29090659 -0.10032036 84.60285759 -0.10573006 C87.84845385 -0.1130203 91.09399644 -0.11398758 94.33959961 -0.11352539 C95.28906967 -0.11712067 96.23853973 -0.12071594 97.21678162 -0.12442017 C102.21996611 -0.11674295 107.08390508 0.13083802 112.04627991 0.7831192 C115.11869903 1.12418582 118.13847148 1.00338007 121.22265625 0.87890625 C123.14174805 0.80639648 123.14174805 0.80639648 125.09960938 0.73242188 C126.40736328 0.67634766 127.71511719 0.62027344 129.0625 0.5625 C130.41859576 0.50915126 131.77471565 0.45641226 133.13085938 0.40429688 C136.42085957 0.27550683 139.71048617 0.14058296 143 0 C143.12076904 0.73500732 143.24153809 1.47001465 143.3659668 2.22729492 C143.98678165 4.94219452 144.82712838 6.92393994 146.14453125 9.36328125 C146.57443359 10.16830078 147.00433594 10.97332031 147.44726562 11.80273438 C148.12305664 13.04506836 148.12305664 13.04506836 148.8125 14.3125 C150.1263721 16.75695808 151.43796635 19.20255897 152.74462891 21.65087891 C153.57206389 23.19922185 154.40751078 24.74331365 155.25146484 26.28271484 C156.24412966 28.14977861 157.13165253 30.07197426 158 32 C157.67 32.99 157.34 33.98 157 35 C156.566875 34.0409375 156.566875 34.0409375 156.125 33.0625 C155.17176549 30.84793921 155.17176549 30.84793921 153 30 C152.67 30.99 152.34 31.98 152 33 C151.75765625 32.44570312 151.5153125 31.89140625 151.265625 31.3203125 C150.93046875 30.59585938 150.5953125 29.87140625 150.25 29.125 C149.92515625 28.40570313 149.6003125 27.68640625 149.265625 26.9453125 C147.78070314 24.6629326 146.49584592 23.99624102 144 23 C144.99 21.515 144.99 21.515 146 20 C143.36 14.72 140.72 9.44 138 4 C132.06 4 126.12 4 120 4 C119.67 5.65 119.34 7.3 119 9 C118.01 8.505 118.01 8.505 117 8 C116.505 5.525 116.505 5.525 116 3 C111.38 3 106.76 3 102 3 C102 5.31 102 7.62 102 10 C106.29 10.33 110.58 10.66 115 11 C115 11.33 115 11.66 115 12 C111.7 12 108.4 12 105 12 C105.28875 13.44375 105.5775 14.8875 105.875 16.375 C106.03742188 17.18710938 106.19984375 17.99921875 106.3671875 18.8359375 C106.86658932 21.18673923 106.86658932 21.18673923 109 23 C108.34 23 107.68 23 107 23 C107.99 26.63 108.98 30.26 110 34 C103.375 34.25 103.375 34.25 100 32 C99.32060826 30.00428677 98.65438441 28.00405227 98 26 C96.4587688 24.29078411 96.4587688 24.29078411 95 23 C95 22.34 95 21.68 95 21 C95.66 21 96.32 21 97 21 C96.01 17.535 96.01 17.535 95 14 C88.07 13.505 88.07 13.505 81 13 C81.33 12.01 81.66 11.02 82 10 C85.96 10 89.92 10 94 10 C93.505 7.03 93.505 7.03 93 4 C86.07 3.505 86.07 3.505 79 3 C79 2.34 79 1.68 79 1 C52.93 1 26.86 1 0 1 C0 0.67 0 0.34 0 0 Z " fill="#B572A3" transform="translate(130,166)"/>
<path d="M0 0 C7.59 0 15.18 0 23 0 C23 2.97 23 5.94 23 9 C20.87506859 9.02693575 18.75004088 9.04636628 16.625 9.0625 C15.44164062 9.07410156 14.25828125 9.08570313 13.0390625 9.09765625 C10 9 10 9 8 8 C8 8.66 8 9.32 8 10 C8.99902344 9.98839844 9.99804688 9.97679687 11.02734375 9.96484375 C12.31769531 9.95582031 13.60804688 9.94679687 14.9375 9.9375 C16.22527344 9.92589844 17.51304687 9.91429687 18.83984375 9.90234375 C22 10 22 10 23 11 C23.45459858 13.65463121 23.70243238 16.32189138 24 19 C20.41331687 21.39112209 18.83603431 21.23381027 14.58203125 21.1953125 C13.32841797 21.18886719 12.07480469 21.18242187 10.78320312 21.17578125 C8.81770508 21.15064453 8.81770508 21.15064453 6.8125 21.125 C5.47722013 21.11496639 4.14193311 21.1058412 2.80664062 21.09765625 C-0.46242015 21.07405292 -3.73112028 21.04112594 -7 21 C-7 20.67 -7 20.34 -7 20 C-5.35 20 -3.7 20 -2 20 C-2.33 19.34 -2.66 18.68 -3 18 C-7.62 18 -12.24 18 -17 18 C-17 12 -17 12 -16 11 C-12.37164196 10.92743284 -8.75345072 11.0039766 -5.125 11.0625 C-2.1327033 11.36364533 -2.1327033 11.36364533 -1 10 C-5.95 10 -10.9 10 -16 10 C-12.59568053 7.73045369 -10.83475798 7.63450051 -6.8125 7.375 C-5.72582031 7.30023438 -4.63914063 7.22546875 -3.51953125 7.1484375 C-2.68808594 7.09945312 -1.85664063 7.05046875 -1 7 C-0.67 4.69 -0.34 2.38 0 0 Z " fill="#B474A4" transform="translate(155,168)"/>
<path d="M0 0 C59.73 0 119.46 0 181 0 C181 0.66 181 1.32 181 2 C183.97 2 186.94 2 190 2 C190 2.33 190 2.66 190 3 C188.27185839 3.19672365 186.54240803 3.38196799 184.8125 3.5625 C183.84957031 3.66691406 182.88664063 3.77132813 181.89453125 3.87890625 C179 4 179 4 176.94551086 3.5146637 C172.62323582 2.75944053 168.35672619 2.86981559 163.97729492 2.88647461 C162.97194702 2.88632858 161.96659912 2.88618256 160.93078613 2.8860321 C157.61399158 2.88672772 154.29725347 2.89450375 150.98046875 2.90234375 C148.67832978 2.90420917 146.37619041 2.90563249 144.0740509 2.90663147 C138.0192861 2.91044684 131.96454535 2.9202688 125.90979004 2.93133545 C119.72957688 2.94157061 113.54935982 2.9461336 107.36914062 2.95117188 C95.24608319 2.96189192 83.1230436 2.97895661 71 3 C71 2.67 71 2.34 71 2 C47.57 1.67 24.14 1.34 0 1 C0 0.67 0 0.34 0 0 Z " fill="#73566B" transform="translate(95,28)"/>
<path d="M0 0 C1.485 0.99 1.485 0.99 3 2 C2.82871582 2.57041016 2.65743164 3.14082031 2.48095703 3.72851562 C1.97266014 6.12912185 2.03337574 7.91305048 2.3046875 10.34375 C2.39314941 11.17205322 2.48161133 12.00035645 2.57275391 12.85375977 C2.67249512 13.72701904 2.77223633 14.60027832 2.875 15.5 C3.06827891 17.31113712 3.26098967 19.12233496 3.453125 20.93359375 C3.54787109 21.80741699 3.64261719 22.68124023 3.74023438 23.58154297 C4.45291861 30.2167404 5.0618388 36.76146278 4.9375 43.4375 C4.89143855 47.34645915 5.25576295 50.94238626 5.9375 54.7890625 C7.22176909 62.81758869 7.6493397 70.82821653 8.0625 78.9375 C8.17948548 81.12325572 8.29831222 83.30890465 8.41757202 85.49453735 C8.49546664 86.9239936 8.57248406 88.35349795 8.64859009 89.78305054 C8.95985838 95.54498355 9.36791851 101.29588932 9.81420898 107.04907227 C9.98174938 109.71012447 10.03485325 112.33480573 10 115 C10.66 115.33 11.32 115.66 12 116 C10.515 116.495 10.515 116.495 9 117 C8.505 117.99 8.505 117.99 8 119 C6.51741483 114.26516698 5.67497005 109.98891885 5.34570312 105.00854492 C5.2998558 104.34702927 5.25400848 103.68551361 5.20677185 103.00395203 C5.05782791 100.829871 4.91954293 98.65525101 4.78125 96.48046875 C4.67749487 94.93845498 4.57302922 93.39648887 4.46789551 91.85456848 C4.19247205 87.7895935 3.92589419 83.7240876 3.66143799 79.65838623 C3.34539667 74.82122158 3.01975552 69.98469736 2.69511414 65.14810371 C2.6424086 64.36286261 2.58970306 63.5776215 2.53540039 62.76858521 C2.48296173 61.98746494 2.43052307 61.20634468 2.37649536 60.40155411 C2.21911666 58.04845095 2.06338857 55.69524313 1.90795898 53.3420105 C1.22332194 43.02266288 0.47075586 32.71060129 -0.4161377 22.40629578 C-1.93707725 3.87415451 -1.93707725 3.87415451 0 0 Z " fill="#181116" transform="translate(76,36)"/>
<path d="M0 0 C0.33 0 0.66 0 1 0 C1.18672106 20.33184897 1.00342523 40.73547173 -0.8125 61 C-0.89927002 62.14698364 -0.89927002 62.14698364 -0.98779297 63.31713867 C-1.33762948 66.70057981 -1.81938196 68.76067174 -3.88671875 71.5 C-6 73 -6 73 -9 73 C-9 73.66 -9 74.32 -9 75 C-11.64 75 -14.28 75 -17 75 C-15.02 74.505 -15.02 74.505 -13 74 C-13 73.34 -13 72.68 -13 72 C-10.03 71.505 -10.03 71.505 -7 71 C-6.90912109 69.10314453 -6.90912109 69.10314453 -6.81640625 67.16796875 C-6.73199096 65.50780129 -6.64734345 63.84764563 -6.5625 62.1875 C-6.52318359 61.35412109 -6.48386719 60.52074219 -6.44335938 59.66210938 C-6.40146484 58.85966797 -6.35957031 58.05722656 -6.31640625 57.23046875 C-6.26141968 56.12288208 -6.26141968 56.12288208 -6.20532227 54.99291992 C-6 53 -6 53 -5 50 C-4.88649422 48.52091072 -4.82208695 47.03775798 -4.7890625 45.5546875 C-4.76263672 44.65387451 -4.73621094 43.75306152 -4.70898438 42.82495117 C-4.68126953 41.85146729 -4.65355469 40.8779834 -4.625 39.875 C-4.3088123 30.92185794 -3.57981642 22.08079047 -2.5 13.1875 C-2.36932129 12.10259277 -2.23864258 11.01768555 -2.10400391 9.89990234 C-1.13966962 2.27933923 -1.13966962 2.27933923 0 0 Z " fill="#22151E" transform="translate(287,87)"/>
<path d="M0 0 C6.15234375 -0.09765625 6.15234375 -0.09765625 8 0 C9 1 9 1 9 8 C13.62 8 18.24 8 23 8 C23 8.66 23 9.32 23 10 C18.38 10.33 13.76 10.66 9 11 C9 14.3 9 17.6 9 21 C5.37 21 1.74 21 -2 21 C-1.34 20.01 -0.68 19.02 0 18 C-0.31730524 14.36060068 -0.31730524 14.36060068 -1 11 C-7.93 10.505 -7.93 10.505 -15 10 C-15 9.34 -15 8.68 -15 8 C-10.05 8.33 -5.1 8.66 0 9 C0 6.03 0 3.06 0 0 Z " fill="#B170A0" transform="translate(178,168)"/>
<path d="M0 0 C0.9765625 2.5390625 0.9765625 2.5390625 2 6 C3.35234473 8.84831388 4.86746784 11.60626446 6.375 14.375 C7.53915595 16.53256903 8.70053968 18.69144714 9.85449219 20.85449219 C10.63311403 22.31283165 11.42056871 23.76648225 12.21582031 25.21582031 C12.59061523 25.92061523 12.96541016 26.62541016 13.3515625 27.3515625 C13.69268066 27.98143066 14.03379883 28.61129883 14.38525391 29.26025391 C15 31 15 31 14 34 C13.566875 33.0409375 13.566875 33.0409375 13.125 32.0625 C12.17176549 29.84793921 12.17176549 29.84793921 10 29 C9.505 30.485 9.505 30.485 9 32 C8.75765625 31.44570312 8.5153125 30.89140625 8.265625 30.3203125 C7.93046875 29.59585938 7.5953125 28.87140625 7.25 28.125 C6.92515625 27.40570313 6.6003125 26.68640625 6.265625 25.9453125 C4.78070314 23.6629326 3.49584592 22.99624102 1 22 C1.66 21.01 2.32 20.02 3 19 C0.36 13.72 -2.28 8.44 -5 3 C-10.94 3 -16.88 3 -23 3 C-23.33 4.65 -23.66 6.3 -24 8 C-27.24732932 6.37633534 -27.70155136 3.24612161 -29 0 C-24.9170667 -0.1969993 -20.83364734 -0.38095476 -16.75 -0.5625 C-15.59113281 -0.61857422 -14.43226563 -0.67464844 -13.23828125 -0.73242188 C-12.12324219 -0.78076172 -11.00820313 -0.82910156 -9.859375 -0.87890625 C-8.31975098 -0.94960327 -8.31975098 -0.94960327 -6.74902344 -1.02172852 C-4.2482867 -1.00196248 -2.32403451 -0.91361138 0 0 Z " fill="#A96696" transform="translate(273,167)"/>
<path d="M0 0 C0.94788391 0.00429016 1.89576782 0.00858032 2.87237549 0.01300049 C4.42172791 0.04320534 4.42172791 0.04320534 6.00238037 0.07402039 C7.09536438 0.08333588 8.18834839 0.09265137 9.31445312 0.10224915 C12.92916749 0.13663924 16.54321573 0.19253173 20.15765381 0.24858093 C22.66299011 0.27661145 25.16834173 0.30330213 27.67370605 0.32870483 C33.59529936 0.39198492 39.51661969 0.46878257 45.43795562 0.55212516 C52.84176394 0.65550545 60.24578068 0.73790593 67.64984131 0.82084656 C80.85580739 0.97132021 94.06146623 1.14046194 107.26702881 1.32279968 C106.93702881 2.31279968 106.60702881 3.30279968 106.26702881 4.32279968 C104.28702881 3.99279968 102.30702881 3.66279968 100.26702881 3.32279968 C100.76202881 5.79779968 100.76202881 5.79779968 101.26702881 8.32279968 C100.60702881 8.65279968 99.94702881 8.98279968 99.26702881 9.32279968 C98.77202881 6.35279968 98.77202881 6.35279968 98.26702881 3.32279968 C96.43265259 3.33065491 96.43265259 3.33065491 94.56121826 3.33866882 C89.91474168 3.35711282 85.26826814 3.36837168 80.62176514 3.37773132 C78.63119966 3.38268338 76.64063766 3.3894468 74.65008545 3.39823914 C60.82241447 3.4576754 47.07258076 3.11492884 33.26702881 2.32279968 C33.08140381 3.77686218 33.08140381 3.77686218 32.89202881 5.26029968 C32.68577881 6.27092468 32.47952881 7.28154968 32.26702881 8.32279968 C31.60702881 8.65279968 30.94702881 8.98279968 30.26702881 9.32279968 C30.59702881 7.01279968 30.92702881 4.70279968 31.26702881 2.32279968 C29.14139778 2.43656585 27.01650271 2.56415599 24.89202881 2.69779968 C23.11698975 2.80221375 23.11698975 2.80221375 21.30609131 2.90873718 C18.16140562 3.02497314 18.16140562 3.02497314 16.26702881 5.32279968 C15.27702881 5.44654968 14.28702881 5.57029968 13.26702881 5.69779968 C10.14588172 5.98210297 10.14588172 5.98210297 8.89202881 8.38529968 C8.58265381 9.34436218 8.58265381 9.34436218 8.26702881 10.32279968 C7.64202881 8.57279968 7.64202881 8.57279968 7.26702881 6.32279968 C7.92702881 5.00279968 8.58702881 3.68279968 9.26702881 2.32279968 C1.34702881 2.81779968 1.34702881 2.81779968 -6.73297119 3.32279968 C-7.39297119 4.97279968 -8.05297119 6.62279968 -8.73297119 8.32279968 C-9.72297119 8.81779968 -9.72297119 8.81779968 -10.73297119 9.32279968 C-9.04450834 2.99106401 -6.80835594 -0.08395955 0 0 Z " fill="#A15F8E" transform="translate(101.73297119140625,165.6772003173828)"/>
<path d="M0 0 C0.99 0 1.98 0 3 0 C3.32340616 15.75706689 2.33355005 31.30241353 1 47 C0.01 46.67 -0.98 46.34 -2 46 C-2.0271045 42.95827281 -2.04688964 39.91679003 -2.0625 36.875 C-2.07087891 36.0190625 -2.07925781 35.163125 -2.08789062 34.28125 C-2.1054906 29.70525662 -1.78338907 25.5160076 -1 21 C-0.73713584 17.37823498 -0.58743684 13.75298 -0.4375 10.125 C-0.39431641 9.15046875 -0.35113281 8.1759375 -0.30664062 7.171875 C-0.20117726 4.78137198 -0.09905825 2.39077556 0 0 Z " fill="#110910" transform="translate(289,36)"/>
<path d="M0 0 C12.6490889 -0.91316952 12.6490889 -0.91316952 15.8203125 1.23046875 C17.56072037 3.84108055 18 5.88732009 18 9 C12.72 9 7.44 9 2 9 C0 4 0 4 0 0 Z " fill="#D4C9D3" transform="translate(264,190)"/>
<path d="M0 0 C1.93166016 0.01740234 1.93166016 0.01740234 3.90234375 0.03515625 C5.19269531 0.04417969 6.48304688 0.05320313 7.8125 0.0625 C8.81152344 0.07410156 9.81054688 0.08570313 10.83984375 0.09765625 C12.89148612 3.55980274 12.83984375 4.6915486 12.83984375 9.09765625 C7.55984375 9.09765625 2.27984375 9.09765625 -3.16015625 9.09765625 C-4.0390625 2.9453125 -4.0390625 2.9453125 -4.16015625 1.09765625 C-3.16015625 0.09765625 -3.16015625 0.09765625 0 0 Z " fill="#D4C9D1" transform="translate(242.16015625,189.90234375)"/>
<path d="M0 0 C2.62697064 -0.22137393 5.00893964 -0.28162025 7.625 -0.1875 C8.33140625 -0.17396484 9.0378125 -0.16042969 9.765625 -0.14648438 C11.51074128 -0.1111104 13.25546608 -0.05730221 15 0 C14.45276317 3.37462715 13.9451 5.08235 12 8 C9.37302936 8.22137393 6.99106036 8.28162025 4.375 8.1875 C3.66859375 8.17396484 2.9621875 8.16042969 2.234375 8.14648438 C0.48925872 8.1111104 -1.25546608 8.05730221 -3 8 C-2.45276317 4.62537285 -1.9451 2.91765 0 0 Z " fill="#DAD1D8" transform="translate(85,190)"/>
<path d="M0 0 C5.28 0 10.56 0 16 0 C14 7 14 7 13 8 C10.46950598 8.07313567 7.96695163 8.09247527 5.4375 8.0625 C4.37112305 8.05573242 4.37112305 8.05573242 3.28320312 8.04882812 C1.52209987 8.03700864 -0.23896036 8.01907263 -2 8 C-1.47731534 5.23723823 -0.89130413 2.6739124 0 0 Z " fill="#DAD2D8" transform="translate(110,190)"/>
<path d="M0 0 C0.33 0 0.66 0 1 0 C1.05534912 0.95664551 1.11069824 1.91329102 1.16772461 2.89892578 C1.37739358 6.51844709 1.58830835 10.137895 1.79956055 13.75732422 C1.89005879 15.3106905 1.98023886 16.86407537 2.07006836 18.41748047 C2.58455598 27.31035591 3.13422284 36.19592585 3.81860352 45.07763672 C3.98315619 47.72864005 4.0340548 50.34495259 4 53 C4.66 53.33 5.32 53.66 6 54 C4.515 54.495 4.515 54.495 3 55 C2.67 55.66 2.34 56.32 2 57 C-0.26967735 50.56924749 -0.43193658 44.33983054 -0.625 37.5625 C-0.66367188 36.44939453 -0.70234375 35.33628906 -0.7421875 34.18945312 C-0.83590966 31.45979524 -0.92162294 28.73013437 -1 26 C-0.67 26 -0.34 26 0 26 C0 17.42 0 8.84 0 0 Z " fill="#1D181B" transform="translate(82,98)"/>
<path d="M0 0 C0.33 0 0.66 0 1 0 C1.20571963 10.20597945 1.05433296 20.19358439 -0.14355469 30.33642578 C-0.99574405 37.60694659 -1.5785713 44.88806541 -2.125 52.1875 C-2.21249512 53.3535376 -2.29999023 54.5195752 -2.39013672 55.72094727 C-2.59558759 58.48047909 -2.79901266 61.24014002 -3 64 C-3.33 64 -3.66 64 -4 64 C-4 53.77 -4 43.54 -4 33 C-4.33 35.97 -4.66 38.94 -5 42 C-5.33 42 -5.66 42 -6 42 C-5.67 33.42 -5.34 24.84 -5 16 C-4.67 16 -4.34 16 -4 16 C-4 19.3 -4 22.6 -4 26 C-3.34 26 -2.68 26 -2 26 C-1.34 17.42 -0.68 8.84 0 0 Z " fill="#684B60" transform="translate(291,56)"/>
<path d="M0 0 C3.0390625 -0.29296875 3.0390625 -0.29296875 6.625 -0.1875 C7.81351563 -0.16042969 9.00203125 -0.13335937 10.2265625 -0.10546875 C11.14179687 -0.07066406 12.05703125 -0.03585938 13 0 C12.67 2.64 12.34 5.28 12 8 C7.05 8 2.1 8 -3 8 C-2 3 -2 3 0 0 Z " fill="#D3C9D3" transform="translate(116,178)"/>
<path d="M0 0 C2.29109597 -0.08075665 4.58299267 -0.13907731 6.875 -0.1875 C8.78925781 -0.23970703 8.78925781 -0.23970703 10.7421875 -0.29296875 C11.81726563 -0.19628906 12.89234375 -0.09960938 14 0 C16 3 16 3 16 7 C11.05 7 6.1 7 1 7 C0.67 4.69 0.34 2.38 0 0 Z " fill="#D3CBD2" transform="translate(235,179)"/>
<path d="M0 0 C2.26921536 -0.13489391 4.5407067 -0.23193995 6.8125 -0.3125 C8.70935547 -0.39951172 8.70935547 -0.39951172 10.64453125 -0.48828125 C14 0 14 0 15.94921875 2.39453125 C17 5 17 5 17 7 C11.72 7 6.44 7 1 7 C0.67 4.69 0.34 2.38 0 0 Z " fill="#D6C9D4" transform="translate(259,179)"/>
<path d="M0 0 C2.31243792 -0.02685412 4.6249627 -0.04632841 6.9375 -0.0625 C8.22527344 -0.07410156 9.51304687 -0.08570313 10.83984375 -0.09765625 C14 0 14 0 15 1 C15 2.98 15 4.96 15 7 C10.05 7 5.1 7 0 7 C0 4.69 0 2.38 0 0 Z " fill="#D5C7CE" transform="translate(187,179)"/>
<path d="M0 0 C2.31243792 -0.02685412 4.6249627 -0.04632841 6.9375 -0.0625 C8.22527344 -0.07410156 9.51304687 -0.08570313 10.83984375 -0.09765625 C14 0 14 0 15 1 C15.04080783 2.99958364 15.04254356 5.00045254 15 7 C12.68756208 7.02685412 10.3750373 7.04632841 8.0625 7.0625 C6.77472656 7.07410156 5.48695313 7.08570313 4.16015625 7.09765625 C1 7 1 7 0 6 C-0.04080783 4.00041636 -0.04254356 1.99954746 0 0 Z " fill="#D8CAD4" transform="translate(211,179)"/>
<path d="M0 0 C1.93166016 0.01740234 1.93166016 0.01740234 3.90234375 0.03515625 C5.19269531 0.04417969 6.48304688 0.05320313 7.8125 0.0625 C8.81152344 0.07410156 9.81054688 0.08570313 10.83984375 0.09765625 C10.88238731 2.09720371 10.88065158 4.09807261 10.83984375 6.09765625 C9.83984375 7.09765625 9.83984375 7.09765625 6.6796875 7.1953125 C4.74802734 7.17791016 4.74802734 7.17791016 2.77734375 7.16015625 C1.48699219 7.15113281 0.19664062 7.14210937 -1.1328125 7.1328125 C-2.13183594 7.12121094 -3.13085938 7.10960937 -4.16015625 7.09765625 C-4.20269981 5.09810879 -4.20096408 3.09723989 -4.16015625 1.09765625 C-3.16015625 0.09765625 -3.16015625 0.09765625 0 0 Z " fill="#D5CAD1" transform="translate(142.16015625,178.90234375)"/>
<path d="M0 0 C3.2578125 -0.29296875 3.2578125 -0.29296875 7.125 -0.1875 C9.04699219 -0.14689453 9.04699219 -0.14689453 11.0078125 -0.10546875 C11.99523437 -0.07066406 12.98265625 -0.03585938 14 0 C13.38722388 2.96175123 12.74627478 4.38058783 11 7 C7.7421875 7.29296875 7.7421875 7.29296875 3.875 7.1875 C1.95300781 7.14689453 1.95300781 7.14689453 -0.0078125 7.10546875 C-0.99523437 7.07066406 -1.98265625 7.03585938 -3 7 C-2.38722388 4.03824877 -1.74627478 2.61941217 0 0 Z " fill="#DBD1D8" transform="translate(92,178)"/>
<path d="M0 0 C4.49224607 4.01264684 7.11440315 8.30358633 9.875 13.625 C10.29007812 14.388125 10.70515625 15.15125 11.1328125 15.9375 C11.51953125 16.67226562 11.90625 17.40703125 12.3046875 18.1640625 C12.65515137 18.82873535 13.00561523 19.4934082 13.36669922 20.17822266 C14 22 14 22 13 25 C12.71125 24.360625 12.4225 23.72125 12.125 23.0625 C11.17176549 20.84793921 11.17176549 20.84793921 9 20 C8.67 20.99 8.34 21.98 8 23 C7.75765625 22.44570312 7.5153125 21.89140625 7.265625 21.3203125 C6.93046875 20.59585938 6.5953125 19.87140625 6.25 19.125 C5.92515625 18.40570313 5.6003125 17.68640625 5.265625 16.9453125 C3.78070314 14.6629326 2.49584592 13.99624102 0 13 C0.66 12.01 1.32 11.02 2 10 C1.484375 9.0925 0.96875 8.185 0.4375 7.25 C-1 4 -1 4 -0.6875 1.625 C-0.460625 1.08875 -0.23375 0.5525 0 0 Z " fill="#B06B9D" transform="translate(274,176)"/>
<path d="M0 0 C4.62 0 9.24 0 14 0 C14 2.31 14 4.62 14 7 C9.05 7 4.1 7 -1 7 C-0.67 4.69 -0.34 2.38 0 0 Z " fill="#D5CAD3" transform="translate(163,179)"/>
<path d="M0 0 C0.33 0 0.66 0 1 0 C1.1063689 12.04750524 1.14724086 23.99494383 0 36 C-0.66 34.68 -1.32 33.36 -2 32 C-2.33 33.98 -2.66 35.96 -3 38 C-3.33 38 -3.66 38 -4 38 C-4.21119901 29.8632265 -3.58707967 22.00546919 -2.5625 13.9375 C-2.42779297 12.81150391 -2.29308594 11.68550781 -2.15429688 10.52539062 C-1.13718326 2.27436652 -1.13718326 2.27436652 0 0 Z " fill="#150F13" transform="translate(287,87)"/>
<path d="M0 0 C2.14576637 -0.02685938 4.29162645 -0.04633088 6.4375 -0.0625 C7.63246094 -0.07410156 8.82742187 -0.08570313 10.05859375 -0.09765625 C13 0 13 0 14 1 C14 2.98 14 4.96 14 7 C9.38 7 4.76 7 0 7 C0 4.69 0 2.38 0 0 Z " fill="#CEC3CC" transform="translate(187,168)"/>
<path d="M0 0 C1.79244141 0.01740234 1.79244141 0.01740234 3.62109375 0.03515625 C5.41740234 0.04869141 5.41740234 0.04869141 7.25 0.0625 C8.17683594 0.07410156 9.10367188 0.08570313 10.05859375 0.09765625 C10.05859375 2.40765625 10.05859375 4.71765625 10.05859375 7.09765625 C5.43859375 7.09765625 0.81859375 7.09765625 -3.94140625 7.09765625 C-3.94140625 0.13085678 -3.94140625 0.13085678 0 0 Z " fill="#C9C1C9" transform="translate(167.94140625,167.90234375)"/>
<path d="M0 0 C1.79244141 0.01740234 1.79244141 0.01740234 3.62109375 0.03515625 C5.41740234 0.04869141 5.41740234 0.04869141 7.25 0.0625 C8.17683594 0.07410156 9.10367188 0.08570313 10.05859375 0.09765625 C9.72859375 2.40765625 9.39859375 4.71765625 9.05859375 7.09765625 C4.43859375 7.09765625 -0.18140625 7.09765625 -4.94140625 7.09765625 C-3.77937643 0.1254773 -3.77937643 0.1254773 0 0 Z " fill="#D4C2D1" transform="translate(122.94140625,167.90234375)"/>
<path d="M0 0 C4.62 0 9.24 0 14 0 C12 6 12 6 11 7 C8.81360547 7.07258946 6.62499611 7.08373783 4.4375 7.0625 C2.64119141 7.04896484 2.64119141 7.04896484 0.80859375 7.03515625 C-0.11824219 7.02355469 -1.04507813 7.01195312 -2 7 C-1.125 2.25 -1.125 2.25 0 0 Z " fill="#D9C3D3" transform="translate(97,168)"/>
<path d="M0 0 C4.29 0 8.58 0 13 0 C13 2.31 13 4.62 13 7 C8.38 7 3.76 7 -1 7 C-0.67 4.69 -0.34 2.38 0 0 Z " fill="#CBC1CA" transform="translate(142,168)"/>
<path d="M0 0 C4.62 0 9.24 0 14 0 C14.33 1.98 14.66 3.96 15 6 C10.38 6 5.76 6 1 6 C0.67 4.02 0.34 2.04 0 0 Z " fill="#D2CCD5" transform="translate(232,169)"/>
<path d="M0 0 C2.12438339 -0.08078641 4.2496323 -0.13909141 6.375 -0.1875 C7.55835938 -0.22230469 8.74171875 -0.25710937 9.9609375 -0.29296875 C11.46527344 -0.14794922 11.46527344 -0.14794922 13 0 C15 3 15 3 15 6 C10.38 6 5.76 6 1 6 C0.67 4.02 0.34 2.04 0 0 Z " fill="#D2C9D0" transform="translate(255,169)"/>
<path d="M0 0 C2.14576637 -0.02685938 4.29162645 -0.04633088 6.4375 -0.0625 C7.63246094 -0.07410156 8.82742187 -0.08570313 10.05859375 -0.09765625 C13 0 13 0 14 1 C14 2.65 14 4.3 14 6 C9.38 6 4.76 6 0 6 C0 4.02 0 2.04 0 0 Z " fill="#D6C6D2" transform="translate(210,169)"/>
<path d="M0 0 C0.66 0 1.32 0 2 0 C1.34 1.98 0.68 3.96 0 6 C4.62 6 9.24 6 14 6 C14 6.33 14 6.66 14 7 C11.03 7.66 8.06 8.32 5 9 C6.65 9.33 8.3 9.66 10 10 C10 10.33 10 10.66 10 11 C5.05 11.33 0.1 11.66 -5 12 C-4 7 -4 7 -3 5 C-2.34 5 -1.68 5 -1 5 C-0.67 3.35 -0.34 1.7 0 0 Z " fill="#CB9ABE" transform="translate(89,179)"/>
<path d="M0 0 C5.28 0 10.56 0 16 0 C13 4 13 4 10.51953125 4.390625 C9.17955078 4.32101563 9.17955078 4.32101563 7.8125 4.25 C6.91144531 4.21390625 6.01039063 4.1778125 5.08203125 4.140625 C4.05142578 4.07101563 4.05142578 4.07101563 3 4 C2.67 4.99 2.34 5.98 2 7 C1.34 4.69 0.68 2.38 0 0 Z " fill="#BE84AB" transform="translate(261,186)"/>
<path d="M0 0 C0.99 0 1.98 0 3 0 C3 5.61 3 11.22 3 17 C2.34 17 1.68 17 1 17 C1 18.65 1 20.3 1 22 C0.67 22 0.34 22 0 22 C0 14.74 0 7.48 0 0 Z " fill="#090608" transform="translate(289,36)"/>
<path d="M0 0 C0.33 0 0.66 0 1 0 C1.16890918 2.22899787 1.33503687 4.45820662 1.5 6.6875 C1.5928125 7.92886719 1.685625 9.17023438 1.78125 10.44921875 C1.95779937 13.31499329 2.04388528 16.13099957 2 19 C2.66 19.33 3.32 19.66 4 20 C3.01 20.33 2.02 20.66 1 21 C0.67 21.66 0.34 22.32 0 23 C-1.29243536 18.8803623 -2.26252625 15.33168317 -2 11 C-1.67 11 -1.34 11 -1 11 C-0.67 7.37 -0.34 3.74 0 0 Z " fill="#251F25" transform="translate(84,132)"/>
<path d="M0 0 C0.33 1.32 0.66 2.64 1 4 C0.34 4 -0.32 4 -1 4 C-0.67 4.99 -0.34 5.98 0 7 C-1.93816735 6.8858134 -3.87555099 6.75826577 -5.8125 6.625 C-6.89144531 6.55539063 -7.97039062 6.48578125 -9.08203125 6.4140625 C-12 6 -12 6 -15 4 C-14.67 3.34 -14.34 2.68 -14 2 C-7.07 2.495 -7.07 2.495 0 3 C0 2.01 0 1.02 0 0 Z " fill="#BF82AC" transform="translate(226,183)"/>
<path d="M0 0 C4.95 0 9.9 0 15 0 C12.18234575 2.81765425 9.1105974 3.15500793 5.3125 4.12109375 C2.66698881 4.87042564 2.66698881 4.87042564 1 8 C1.020625 7.05125 1.04125 6.1025 1.0625 5.125 C1.22551826 2.09333717 1.22551826 2.09333717 0 0 Z " fill="#BC85AD" transform="translate(236,186)"/>
<path d="M0 0 C0.66 0 1.32 0 2 0 C2 1.32 2 2.64 2 4 C6.29 4.33 10.58 4.66 15 5 C15 5.66 15 6.32 15 7 C10.05 7 5.1 7 0 7 C0 4.69 0 2.38 0 0 Z " fill="#DFC6D8" transform="translate(187,179)"/>
<path d="M0 0 C0.33 0 0.66 0 1 0 C1.87890625 6.15234375 1.87890625 6.15234375 2 8 C1 9 1 9 -2.37890625 9.09765625 C-3.77347077 9.09098369 -5.16801743 9.07902532 -6.5625 9.0625 C-7.62887695 9.05573242 -7.62887695 9.05573242 -8.71679688 9.04882812 C-10.47790013 9.03700864 -12.23896036 9.01907263 -14 9 C-14.33 8.34 -14.66 7.68 -15 7 C-10.05 7 -5.1 7 0 7 C0 4.69 0 2.38 0 0 Z " fill="#BC83AC" transform="translate(177,179)"/>
<path d="M0 0 C4.62 0 9.24 0 14 0 C14.33 1.32 14.66 2.64 15 4 C14.484375 3.855625 13.96875 3.71125 13.4375 3.5625 C10.31490429 2.84190099 7.17449308 2.42733561 4 2 C3.34 3.32 2.68 4.64 2 6 C0 3 0 3 0 0 Z " fill="#D2BECF" transform="translate(232,169)"/>
<path d="M0 0 C0.33 0.99 0.66 1.98 1 3 C-0.109375 4.8671875 -0.109375 4.8671875 -1.75 6.875 C-3.57310641 9.16438478 -5.15620507 11.27035493 -6.625 13.8125 C-8.1261325 16.20066535 -9.65623211 17.46442793 -12 19 C-10.42686828 14.27156386 -7.79358765 10.6566157 -4.875 6.6875 C-4.17310547 5.71973633 -4.17310547 5.71973633 -3.45703125 4.73242188 C-2.3094071 3.15151106 -1.15534523 1.57527699 0 0 Z " fill="#D39EC3" transform="translate(59,194)"/>
<path d="M0 0 C0.66 0 1.32 0 2 0 C1.34 2.31 0.68 4.62 0 7 C7.92 6.505 7.92 6.505 16 6 C16.33 6.66 16.66 7.32 17 8 C10.4 8 3.8 8 -3 8 C-2 3 -2 3 0 0 Z " fill="#C891B9" transform="translate(82,191)"/>
<path d="M0 0 C0.66 0.33 1.32 0.66 2 1 C1.34 2.65 0.68 4.3 0 6 C2.31 6 4.62 6 7 6 C4.14521674 7.90318884 2.58058692 8.4619099 -0.6875 9.125 C-1.49574219 9.29257813 -2.30398437 9.46015625 -3.13671875 9.6328125 C-3.75160156 9.75398437 -4.36648437 9.87515625 -5 10 C-3.66511872 6.40608886 -2.03977277 3.24509304 0 0 Z " fill="#C489B5" transform="translate(95,169)"/>
<path d="M0 0 C3.96 0 7.92 0 12 0 C12.33 0.99 12.66 1.98 13 3 C8.71 3 4.42 3 0 3 C0 2.01 0 1.02 0 0 Z " fill="#D7CAD5" transform="translate(141,172)"/>
<path d="M0 0 C0.66 1.32 1.32 2.64 2 4 C-0.29109597 4.08075665 -2.58299267 4.13907731 -4.875 4.1875 C-6.78925781 4.23970703 -6.78925781 4.23970703 -8.7421875 4.29296875 C-9.81726563 4.19628906 -10.89234375 4.09960938 -12 4 C-12.66 3.01 -13.32 2.02 -14 1 C-9.38 0.67 -4.76 0.34 0 0 Z " fill="#AD7FA2" transform="translate(271,175)"/>
<path d="M0 0 C1.485 0.99 1.485 0.99 3 2 C2.82597656 2.52078125 2.65195313 3.0415625 2.47265625 3.578125 C1.85542582 6.74079331 2.14905672 9.54507464 2.4375 12.75 C2.53933594 13.92046875 2.64117187 15.0909375 2.74609375 16.296875 C2.82988281 17.18890625 2.91367188 18.0809375 3 19 C2.34 18.01 1.68 17.02 1 16 C0.34 15.34 -0.32 14.68 -1 14 C-1.23046875 11.25 -1.23046875 11.25 -1.1875 8 C-1.18105469 6.9275 -1.17460938 5.855 -1.16796875 4.75 C-1 2 -1 2 0 0 Z " fill="#231923" transform="translate(76,36)"/>
<path d="M0 0 C0.99 0.99 1.98 1.98 3 3 C2.01 3.99 1.02 4.98 0 6 C0 4.02 0 2.04 0 0 Z M-12 6 C-8.04 6 -4.08 6 0 6 C0 6.66 0 7.32 0 8 C-4.29 8 -8.58 8 -13 8 C-12.67 7.34 -12.34 6.68 -12 6 Z " fill="#AA769F" transform="translate(224,170)"/>
<path d="M0 0 C0.33 0 0.66 0 1 0 C2.06965872 6.32448699 3.13329546 12.64416673 4 19 C3.34 19 2.68 19 2 19 C1.34 19.66 0.68 20.32 0 21 C0 14.07 0 7.14 0 0 Z " fill="#181318" transform="translate(76,43)"/>
<path d="M0 0 C2.64 0 5.28 0 8 0 C7.01 1.485 7.01 1.485 6 3 C4.515 3.2165625 4.515 3.2165625 3 3.4375 C2.01 3.623125 1.02 3.80875 0 4 C-1.43637698 5.95163118 -1.43637698 5.95163118 -2 8 C-3.125 4.25 -3.125 4.25 -2 2 C-1.34 2 -0.68 2 0 2 C0 1.34 0 0.68 0 0 Z " fill="#AE6D9A" transform="translate(112,168)"/>
<path d="M0 0 C0.33 0 0.66 0 1 0 C1.08097324 2.27024968 1.13917704 4.54132075 1.1875 6.8125 C1.22230469 8.07707031 1.25710938 9.34164062 1.29296875 10.64453125 C1 14 1 14 -0.51171875 15.94921875 C-1.00285156 16.29597656 -1.49398438 16.64273438 -2 17 C-1.85941524 14.54126232 -1.71277001 12.08314825 -1.5625 9.625 C-1.52318359 8.92632812 -1.48386719 8.22765625 -1.44335938 7.5078125 C-1.11328125 2.2265625 -1.11328125 2.2265625 0 0 Z " fill="#040402" transform="translate(287,87)"/>
<path d="M0 0 C2.475 0.99 2.475 0.99 5 2 C5 2.66 5 3.32 5 4 C4.34 4 3.68 4 3 4 C3 10.93 3 17.86 3 25 C2.67 25 2.34 25 2 25 C1.97494385 24.34926514 1.9498877 23.69853027 1.92407227 23.02807617 C1.80806298 20.08101954 1.68535885 17.1342787 1.5625 14.1875 C1.52318359 13.16333984 1.48386719 12.13917969 1.44335938 11.08398438 C1.40146484 10.10107422 1.35957031 9.11816406 1.31640625 8.10546875 C1.26141968 6.74651489 1.26141968 6.74651489 1.20532227 5.36010742 C1.0791795 2.84951218 1.0791795 2.84951218 0 0 Z " fill="#252024" transform="translate(286,32)"/>
<path d="M0 0 C-0.33 1.65 -0.66 3.3 -1 5 C-1.66 4.67 -2.32 4.34 -3 4 C-4.87056791 3.7724985 -6.74685958 3.59037189 -8.625 3.4375 C-9.62789063 3.35371094 -10.63078125 3.26992187 -11.6640625 3.18359375 C-12.43492188 3.12300781 -13.20578125 3.06242188 -14 3 C-14 2.67 -14 2.34 -14 2 C-4.58997722 -0.29612756 -4.58997722 -0.29612756 0 0 Z " fill="#C18AB1" transform="translate(102,186)"/>
<path d="M0 0 C4.29 0.33 8.58 0.66 13 1 C13 1.66 13 2.32 13 3 C8.71 3 4.42 3 0 3 C0 2.01 0 1.02 0 0 Z " fill="#D9CCD6" transform="translate(164,172)"/>
<path d="M0 0 C4.62 0 9.24 0 14 0 C14.66 1.65 15.32 3.3 16 5 C15.01 5.99 14.02 6.98 13 8 C13 5.69 13 3.38 13 1 C8.71 1 4.42 1 0 1 C0 0.67 0 0.34 0 0 Z " fill="#AC79A0" transform="translate(116,177)"/>
<path d="M0 0 C0.33 0 0.66 0 1 0 C1.36103152 6.3782235 1.36103152 6.3782235 -0.125 8.9375 C-2.785027 10.44484863 -5.00206205 10.19986253 -8 10 C-6.68 9.67 -5.36 9.34 -4 9 C-4 8.34 -4 7.68 -4 7 C-3.01 6.34 -2.02 5.68 -1 5 C-0.27034634 2.43717258 -0.27034634 2.43717258 0 0 Z " fill="#A66393" transform="translate(322,229)"/>
<path d="M0 0 C0.99 0 1.98 0 3 0 C3 0.66 3 1.32 3 2 C3.66 2 4.32 2 5 2 C5 2.66 5 3.32 5 4 C6.98 4 8.96 4 11 4 C11 4.33 11 4.66 11 5 C9.54207116 5.05399736 8.08357288 5.09279177 6.625 5.125 C5.81289062 5.14820313 5.00078125 5.17140625 4.1640625 5.1953125 C2 5 2 5 0 3 C0 2.01 0 1.02 0 0 Z " fill="#2D2028" transform="translate(85,156)"/>
<path d="M0 0 C0.66 0 1.32 0 2 0 C2.05399736 1.45792884 2.09279177 2.91642712 2.125 4.375 C2.14820313 5.18710938 2.17140625 5.99921875 2.1953125 6.8359375 C2 9 2 9 0 11 C-0.19491452 9.54263913 -0.38069358 8.08405407 -0.5625 6.625 C-0.66691406 5.81289062 -0.77132813 5.00078125 -0.87890625 4.1640625 C-1 2 -1 2 0 0 Z " fill="#503548" transform="translate(283,147)"/>
<path d="M0 0 C0 0.66 0 1.32 0 2 C-3.3 2 -6.6 2 -10 2 C-10 1.34 -10 0.68 -10 0 C-3.375 -1.125 -3.375 -1.125 0 0 Z " fill="#A56F9A" transform="translate(109,165)"/>
<path d="M0 0 C0.33 0 0.66 0 1 0 C1 2.64 1 5.28 1 8 C0.01 8.33 -0.98 8.66 -2 9 C-2.25 3.375 -2.25 3.375 0 0 Z " fill="#0F080B" transform="translate(287,101)"/>
<path d="M0 0 C6.93 0.495 6.93 0.495 14 1 C14 1.33 14 1.66 14 2 C12.2300132 2.19532961 10.45895721 2.38098882 8.6875 2.5625 C7.70136719 2.66691406 6.71523438 2.77132813 5.69921875 2.87890625 C3 3 3 3 0 2 C0 1.34 0 0.68 0 0 Z " fill="#644C5F" transform="translate(271,29)"/>
<path d="M0 0 C0.66 0.66 1.32 1.32 2 2 C1.65071808 5.60924648 0.72887752 6.27112248 -2 9 C-1.34 6.03 -0.68 3.06 0 0 Z " fill="#B377A0" transform="translate(126,189)"/>
</svg>
