<?xml version="1.0" encoding="UTF-8"?>
<svg version="1.1" xmlns="http://www.w3.org/2000/svg" width="294" height="278">
<path d="M0 0 C97.02 0 194.04 0 294 0 C294 91.74 294 183.48 294 278 C196.98 278 99.96 278 0 278 C0 186.26 0 94.52 0 0 Z " fill="#F9F9FB" transform="translate(0,0)"/>
<path d="M0 0 C1.62854448 0.41281019 3.25737337 0.82449988 4.88647461 1.23510742 C17.68084488 4.48628662 30.39776693 8.00414866 43 11.9375 C43.67820801 12.14745605 44.35641602 12.35741211 45.05517578 12.57373047 C56.16490088 16.03912248 64.38574123 19.24831082 69.984375 29.9140625 C73.29284982 36.50556233 73.44031359 45.77919678 71.43896484 52.94677734 C70.28925262 55.99339588 68.87161019 58.89116444 67.4375 61.8125 C66.12996809 64.65496068 65.52857746 66.80781133 65.125 69.875 C63.99656908 77.19753542 59.63328586 83.60037349 56 89.9375 C55.34 89.9375 54.68 89.9375 54 89.9375 C53.92523438 91.07445312 53.85046875 92.21140625 53.7734375 93.3828125 C53.13659364 98.45298342 51.07808851 102.38762516 48.625 106.8125 C48.22539062 107.57046875 47.82578125 108.3284375 47.4140625 109.109375 C44.40896046 114.66485969 44.40896046 114.66485969 41 116.9375 C39.63924403 119.27378957 39.63924403 119.27378957 38.42578125 122.09765625 C37.93126465 123.18473877 37.43674805 124.27182129 36.92724609 125.3918457 C36.39437988 126.58253662 35.86151367 127.77322754 35.3125 129 C34.14980932 131.55971266 32.97959796 134.11595658 31.80859375 136.671875 C31.50270325 137.34108475 31.19681274 138.01029449 30.88165283 138.69978333 C27.33187484 146.44079706 23.60743509 154.09583237 19.875 161.75 C18.51923728 164.53240895 17.16379785 167.31497518 15.80859375 170.09765625 C15.48221924 170.76751053 15.15584473 171.43736481 14.81958008 172.1275177 C12.28987813 177.32573796 9.80031558 182.54236392 7.32373047 187.76611328 C-8.43619931 220.97909669 -8.43619931 220.97909669 -20.03125 226.078125 C-32.54474708 229.7004531 -43.19830159 226.12108419 -54.70654297 221.30419922 C-58.75886702 219.62258988 -62.83397633 218.00162012 -66.91015625 216.37890625 C-70.19113619 215.06767219 -73.47091965 213.7534769 -76.75 212.4375 C-77.53869476 212.12102509 -78.32738953 211.80455017 -79.13998413 211.47848511 C-126.24433715 192.51814616 -126.24433715 192.51814616 -134 177.9375 C-137.34630744 168.9024699 -136.42362255 162.77947687 -132.58984375 154.23046875 C-127.1551797 142.97390415 -120.88458756 132.24237976 -114.55908203 121.4699707 C-108.4644826 111.07429773 -102.59518335 100.55786643 -96.72900391 90.03222656 C-93.87770261 84.92871127 -91.00236544 79.83885267 -88.125 74.75 C-87.58762207 73.79802734 -87.05024414 72.84605469 -86.49658203 71.86523438 C-84.17905932 67.76472482 -81.85317767 63.67042863 -79.48046875 59.6015625 C-79.10841309 58.96114014 -78.73635742 58.32071777 -78.35302734 57.66088867 C-77.4029369 56.0302196 -76.44596694 54.40356378 -75.48828125 52.77734375 C-73.96908998 49.87851947 -73.02129167 47.04142567 -72 43.9375 C-68.73926445 37.16391017 -65.14114069 30.83823896 -60.4609375 24.95703125 C-58.73963423 22.57758261 -57.42285557 20.10194994 -56.0625 17.5 C-42.9847407 -6.89830029 -24.07750101 -6.31191806 0 0 Z " fill="#DEDDE1" transform="translate(182,39.0625)"/>
<path d="M0 0 C1.62854448 0.41281019 3.25737337 0.82449988 4.88647461 1.23510742 C17.68084488 4.48628662 30.39776693 8.00414866 43 11.9375 C43.67820801 12.14745605 44.35641602 12.35741211 45.05517578 12.57373047 C56.16490088 16.03912248 64.38574123 19.24831082 69.984375 29.9140625 C73.29284982 36.50556233 73.44031359 45.77919678 71.43896484 52.94677734 C70.28925262 55.99339588 68.87161019 58.89116444 67.4375 61.8125 C66.12996809 64.65496068 65.52857746 66.80781133 65.125 69.875 C63.99656908 77.19753542 59.63328586 83.60037349 56 89.9375 C55.34 89.9375 54.68 89.9375 54 89.9375 C53.92523438 91.07445312 53.85046875 92.21140625 53.7734375 93.3828125 C53.13659364 98.45298342 51.07808851 102.38762516 48.625 106.8125 C48.22539062 107.57046875 47.82578125 108.3284375 47.4140625 109.109375 C44.40896046 114.66485969 44.40896046 114.66485969 41 116.9375 C39.63924403 119.27378957 39.63924403 119.27378957 38.42578125 122.09765625 C37.93126465 123.18473877 37.43674805 124.27182129 36.92724609 125.3918457 C36.39437988 126.58253662 35.86151367 127.77322754 35.3125 129 C34.14980932 131.55971266 32.97959796 134.11595658 31.80859375 136.671875 C31.50270325 137.34108475 31.19681274 138.01029449 30.88165283 138.69978333 C27.33187484 146.44079706 23.60743509 154.09583237 19.875 161.75 C18.51923728 164.53240895 17.16379785 167.31497518 15.80859375 170.09765625 C15.48221924 170.76751053 15.15584473 171.43736481 14.81958008 172.1275177 C12.28987813 177.32573796 9.80031558 182.54236392 7.32373047 187.76611328 C-8.43619931 220.97909669 -8.43619931 220.97909669 -20.03125 226.078125 C-32.54474708 229.7004531 -43.19830159 226.12108419 -54.70654297 221.30419922 C-58.75886702 219.62258988 -62.83397633 218.00162012 -66.91015625 216.37890625 C-70.19113619 215.06767219 -73.47091965 213.7534769 -76.75 212.4375 C-77.53869476 212.12102509 -78.32738953 211.80455017 -79.13998413 211.47848511 C-126.24433715 192.51814616 -126.24433715 192.51814616 -134 177.9375 C-137.34630744 168.9024699 -136.42362255 162.77947687 -132.58984375 154.23046875 C-127.1551797 142.97390415 -120.88458756 132.24237976 -114.55908203 121.4699707 C-108.4644826 111.07429773 -102.59518335 100.55786643 -96.72900391 90.03222656 C-93.87770261 84.92871127 -91.00236544 79.83885267 -88.125 74.75 C-87.58762207 73.79802734 -87.05024414 72.84605469 -86.49658203 71.86523438 C-84.17905932 67.76472482 -81.85317767 63.67042863 -79.48046875 59.6015625 C-79.10841309 58.96114014 -78.73635742 58.32071777 -78.35302734 57.66088867 C-77.4029369 56.0302196 -76.44596694 54.40356378 -75.48828125 52.77734375 C-73.96908998 49.87851947 -73.02129167 47.04142567 -72 43.9375 C-68.73926445 37.16391017 -65.14114069 30.83823896 -60.4609375 24.95703125 C-58.73963423 22.57758261 -57.42285557 20.10194994 -56.0625 17.5 C-42.9847407 -6.89830029 -24.07750101 -6.31191806 0 0 Z M-42 10.9375 C-43.59254167 13.25392425 -45.00079245 15.49886887 -46.375 17.9375 C-46.79072266 18.65881104 -47.20644531 19.38012207 -47.63476562 20.12329102 C-52.76113872 29.11380613 -57.58507499 38.27491125 -62.44734192 47.41004944 C-66.72177175 55.4398049 -71.11088412 63.39754817 -75.55078125 71.33642578 C-80.42937698 80.09258462 -85.2516853 88.88027751 -90.08964539 97.65893555 C-92.16761153 101.42914007 -94.24881375 105.19753876 -96.33203125 108.96484375 C-97.30472411 110.72654229 -98.27738301 112.48825957 -99.25 114.25 C-99.67917725 115.02456543 -100.10835449 115.79913086 -100.55053711 116.59716797 C-102.49939591 120.13150583 -104.42039476 123.68018724 -106.28125 127.26171875 C-106.76948242 128.19697388 -106.76948242 128.19697388 -107.26757812 129.15112305 C-108.34464705 131.77809416 -108.27891695 134.1483305 -108 136.9375 C-101.42587175 140.39129926 -94.68786856 143.11344654 -87.75 145.75 C-86.60772949 146.18723389 -85.46545898 146.62446777 -84.28857422 147.07495117 C-76.44779218 150.05777414 -68.56297913 152.88290553 -60.62915039 155.60693359 C-56.41305628 157.06254646 -52.28294322 158.6005038 -48.1875 160.375 C-42.31588098 162.89020643 -36.32964753 165.05039643 -30.3125 167.1875 C-28.85009888 167.71815063 -28.85009888 167.71815063 -27.3581543 168.25952148 C-21.50633271 170.31101929 -16.18991893 171.50401443 -10 171.9375 C-5.68423611 164.69482177 -1.64627864 157.41469766 1.875 149.75 C4.73670186 143.52167374 7.78117145 137.42666684 11 131.375 C17.77624234 118.62236356 24.12152585 105.70762861 30.28686523 92.64941406 C32.75159535 87.46160431 35.31337981 82.35497063 38.0625 77.3125 C42.37412812 69.39380822 46.24286055 61.27999062 50.00878906 53.08935547 C50.88796942 51.18071122 51.78270822 49.27925073 52.6796875 47.37890625 C55.27390958 41.62618215 57.48028318 36.28880049 56 29.9375 C52.30817274 22.82731416 45.21684462 21.42470205 38 18.9375 C33.34242126 17.52290961 28.65115119 16.27561116 23.9375 15.0625 C22.63817893 14.72428871 21.33894562 14.38574011 20.03979492 14.046875 C17.36530507 13.35101481 14.68946496 12.66066731 12.01269531 11.97363281 C9.36050548 11.29155839 6.71166079 10.59839117 4.06542969 9.89355469 C0.31763797 8.89559951 -3.43423405 7.91463685 -7.1875 6.9375 C-8.31357666 6.63473145 -9.43965332 6.33196289 -10.59985352 6.02001953 C-22.82815875 2.89302134 -32.15643394 2.15491711 -42 10.9375 Z " fill="#DC6760" transform="translate(182,39.0625)"/>
<path d="M0 0 C1.65 0 3.3 0 5 0 C10.01180571 8.73024221 11.30660217 15.89079495 10 26 C8.9302578 29.8311481 7.18777746 33.30962 5.4375 36.875 C4.12996809 39.71746068 3.52857746 41.87031133 3.125 44.9375 C1.99656908 52.26003542 -2.36671414 58.66287349 -6 65 C-6.66 65 -7.32 65 -8 65 C-8.07476562 66.13695312 -8.14953125 67.27390625 -8.2265625 68.4453125 C-8.86340636 73.51548342 -10.92191149 77.45012516 -13.375 81.875 C-13.77460938 82.63296875 -14.17421875 83.3909375 -14.5859375 84.171875 C-17.59103954 89.72735969 -17.59103954 89.72735969 -21 92 C-22.36075597 94.33628957 -22.36075597 94.33628957 -23.57421875 97.16015625 C-24.06873535 98.24723877 -24.56325195 99.33432129 -25.07275391 100.4543457 C-25.60562012 101.64503662 -26.13848633 102.83572754 -26.6875 104.0625 C-27.85019068 106.62221266 -29.02040204 109.17845658 -30.19140625 111.734375 C-30.49729675 112.40358475 -30.80318726 113.07279449 -31.11834717 113.76228333 C-34.66812516 121.50329706 -38.39256491 129.15833237 -42.125 136.8125 C-43.48076272 139.59490895 -44.83620215 142.37747518 -46.19140625 145.16015625 C-46.51778076 145.83001053 -46.84415527 146.49986481 -47.18041992 147.1900177 C-49.71012187 152.38823796 -52.19968442 157.60486392 -54.67626953 162.82861328 C-70.39603669 195.95695668 -70.39603669 195.95695668 -81.98828125 201.140625 C-88.34090663 202.95330669 -94.52967518 203.10220044 -101 202 C-103.60225713 200.4664561 -105.31792774 198.89146629 -107.3515625 196.67578125 C-109.84765637 194.13828298 -112.5888148 193.77798961 -116 193 C-124.21138211 189.78861789 -124.21138211 189.78861789 -127 187 C-128.81485377 186.34240267 -130.65253826 185.74697617 -132.5 185.1875 C-137.55150271 183.5744151 -142.09805825 181.59107815 -146.74609375 179.05078125 C-149.01157466 177.88248758 -149.01157466 177.88248758 -151.72265625 177.48046875 C-152.47417969 177.32191406 -153.22570312 177.16335937 -154 177 C-154.495 176.01 -154.495 176.01 -155 175 C-155.99 174.67 -156.98 174.34 -158 174 C-158 173.34 -158 172.68 -158 172 C-158.78375 172.04125 -159.5675 172.0825 -160.375 172.125 C-163 172 -163 172 -165 170 C-167.56770285 168.94472112 -170.16872189 168.02485752 -172.78515625 167.09765625 C-173.51605469 166.73542969 -174.24695313 166.37320313 -175 166 C-175.33 165.01 -175.66 164.02 -176 163 C-172.30962722 161.62904376 -170.29116165 162.39989033 -166.75 163.9375 C-165.85796875 164.31777344 -164.9659375 164.69804687 -164.046875 165.08984375 C-163.37140625 165.39019531 -162.6959375 165.69054687 -162 166 C-162 166.66 -162 167.32 -162 168 C-161.05640625 168.14695313 -161.05640625 168.14695313 -160.09375 168.296875 C-155.77632604 169.05112376 -151.93486817 169.83627735 -148.0625 171.9375 C-141.28490521 175.61441377 -133.61241415 177.15417621 -126 178 C-126.66 178.66 -127.32 179.32 -128 180 C-122.71054835 182.15341312 -117.44539885 184.26737309 -112 186 C-111.01 186.350625 -110.02 186.70125 -109 187.0625 C-102.57650796 189.06984126 -95.49458737 190.16486246 -89 188 C-88.71125 187.38125 -88.4225 186.7625 -88.125 186.125 C-87 184 -87 184 -84.5625 182.625 C-81.33658987 180.57930089 -80.46286636 178.46468347 -79 175 C-78.34 175 -77.68 175 -77 175 C-76.9175 174.278125 -76.835 173.55625 -76.75 172.8125 C-76 170 -76 170 -74.1875 167.875 C-72.01331702 165.01750236 -71.18355374 162.93021834 -70.0625 159.5625 C-68.89012067 156.09633502 -67.88294196 153.48959933 -65.375 150.8125 C-62.91563721 147.90009669 -62.26693444 145.82224073 -61.5234375 142.1328125 C-60.75396486 138.99749861 -59.36595476 136.21678906 -58.01171875 133.296875 C-56.39336361 129.62277144 -55.21011818 125.82368702 -54 122 C-53.33333333 120 -52.66666667 118 -52 116 C-51.34 116 -50.68 116 -50 116 C-49.96261719 115.09636719 -49.92523438 114.19273437 -49.88671875 113.26171875 C-49.82097656 112.08222656 -49.75523437 110.90273437 -49.6875 109.6875 C-49.62949219 108.51574219 -49.57148438 107.34398437 -49.51171875 106.13671875 C-48.95806127 102.74292517 -48.51754354 102.12592565 -46 100 C-44.91421827 97.98411848 -43.99648476 95.92963466 -43.0625 93.83984375 C-42 92 -42 92 -39 90 C-37.42090909 87.14541324 -37.42090909 87.14541324 -36 83.8125 C-35.47664062 82.63945312 -34.95328125 81.46640625 -34.4140625 80.2578125 C-33.39254695 77.90437612 -32.37498872 75.55011071 -31.375 73.1875 C-30.36353462 70.84273934 -29.31675222 68.58226239 -28.171875 66.3046875 C-27.81851074 65.60142334 -27.46514648 64.89815918 -27.10107422 64.17358398 C-26.05085086 62.10038254 -24.99187074 60.03193812 -23.9296875 57.96484375 C-23.42115234 56.96807617 -23.42115234 56.96807617 -22.90234375 55.95117188 C-22.21424905 54.60245394 -21.52148996 53.25610611 -20.82421875 51.91210938 C-18.67219751 47.66990658 -17.16417844 43.61470734 -16 39 C-15.01 39.33 -14.02 39.66 -13 40 C-12.814375 38.80375 -12.62875 37.6075 -12.4375 36.375 C-10.93004079 29.39602218 -7.32699615 23.25368528 -4 17 C-3.34 17 -2.68 17 -2 17 C-1.34 11.39 -0.68 5.78 0 0 Z " fill="#A72829" transform="translate(244,64)"/>
<path d="M0 0 C1.6197428 0.40993226 3.23978261 0.81869266 4.86010742 1.22631836 C17.66407488 4.47514355 30.37951795 8.03447435 43 11.9375 C43 13.2575 43 14.5775 43 15.9375 C38.43076923 15.17596154 38.43076923 15.17596154 36.25 13.96875 C33.29003255 12.61209825 30.4688841 12.26314377 27.25 11.8125 C25.49429688 11.56113281 25.49429688 11.56113281 23.703125 11.3046875 C22.36507812 11.12292969 22.36507812 11.12292969 21 10.9375 C21 10.2775 21 9.6175 21 8.9375 C20.030625 8.81375 19.06125 8.69 18.0625 8.5625 C14.46581367 8.04971942 10.95661379 7.29270439 7.41796875 6.4765625 C3.95051109 5.70352671 0.46073694 5.05439687 -3.03125 4.40234375 C-5 3.9375 -5 3.9375 -6 2.9375 C-7.155 2.7725 -8.31 2.6075 -9.5 2.4375 C-13 1.9375 -13 1.9375 -14 0.9375 C-15.34015221 0.78167697 -16.68758903 0.68705858 -18.03515625 0.62109375 C-18.84404297 0.57919922 -19.65292969 0.53730469 -20.48632812 0.49414062 C-21.7615332 0.43516602 -21.7615332 0.43516602 -23.0625 0.375 C-23.91650391 0.33181641 -24.77050781 0.28863281 -25.65039062 0.24414062 C-27.76672037 0.13773298 -29.88333813 0.03708269 -32 -0.0625 C-32 0.5975 -32 1.2575 -32 1.9375 C-33.03125 2.329375 -34.0625 2.72125 -35.125 3.125 C-41.8578287 6.05703831 -45.42976077 10.06583526 -48.921875 16.36328125 C-49.27765625 16.88277344 -49.6334375 17.40226562 -50 17.9375 C-50.66 17.9375 -51.32 17.9375 -52 17.9375 C-52.495 20.4125 -52.495 20.4125 -53 22.9375 C-53.66 22.9375 -54.32 22.9375 -55 22.9375 C-55.2165625 24.0821875 -55.2165625 24.0821875 -55.4375 25.25 C-56 27.9375 -56 27.9375 -57 30.9375 C-57.66 30.9375 -58.32 30.9375 -59 30.9375 C-59.17015625 31.81921875 -59.17015625 31.81921875 -59.34375 32.71875 C-60.23585053 35.73489942 -61.92772835 37.70552463 -63.84375 40.15625 C-65.09064945 42.07714915 -65.56859327 43.70202874 -66 45.9375 C-66.66 45.9375 -67.32 45.9375 -68 45.9375 C-68.185625 47.2678125 -68.185625 47.2678125 -68.375 48.625 C-68.94412736 51.64137502 -69.76614436 54.14076054 -71 56.9375 C-71.66 56.9375 -72.32 56.9375 -73 56.9375 C-73.2475 57.515 -73.495 58.0925 -73.75 58.6875 C-75.18299988 61.26689979 -76.78424676 62.99871592 -79 64.9375 C-79.66 64.9375 -80.32 64.9375 -81 64.9375 C-81.19142578 65.77861328 -81.19142578 65.77861328 -81.38671875 66.63671875 C-83.2243607 73.53080225 -86.31806222 79.86364644 -90 85.9375 C-93.35524041 91.48094068 -95.68863326 96.52395967 -97.12890625 102.87109375 C-98 104.9375 -98 104.9375 -100.08984375 106.22265625 C-101.03537109 106.57650391 -101.03537109 106.57650391 -102 106.9375 C-102 108.2575 -102 109.5775 -102 110.9375 C-102.7425 111.494375 -103.485 112.05125 -104.25 112.625 C-107.50268309 115.36021078 -108.43727318 117.71829298 -109.91015625 121.62109375 C-111 123.9375 -111 123.9375 -112.90625 126.296875 C-115.28041885 129.29116258 -116.79241944 132.30406914 -118.4375 135.75 C-125.98620771 151.18833781 -125.98620771 151.18833781 -132 153.9375 C-130.48582432 149.81214381 -128.46528416 146.09201153 -126.25 142.3125 C-123.27002695 137.18553849 -120.39768251 132.01282851 -117.56640625 126.80224609 C-115.04808409 122.19657399 -112.46275921 117.62941505 -109.875 113.0625 C-109.03086548 111.57049072 -109.03086548 111.57049072 -108.16967773 110.04833984 C-104.00611227 102.69579682 -99.81228536 95.3608639 -95.61108398 88.02978516 C-90.8946594 79.78402617 -86.25714483 71.49449242 -81.63110352 63.19775391 C-81.07092529 62.19405762 -80.51074707 61.19036133 -79.93359375 60.15625 C-79.43915771 59.26873047 -78.94472168 58.38121094 -78.43530273 57.46679688 C-77.44671888 55.72471 -76.42548848 54.00088103 -75.37817383 52.29345703 C-73.79819924 49.59252617 -72.97713581 46.90648958 -72 43.9375 C-68.73926445 37.16391017 -65.14114069 30.83823896 -60.4609375 24.95703125 C-58.73963423 22.57758261 -57.42285557 20.10194994 -56.0625 17.5 C-42.98387861 -6.89990864 -24.07834343 -6.30973072 0 0 Z " fill="#EFAA9E" transform="translate(182,39.0625)"/>
<path d="M0 0 C3.45962542 2.49512379 5.26175109 4.72886286 6.5625 8.875 C7.52344614 15.28130762 5.99982249 19.20625635 2.4609375 24.59765625 C-1.14364376 28.92167039 -5.23457555 31.22134195 -10.734375 32.34375 C-15.90177049 32.7001221 -19.58138722 31.3411123 -23.7734375 28.3515625 C-26.91684826 25.56233887 -28.14973588 22.86749333 -28.74609375 18.73828125 C-29.15145619 11.5031758 -26.71756147 7.50584016 -22 2.0625 C-15.71474475 -3.3029618 -7.25374357 -4.16220341 0 0 Z " fill="#454349" transform="translate(119.4375,198.125)"/>
<path d="M0 0 C2.5 0.8125 2.5 0.8125 5 3 C6.49238558 11.25883283 5.12938766 22.6607942 1 30 C0.01 30 -0.98 30 -2 30 C-2 30.66 -2 31.32 -2 32 C-3.485 32.495 -3.485 32.495 -5 33 C-6.50367903 35.58901934 -7.83849982 38.11933203 -9.125 40.8125 C-9.48464844 41.53759766 -9.84429687 42.26269531 -10.21484375 43.00976562 C-13.6522578 49.73404905 -13.6522578 49.73404905 -13 57 C-14.32 56.67 -15.64 56.34 -17 56 C-17.25523437 56.83789062 -17.51046875 57.67578125 -17.7734375 58.5390625 C-19.11768918 62.33207838 -20.79014193 65.80224791 -22.625 69.375 C-22.94984375 70.01566406 -23.2746875 70.65632813 -23.609375 71.31640625 C-24.40257407 72.87947501 -25.20077031 74.44000622 -26 76 C-26.33 76 -26.66 76 -27 76 C-27 74.02 -27 72.04 -27 70 C-26.34 70 -25.68 70 -25 70 C-24.67 68.35 -24.34 66.7 -24 65 C-24.78375 65.804375 -25.5675 66.60875 -26.375 67.4375 C-29 70 -29 70 -31 71 C-30.25 64.375 -30.25 64.375 -28 61 C-27.30741771 59.00882592 -26.64252365 57.0078864 -26 55 C-25.34588315 53.32836805 -24.68346682 51.65984798 -24 50 C-23.34 50 -22.68 50 -22 50 C-21.89429688 49.3503125 -21.78859375 48.700625 -21.6796875 48.03125 C-20.79169495 44.07100736 -19.47829527 40.32223395 -18.125 36.5 C-17.74021484 35.38044922 -17.74021484 35.38044922 -17.34765625 34.23828125 C-15.93469745 30.22661432 -14.52202289 26.47294955 -12 23 C-11.34 23 -10.68 23 -10 23 C-9.71125 22.071875 -9.4225 21.14375 -9.125 20.1875 C-8 17 -8 17 -6 14 C-5.61500109 12.34450469 -5.27206865 10.6777567 -5 9 C-4.34 9 -3.68 9 -3 9 C-2.87625 7.88625 -2.7525 6.7725 -2.625 5.625 C-2 2 -2 2 0 0 Z " fill="#971F1E" transform="translate(248,72)"/>
<path d="M0 0 C2.97922593 -0.02683987 5.95821295 -0.04676037 8.9375 -0.0625 C9.78763672 -0.07087891 10.63777344 -0.07925781 11.51367188 -0.08789062 C12.32255859 -0.09111328 13.13144531 -0.09433594 13.96484375 -0.09765625 C14.7137085 -0.10289307 15.46257324 -0.10812988 16.23413086 -0.11352539 C18 0 18 0 19 1 C20.155 1.165 21.31 1.33 22.5 1.5 C26 2 26 2 27 3 C28.3461317 3.30829774 29.70303485 3.56965731 31.0625 3.8125 C38.45161178 5.22148638 45.71491918 7.13805627 53 9 C53 9.66 53 10.32 53 11 C53.88042969 11.03738281 54.76085937 11.07476562 55.66796875 11.11328125 C56.82941406 11.17902344 57.99085938 11.24476562 59.1875 11.3125 C60.33605469 11.37050781 61.48460937 11.42851563 62.66796875 11.48828125 C66.17521805 12.02690922 68.09301654 13.03471541 71 15 C73.19130534 15.69579454 73.19130534 15.69579454 75 16 C75 15.01 75 14.02 75 13 C83.2877517 13.55251678 92.07686535 17.07686535 98 23 C98 23.66 98 24.32 98 25 C96.68 25 95.36 25 94 25 C94.02320313 25.80824219 94.04640625 26.61648437 94.0703125 27.44921875 C94.08835937 28.51785156 94.10640625 29.58648437 94.125 30.6875 C94.14820313 31.74324219 94.17140625 32.79898438 94.1953125 33.88671875 C93.99858729 37.02251859 93.33057654 39.17645373 92 42 C91.34 42 90.68 42 90 42 C89.62875 42.9590625 89.62875 42.9590625 89.25 43.9375 C88.24110255 46.40929876 87.17179154 48.82315911 86.0625 51.25 C84.04865931 55.73777232 82.46428852 60.30762087 81 65 C80.34 65 79.68 65 79 65 C78.70867187 65.72703125 78.41734375 66.4540625 78.1171875 67.203125 C75.07799752 74.65774193 71.67097277 81.8385941 68 89 C65.81451161 93.26799566 63.88277134 97.59085692 62 102 C60.87056226 104.47718116 59.69449512 106.92863226 58.5 109.375 C58.05720703 110.31666016 58.05720703 110.31666016 57.60546875 111.27734375 C56.81400053 112.89165998 55.91338446 114.45139816 55 116 C54.01 116.33 53.02 116.66 52 117 C51.27954236 118.9812585 50.61998741 120.98504093 50 123 C48.5 125.875 48.5 125.875 47 128 C46.34 128 45.68 128 45 128 C46.40605663 123.39516453 48.2975451 119.20258004 50.5 114.9375 C53.78235411 108.48947398 56.91883798 101.98385978 60 95.4375 C62.88069598 89.33401512 65.8317148 83.30094663 69.0625 77.375 C73.37412812 69.45630822 77.24286055 61.34249062 81.00878906 53.15185547 C81.88796942 51.24321122 82.78270822 49.34175073 83.6796875 47.44140625 C86.30020485 41.63037201 88.26318846 36.42120799 87 30 C85.63002843 27.12853006 85.63002843 27.12853006 84 25 C84 24.34 84 23.68 84 23 C79.32205347 18.84182531 73.63896231 17.55629067 67.6875 16.125 C66.26040302 15.77479519 64.83332009 15.42453311 63.40625 15.07421875 C62.67792969 14.89681152 61.94960937 14.7194043 61.19921875 14.53662109 C32.54478708 7.54478708 32.54478708 7.54478708 31 6 C29.67218122 5.79395915 28.33704105 5.6337041 27 5.5 C23.11111111 5.11111111 23.11111111 5.11111111 22 4 C20.37095732 3.70297986 18.73162369 3.46187054 17.08984375 3.24609375 C15.60581055 3.04790039 15.60581055 3.04790039 14.09179688 2.84570312 C13.05087891 2.71099609 12.00996094 2.57628906 10.9375 2.4375 C9.89271484 2.29892578 8.84792969 2.16035156 7.77148438 2.01757812 C5.18146356 1.67460733 2.59098531 1.33559369 0 1 C0 0.67 0 0.34 0 0 Z " fill="#DF817B" transform="translate(150,39)"/>
<path d="M0 0 C0.495 0.495 0.495 0.495 1 1 C2.86536728 1.19296903 4.73150661 1.38299852 6.6015625 1.5234375 C9.28929266 2.0574816 11.56754843 3.11997561 14.05908203 4.23339844 C17.47439832 5.58234097 21.03426198 6.21811608 24.625 6.9375 C31.28749367 8.33991463 37.74589969 10.03263675 44.23046875 12.12890625 C46.62435216 12.88184842 48.99263415 13.50538368 51.4375 14.0625 C56.9281113 15.50739771 60.93646868 17.06431066 64 22 C60.09977161 21.3223263 56.5413521 20.19517976 52.8125 18.875 C42.5564517 15.36570154 32.07195343 12.67047415 21.58789062 9.93798828 C19.14486253 9.29930334 16.7035081 8.65418976 14.26367188 8.00341797 C10.5334577 7.00917613 6.79876793 6.03371561 3.0625 5.0625 C1.92079346 4.75586426 0.77908691 4.44922852 -0.3972168 4.13330078 C-8.34827234 2.10062973 -16.43630888 0.39425683 -24.375 3.1875 C-30.86980238 7.67200641 -34.20316267 13.25099619 -38 20 C-38.51191895 20.90661377 -38.51191895 20.90661377 -39.03417969 21.83154297 C-44.81034877 32.08031975 -50.39945016 42.42907295 -55.98193359 52.78417969 C-59.63135302 59.53216277 -63.37932904 66.21562286 -67.1875 72.875 C-72.77434519 82.67085062 -78.10125161 92.59587278 -83.375 102.5625 C-83.75377289 103.27734558 -84.13254578 103.99219116 -84.52279663 104.72869873 C-89.4782074 114.08983223 -94.30681879 123.50447214 -99 133 C-99.66 132.67 -100.32 132.34 -101 132 C-100.771004 125.81710789 -99.19223985 122.14234078 -95.87890625 116.96875 C-93.60668203 113.37854125 -91.51571253 109.70490223 -89.4375 106 C-88.85415894 104.9627478 -88.85415894 104.9627478 -88.2590332 103.90454102 C-85.72066081 99.36306991 -83.32391107 94.77259124 -81.046875 90.09375 C-80.07872074 88.15744148 -79.03842928 86.30061109 -77.9375 84.4375 C-76.0209256 81.03712606 -74.49745097 77.62464359 -73.02734375 74.015625 C-71.93533049 71.87311991 -70.68857921 70.68857921 -69 69 C-68.15513339 67.46561322 -67.36723053 65.89908003 -66.625 64.3125 C-65.10261447 61.16351802 -63.54434099 58.17320684 -61.625 55.25 C-59.2770107 51.62464546 -57.38630503 47.81600256 -55.5 43.9375 C-53.66693338 40.17218872 -51.85450558 36.53512581 -49.3125 33.1875 C-47.4446825 30.61294075 -46.41469562 28.79962198 -45.25 25.9375 C-43.42766034 21.60851354 -41.09409476 17.75243688 -38.5625 13.8125 C-38.19092773 13.23040771 -37.81935547 12.64831543 -37.43652344 12.04858398 C-27.45297054 -3.25097147 -17.09261784 -3.48465572 0 0 Z " fill="#BB3938" transform="translate(172,42)"/>
<path d="M0 0 C1.43931117 0.45261358 2.87638999 0.91232979 4.3125 1.375 C5.11300781 1.63023437 5.91351563 1.88546875 6.73828125 2.1484375 C9 3 9 3 12 5 C12 5.66 12 6.32 12 7 C12.99 7 13.98 7 15 7 C15 7.66 15 8.32 15 9 C15.76183594 9.10957031 16.52367188 9.21914062 17.30859375 9.33203125 C23.83677611 10.33448622 29.79917763 11.72636513 36 14 C36 14.99 36 15.98 36 17 C36.99 16.67 37.98 16.34 39 16 C39 16.66 39 17.32 39 18 C42.02734375 18.24414062 42.02734375 18.24414062 45.0546875 18.48828125 C47 19 47 19 49 22 C51.12065732 22.72208349 51.12065732 22.72208349 53.5 23.0625 C57.79452055 23.79452055 57.79452055 23.79452055 60 26 C60.66 25.67 61.32 25.34 62 25 C64.03144641 25.93446535 66.03533587 26.93224776 68 28 C68 28.33 68 28.66 68 29 C57.7571774 28.30557135 48.32506198 25.18676252 39 21 C37.00736409 20.31163487 35.00958663 19.63718601 33 19 C33 18.34 33 17.68 33 17 C32.0925 16.87625 31.185 16.7525 30.25 16.625 C27 16 27 16 24.8125 14.875 C22.84359635 13.66479088 22.84359635 13.66479088 20 15 C21.37724797 17.75449595 22.84380002 17.91182781 25.6875 19 C26.58597656 19.34546875 27.48445313 19.6909375 28.41015625 20.046875 C31.25472497 21.09374493 34.10947782 22.08720352 37 23 C37 23.66 37 24.32 37 25 C38.32 25.33 39.64 25.66 41 26 C41 26.66 41 27.32 41 28 C41.99 28.0825 42.98 28.165 44 28.25 C47.70457024 28.77499898 50.42412701 30.12899547 53.6875 31.89453125 C56.45531425 33.21765867 59.25826966 34.091795 62.1875 35 C65.59378774 36.08169785 67.72984535 36.77712241 70.5 39.0625 C73.37626236 41.29160333 75.33909059 41.62853024 78.875 42.375 C84.80258063 43.68492214 87.78643209 45.69066918 92 50 C88.18266667 51.45265377 85.96019266 50.50326521 82.2578125 49.0078125 C81.11981201 48.55438477 79.98181152 48.10095703 78.80932617 47.63378906 C77.59349854 47.13588867 76.3776709 46.63798828 75.125 46.125 C73.86143688 45.61598507 72.59751692 45.10785512 71.33325195 44.60058594 C68.77265439 43.57074249 66.21499118 42.53407149 63.65966797 41.49121094 C60.37265196 40.15184511 57.08039915 38.82677102 53.78515625 37.5078125 C43.36732763 33.31947654 33.07204421 28.9696793 23 24 C21.99582031 23.51015625 20.99164063 23.0203125 19.95703125 22.515625 C11.85862201 18.36030329 4.28717446 13.25579725 0 5 C-0.1875 2.1875 -0.1875 2.1875 0 0 Z " fill="#BF4547" transform="translate(49,213)"/>
<path d="M0 0 C1.65 0 3.3 0 5 0 C8.60065625 6.27211088 10.18136419 9.96793907 10.1875 17.3125 C10.19974609 18.07240234 10.21199219 18.83230469 10.22460938 19.61523438 C10.23570015 23.87039386 9.96104913 27.11665765 8 31 C7 28 7 28 7.4375 25.5 C8.21539539 20.65976199 8.07833378 15.8915094 8 11 C6.68 10.34 5.36 9.68 4 9 C3.01 11.64 2.02 14.28 1 17 C0.34 17 -0.32 17 -1 17 C-0.9484375 17.72574219 -0.896875 18.45148438 -0.84375 19.19921875 C-1.023203 22.41591386 -1.86039151 24.06615577 -3.5 26.8125 C-3.9640625 27.60269531 -4.428125 28.39289063 -4.90625 29.20703125 C-5.2671875 29.79871094 -5.628125 30.39039062 -6 31 C-6.66 31 -7.32 31 -8 31 C-8.11730469 31.54527344 -8.23460937 32.09054688 -8.35546875 32.65234375 C-9.11350577 35.41343618 -10.1811412 37.93200321 -11.3125 40.5625 C-13.74384347 46.30866932 -15.92678912 52.1162507 -18 58 C-18.66 58 -19.32 58 -20 58 C-20.185625 59.051875 -20.185625 59.051875 -20.375 60.125 C-21.26564887 64.22198479 -22.4623277 67.94909504 -24.375 71.6875 C-25.80987691 74.61244138 -26.87734172 77.42761973 -27.9375 80.5 C-29.47011295 84.82290446 -31.30560954 88.26261968 -34 92 C-36.11620367 95.90683755 -37.68660117 99.75671146 -39 104 C-39.66 104 -40.32 104 -41 104 C-41.268125 104.804375 -41.53625 105.60875 -41.8125 106.4375 C-42.204375 107.283125 -42.59625 108.12875 -43 109 C-44.485 109.495 -44.485 109.495 -46 110 C-47.08885464 112.67813829 -47.08885464 112.67813829 -48 116 C-50.40796744 122.98310557 -53.62025176 129.43738205 -57 136 C-57.625 134.1875 -57.625 134.1875 -58 132 C-57.34 131.01 -56.68 130.02 -56 129 C-55.2986716 126.67684969 -54.63514826 124.34210921 -54 122 C-53.34427209 119.99638693 -52.68124706 117.99508067 -52 116 C-51.34 116 -50.68 116 -50 116 C-49.96261719 115.09636719 -49.92523438 114.19273437 -49.88671875 113.26171875 C-49.82097656 112.08222656 -49.75523437 110.90273437 -49.6875 109.6875 C-49.62949219 108.51574219 -49.57148438 107.34398437 -49.51171875 106.13671875 C-48.95806127 102.74292517 -48.51754354 102.12592565 -46 100 C-44.91421827 97.98411848 -43.99648476 95.92963466 -43.0625 93.83984375 C-42 92 -42 92 -39 90 C-37.42090909 87.14541324 -37.42090909 87.14541324 -36 83.8125 C-35.47664063 82.63945312 -34.95328125 81.46640625 -34.4140625 80.2578125 C-33.39254695 77.90437612 -32.37498872 75.55011071 -31.375 73.1875 C-30.36353462 70.84273934 -29.31675222 68.58226239 -28.171875 66.3046875 C-27.64182861 65.24979126 -27.64182861 65.24979126 -27.10107422 64.17358398 C-26.05085086 62.10038254 -24.99187074 60.03193812 -23.9296875 57.96484375 C-23.59066406 57.30033203 -23.25164062 56.63582031 -22.90234375 55.95117188 C-22.21424905 54.60245394 -21.52148996 53.25610611 -20.82421875 51.91210938 C-18.67219751 47.66990658 -17.16417844 43.61470734 -16 39 C-15.01 39.33 -14.02 39.66 -13 40 C-12.7215625 38.205625 -12.7215625 38.205625 -12.4375 36.375 C-10.93004079 29.39602218 -7.32699615 23.25368528 -4 17 C-3.34 17 -2.68 17 -2 17 C-1.34 11.39 -0.68 5.78 0 0 Z " fill="#BB2425" transform="translate(244,64)"/>
<path d="M0 0 C1.6197428 0.40993226 3.23978261 0.81869266 4.86010742 1.22631836 C17.66407488 4.47514355 30.37951795 8.03447435 43 11.9375 C43 13.2575 43 14.5775 43 15.9375 C38.43076923 15.17596154 38.43076923 15.17596154 36.25 13.96875 C33.29003255 12.61209825 30.4688841 12.26314377 27.25 11.8125 C25.49429688 11.56113281 25.49429688 11.56113281 23.703125 11.3046875 C22.36507812 11.12292969 22.36507812 11.12292969 21 10.9375 C21 10.2775 21 9.6175 21 8.9375 C20.030625 8.81375 19.06125 8.69 18.0625 8.5625 C14.46581367 8.04971942 10.95661379 7.29270439 7.41796875 6.4765625 C3.95051109 5.70352671 0.46073694 5.05439687 -3.03125 4.40234375 C-5 3.9375 -5 3.9375 -6 2.9375 C-7.155 2.7725 -8.31 2.6075 -9.5 2.4375 C-13 1.9375 -13 1.9375 -14 0.9375 C-15.34015221 0.78167697 -16.68758903 0.68705858 -18.03515625 0.62109375 C-18.84404297 0.57919922 -19.65292969 0.53730469 -20.48632812 0.49414062 C-21.33646484 0.45482422 -22.18660156 0.41550781 -23.0625 0.375 C-23.91650391 0.33181641 -24.77050781 0.28863281 -25.65039062 0.24414062 C-27.76672037 0.13773298 -29.88333813 0.03708269 -32 -0.0625 C-32 0.5975 -32 1.2575 -32 1.9375 C-33.03125 2.329375 -34.0625 2.72125 -35.125 3.125 C-41.8578287 6.05703831 -45.42976077 10.06583526 -48.921875 16.36328125 C-49.45554688 17.14251953 -49.45554688 17.14251953 -50 17.9375 C-50.66 17.9375 -51.32 17.9375 -52 17.9375 C-52.33 19.5875 -52.66 21.2375 -53 22.9375 C-53.66 22.9375 -54.32 22.9375 -55 22.9375 C-54.41852777 19.32087055 -53.46375626 16.51306081 -51.6875 13.3125 C-51.27886719 12.55710937 -50.87023437 11.80171875 -50.44921875 11.0234375 C-48.88000873 8.7647902 -47.20058726 7.55126399 -45 5.9375 C-44.6596875 4.761875 -44.6596875 4.761875 -44.3125 3.5625 C-36.99144815 -11.07960369 -12.12572529 -3.17754673 0 0 Z " fill="#E4837B" transform="translate(182,39.0625)"/>
<path d="M0 0 C2.97922593 -0.02683987 5.95821295 -0.04676037 8.9375 -0.0625 C9.78763672 -0.07087891 10.63777344 -0.07925781 11.51367188 -0.08789062 C12.32255859 -0.09111328 13.13144531 -0.09433594 13.96484375 -0.09765625 C14.7137085 -0.10289307 15.46257324 -0.10812988 16.23413086 -0.11352539 C18 0 18 0 19 1 C20.155 1.165 21.31 1.33 22.5 1.5 C26 2 26 2 27 3 C28.3461317 3.30829774 29.70303485 3.56965731 31.0625 3.8125 C38.45161178 5.22148638 45.71491918 7.13805627 53 9 C53 9.66 53 10.32 53 11 C53.88042969 11.03738281 54.76085937 11.07476562 55.66796875 11.11328125 C56.82941406 11.17902344 57.99085938 11.24476562 59.1875 11.3125 C60.33605469 11.37050781 61.48460937 11.42851563 62.66796875 11.48828125 C66.17521805 12.02690922 68.09301654 13.03471541 71 15 C73.19130534 15.69579454 73.19130534 15.69579454 75 16 C75 15.01 75 14.02 75 13 C83.2877517 13.55251678 92.07686535 17.07686535 98 23 C98 23.66 98 24.32 98 25 C96.68 25 95.36 25 94 25 C94.02320313 25.80824219 94.04640625 26.61648437 94.0703125 27.44921875 C94.08835937 28.51785156 94.10640625 29.58648437 94.125 30.6875 C94.14820313 31.74324219 94.17140625 32.79898438 94.1953125 33.88671875 C93.99858729 37.02251859 93.33057654 39.17645373 92 42 C91.67 42 91.34 42 91 42 C90.93941406 41.25234375 90.87882812 40.5046875 90.81640625 39.734375 C90.69072266 38.25710937 90.69072266 38.25710937 90.5625 36.75 C90.48128906 35.77546875 90.40007812 34.8009375 90.31640625 33.796875 C90.04925416 31.43538247 89.64628032 29.28098935 89 27 C87.35 26.67 85.7 26.34 84 26 C84 25.01 84 24.02 84 23 C79.44036813 18.77811864 73.57690683 17.5413667 67.6875 16.125 C66.26040302 15.77479519 64.83332009 15.42453311 63.40625 15.07421875 C62.67792969 14.89681152 61.94960937 14.7194043 61.19921875 14.53662109 C32.54478708 7.54478708 32.54478708 7.54478708 31 6 C29.67218122 5.79395915 28.33704105 5.6337041 27 5.5 C23.11111111 5.11111111 23.11111111 5.11111111 22 4 C20.37095732 3.70297986 18.73162369 3.46187054 17.08984375 3.24609375 C15.60581055 3.04790039 15.60581055 3.04790039 14.09179688 2.84570312 C13.05087891 2.71099609 12.00996094 2.57628906 10.9375 2.4375 C9.89271484 2.29892578 8.84792969 2.16035156 7.77148438 2.01757812 C5.18146356 1.67460733 2.59098531 1.33559369 0 1 C0 0.67 0 0.34 0 0 Z " fill="#E1706A" transform="translate(150,39)"/>
<path d="M0 0 C0.66 0 1.32 0 2 0 C1.2201344 10.46969574 -2.79418318 18.13800485 -8 27 C-8.66 27 -9.32 27 -10 27 C-10.07476562 28.13566406 -10.14953125 29.27132812 -10.2265625 30.44140625 C-10.86544474 35.5266847 -12.92574723 39.49241626 -15.375 43.9375 C-15.77460938 44.70384766 -16.17421875 45.47019531 -16.5859375 46.25976562 C-19.60660591 51.86886864 -19.60660591 51.86886864 -23 53 C-24.58249796 49.83500407 -24.305717 47.52616772 -24 44 C-22.76422861 40.709118 -21.16057684 37.65675805 -19.5 34.5625 C-19.07074219 33.73556641 -18.64148438 32.90863281 -18.19921875 32.05664062 C-17.1453 30.03077458 -16.07886033 28.01266114 -15 26 C-13.68 26.33 -12.36 26.66 -11 27 C-11.40734375 26.17886719 -11.8146875 25.35773438 -12.234375 24.51171875 C-13.30878669 19.58367736 -11.62721719 17.08283221 -9.25 12.8125 C-8.87617188 12.10158203 -8.50234375 11.39066406 -8.1171875 10.65820312 C-6.52722463 7.66151778 -4.88434151 4.82651227 -3 2 C-2.01 2 -1.02 2 0 2 C0 1.34 0 0.68 0 0 Z " fill="#AB7131" transform="translate(246,102)"/>
<path d="M0 0 C1.43931117 0.45261358 2.87638999 0.91232979 4.3125 1.375 C5.11300781 1.63023437 5.91351563 1.88546875 6.73828125 2.1484375 C9 3 9 3 12 5 C12 5.66 12 6.32 12 7 C12.99 7 13.98 7 15 7 C15 7.66 15 8.32 15 9 C15.76183594 9.10957031 16.52367188 9.21914062 17.30859375 9.33203125 C23.83677611 10.33448622 29.79917763 11.72636513 36 14 C36 14.99 36 15.98 36 17 C36.99 16.67 37.98 16.34 39 16 C39 16.66 39 17.32 39 18 C42.02734375 18.24414062 42.02734375 18.24414062 45.0546875 18.48828125 C47 19 47 19 49 22 C51.12065732 22.72208349 51.12065732 22.72208349 53.5 23.0625 C57.79452055 23.79452055 57.79452055 23.79452055 60 26 C60.66 25.67 61.32 25.34 62 25 C64.03144641 25.93446535 66.03533587 26.93224776 68 28 C68 28.33 68 28.66 68 29 C57.7571774 28.30557135 48.32506198 25.18676252 39 21 C37.00736409 20.31163487 35.00958663 19.63718601 33 19 C33 18.34 33 17.68 33 17 C32.0925 16.87625 31.185 16.7525 30.25 16.625 C27 16 27 16 24.8125 14.875 C22.84359635 13.66479088 22.84359635 13.66479088 20 15 C20 15.66 20 16.32 20 17 C17.03 16.34 14.06 15.68 11 15 C11 14.34 11 13.68 11 13 C10.34 13 9.68 13 9 13 C8.67 12.34 8.34 11.68 8 11 C7.1028125 10.566875 7.1028125 10.566875 6.1875 10.125 C3.50986374 8.74792993 1.88274617 7.35343271 0 5 C-0.25 2.25 -0.25 2.25 0 0 Z " fill="#D54C47" transform="translate(49,213)"/>
<path d="M0 0 C0.495 0.99 0.495 0.99 1 2 C-0.27020602 4.39384981 -1.59259991 6.68815785 -3 9 C-6.35581746 14.54171691 -8.68883675 19.58735646 -10.12890625 25.93359375 C-11 28 -11 28 -13.08984375 29.28515625 C-13.72019531 29.52105469 -14.35054687 29.75695312 -15 30 C-15 31.32 -15 32.64 -15 34 C-15.7425 34.556875 -16.485 35.11375 -17.25 35.6875 C-20.50268309 38.42271078 -21.43727318 40.78079298 -22.91015625 44.68359375 C-24 47 -24 47 -25.90625 49.359375 C-28.28041885 52.35366258 -29.79241944 55.36656914 -31.4375 58.8125 C-38.98620771 74.25083781 -38.98620771 74.25083781 -45 77 C-43.48582432 72.87464381 -41.46528416 69.15451153 -39.25 65.375 C-36.2716788 60.25088045 -33.40056746 55.08119711 -30.57080078 49.87353516 C-26.36687318 42.18310496 -22.01015612 34.57678808 -17.67822266 26.95800781 C-16.07362419 24.1297688 -14.47960005 21.29578676 -12.88671875 18.4609375 C-11.92499626 16.76533161 -10.96278244 15.07000426 -10 13.375 C-9.56792236 12.60027344 -9.13584473 11.82554688 -8.69067383 11.02734375 C-6.21537534 6.69882647 -3.70485382 3.34760006 0 0 Z " fill="#ED9A95" transform="translate(95,116)"/>
<path d="M0 0 C0.33 0.33 0.66 0.66 1 1 C2.86536728 1.19296903 4.73150661 1.38299852 6.6015625 1.5234375 C9.28929266 2.0574816 11.56754843 3.11997561 14.05908203 4.23339844 C17.47439832 5.58234097 21.03426198 6.21811608 24.625 6.9375 C31.28749367 8.33991463 37.74589969 10.03263675 44.23046875 12.12890625 C46.62435216 12.88184842 48.99263415 13.50538368 51.4375 14.0625 C56.9281113 15.50739771 60.93646868 17.06431066 64 22 C60.09977161 21.3223263 56.5413521 20.19517976 52.8125 18.875 C42.54780265 15.36274211 32.05458061 12.6675969 21.56152344 9.93359375 C17.93479016 8.98290633 14.31527216 8.00737555 10.6953125 7.03125 C-1.91515558 3.68899078 -13.90574324 0.86905743 -27 1 C-26 -1 -26 -1 -24.18359375 -1.61328125 C-16.18214795 -3.03035305 -7.87200458 -1.60485808 0 0 Z " fill="#CB4C4A" transform="translate(172,42)"/>
<path d="M0 0 C0.8125 1.625 0.8125 1.625 1 4 C-0.1575085 5.3617747 -1.32443441 6.71656035 -2.53515625 8.03125 C-5.03143914 11.38625421 -6.28081978 15.28291502 -7.80078125 19.15234375 C-9.19938347 22.47345456 -10.907375 25.08527232 -13 28 C-13.495 29.485 -13.495 29.485 -14 31 C-14.99 31.495 -14.99 31.495 -16 32 C-16.309375 32.78375 -16.61875 33.5675 -16.9375 34.375 C-18.29821937 37.73677727 -19.67507386 39.35890671 -22.9375 40.9375 C-25.16205115 41.91162237 -25.16205115 41.91162237 -26.75 44.125 C-29.9645604 46.80380033 -33.0197554 46.31489003 -37 46 C-39.93793956 45.54668381 -42.80178286 44.89667982 -45.6875 44.1875 C-46.42033203 44.02185547 -47.15316406 43.85621094 -47.90820312 43.68554688 C-52.11917579 42.67931806 -55.33980964 41.38929093 -59 39 C-60.42112435 38.39732423 -61.85823634 37.83011927 -63.3125 37.3125 C-64.529375 36.879375 -65.74625 36.44625 -67 36 C-67 35.67 -67 35.34 -67 35 C-65.02 35 -63.04 35 -61 35 C-61 35.66 -61 36.32 -61 37 C-59.9275 36.95875 -58.855 36.9175 -57.75 36.875 C-54.0968547 36.99677151 -53.08179811 37.45910095 -50 39 C-47.66796188 39.0777346 -45.33160941 39.08967728 -43 39 C-42.67 39.66 -42.34 40.32 -42 41 C-37.90607154 42.08759087 -37.90607154 42.08759087 -34 41 C-33.07574219 40.90074219 -32.15148437 40.80148438 -31.19921875 40.69921875 C-27.34608597 39.85708106 -25.68901744 38.47495103 -22.8125 35.8125 C-21.97332031 35.05582031 -21.13414062 34.29914063 -20.26953125 33.51953125 C-17.86034763 30.84496423 -16.45584584 28.27683867 -15 25 C-14.34 25 -13.68 25 -13 25 C-12.82984375 24.35933594 -12.6596875 23.71867187 -12.484375 23.05859375 C-10.9195845 17.4736234 -9.05245642 12.92331681 -6 8 C-5.67 7.278125 -5.34 6.55625 -5 5.8125 C-3.69885567 3.4541759 -1.95858567 1.82801329 0 0 Z " fill="#D24642" transform="translate(181,208)"/>
<path d="M0 0 C0.66 0 1.32 0 2 0 C1.36952308 4.70204555 -0.58717769 8.61552497 -2.68359375 12.80859375 C-3.05481857 13.56357147 -3.4260434 14.31854919 -3.80851746 15.09640503 C-4.6023939 16.71019444 -5.39873805 18.32277184 -6.19732666 19.93423462 C-8.27580162 24.12959525 -10.33565909 28.33405489 -12.39453125 32.5390625 C-13.00128693 33.77735558 -13.00128693 33.77735558 -13.62030029 35.04066467 C-16.7354358 41.41588235 -19.72950389 47.83413908 -22.625 54.3125 C-26.20811602 62.31044655 -29.94665097 70.19781117 -33.96289062 77.98779297 C-34.70229941 79.42239919 -35.43752559 80.8591644 -36.16992188 82.29736328 C-37.3752514 84.66125555 -38.5920808 87.01886808 -39.8125 89.375 C-40.18576416 90.10759033 -40.55902832 90.84018066 -40.94360352 91.5949707 C-42.70401373 94.95480967 -43.78869635 96.8591309 -47 99 C-46.46274801 94.43335805 -44.55579915 91.75852816 -42 88 C-40.96157435 85.68351201 -39.9578025 83.35096976 -39 81 C-38.34711373 79.65986503 -37.68774405 78.32258472 -37 77 C-36.34 77 -35.68 77 -35 77 C-35 75.68 -35 74.36 -35 73 C-34.34 73 -33.68 73 -33 73 C-32.87625 72.29875 -32.7525 71.5975 -32.625 70.875 C-31.25281764 64.56296113 -28.79069919 59.78393369 -25.33984375 54.3671875 C-24.10868225 52.19201587 -23.45532455 50.4396402 -23 48 C-22.34 48 -21.68 48 -21 48 C-20.773125 46.865625 -20.54625 45.73125 -20.3125 44.5625 C-19.26275039 40.27982585 -17.39612483 36.83158874 -15.12109375 33.078125 C-14.02235304 31.0414349 -13.45288554 29.25933911 -13 27 C-12.34 27 -11.68 27 -11 27 C-10.67 23.37 -10.34 19.74 -10 16 C-9.34 16 -8.68 16 -8 16 C-7.95875 15.154375 -7.9175 14.30875 -7.875 13.4375 C-6.8460528 9.39520743 -5.20272112 7.57015309 -2.375 4.61328125 C-0.76984411 2.93403885 -0.76984411 2.93403885 0 0 Z " fill="#A9444B" transform="translate(220,156)"/>
<path d="M0 0 C1.65 0 3.3 0 5 0 C8.60065625 6.27211088 10.18136419 9.96793907 10.1875 17.3125 C10.19974609 18.07240234 10.21199219 18.83230469 10.22460938 19.61523438 C10.23570015 23.87039386 9.96104913 27.11665765 8 31 C7 28 7 28 7.4375 25.5 C8.21539539 20.65976199 8.07833378 15.8915094 8 11 C6.68 10.34 5.36 9.68 4 9 C3.01 11.64 2.02 14.28 1 17 C0.34 17 -0.32 17 -1 17 C-0.92265625 18.08861328 -0.92265625 18.08861328 -0.84375 19.19921875 C-1.023203 22.41591386 -1.86039151 24.06615577 -3.5 26.8125 C-4.19609375 27.99779297 -4.19609375 27.99779297 -4.90625 29.20703125 C-5.2671875 29.79871094 -5.628125 30.39039062 -6 31 C-6.66 31 -7.32 31 -8 31 C-8.11214844 31.54140625 -8.22429687 32.0828125 -8.33984375 32.640625 C-9.13997963 35.50028221 -10.3123815 38.05743708 -11.5625 40.75 C-12.01753906 41.73484375 -12.47257813 42.7196875 -12.94140625 43.734375 C-13.29074219 44.48203125 -13.64007813 45.2296875 -14 46 C-14.66 46 -15.32 46 -16 46 C-16.12375 46.5775 -16.2475 47.155 -16.375 47.75 C-17.00648824 50.02335767 -17.88858191 51.9253529 -19 54 C-19.66 54 -20.32 54 -21 54 C-20.938125 54.78375 -20.87625 55.5675 -20.8125 56.375 C-20.874375 57.24125 -20.93625 58.1075 -21 59 C-21.99 59.66 -22.98 60.32 -24 61 C-21.61391396 53.35367884 -18.61290452 46.14552226 -15 39 C-14.34 39.33 -13.68 39.66 -13 40 C-12.814375 38.80375 -12.62875 37.6075 -12.4375 36.375 C-10.93004079 29.39602218 -7.32699615 23.25368528 -4 17 C-3.34 17 -2.68 17 -2 17 C-1.34 11.39 -0.68 5.78 0 0 Z " fill="#C63132" transform="translate(244,64)"/>
<path d="M0 0 C1 3 1 3 0.1875 4.9375 C-0.204375 5.618125 -0.59625 6.29875 -1 7 C-2.41663066 9.74652884 -3.66760967 12.53114673 -4.875 15.375 C-6.56139242 19.21972302 -8.67040006 22.50560009 -11 26 C-11.25652344 26.928125 -11.51304687 27.85625 -11.77734375 28.8125 C-13.25502876 32.66486732 -15.50761662 35.02777382 -18.4375 37.8125 C-18.92798828 38.30169922 -19.41847656 38.79089844 -19.92382812 39.29492188 C-22.26354321 41.57780178 -23.85947187 42.95315729 -27 44 C-27 43.34 -27 42.68 -27 42 C-26.0925 41.360625 -25.185 40.72125 -24.25 40.0625 C-20.33160757 36.98113506 -19.41604462 33.18126262 -17.9296875 28.5625 C-16.81351533 25.48599183 -15.03570874 23.54463592 -13 21 C-12.31374978 19.2024134 -11.67243126 17.38739474 -11.0625 15.5625 C-9.38030668 10.6544536 -7.60968279 7.69992486 -4 4 C-3.236875 3.21625 -2.47375 2.4325 -1.6875 1.625 C-1.130625 1.08875 -0.57375 0.5525 0 0 Z " fill="#AB1D1D" transform="translate(185,208)"/>
<path d="M0 0 C1.41273193 0.39662842 1.41273193 0.39662842 2.85400391 0.80126953 C4.78674369 1.34433464 6.71855585 1.8907122 8.64941406 2.44042969 C12.24938532 3.46282646 15.8558249 4.46098926 19.46289062 5.45800781 C22.81002712 6.38355203 26.15501649 7.3167083 29.5 8.25 C29.5 9.57 29.5 10.89 29.5 12.25 C24.93076923 11.48846154 24.93076923 11.48846154 22.75 10.28125 C19.79003255 8.92459825 16.9688841 8.57564377 13.75 8.125 C12.57953125 7.95742188 11.4090625 7.78984375 10.203125 7.6171875 C8.86507812 7.43542969 8.86507812 7.43542969 7.5 7.25 C7.5 6.59 7.5 5.93 7.5 5.25 C6.530625 5.12625 5.56125 5.0025 4.5625 4.875 C0.96581367 4.36221942 -2.54338621 3.60520439 -6.08203125 2.7890625 C-9.54948891 2.01602671 -13.03926306 1.36689687 -16.53125 0.71484375 C-18.5 0.25 -18.5 0.25 -19.5 -0.75 C-21.82817964 -1.11760731 -24.1618385 -1.45241581 -26.5 -1.75 C-26.5 -2.08 -26.5 -2.41 -26.5 -2.75 C-17.47894957 -4.88656457 -8.69850108 -2.50969548 0 0 Z " fill="#E78781" transform="translate(195.5,42.75)"/>
<path d="M0 0 C3 1 3 1 4 3 C6.01669827 4.13350534 6.01669827 4.13350534 8 5 C8 5.66 8 6.32 8 7 C8.66 7 9.32 7 10 7 C10 7.66 10 8.32 10 9 C11.65 9 13.3 9 15 9 C15 9.99 15 10.98 15 12 C16.3921875 12.185625 16.3921875 12.185625 17.8125 12.375 C21 13 21 13 24 15 C24 15.66 24 16.32 24 17 C26.97 17.33 29.94 17.66 33 18 C33 18.66 33 19.32 33 20 C34.98 20.33 36.96 20.66 39 21 C39 21.66 39 22.32 39 23 C39.68707031 23.10957031 40.37414062 23.21914062 41.08203125 23.33203125 C42.43361328 23.56986328 42.43361328 23.56986328 43.8125 23.8125 C44.70582031 23.96332031 45.59914062 24.11414063 46.51953125 24.26953125 C49.20531974 25.06046424 50.32213322 25.78699962 52 28 C52 28.66 52 29.32 52 30 C44.33064072 27.95370776 37.25811679 25.07952058 30.0625 21.75 C29.05509766 21.29753906 28.04769531 20.84507812 27.00976562 20.37890625 C16.63245239 15.61401773 6.77049757 10.4740751 0 1 C0 0.67 0 0.34 0 0 Z " fill="#CA686C" transform="translate(50,219)"/>
<path d="M0 0 C9.89255079 1.87617343 19.20717398 5.32973542 28.4375 9.3125 C34.440799 11.85173323 40.54723805 14.06859754 46.6875 16.25 C47.66195068 16.60360596 48.63640137 16.95721191 49.64038086 17.3215332 C55.47531883 19.36706073 60.79961125 20.77745364 67 21 C67.66 20.34 68.32 19.68 69 19 C68.67 20.32 68.34 21.64 68 23 C59.62569598 23.94015056 53.31678404 21.85264577 45.77734375 18.5859375 C42.31304733 17.08972974 38.81001982 15.94170195 35.1875 14.875 C20.55098684 10.55098684 20.55098684 10.55098684 18 8 C15.14471393 7.599617 12.30263513 7.2481773 9.4375 6.9375 C8.63119141 6.84662109 7.82488281 6.75574219 6.99414062 6.66210938 C4.99652623 6.43752551 2.9983144 6.21826764 1 6 C1.99 5.01 2.98 4.02 4 3 C2.68 2.34 1.36 1.68 0 1 C0 0.67 0 0.34 0 0 Z " fill="#DD7F7D" transform="translate(105,189)"/>
<path d="M0 0 C0.33 0.66 0.66 1.32 1 2 C0.67 2.99 0.34 3.98 0 5 C-0.43820725 10.89565172 -0.43820725 10.89565172 2 16 C6.23192343 19.04698487 9.54696599 20.76000684 14.94921875 20.4453125 C19.56171094 19.44374277 23.40405436 17.03034504 26.3203125 13.3203125 C28.45671664 9.75963894 29.83779926 5.97085254 31 2 C31.33 2 31.66 2 32 2 C32.61885498 7.94100781 32.186389 12.25860704 28.67578125 17.203125 C24.53399826 21.64419767 19.51736811 24.22597584 13.4375 24.625 C8.4254813 24.30900583 4.72151936 22.30219324 1 19 C-2.35658817 14.38469126 -2.77697792 9.54984229 -2 4 C-0.98046875 1.7265625 -0.98046875 1.7265625 0 0 Z " fill="#241316" transform="translate(93,206)"/>
<path d="M0 0 C2.5 1 2.5 1 5 3 C5.46837899 5.79374292 5.23424505 8.14221036 5 11 C4.67 11 4.34 11 4 11 C3.87625 9.865625 3.7525 8.73125 3.625 7.5625 C3.41875 6.386875 3.2125 5.21125 3 4 C2.34 3.67 1.68 3.34 1 3 C0.896875 4.051875 0.79375 5.10375 0.6875 6.1875 C0.01274712 9.92931141 -0.86344952 11.9233673 -3 15 C-5.17969518 17.90954155 -5.17969518 17.90954155 -5.875 21.4375 C-7.10425067 25.33012712 -8.1926745 26.1926745 -11 29 C-12.34707836 31.54863899 -13.56551778 34.1316688 -14.75390625 36.7578125 C-16 39 -16 39 -19 41 C-17.26375242 34.5811453 -15.14819255 28.86215164 -12 23 C-11.34 23 -10.68 23 -10 23 C-9.71125 22.071875 -9.4225 21.14375 -9.125 20.1875 C-8 17 -8 17 -6 14 C-5.61500109 12.34450469 -5.27206865 10.6777567 -5 9 C-4.34 9 -3.68 9 -3 9 C-2.87625 7.88625 -2.7525 6.7725 -2.625 5.625 C-2 2 -2 2 0 0 Z " fill="#B12123" transform="translate(248,72)"/>
<path d="M0 0 C1.43931117 0.45261358 2.87638999 0.91232979 4.3125 1.375 C5.11300781 1.63023437 5.91351563 1.88546875 6.73828125 2.1484375 C9 3 9 3 12 5 C12 5.66 12 6.32 12 7 C12.99 7 13.98 7 15 7 C15.33 7.99 15.66 8.98 16 10 C18.00016466 11.20882096 18.00016466 11.20882096 20 12 C20 13.65 20 15.3 20 17 C17.03 16.34 14.06 15.68 11 15 C11 14.34 11 13.68 11 13 C10.34 13 9.68 13 9 13 C8.67 12.34 8.34 11.68 8 11 C7.1028125 10.566875 7.1028125 10.566875 6.1875 10.125 C3.50986374 8.74792993 1.88274617 7.35343271 0 5 C-0.25 2.25 -0.25 2.25 0 0 Z " fill="#C83D3B" transform="translate(49,213)"/>
<path d="M0 0 C0.66 0.66 1.32 1.32 2 2 C-0.47055348 8.38226316 -2.85117751 14.53109763 -7 20 C-7.309375 20.94875 -7.61875 21.8975 -7.9375 22.875 C-9.75840501 28.23060296 -12.88754276 32.1812897 -17 36 C-16.44904066 31.42907805 -15.22137266 28.05382445 -13.0625 24 C-10.97095006 20.05329151 -9.35021426 16.2570074 -8 12 C-6.17416204 7.85036827 -4.30482913 5.08450719 -1 2 C-0.67 1.34 -0.34 0.68 0 0 Z " fill="#AB1E1F" transform="translate(203,168)"/>
<path d="M0 0 C1.60080151 4.00200378 0.29279692 7.04556236 -1 11 C-1.66 11 -2.32 11 -3 11 C-3.2475 12.216875 -3.495 13.43375 -3.75 14.6875 C-4.73773355 18.6662577 -6.37309952 20.83226707 -9 24 C-10.04127791 26.34489327 -10.98290147 28.70389504 -11.875 31.109375 C-13 33 -13 33 -15.125 33.765625 C-15.74375 33.84296875 -16.3625 33.9203125 -17 34 C-16.37815415 31.16714666 -15.50653861 28.76777075 -14.1875 26.1875 C-13.83042969 25.48753906 -13.47335938 24.78757812 -13.10546875 24.06640625 C-12.12034296 22.22495203 -11.06467276 20.42163529 -10 18.625 C-7.89415347 15.01853054 -6.41456318 11.22829595 -4.9296875 7.33203125 C-2.50627615 1.25313808 -2.50627615 1.25313808 0 0 Z " fill="#E0766F" transform="translate(103,103)"/>
<path d="M0 0 C0.33 0 0.66 0 1 0 C1.125 6.625 1.125 6.625 0 10 C-0.66 10 -1.32 10 -2 10 C-2.33 11.32 -2.66 12.64 -3 14 C-3.99 14 -4.98 14 -6 14 C-6.12117187 14.75925781 -6.24234375 15.51851562 -6.3671875 16.30078125 C-6.53476563 17.29464844 -6.70234375 18.28851563 -6.875 19.3125 C-7.03742188 20.29863281 -7.19984375 21.28476563 -7.3671875 22.30078125 C-8 25 -8 25 -10 28 C-10.12375 28.969375 -10.2475 29.93875 -10.375 30.9375 C-11.10797581 34.52908145 -12.15613581 35.75937973 -15 38 C-15.66 38 -16.32 38 -17 38 C-17 38.66 -17 39.32 -17 40 C-18.485 40.495 -18.485 40.495 -20 41 C-17.86667128 35.53750586 -15.34264588 30.28752494 -12.8125 25 C-12.07809692 23.46363892 -12.07809692 23.46363892 -11.32885742 21.89624023 C-7.75961166 14.47551837 -4.03649209 7.17751666 0 0 Z " fill="#DE817C" transform="translate(194,167)"/>
<path d="M0 0 C2.31 0 4.62 0 7 0 C7 0.66 7 1.32 7 2 C8.19882813 2.27263672 8.19882813 2.27263672 9.421875 2.55078125 C11.72824319 3.07864721 14.03282822 3.61434194 16.3359375 4.15625 C18.64649477 4.68831863 20.96386646 5.1923154 23.2890625 5.65625 C30.16195282 7.11782668 34.06619965 8.95406782 39 14 C35.03966933 15.57042412 32.56313076 14.34365676 28.73046875 12.796875 C27.51166016 12.31089844 26.29285156 11.82492187 25.03710938 11.32421875 C23.75383051 10.79966442 22.47062796 10.27492335 21.1875 9.75 C19.91641753 9.23988282 18.64493644 8.73075773 17.37304688 8.22265625 C11.55092873 5.88398781 5.76145658 3.48359883 0 1 C0 0.67 0 0.34 0 0 Z " fill="#BE5052" transform="translate(102,249)"/>
<path d="M0 0 C0.33 0.99 0.66 1.98 1 3 C0.05803113 4.70013894 -0.95280829 6.36257296 -2 8 C-2.86622362 9.9859761 -3.69886317 11.98688693 -4.5 14 C-6.05915478 17.91787611 -7.82871004 21.39304838 -10 25 C-10.49505258 26.32014021 -10.95693291 27.65349819 -11.375 29 C-12.4283908 31.96814804 -12.97375814 32.97582986 -15.375 35.1875 C-18.9753281 39.04499439 -20.18596417 43.29276887 -21.88671875 48.234375 C-23 51 -23 51 -25 52 C-24.91266424 50.39482903 -24.80447776 48.79078338 -24.6875 47.1875 C-24.62949219 46.29417969 -24.57148438 45.40085938 -24.51171875 44.48046875 C-23.91859758 41.60541575 -23.12809729 40.9231694 -21 39 C-19.91421827 36.98411848 -18.99648476 34.92963466 -18.0625 32.83984375 C-17 31 -17 31 -14 29 C-12.42090909 26.14541324 -12.42090909 26.14541324 -11 22.8125 C-10.47664062 21.63945312 -9.95328125 20.46640625 -9.4140625 19.2578125 C-8.39254695 16.90437612 -7.37498872 14.55011071 -6.375 12.1875 C-1.96551724 1.96551724 -1.96551724 1.96551724 0 0 Z " fill="#D24C48" transform="translate(219,125)"/>
<path d="M0 0 C0 3.32497103 -0.7671928 5.40139303 -1.9375 8.5 C-2.29714844 9.4590625 -2.65679687 10.418125 -3.02734375 11.40625 C-3.50880859 12.69015625 -3.50880859 12.69015625 -4 14 C-4.33 14.99 -4.66 15.98 -5 17 C-5.66 17.33 -6.32 17.66 -7 18 C-7.70496632 19.87991017 -8.40460807 21.76208069 -9.0703125 23.65625 C-10.65288559 27.64593007 -12.83470356 31.30273494 -15 35 C-15.66 35 -16.32 35 -17 35 C-17.17595703 35.85078125 -17.17595703 35.85078125 -17.35546875 36.71875 C-18.99407358 42.518418 -22.41546017 48.09465126 -27 52 C-25.65523736 48.46984978 -24.09964124 45.1869835 -22.28515625 41.875 C-21.76373047 40.92109375 -21.24230469 39.9671875 -20.70507812 38.984375 C-20.16302734 37.99953125 -19.62097656 37.0146875 -19.0625 36 C-18.52431641 35.01515625 -17.98613281 34.0303125 -17.43164062 33.015625 C-13.37154524 25.60632639 -13.37154524 25.60632639 -11.38232422 22.36010742 C-9.79963225 19.65790268 -8.98714974 16.96889939 -8 14 C-6.85714565 11.70637313 -5.66801751 9.43531381 -4.4375 7.1875 C-3.81746094 6.04667969 -3.19742188 4.90585938 -2.55859375 3.73046875 C-1 1 -1 1 0 0 Z " fill="#F1AFAB" transform="translate(118,69)"/>
<path d="M0 0 C0.66 0 1.32 0 2 0 C2 0.99 2 1.98 2 3 C1.34 3 0.68 3 0 3 C0.061875 4.1446875 0.061875 4.1446875 0.125 5.3125 C0 8 0 8 -2 11 C-2.44472656 12.59521484 -2.44472656 12.59521484 -2.8984375 14.22265625 C-4.07723295 18.26483782 -5.68976556 21.72043386 -7.625 25.4375 C-7.94984375 26.07365234 -8.2746875 26.70980469 -8.609375 27.36523438 C-9.40071353 28.91299944 -10.1995667 30.4569187 -11 32 C-11.33 31.01 -11.66 30.02 -12 29 C-12.99 29.66 -13.98 30.32 -15 31 C-15 28 -15 28 -13.125 25.8125 C-11 24 -11 24 -9 24 C-9.0928125 22.700625 -9.0928125 22.700625 -9.1875 21.375 C-8.9714266 17.48567885 -7.7855714 15.43379115 -6 12 C-5.20781953 9.34979623 -4.60562096 6.70200119 -4 4 C-3.01 4 -2.02 4 -1 4 C-0.67 2.68 -0.34 1.36 0 0 Z " fill="#DC5C59" transform="translate(192,177)"/>
<path d="M0 0 C0.75 1.5625 0.75 1.5625 1 4 C0.13266704 5.66794801 -0.75378988 7.32999427 -1.75390625 8.921875 C-3.68277229 12.13866726 -5.185571 15.55687869 -6.75390625 18.9609375 C-8 21 -8 21 -11 22 C-11.72045764 23.9812585 -12.38001259 25.98504093 -13 28 C-14.5 30.875 -14.5 30.875 -16 33 C-16.66 33 -17.32 33 -18 33 C-16.48210922 27.94566211 -14.33199122 23.42761076 -11.9375 18.75 C-11.57333984 18.03070313 -11.20917969 17.31140625 -10.83398438 16.5703125 C-9.89258917 14.71188352 -8.94661263 12.85577685 -8 11 C-7.67 10.34 -7.34 9.68 -7 9 C-6.01 9 -5.02 9 -4 9 C-3.34 6.69 -2.68 4.38 -2 2 C-1.34 2 -0.68 2 0 2 C0 1.34 0 0.68 0 0 Z " fill="#DE6C66" transform="translate(213,134)"/>
<path d="M0 0 C0.61328125 1.79296875 0.61328125 1.79296875 1 4 C0.04808677 5.73970349 -0.91405791 7.47589078 -1.9609375 9.16015625 C-3.52603842 11.93144398 -4.13408715 14.943837 -5 18 C-6.58043781 21.70775727 -8.27440977 25.35781909 -10 29 C-10.66 29 -11.32 29 -12 29 C-12.12375 29.5775 -12.2475 30.155 -12.375 30.75 C-13.00648824 33.02335767 -13.88858191 34.9253529 -15 37 C-15.66 37 -16.32 37 -17 37 C-16.938125 37.78375 -16.87625 38.5675 -16.8125 39.375 C-16.874375 40.24125 -16.93625 41.1075 -17 42 C-17.99 42.66 -18.98 43.32 -20 44 C-17.61391396 36.35367884 -14.61290452 29.14552226 -11 22 C-10.34 22.33 -9.68 22.66 -9 23 C-8.814375 21.80375 -8.62875 20.6075 -8.4375 19.375 C-6.93004079 12.39602218 -3.32699615 6.25368528 0 0 Z " fill="#D24745" transform="translate(240,81)"/>
<path d="M0 0 C-2 2 -2 2 -5.125 2.25 C-9 2 -9 2 -12.625 0.9375 C-21.43743086 -1.45811227 -30.70913248 0.7679669 -39 4 C-28.98088984 -7.17516133 -12.92243786 -3.71741363 0 0 Z " fill="#EA928A" transform="translate(177,38)"/>
<path d="M0 0 C1.13839715 3.41519146 0.96630216 3.69007543 -0.546875 6.73046875 C-0.8975 7.45169922 -1.248125 8.17292969 -1.609375 8.91601562 C-1.98578125 9.66560547 -2.3621875 10.41519531 -2.75 11.1875 C-5.17882712 16.10153773 -7.41484127 20.96257538 -9.28076172 26.1184082 C-10.3872311 29.01303125 -11.77770795 31.74307333 -13.1875 34.5 C-13.71730469 35.5415625 -14.24710938 36.583125 -14.79296875 37.65625 C-15.39044922 38.81640625 -15.39044922 38.81640625 -16 40 C-16.625 38.1875 -16.625 38.1875 -17 36 C-16.34 35.01 -15.68 34.02 -15 33 C-14.2986716 30.67684969 -13.63514826 28.34210921 -13 26 C-12.34427209 23.99638693 -11.68124706 21.99508067 -11 20 C-10.34 20 -9.68 20 -9 20 C-8.88398438 19.47792969 -8.76796875 18.95585937 -8.6484375 18.41796875 C-7.81478235 15.30933899 -6.74059467 12.33136679 -5.625 9.3125 C-5.20476562 8.15363281 -4.78453125 6.99476563 -4.3515625 5.80078125 C-3.90554687 4.87652344 -3.45953125 3.95226562 -3 3 C-2.01 2.67 -1.02 2.34 0 2 C0 1.34 0 0.68 0 0 Z " fill="#CB3D3A" transform="translate(203,160)"/>
<path d="M0 0 C0.66 0 1.32 0 2 0 C1.40915596 3.52055917 0.4844458 6.43361222 -1.06640625 9.64453125 C-1.46923828 10.48564453 -1.87207031 11.32675781 -2.28710938 12.19335938 C-2.70798828 13.05767578 -3.12886719 13.92199219 -3.5625 14.8125 C-3.98724609 15.69615234 -4.41199219 16.57980469 -4.84960938 17.49023438 C-5.89471424 19.66264337 -6.94496762 21.83239957 -8 24 C-8.99 24 -9.98 24 -11 24 C-10.67 21.36 -10.34 18.72 -10 16 C-9.34 16 -8.68 16 -8 16 C-7.95875 15.154375 -7.9175 14.30875 -7.875 13.4375 C-6.8460528 9.39520743 -5.20272112 7.57015309 -2.375 4.61328125 C-0.76984411 2.93403885 -0.76984411 2.93403885 0 0 Z " fill="#A1373F" transform="translate(220,156)"/>
<path d="M0 0 C0.33 0.66 0.66 1.32 1 2 C0.16153541 3.57212111 -0.69695605 5.13528909 -1.625 6.65625 C-4.01674642 10.73309048 -6.08404885 14.99099647 -8.21875 19.20703125 C-10.04823349 22.07562927 -10.94616825 22.77461793 -14 24 C-15.26804566 26.0335948 -15.26804566 26.0335948 -16 28 C-16.33 27.34 -16.66 26.68 -17 26 C-16.09130859 23.92456055 -16.09130859 23.92456055 -14.6484375 21.38671875 C-14.12636719 20.46826172 -13.60429688 19.54980469 -13.06640625 18.60351562 C-12.50824219 17.64123047 -11.95007813 16.67894531 -11.375 15.6875 C-10.57255859 14.26147461 -10.57255859 14.26147461 -9.75390625 12.80664062 C-6.93330687 7.89632711 -4.2803699 3.73140052 0 0 Z " fill="#ED9B95" transform="translate(95,116)"/>
<path d="M0 0 C0.66 0.33 1.32 0.66 2 1 C0.68 4.63 -0.64 8.26 -2 12 C-2.66 12 -3.32 12 -4 12 C-4.1546875 13.0828125 -4.1546875 13.0828125 -4.3125 14.1875 C-5.30003444 18.22741361 -7.07173897 21.07173897 -10 24 C-10.81181669 26.27818714 -11.46027707 28.58017529 -12.12109375 30.90625 C-13 33 -13 33 -16 35 C-14.06317623 28.04941256 -12.02852686 21.92346518 -7.875 15.9375 C-6.08361787 13.13100133 -5.38414771 11.26525557 -5 8 C-4.34 8 -3.68 8 -3 8 C-1.92474806 5.34771188 -0.90543849 2.71631546 0 0 Z " fill="#C22F2F" transform="translate(228,110)"/>
<path d="M0 0 C1.32953092 3.98859276 0.31234579 6.06296263 -1 10 C-1.66666667 11.33333333 -2.33333333 12.66666667 -3 14 C-3.1546875 15.175625 -3.1546875 15.175625 -3.3125 16.375 C-4.2751804 20.05068882 -6.55373655 22.13608181 -9 25 C-10.3049484 27.7124618 -10.3049484 27.7124618 -11 30 C-11.6875 28.375 -11.6875 28.375 -12 26 C-11.07137808 23.96587579 -10.06246527 21.96752828 -9 20 C-8.30899447 18.00827818 -7.64097297 16.00838196 -7 14 C-6.34588315 12.32836805 -5.68346682 10.65984798 -5 9 C-4.34 9 -3.68 9 -3 9 C-2.87625 8.2575 -2.7525 7.515 -2.625 6.75 C-2.04513299 4.19858515 -1.26291261 2.2732427 0 0 Z " fill="#A81D1D" transform="translate(229,113)"/>
<path d="M0 0 C5.12524666 0.63315791 9.96530771 1.68160656 14.9375 3.0625 C15.96327148 3.3419043 15.96327148 3.3419043 17.00976562 3.62695312 C18.67420293 4.08089057 20.33725312 4.53990916 22 5 C22 6.32 22 7.64 22 9 C17.43076923 8.23846154 17.43076923 8.23846154 15.25 7.03125 C12.29003255 5.67459825 9.4688841 5.32564377 6.25 4.875 C5.07953125 4.70742188 3.9090625 4.53984375 2.703125 4.3671875 C1.36507812 4.18542969 1.36507812 4.18542969 0 4 C0 2.68 0 1.36 0 0 Z " fill="#E57B76" transform="translate(203,46)"/>
<path d="M0 0 C3.52269485 -0.4025937 4.79940808 -0.13372795 7.8125 1.875 C8.534375 2.57625 9.25625 3.2775 10 4 C10 4.66 10 5.32 10 6 C8.68 6 7.36 6 6 6 C6.02320313 6.80824219 6.04640625 7.61648437 6.0703125 8.44921875 C6.08835938 9.51785156 6.10640625 10.58648437 6.125 11.6875 C6.14820313 12.74324219 6.17140625 13.79898438 6.1953125 14.88671875 C5.99858729 18.02251859 5.33057654 20.17645373 4 23 C3.67 23 3.34 23 3 23 C3.03480469 21.92621094 3.06960937 20.85242188 3.10546875 19.74609375 C3.13362918 18.30991161 3.16092691 16.87371238 3.1875 15.4375 C3.21263672 14.73302734 3.23777344 14.02855469 3.26367188 13.30273438 C3.33532304 8.11996685 2.32172598 4.63735818 0 0 Z " fill="#D85A55" transform="translate(238,58)"/>
<path d="M0 0 C1.93673876 1.21433176 3.77428094 2.47113366 5.57421875 3.87890625 C5.24421875 4.53890625 4.91421875 5.19890625 4.57421875 5.87890625 C3.70796875 5.38390625 2.84171875 4.88890625 1.94921875 4.37890625 C-3.87761136 1.91736782 -10.25006686 1.94604073 -16.42578125 2.87890625 C-19.5212685 4.57405403 -21.06597099 6.18198023 -23.42578125 8.87890625 C-21.45574927 4.73055696 -19.3191761 1.99266793 -15.30078125 -0.37109375 C-10.11940399 -1.72275738 -4.96881976 -2.29637886 0 0 Z " fill="#76393B" transform="translate(117.42578125,197.12109375)"/>
<path d="M0 0 C1.32 0.33 2.64 0.66 4 1 C1.03 7.27 -1.94 13.54 -5 20 C-5.66 20 -6.32 20 -7 20 C-7.45402536 14.73006278 -5.95207309 11.15991509 -3.5 6.625 C-2.99919922 5.66400391 -2.99919922 5.66400391 -2.48828125 4.68359375 C-1.66973549 3.11666329 -0.83635487 1.55749759 0 0 Z " fill="#BD8434" transform="translate(242,105)"/>
<path d="M0 0 C1.65 0.33 3.3 0.66 5 1 C4.61330541 7.96050253 2.36561591 12.9394075 -1 19 C-2.31223496 15.06329512 -1.24296256 12.87511856 0 9 C-0.66 9 -1.32 9 -2 9 C-1.34 6.03 -0.68 3.06 0 0 Z " fill="#B08145" transform="translate(231,128)"/>
<path d="M0 0 C1.43931117 0.45261358 2.87638999 0.91232979 4.3125 1.375 C5.11300781 1.63023437 5.91351563 1.88546875 6.73828125 2.1484375 C9 3 9 3 12 5 C12 5.66 12 6.32 12 7 C12.99 7 13.98 7 15 7 C15 7.66 15 8.32 15 9 C12.03 8.67 9.06 8.34 6 8 C6.33 8.66 6.66 9.32 7 10 C3.57730016 8.85910005 2.2477854 7.79035429 0 5 C-0.25 2.25 -0.25 2.25 0 0 Z " fill="#D24945" transform="translate(49,213)"/>
<path d="M0 0 C0.99 0 1.98 0 3 0 C5.80328294 4.78800726 5.65458285 9.59588577 5 15 C3.93257543 17.70104825 2.69855316 19.61140962 1 22 C0.67 22 0.34 22 0 22 C-0.125 15.375 -0.125 15.375 1 12 C1.09225211 10.50225982 1.1300019 9.00057026 1.125 7.5 C1.12757813 6.7265625 1.13015625 5.953125 1.1328125 5.15625 C1.08145813 2.81552983 1.08145813 2.81552983 0 0 Z " fill="#E08580" transform="translate(236,66)"/>
<path d="M0 0 C0.33 0.66 0.66 1.32 1 2 C0.14453125 4.1015625 0.14453125 4.1015625 -1.1875 6.625 C-1.65542969 7.52089844 -2.12335938 8.41679687 -2.60546875 9.33984375 C-3.06566406 10.21769531 -3.52585938 11.09554687 -4 12 C-4.66881122 13.39480704 -5.33569317 14.79054203 -6 16.1875 C-7.94811101 20.1076742 -10.37599211 23.50132281 -13 27 C-13.33 26.01 -13.66 25.02 -14 24 C-12.81474512 22.37450759 -11.62257515 20.75356859 -10.39453125 19.16015625 C-8.78356307 16.66473496 -7.93136911 14.25460411 -7 11.4375 C-5.38447896 6.63066282 -3.52247571 3.62032225 0 0 Z " fill="#C32D2C" transform="translate(181,212)"/>
<path d="M0 0 C0.66 0 1.32 0 2 0 C1.67 2.64 1.34 5.28 1 8 C0.34 8 -0.32 8 -1 8 C-1.0825 8.845625 -1.165 9.69125 -1.25 10.5625 C-2.15733853 14.72113491 -3.76541273 17.39582699 -6 21 C-7.48288168 17.14450763 -6.42952315 14.76190303 -5 11 C-4.690625 9.989375 -4.38125 8.97875 -4.0625 7.9375 C-2.9966021 4.99060581 -1.80654466 2.5592716 0 0 Z " fill="#9D2F37" transform="translate(208,175)"/>
<path d="M0 0 C0.66 0 1.32 0 2 0 C0.63864937 4.35976848 -1.04431485 8.38535411 -3.0390625 12.4921875 C-3.32478119 13.08299103 -3.61049988 13.67379456 -3.90487671 14.28250122 C-4.808176 16.14834319 -5.71649161 18.0116898 -6.625 19.875 C-7.24252227 21.1482752 -7.85971299 22.42171124 -8.4765625 23.6953125 C-9.98054817 26.79874308 -11.48903927 29.89995825 -13 33 C-14.25541557 29.23375329 -13.37061958 27.62811066 -12 24 C-11.34 24 -10.68 24 -10 24 C-9.773125 22.865625 -9.54625 21.73125 -9.3125 20.5625 C-8.26275039 16.27982585 -6.39612483 12.83158874 -4.12109375 9.078125 C-3.02235304 7.0414349 -2.45288554 5.25933911 -2 3 C-1.34 3 -0.68 3 0 3 C0 2.01 0 1.02 0 0 Z " fill="#AE5158" transform="translate(209,180)"/>
<path d="M0 0 C0.33 0.66 0.66 1.32 1 2 C0.67 2.99 0.34 3.98 0 5 C-0.39573491 10.86426919 -0.39573491 10.86426919 2 16 C3.64142963 17.0409066 5.30712215 18.04504326 7 19 C7.33 19.66 7.66 20.32 8 21 C10.34907875 21.68931344 10.34907875 21.68931344 13.0625 22.125 C13.98160156 22.29257813 14.90070313 22.46015625 15.84765625 22.6328125 C16.55792969 22.75398438 17.26820312 22.87515625 18 23 C18 23.33 18 23.66 18 24 C11.90363206 24.63503833 7.71748241 24.08039582 2.6640625 20.4765625 C-0.50518002 17.66441773 -1.79226254 14.95477546 -2.23828125 10.7578125 C-2.36977889 6.53604604 -2.11533514 3.72501248 0 0 Z " fill="#611E21" transform="translate(93,206)"/>
<path d="M0 0 C0.33 1.32 0.66 2.64 1 4 C0.34 4 -0.32 4 -1 4 C-1.12375 4.886875 -1.2475 5.77375 -1.375 6.6875 C-1.94412736 9.70387502 -2.76614436 12.20326054 -4 15 C-4.66 15 -5.32 15 -6 15 C-6.268125 15.598125 -6.53625 16.19625 -6.8125 16.8125 C-7.98493467 18.97224808 -9.19369282 20.35790256 -11 22 C-9.84926424 17.48557511 -8.47989332 13.92649776 -6 10 C-5.30177383 8.34630643 -4.62501395 6.68272986 -4 5 C-3.34 5 -2.68 5 -2 5 C-1.855625 4.360625 -1.71125 3.72125 -1.5625 3.0625 C-1 1 -1 1 0 0 Z " fill="#E78A82" transform="translate(115,81)"/>
<path d="M0 0 C3.58527289 3.2267456 5.70404351 5.99799174 6.18896484 10.91674805 C6.26865455 13.11481334 6.27279091 15.30067678 6.25 17.5 C6.25773438 18.24636719 6.26546875 18.99273437 6.2734375 19.76171875 C6.25858403 23.9578248 5.91574106 27.16851788 4 31 C3 28 3 28 3.4375 25.5 C3.94247298 22.35794588 4.17102431 19.42565417 4.25 16.25 C4.27578125 15.30640625 4.3015625 14.3628125 4.328125 13.390625 C4.21984375 12.60171875 4.1115625 11.8128125 4 11 C3.01 10.34 2.02 9.68 1 9 C0.48828125 6.8359375 0.48828125 6.8359375 0.3125 4.375 C0.24675781 3.55773437 0.18101562 2.74046875 0.11328125 1.8984375 C0.07589844 1.27195312 0.03851563 0.64546875 0 0 Z " fill="#AC444D" transform="translate(248,64)"/>
<path d="M0 0 C2.31 0 4.62 0 7 0 C7 0.66 7 1.32 7 2 C8.37285156 2.25523437 8.37285156 2.25523437 9.7734375 2.515625 C10.96195313 2.75796875 12.15046875 3.0003125 13.375 3.25 C14.55835937 3.48203125 15.74171875 3.7140625 16.9609375 3.953125 C20 5 20 5 21.4140625 7.109375 C21.60742188 7.73328125 21.80078125 8.3571875 22 9 C14.39162534 6.92957946 7.2271408 4.14169523 0 1 C0 0.67 0 0.34 0 0 Z " fill="#C3595A" transform="translate(102,249)"/>
<path d="M0 0 C1.02473942 3.53165826 0.88418962 4.97899002 -0.75 8.3125 C-1.12125 9.09109375 -1.4925 9.8696875 -1.875 10.671875 C-2.431875 11.82429688 -2.431875 11.82429688 -3 13 C-3.59151021 14.35061498 -4.17584994 15.70441427 -4.75 17.0625 C-5.1625 18.031875 -5.575 19.00125 -6 20 C-6.66 20 -7.32 20 -8 20 C-8 20.99 -8 21.98 -8 23 C-8.99 23.33 -9.98 23.66 -11 24 C-9.71882993 20.72618005 -8.34728693 17.52930256 -6.8359375 14.35546875 C-6.23652344 13.09379883 -6.23652344 13.09379883 -5.625 11.80664062 C-5.2125 10.94232422 -4.8 10.07800781 -4.375 9.1875 C-3.95476562 8.30384766 -3.53453125 7.42019531 -3.1015625 6.50976562 C-2.06907239 4.33918982 -1.0351788 2.16929448 0 0 Z " fill="#E08F8A" transform="translate(226,102)"/>
<path d="M0 0 C0.33 0.66 0.66 1.32 1 2 C-0.25 5.0625 -0.25 5.0625 -2 8 C-2.99 8.33 -3.98 8.66 -5 9 C-5 10.32 -5 11.64 -5 13 C-7.5 14.75 -7.5 14.75 -10 16 C-8.39828054 10.02285179 -6.86506186 6.11659081 -2 2 C-1.34 1.34 -0.68 0.68 0 0 Z " fill="#E5897D" transform="translate(85,137)"/>
<path d="M0 0 C0.66 0.66 1.32 1.32 2 2 C1.67386719 2.56847656 1.34773437 3.13695312 1.01171875 3.72265625 C-1.04633751 7.35916275 -3.03807943 10.91675854 -4.5625 14.8125 C-5.99315378 17.98481926 -7.38728902 19.74766295 -10 22 C-9.40586092 17.99318398 -8.12581388 15.07139001 -6.125 11.5625 C-3.98035566 7.74750766 -1.91421852 3.93478251 0 0 Z " fill="#A51A1D" transform="translate(215,145)"/>
<path d="M0 0 C0.66 0 1.32 0 2 0 C1.60210167 3.58108497 0.04011036 4.98712724 -2.5234375 7.36328125 C-5.61876504 10.79434537 -7.73584168 14.99298442 -10 19 C-10.66 18.67 -11.32 18.34 -12 18 C-4.48128693 4.6093237 -4.48128693 4.6093237 0 0 Z " fill="#F3AAA4" transform="translate(136,42)"/>
<path d="M0 0 C1.03932752 2.69337923 1.05402724 3.84099877 0.109375 6.62109375 C-0.33921875 7.55050781 -0.7878125 8.47992188 -1.25 9.4375 C-1.68828125 10.36433594 -2.1265625 11.29117188 -2.578125 12.24609375 C-3.95741639 14.9175235 -5.31697236 17.50712841 -7 20 C-7.66 20 -8.32 20 -9 20 C-7.55676531 15.26210835 -5.62773267 11.01141849 -3.375 6.625 C-2.88773438 5.66400391 -2.88773438 5.66400391 -2.390625 4.68359375 C-1.59742593 3.12052499 -0.79922969 1.55999378 0 0 Z " fill="#DD8884" transform="translate(204,147)"/>
<path d="M0 0 C0.66 0 1.32 0 2 0 C2 0.99 2 1.98 2 3 C1.34 3 0.68 3 0 3 C0.103125 3.680625 0.20625 4.36125 0.3125 5.0625 C-0.13555589 9.27422541 -2.39300676 11.76919052 -5 15 C-6.41687119 10.74938644 -5.19320039 8.28148375 -4 4 C-3.01 4 -2.02 4 -1 4 C-0.67 2.68 -0.34 1.36 0 0 Z " fill="#DB6661" transform="translate(192,177)"/>
<path d="M0 0 C6.85618326 1.92556636 13.43252132 4.2472483 20 7 C20 7.33 20 7.66 20 8 C13.82069977 8.52589789 9.37659735 7.07234135 4 4 C1.4375 1.75 1.4375 1.75 0 0 Z " fill="#DE8A8A" transform="translate(85,181)"/>
<path d="M0 0 C0.66 0 1.32 0 2 0 C1.47731534 2.76276177 0.89130413 5.3260876 0 8 C-0.66 8 -1.32 8 -2 8 C-2.11214844 8.58265625 -2.22429687 9.1653125 -2.33984375 9.765625 C-3.06000876 12.20310657 -4.04379395 13.7250586 -5.5625 15.75 C-6.24505859 16.67039062 -6.24505859 16.67039062 -6.94140625 17.609375 C-7.29074219 18.06828125 -7.64007813 18.5271875 -8 19 C-8.33 18.34 -8.66 17.68 -9 17 C-8.22265625 15.0546875 -8.22265625 15.0546875 -7.0625 12.875 C-6.49208984 11.78832031 -6.49208984 11.78832031 -5.91015625 10.6796875 C-5.60980469 10.12539062 -5.30945313 9.57109375 -5 9 C-4.34 9 -3.68 9 -3 9 C-2.814375 7.88625 -2.814375 7.88625 -2.625 6.75 C-2.04513299 4.19858515 -1.26291261 2.2732427 0 0 Z " fill="#E78A84" transform="translate(125,62)"/>
<path d="M0 0 C1.19456387 3.58369161 0.74039469 4.30620291 -0.6875 7.6875 C-1.05746094 8.56535156 -1.42742187 9.44320312 -1.80859375 10.34765625 C-3.43146051 13.96053013 -5.17686657 17.48395696 -7 21 C-8.25686099 17.22941703 -7.82745636 14.86146303 -7 11 C-6.0164802 9.98378703 -5.014849 8.98492716 -4 8 C-2.80400932 5.96767758 -2.80400932 5.96767758 -1.8125 3.8125 C-1.46832031 3.09707031 -1.12414062 2.38164062 -0.76953125 1.64453125 C-0.51558594 1.10183594 -0.26164063 0.55914062 0 0 Z " fill="#DB665F" transform="translate(202,156)"/>
<path d="M0 0 C0.66 0.66 1.32 1.32 2 2 C1.54625 2.70898438 1.0925 3.41796875 0.625 4.1484375 C-1.44652152 7.78355941 -2.63507659 11.51502464 -3.9375 15.4765625 C-4.98845273 17.97257524 -5.95518873 19.26888137 -8 21 C-7.36896891 13.30142066 -7.36896891 13.30142066 -4 10 C-3.0416035 7.7723492 -3.0416035 7.7723492 -2.375 5.375 C-1.08333333 1.08333333 -1.08333333 1.08333333 0 0 Z " fill="#B42123" transform="translate(219,132)"/>
<path d="M0 0 C0 3.32497103 -0.7671928 5.40139303 -1.9375 8.5 C-2.29714844 9.4590625 -2.65679687 10.418125 -3.02734375 11.40625 C-3.34832031 12.2621875 -3.66929688 13.118125 -4 14 C-4.33 14.99 -4.66 15.98 -5 17 C-7.0625 18.1875 -7.0625 18.1875 -9 19 C-8.39443058 14.52551484 -6.67133996 11.18332894 -4.5 7.25 C-3.8709375 6.10015625 -3.241875 4.9503125 -2.59375 3.765625 C-1 1 -1 1 0 0 Z " fill="#F1C89E" transform="translate(118,69)"/>
<path d="M0 0 C0 0.66 0 1.32 0 2 C-6.27 2 -12.54 2 -19 2 C-18 0 -18 0 -16.21484375 -0.6171875 C-10.85372026 -1.54380144 -5.26774502 -1.35941807 0 0 Z " fill="#CA4341" transform="translate(164,41)"/>
<path d="M0 0 C0.75410156 0.00451172 1.50820312 0.00902344 2.28515625 0.01367188 C4.14847127 0.02546501 6.01174555 0.04340058 7.875 0.0625 C7.875 0.3925 7.875 0.7225 7.875 1.0625 C6.8128125 1.16046875 5.750625 1.2584375 4.65625 1.359375 C-3.14186605 2.15835475 -9.24440238 3.07175338 -16.125 7.0625 C-16.785 6.7325 -17.445 6.4025 -18.125 6.0625 C-16.83403219 5.24889005 -15.54220125 4.43664954 -14.25 3.625 C-13.17105469 2.94630859 -13.17105469 2.94630859 -12.0703125 2.25390625 C-8.02552537 -0.22332281 -4.63762238 -0.05206312 0 0 Z " fill="#F1A59D" transform="translate(156.125,34.9375)"/>
<path d="M0 0 C6.30582519 1.49348491 13.02847216 0.38519805 19.375 -0.4375 C15.63103255 3.30646745 11.2858304 2.74560271 6.3125 2.75 C5.21325195 2.76836914 5.21325195 2.76836914 4.09179688 2.78710938 C2.18473493 2.79236299 0.27815114 2.68468272 -1.625 2.5625 C-2.285 1.9025 -2.945 1.2425 -3.625 0.5625 C-1.625 -0.4375 -1.625 -0.4375 0 0 Z " fill="#B84D50" transform="translate(144.625,263.4375)"/>
<path d="M0 0 C0.96706319 3.00864103 1.27677226 5.05360248 0 8 C-1.31647119 8.69937532 -2.65022151 9.36729133 -4 10 C-4.33 10.99 -4.66 11.98 -5 13 C-5.66 13 -6.32 13 -7 13 C-5.69045524 8.76916309 -4.16145284 4.872603 -2 1 C-1.34 0.67 -0.68 0.34 0 0 Z " fill="#E58A87" transform="translate(103,103)"/>
<path d="M0 0 C2.5 1 2.5 1 5 3 C5.46837899 5.79374292 5.23424505 8.14221036 5 11 C4.67 11 4.34 11 4 11 C3.67 8.69 3.34 6.38 3 4 C0.9837767 4.71563266 0.9837767 4.71563266 -1 6 C-1.80528889 8.05000871 -1.80528889 8.05000871 -2 10 C-2.66 10 -3.32 10 -4 10 C-4.33 10.66 -4.66 11.32 -5 12 C-5 11.01 -5 10.02 -5 9 C-4.34 9 -3.68 9 -3 9 C-2.87625 7.88625 -2.7525 6.7725 -2.625 5.625 C-2 2 -2 2 0 0 Z " fill="#AE292C" transform="translate(248,72)"/>
<path d="M0 0 C0.33 0 0.66 0 1 0 C0.125 6.75 0.125 6.75 -1 9 C-1.66 9 -2.32 9 -3 9 C-3.33 10.65 -3.66 12.3 -4 14 C-4.66 14 -5.32 14 -6 14 C-5.41892368 10.2397015 -4.34800504 7.46964968 -2.4375 4.1875 C-1.98246094 3.39730469 -1.52742187 2.60710938 -1.05859375 1.79296875 C-0.53458984 0.90544922 -0.53458984 0.90544922 0 0 Z " fill="#E68C87" transform="translate(133,48)"/>
<path d="M0 0 C0.66 0 1.32 0 2 0 C2 4 2 4 0.125 6.25 C-2 8 -2 8 -4 8 C-4 8.66 -4 9.32 -4 10 C-4.99 10.33 -5.98 10.66 -7 11 C-5.80100302 7.9168649 -4.52299523 4.93720508 -3 2 C-2.01 2 -1.02 2 0 2 C0 1.34 0 0.68 0 0 Z " fill="#DC7775" transform="translate(181,197)"/>
<path d="M0 0 C0.99 0 1.98 0 3 0 C2.67 0.99 2.34 1.98 2 3 C1.34 3 0.68 3 0 3 C-0.2475 4.2375 -0.495 5.475 -0.75 6.75 C-1.6710758 10.51439673 -2.91347366 12.53077893 -6 15 C-2.87822878 3.59778598 -2.87822878 3.59778598 0 0 Z " fill="#DF6861" transform="translate(100,111)"/>
<path d="M0 0 C5.94 0 11.88 0 18 0 C15 3 15 3 11.25 3.3125 C7.23986259 3.17140257 3.79562726 2.26520909 0 1 C0 0.67 0 0.34 0 0 Z " fill="#C93533" transform="translate(137,251)"/>
<path d="M0 0 C0.66 0.33 1.32 0.66 2 1 C-0.14469847 6.23625849 -2.21709911 10.71271232 -6 15 C-6.66 15.99 -7.32 16.98 -8 18 C-7.67 15.69 -7.34 13.38 -7 11 C-6.34 11 -5.68 11 -5 11 C-4.67 9.68 -4.34 8.36 -4 7 C-3.34 7 -2.68 7 -2 7 C-1.34 4.69 -0.68 2.38 0 0 Z " fill="#E68881" transform="translate(73,153)"/>
<path d="M0 0 C-0.56589844 0.25910156 -1.13179687 0.51820312 -1.71484375 0.78515625 C-4.22707405 2.120718 -6.32728237 3.67882623 -8.5625 5.4375 C-9.70912109 6.33275391 -9.70912109 6.33275391 -10.87890625 7.24609375 C-12.7000758 8.75199638 -14.36765515 10.29464292 -16 12 C-15.49556781 8.26720177 -15.01809275 6.31387111 -12 4 C-8.0255316 1.3044447 -4.9703216 -0.60246322 0 0 Z " fill="#E57873" transform="translate(150,40)"/>
<path d="M0 0 C1 3 1 3 0.1875 4.9375 C-0.204375 5.618125 -0.59625 6.29875 -1 7 C-2.51795039 9.94102888 -3.80023986 12.91490251 -5 16 C-5.33 16 -5.66 16 -6 16 C-7.02388876 9.51537118 -3.42721347 5.16122028 0 0 Z " fill="#A41B1D" transform="translate(185,208)"/>
<path d="M0 0 C0.66 0 1.32 0 2 0 C1.28028381 3.75345656 -0.33112202 6.86091969 -2.0625 10.25 C-2.61035156 11.32765625 -3.15820312 12.4053125 -3.72265625 13.515625 C-4.14417969 14.33546875 -4.56570312 15.1553125 -5 16 C-5.33 16 -5.66 16 -6 16 C-6.25 12.75 -6.25 12.75 -6 9 C-4.125 6.875 -4.125 6.875 -2 5 C-0.74563813 2.36777038 -0.74563813 2.36777038 0 0 Z " fill="#D9635D" transform="translate(86,137)"/>
<path d="M0 0 C1 3 1 3 -0.43359375 6.13671875 C-1.09135973 7.3260128 -1.75977815 8.50946371 -2.4375 9.6875 C-2.77587891 10.29400391 -3.11425781 10.90050781 -3.46289062 11.52539062 C-4.29957915 13.0220025 -5.14862831 14.51169189 -6 16 C-6.71484375 14.390625 -6.71484375 14.390625 -7 12 C-5.56640625 8.984375 -5.56640625 8.984375 -3.5625 5.75 C-2.90378906 4.67234375 -2.24507813 3.5946875 -1.56640625 2.484375 C-1.04949219 1.66453125 -0.53257813 0.8446875 0 0 Z " fill="#F1A9A0" transform="translate(109,88)"/>
<path d="M0 0 C1.0326802 2.78823655 1.04509293 3.8677274 0.0625 6.75 C-0.288125 7.4925 -0.63875 8.235 -1 9 C-1.66 9 -2.32 9 -3 9 C-3.99 11.64 -4.98 14.28 -6 17 C-7.31223496 13.06329512 -6.24296256 10.87511856 -5 7 C-4.34 7 -3.68 7 -3 7 C-2.690625 6.21625 -2.38125 5.4325 -2.0625 4.625 C-1 2 -1 2 0 0 Z " fill="#DD6D64" transform="translate(232,95)"/>
<path d="M0 0 C5.41342681 1.14514798 7.9342948 2.34012809 11 7 C7.1936543 6.32829194 3.64793184 5.27253436 0 4 C0 2.66666667 0 1.33333333 0 0 Z " fill="#CF5452" transform="translate(225,57)"/>
<path d="M0 0 C0.66 0 1.32 0 2 0 C1.39644592 3.85025879 0.23227397 6.86101159 -1.5625 10.3125 C-2.01753906 11.19550781 -2.47257813 12.07851562 -2.94140625 12.98828125 C-3.29074219 13.65214844 -3.64007813 14.31601563 -4 15 C-5.1135821 11.65925369 -4.94368586 11.16426699 -3.6875 8.0625 C-3.40648437 7.36253906 -3.12546875 6.66257813 -2.8359375 5.94140625 C-1.9646663 3.91793995 -1.0495806 1.93768726 0 0 Z " fill="#A7454D" transform="translate(220,156)"/>
<path d="M0 0 C0.66 0 1.32 0 2 0 C0.35433477 5.68502535 -2.29032784 10.76681636 -5 16 C-5.33 16 -5.66 16 -6 16 C-6 14.02 -6 12.04 -6 10 C-5.34 10 -4.68 10 -4 10 C-3.71125 9.278125 -3.4225 8.55625 -3.125 7.8125 C-2.08333333 5.20833333 -1.04166667 2.60416667 0 0 Z " fill="#8B200A" transform="translate(227,132)"/>
<path d="M0 0 C1 2 1 2 0.25 4.9375 C-0.92983374 7.82809266 -1.77159314 8.96536765 -4 11 C-4.33 11.99 -4.66 12.98 -5 14 C-5.66 14 -6.32 14 -7 14 C-5.23570801 9.02790438 -2.6060834 4.56561939 0 0 Z " fill="#F09A94" transform="translate(65,165)"/>
<path d="M0 0 C0.33 0 0.66 0 1 0 C1 1.98 1 3.96 1 6 C0.01 6.33 -0.98 6.66 -2 7 C-2 7.99 -2 8.98 -2 10 C-2.66 10 -3.32 10 -4 10 C-4 11.32 -4 12.64 -4 14 C-4.99 14.33 -5.98 14.66 -7 15 C-5.45454854 9.52067211 -2.84456788 4.88570819 0 0 Z " fill="#D5BABF" transform="translate(83,153)"/>
<path d="M0 0 C0.97226335 2.59072612 1.11611108 3.69699083 0.109375 6.32421875 C-0.33921875 7.10410156 -0.7878125 7.88398437 -1.25 8.6875 C-1.68828125 9.47511719 -2.1265625 10.26273438 -2.578125 11.07421875 C-4 13 -4 13 -7 14 C-5.23570801 9.02790438 -2.6060834 4.56561939 0 0 Z " fill="#D9C0C8" transform="translate(104,115)"/>
<path d="M0 0 C0.66 1.32 1.32 2.64 2 4 C1.01 4.33 0.02 4.66 -1 5 C-1.12375 5.763125 -1.2475 6.52625 -1.375 7.3125 C-2 10 -2 10 -4 13 C-4.66 13 -5.32 13 -6 13 C-4.31326082 8.50202887 -2.18326108 4.27113698 0 0 Z " fill="#D7BEC2" transform="translate(90,140)"/>
<path d="M0 0 C0.33 0.66 0.66 1.32 1 2 C-0.93694542 5.80471422 -2.70921407 9.20283196 -6 12 C-5.73781251 7.5428126 -5.42288711 5.48477302 -2.4375 2.0625 C-1.633125 1.381875 -0.82875 0.70125 0 0 Z " fill="#EA9A93" transform="translate(95,116)"/>
<path d="M0 0 C1.32 0 2.64 0 4 0 C3.71640113 1.4391134 3.42278601 2.87625518 3.125 4.3125 C2.88136719 5.51326172 2.88136719 5.51326172 2.6328125 6.73828125 C2 9 2 9 0 12 C0 8.04 0 4.08 0 0 Z " fill="#CE3C3C" transform="translate(244,64)"/>
<path d="M0 0 C0.66 0.33 1.32 0.66 2 1 C-6.261959 7.70387244 -6.261959 7.70387244 -11 8 C-7.6378363 4.34117479 -4.63949148 1.85579659 0 0 Z " fill="#D9C3C2" transform="translate(151,43)"/>
<path d="M0 0 C1.24047386 3.58359116 0.79708746 6.33339768 0 10 C-0.33 10.66 -0.66 11.32 -1 12 C-1.66 12 -2.32 12 -3 12 C-3.34833144 7.12335991 -2.41685712 4.22949995 0 0 Z " fill="#BB7B2E" transform="translate(238,113)"/>
<path d="M0 0 C0.66 0 1.32 0 2 0 C0.79620632 4.41391016 -0.35188383 7.16257631 -4 10 C-7.25 11.25 -7.25 11.25 -10 12 C-8 9 -8 9 -5.5625 7.6875 C-2.37346378 5.58740298 -1.46405129 3.46748989 0 0 Z " fill="#C4302E" transform="translate(165,239)"/>
<path d="M0 0 C1.0625 1.8125 1.0625 1.8125 2 4 C1.67 4.99 1.34 5.98 1 7 C0.34 7 -0.32 7 -1 7 C-1.33 9.97 -1.66 12.94 -2 16 C-2.33 16 -2.66 16 -3 16 C-3.33266291 9.79029227 -2.45029331 5.71735105 0 0 Z " fill="#EB9893" transform="translate(49,194)"/>
<path d="M0 0 C3.73487777 0.4979837 5.81237635 0.87491756 9 3 C9 3.66 9 4.32 9 5 C9.99 5 10.98 5 12 5 C12 5.66 12 6.32 12 7 C9.5625 6.625 9.5625 6.625 7 6 C6.67 5.34 6.34 4.68 6 4 C4.02477154 2.95191959 2.02518491 1.9479589 0 1 C0 0.67 0 0.34 0 0 Z " fill="#D8574F" transform="translate(52,215)"/>
<path d="M0 0 C0.66 0 1.32 0 2 0 C1.58578031 4.83256305 -0.46413986 6.82679218 -4 10 C-3.43697042 6.05879291 -2.3208055 3.2491277 0 0 Z " fill="#99292F" transform="translate(208,175)"/>
<path d="M0 0 C0.68359375 1.671875 0.68359375 1.671875 1 4 C-0.21484375 6.578125 -0.21484375 6.578125 -1.9375 9.25 C-2.50339844 10.14203125 -3.06929687 11.0340625 -3.65234375 11.953125 C-4.09707031 12.62859375 -4.54179687 13.3040625 -5 14 C-6 11 -6 11 -4.78515625 8.30078125 C-4.21667969 7.31464844 -3.64820313 6.32851562 -3.0625 5.3125 C-2.49660156 4.31863281 -1.93070313 3.32476562 -1.34765625 2.30078125 C-0.90292969 1.54152344 -0.45820313 0.78226562 0 0 Z " fill="#D85953" transform="translate(240,81)"/>
<path d="M0 0 C0.33 0.99 0.66 1.98 1 3 C-0.8125 6.1875 -0.8125 6.1875 -3 9 C-3.66 9 -4.32 9 -5 9 C-5.33 9.99 -5.66 10.98 -6 12 C-6.33 11.34 -6.66 10.68 -7 10 C-6.02223933 8.51990357 -5.0427506 7.04094856 -4.0625 5.5625 C-3.51722656 4.73878906 -2.97195312 3.91507813 -2.41015625 3.06640625 C-1 1 -1 1 0 0 Z " fill="#B72222" transform="translate(173,231)"/>
<path d="M0 0 C0.33 0 0.66 0 1 0 C1.27429625 5.39449293 1.36055646 8.51925805 -2 13 C-3.18414294 9.44757118 -2.69535532 8.30169438 -1.5625 4.8125 C-1.27503906 3.91144531 -0.98757812 3.01039063 -0.69140625 2.08203125 C-0.46324219 1.39496094 -0.23507813 0.70789063 0 0 Z " fill="#DD766F" transform="translate(206,143)"/>
<path d="M0 0 C0.99 0.33 1.98 0.66 3 1 C2.37240135 3.92879371 1.41377341 6.36095629 0 9 C-0.66 9 -1.32 9 -2 9 C-1.34 6.03 -0.68 3.06 0 0 Z " fill="#BF8135" transform="translate(231,128)"/>
<path d="M0 0 C1 3 1 3 0.22265625 5.04296875 C-0.16019531 5.75066406 -0.54304688 6.45835938 -0.9375 7.1875 C-1.31777344 7.90292969 -1.69804688 8.61835937 -2.08984375 9.35546875 C-2.54037109 10.16951172 -2.54037109 10.16951172 -3 11 C-3.66 11 -4.32 11 -5 11 C-5 10.01 -5 9.02 -5 8 C-4.34 8 -3.68 8 -3 8 C-2.87625 7.236875 -2.7525 6.47375 -2.625 5.6875 C-2 3 -2 3 0 0 Z " fill="#E16F6B" transform="translate(119,77)"/>
<path d="M0 0 C6.47556391 0.61090226 6.47556391 0.61090226 8.9375 2.4375 C10 4 10 4 10 6 C8.35 5.67 6.7 5.34 5 5 C5 4.01 5 3.02 5 2 C3.35 1.67 1.7 1.34 0 1 C0 0.67 0 0.34 0 0 Z " fill="#C25C60" transform="translate(92,243)"/>
<path d="M0 0 C0.33 1.32 0.66 2.64 1 4 C0.34 4 -0.32 4 -1 4 C-1.33 6.64 -1.66 9.28 -2 12 C-2.99 12 -3.98 12 -5 12 C-4.54738642 10.56068883 -4.08767021 9.12361001 -3.625 7.6875 C-3.24214844 6.48673828 -3.24214844 6.48673828 -2.8515625 5.26171875 C-2 3 -2 3 0 0 Z " fill="#DC908C" transform="translate(189,177)"/>
<path d="M0 0 C0.33 0 0.66 0 1 0 C1.4025937 3.52269485 1.13372795 4.79940808 -0.875 7.8125 C-1.57625 8.534375 -2.2775 9.25625 -3 10 C-3.66 10 -4.32 10 -5 10 C-3.66654496 6.40992874 -2.1056769 3.20429093 0 0 Z " fill="#F1A6A2" transform="translate(88,125)"/>
<path d="M0 0 C0.66 0.99 1.32 1.98 2 3 C1.34 3 0.68 3 0 3 C0 3.99 0 4.98 0 6 C-0.66 6 -1.32 6 -2 6 C-2.33 7.65 -2.66 9.3 -3 11 C-3.66 11 -4.32 11 -5 11 C-3.77472971 6.94718288 -2.30119506 3.55639236 0 0 Z " fill="#DBC1C4" transform="translate(129,69)"/>
<path d="M0 0 C0.33 0.66 0.66 1.32 1 2 C0.00390625 4.3828125 0.00390625 4.3828125 -1.4375 7.125 C-1.91058594 8.03507812 -2.38367188 8.94515625 -2.87109375 9.8828125 C-3.24363281 10.58148438 -3.61617188 11.28015625 -4 12 C-4.33 10.68 -4.66 9.36 -5 8 C-4.34 8 -3.68 8 -3 8 C-2.87625 7.236875 -2.7525 6.47375 -2.625 5.6875 C-2 3 -2 3 0 0 Z " fill="#DB5E5B" transform="translate(114,88)"/>
<path d="M0 0 C2 1 2 1 2 1 Z M-3 2 C-2.34 2.33 -1.68 2.66 -1 3 C-2.90598443 5.43542455 -4.00596275 6.00158196 -7.0625 6.8125 C-8.5165625 6.9053125 -8.5165625 6.9053125 -10 7 C-10.66 6.34 -11.32 5.68 -12 5 C-10.88625 4.690625 -9.7725 4.38125 -8.625 4.0625 C-5.2054845 3.17673517 -5.2054845 3.17673517 -3 2 Z " fill="#B92726" transform="translate(158,249)"/>
<path d="M0 0 C1 3 1 3 0.22265625 5.04296875 C-0.16019531 5.75066406 -0.54304687 6.45835937 -0.9375 7.1875 C-1.31777344 7.90292969 -1.69804687 8.61835938 -2.08984375 9.35546875 C-2.54037109 10.16951172 -2.54037109 10.16951172 -3 11 C-4.06192476 7.73635123 -4.07454186 7.17280159 -2.625 3.8125 C-1 1 -1 1 0 0 Z " fill="#D6514C" transform="translate(188,190)"/>
<path d="M0 0 C1.62418745 -0.08090971 3.24951745 -0.13914995 4.875 -0.1875 C5.77992188 -0.22230469 6.68484375 -0.25710937 7.6171875 -0.29296875 C8.79667969 -0.14794922 8.79667969 -0.14794922 10 0 C10.66 0.99 11.32 1.98 12 3 C7.97007218 2.44687265 3.97977076 1.8441938 0 1 C0 0.67 0 0.34 0 0 Z " fill="#C25654" transform="translate(170,45)"/>
<path d="M0 0 C2.64 0 5.28 0 8 0 C8 3 8 3 7 5 C3.535 3.02 3.535 3.02 0 1 C0 0.67 0 0.34 0 0 Z " fill="#D25956" transform="translate(115,196)"/>
<path d="M0 0 C0.12375 0.639375 0.2475 1.27875 0.375 1.9375 C0.58125 2.618125 0.7875 3.29875 1 4 C1.66 4.33 2.32 4.66 3 5 C2.67 5.99 2.34 6.98 2 8 C1.01 8.33 0.02 8.66 -1 9 C-1.125 2.25 -1.125 2.25 0 0 Z " fill="#A96122" transform="translate(223,144)"/>
<path d="M0 0 C0.33 0.66 0.66 1.32 1 2 C-0.25 5.0625 -0.25 5.0625 -2 8 C-2.99 8.33 -3.98 8.66 -5 9 C-5 8.34 -5 7.68 -5 7 C-4.34 7 -3.68 7 -3 7 C-2.87625 6.21625 -2.7525 5.4325 -2.625 4.625 C-2 2 -2 2 0 0 Z " fill="#E17B73" transform="translate(85,137)"/>
<path d="M0 0 C0.33 0 0.66 0 1 0 C1.3636198 4.24223102 0.5393228 6.58168085 -2 10 C-2.66 10 -3.32 10 -4 10 C-2.8905928 6.51329166 -1.73662334 3.22515763 0 0 Z " fill="#DD8D8A" transform="translate(231,92)"/>
<path d="M0 0 C2.31 0 4.62 0 7 0 C7 0.66 7 1.32 7 2 C7.66 2 8.32 2 9 2 C9 2.66 9 3.32 9 4 C6.03 3.01 3.06 2.02 0 1 C0 0.67 0 0.34 0 0 Z " fill="#C86B72" transform="translate(102,249)"/>
<path d="M0 0 C1 3 1 3 -0.4375 6.1875 C-1.2109375 7.5796875 -1.2109375 7.5796875 -2 9 C-2.66 9 -3.32 9 -4 9 C-2.25 2.25 -2.25 2.25 0 0 Z " fill="#A64048" transform="translate(204,191)"/>
<path d="M0 0 C0 4.24645065 -1.81750806 6.38524772 -4 10 C-5 8 -5 8 -4.25 5.5625 C-3.06901019 3.14147089 -2.0168441 1.74181991 0 0 Z " fill="#EAA493" transform="translate(119,72)"/>
<path d="M0 0 C3.2542015 2.83430453 4.5206753 4.68607774 5 9 C2.5 6.75 2.5 6.75 0 4 C0 2.68 0 1.36 0 0 Z " fill="#C15C63" transform="translate(248,64)"/>
<path d="M0 0 C1.32 0 2.64 0 4 0 C4 0.99 4 1.98 4 3 C4.99 2.67 5.98 2.34 7 2 C7 2.66 7 3.32 7 4 C5.02 4 3.04 4 1 4 C0.67 2.68 0.34 1.36 0 0 Z " fill="#DB554F" transform="translate(81,227)"/>
<path d="M0 0 C0.66 0.33 1.32 0.66 2 1 C1.39816251 3.02045442 0.72693904 5.02111039 0 7 C-0.99 7.495 -0.99 7.495 -2 8 C-2.20086443 4.28400809 -2.1519437 3.22791555 0 0 Z " fill="#B92624" transform="translate(196,178)"/>
<path d="M0 0 C0.6875 1.6875 0.6875 1.6875 1 4 C-0.4375 6.75 -0.4375 6.75 -2 9 C-2.6875 7.3125 -2.6875 7.3125 -3 5 C-1.5625 2.25 -1.5625 2.25 0 0 Z " fill="#C22A2C" transform="translate(211,145)"/>
<path d="M0 0 C0.6875 1.6875 0.6875 1.6875 1 4 C-0.4375 6.75 -0.4375 6.75 -2 9 C-3.04449911 5.86650268 -2.93423645 5.01031744 -2 2 C-1.34 2 -0.68 2 0 2 C0 1.34 0 0.68 0 0 Z " fill="#C38E36" transform="translate(228,138)"/>
<path d="M0 0 C-2.46278801 2.46278801 -4.70676982 2.99771255 -8 4 C-8 3.01 -8 2.02 -8 1 C-5.29120665 -0.35439668 -2.99066732 -0.06501451 0 0 Z " fill="#B23234" transform="translate(153,42)"/>
<path d="M0 0 C-5.625 4 -5.625 4 -9 4 C-9 3.34 -9 2.68 -9 2 C-3.375 -1.125 -3.375 -1.125 0 0 Z " fill="#E98E85" transform="translate(147,40)"/>
</svg>
